  0
SECTION
  2
HEADER
  9
$ACADVER
  1
AC1014
  9
$HANDSEED
  5
FFFF
  9
$MEASUREMENT
 70
     1
  0
ENDSEC
  0
SECTION
  2
TABLES
  0
TABLE
  2
VPORT
  5
8
330
0
100
AcDbSymbolTable
 70
     4
  0
VPORT
  5
2E
330
8
100
AcDbSymbolTableRecord
100
AcDbViewportTableRecord
  2
*ACTIVE
 70
     0
 10
0.0
 20
0.0
 11
1.0
 21
1.0
 12
210.0
 22
148.5
 13
0.0
 23
0.0
 14
10.0
 24
10.0
 15
10.0
 25
10.0
 16
0.0
 26
0.0
 36
1.0
 17
0.0
 27
0.0
 37
0.0
 40
341.0
 41
1.24
 42
50.0
 43
0.0
 44
0.0
 50
0.0
 51
0.0
 71
     0
 72
   100
 73
     1
 74
     3
 75
     0
 76
     0
 77
     0
 78
     0
  0
ENDTAB
  0
TABLE
  2
LTYPE
  5
5
330
0
100
AcDbSymbolTable
 70
     1
  0
LTYPE
  5
14
330
5
100
AcDbSymbolTableRecord
100
AcDbLinetypeTableRecord
  2
BYBLOCK
 70
     0
  3

 72
    65
 73
     0
 40
0.0
  0
LTYPE
  5
15
330
5
100
AcDbSymbolTableRecord
100
AcDbLinetypeTableRecord
  2
BYLAYER
 70
     0
  3

 72
    65
 73
     0
 40
0.0
  0
LTYPE
  5
16
330
5
100
AcDbSymbolTableRecord
100
AcDbLinetypeTableRecord
  2
CONTINUOUS
 70
     0
  3
Solid line
 72
    65
 73
     0
 40
0.0
  0
ENDTAB
  0
TABLE
  2
LAYER
  5
2
100
AcDbSymbolTable
 70
4
  0
LAYER
  5
50
100
AcDbSymbolTableRecord
100
AcDbLayerTableRecord
  2
0
 70
0
  6
CONTINUOUS
  0
LAYER
  5
51
100
AcDbSymbolTableRecord
100
AcDbLayerTableRecord
  2
inner-cuts
 70
0
  6
CONTINUOUS
  0
LAYER
  5
52
100
AcDbSymbolTableRecord
100
AcDbLayerTableRecord
  2
edge
 70
0
  6
CONTINUOUS
  0
LAYER
  5
53
100
AcDbSymbolTableRecord
100
AcDbLayerTableRecord
  2
ref
 70
0
  6
CONTINUOUS
  0
ENDTAB
  0
TABLE
  2
STYLE
  5
3
330
0
100
AcDbSymbolTable
 70
     1
  0
STYLE
  5
11
330
3
100
AcDbSymbolTableRecord
100
AcDbTextStyleTableRecord
  2
STANDARD
 70
     0
 40
0.0
 41
1.0
 50
0.0
 71
     0
 42
2.5
  3
txt
  4

  0
ENDTAB
  0
TABLE
  2
VIEW
  5
6
330
0
100
AcDbSymbolTable
 70
     0
  0
ENDTAB
  0
TABLE
  2
UCS
  5
7
330
0
100
AcDbSymbolTable
 70
     0
  0
ENDTAB
  0
TABLE
  2
APPID
  5
9
330
0
100
AcDbSymbolTable
 70
     2
  0
APPID
  5
12
330
9
100
AcDbSymbolTableRecord
100
AcDbRegAppTableRecord
  2
ACAD
 70
     0
  0
ENDTAB
  0
TABLE
  2
DIMSTYLE
  5
A
330
0
100
AcDbSymbolTable
 70
     1
  0
DIMSTYLE
105
27
330
A
100
AcDbSymbolTableRecord
100
AcDbDimStyleTableRecord
  2
ISO-25
 70
     0
  3

  4

  5

  6

  7

 40
1.0
 41
2.5
 42
0.625
 43
3.75
 44
1.25
 45
0.0
 46
0.0
 47
0.0
 48
0.0
140
2.5
141
2.5
142
0.0
143
0.03937007874016
144
1.0
145
0.0
146
1.0
147
0.625
 71
     0
 72
     0
 73
     0
 74
     0
 75
     0
 76
     0
 77
     1
 78
     8
170
     0
171
     3
172
     1
173
     0
174
     0
175
     0
176
     0
177
     0
178
     0
270
     2
271
     2
272
     2
273
     2
274
     3
340
11
275
     0
280
     0
281
     0
282
     0
283
     0
284
     8
285
     0
286
     0
287
     3
288
     0
  0
ENDTAB
  0
TABLE
  2
BLOCK_RECORD
  5
1
330
0
100
AcDbSymbolTable
 70
     1
  0
BLOCK_RECORD
  5
1F
330
1
100
AcDbSymbolTableRecord
100
AcDbBlockTableRecord
  2
*MODEL_SPACE
  0
BLOCK_RECORD
  5
1B
330
1
100
AcDbSymbolTableRecord
100
AcDbBlockTableRecord
  2
*PAPER_SPACE
  0
ENDTAB
  0
ENDSEC
  0
SECTION
  2
BLOCKS
  0
BLOCK
  5
20
330
1F
100
AcDbEntity
  8
0
100
AcDbBlockBegin
  2
*MODEL_SPACE
 70
     0
 10
0.0
 20
0.0
 30
0.0
  3
*MODEL_SPACE
  1

  0
ENDBLK
  5
21
330
1F
100
AcDbEntity
  8
0
100
AcDbBlockEnd
  0
BLOCK
  5
1C
330
1B
100
AcDbEntity
 67
     1
  8
0
100
AcDbBlockBegin
  2
*PAPER_SPACE
  1

  0
ENDBLK
  5
1D
330
1B
100
AcDbEntity
 67
     1
  8
0
100
AcDbBlockEnd
  0
ENDSEC
  0
SECTION
  2
ENTITIES
  0
SPLINE
  5
100
100
AcDbEntity
  8
inner-cuts
 62
7
100
AcDbSpline
 70
8
 71
3
 72
8
 73
4
 74
0
 40
0
 40
0
 40
0
 40
0
 40
1
 40
1
 40
1
 40
1
 10
20.749149
 20
-161.893286
 30
0.0
 10
20.582949
 20
-161.893286
 30
0.0
 10
20.449425
 20
-162.026811
 30
0.0
 10
20.449425
 20
-162.193009
 30
0.0
  0
LINE
  5
101
100
AcDbEntity
  8
inner-cuts
 62
7
100
AcDbLine
 10
20.449425
 20
-162.193009
 30
0.0
 11
20.449425
 21
-198.571200
 31
0.0
  0
SPLINE
  5
102
100
AcDbEntity
  8
inner-cuts
 62
7
100
AcDbSpline
 70
8
 71
3
 72
8
 73
4
 74
0
 40
0
 40
0
 40
0
 40
0
 40
1
 40
1
 40
1
 40
1
 10
20.449425
 20
-198.571200
 30
0.0
 10
20.449425
 20
-198.737401
 30
0.0
 10
20.582949
 20
-198.871441
 30
0.0
 10
20.749149
 20
-198.871441
 30
0.0
  0
LINE
  5
103
100
AcDbEntity
  8
inner-cuts
 62
7
100
AcDbLine
 10
20.749149
 20
-198.871441
 30
0.0
 11
99.418355
 21
-198.871441
 31
0.0
  0
SPLINE
  5
104
100
AcDbEntity
  8
inner-cuts
 62
7
100
AcDbSpline
 70
8
 71
3
 72
8
 73
4
 74
0
 40
0
 40
0
 40
0
 40
0
 40
1
 40
1
 40
1
 40
1
 10
99.418355
 20
-198.871441
 30
0.0
 10
99.584553
 20
-198.871441
 30
0.0
 10
99.718594
 20
-198.737401
 30
0.0
 10
99.718594
 20
-198.571200
 30
0.0
  0
LINE
  5
105
100
AcDbEntity
  8
inner-cuts
 62
7
100
AcDbLine
 10
99.718594
 20
-198.571200
 30
0.0
 11
99.718594
 21
-192.139025
 31
0.0
  0
LINE
  5
106
100
AcDbEntity
  8
inner-cuts
 62
7
100
AcDbLine
 10
99.718594
 20
-192.139025
 30
0.0
 11
108.342369
 21
-192.139025
 31
0.0
  0
SPLINE
  5
107
100
AcDbEntity
  8
inner-cuts
 62
7
100
AcDbSpline
 70
8
 71
3
 72
8
 73
4
 74
0
 40
0
 40
0
 40
0
 40
0
 40
1
 40
1
 40
1
 40
1
 10
108.342369
 20
-192.139025
 30
0.0
 10
108.678617
 20
-192.149132
 30
0.0
 10
108.872896
 20
-191.979862
 30
0.0
 10
108.892208
 20
-191.657917
 30
0.0
  0
LINE
  5
108
100
AcDbEntity
  8
inner-cuts
 62
7
100
AcDbLine
 10
108.892208
 20
-191.657917
 30
0.0
 11
108.892208
 21
-169.014307
 31
0.0
  0
SPLINE
  5
109
100
AcDbEntity
  8
inner-cuts
 62
7
100
AcDbSpline
 70
8
 71
3
 72
8
 73
4
 74
0
 40
0
 40
0
 40
0
 40
0
 40
1
 40
1
 40
1
 40
1
 10
108.892208
 20
-169.014307
 30
0.0
 10
108.892737
 20
-168.699101
 30
0.0
 10
108.698482
 20
-168.501274
 30
0.0
 10
108.381127
 20
-168.502711
 30
0.0
  0
LINE
  5
10a
100
AcDbEntity
  8
inner-cuts
 62
7
100
AcDbLine
 10
108.381127
 20
-168.502711
 30
0.0
 11
99.718594
 21
-168.502711
 31
0.0
  0
LINE
  5
10b
100
AcDbEntity
  8
inner-cuts
 62
7
100
AcDbLine
 10
99.718594
 20
-168.502711
 30
0.0
 11
99.718594
 21
-162.193009
 31
0.0
  0
SPLINE
  5
10c
100
AcDbEntity
  8
inner-cuts
 62
7
100
AcDbSpline
 70
8
 71
3
 72
8
 73
4
 74
0
 40
0
 40
0
 40
0
 40
0
 40
1
 40
1
 40
1
 40
1
 10
99.718594
 20
-162.193009
 30
0.0
 10
99.718594
 20
-162.026811
 30
0.0
 10
99.584553
 20
-161.893286
 30
0.0
 10
99.418355
 20
-161.893286
 30
0.0
  0
LINE
  5
10d
100
AcDbEntity
  8
inner-cuts
 62
7
100
AcDbLine
 10
99.418355
 20
-161.893286
 30
0.0
 11
20.749149
 21
-161.893286
 31
0.0
  0
LINE
  5
10e
100
AcDbEntity
  8
inner-cuts
 62
7
100
AcDbLine
 10
52.937682
 20
-251.351387
 30
0.0
 11
61.057693
 21
-251.351387
 31
0.0
  0
LINE
  5
10f
100
AcDbEntity
  8
inner-cuts
 62
7
100
AcDbLine
 10
61.057693
 20
-251.351387
 30
0.0
 11
61.057693
 21
-256.931394
 31
0.0
  0
LINE
  5
110
100
AcDbEntity
  8
inner-cuts
 62
7
100
AcDbLine
 10
61.057693
 20
-256.931394
 30
0.0
 11
52.937682
 21
-256.931394
 31
0.0
  0
LINE
  5
111
100
AcDbEntity
  8
inner-cuts
 62
7
100
AcDbLine
 10
52.937682
 20
-256.931394
 30
0.0
 11
52.937682
 21
-251.351387
 31
0.0
  0
LINE
  5
112
100
AcDbEntity
  8
inner-cuts
 62
7
100
AcDbLine
 10
4.071270
 20
-187.976163
 30
0.0
 11
11.108429
 21
-180.939004
 31
0.0
  0
LINE
  5
113
100
AcDbEntity
  8
inner-cuts
 62
7
100
AcDbLine
 10
11.108429
 20
-180.939004
 30
0.0
 11
18.145588
 21
-187.976163
 31
0.0
  0
LINE
  5
114
100
AcDbEntity
  8
inner-cuts
 62
7
100
AcDbLine
 10
18.145588
 20
-187.976163
 30
0.0
 11
11.108429
 21
-195.013322
 31
0.0
  0
LINE
  5
115
100
AcDbEntity
  8
inner-cuts
 62
7
100
AcDbLine
 10
11.108429
 20
-195.013322
 30
0.0
 11
4.071270
 21
-187.976163
 31
0.0
  0
LINE
  5
116
100
AcDbEntity
  8
inner-cuts
 62
7
100
AcDbLine
 10
6.659889
 20
-170.349238
 30
0.0
 11
16.337302
 21
-170.349238
 31
0.0
  0
LINE
  5
117
100
AcDbEntity
  8
inner-cuts
 62
7
100
AcDbLine
 10
16.337302
 20
-170.349238
 30
0.0
 11
16.337302
 21
-176.394447
 31
0.0
  0
LINE
  5
118
100
AcDbEntity
  8
inner-cuts
 62
7
100
AcDbLine
 10
16.337302
 20
-176.394447
 30
0.0
 11
6.659889
 21
-176.394447
 31
0.0
  0
LINE
  5
119
100
AcDbEntity
  8
inner-cuts
 62
7
100
AcDbLine
 10
6.659889
 20
-176.394447
 30
0.0
 11
6.659889
 21
-170.349238
 31
0.0
  0
SPLINE
  5
11a
100
AcDbEntity
  8
edge
 62
2
100
AcDbSpline
 70
8
 71
3
 72
8
 73
4
 74
0
 40
0
 40
0
 40
0
 40
0
 40
1
 40
1
 40
1
 40
1
 10
56.999966
 20
-146.620294
 30
0.0
 10
40.731662
 20
-154.054793
 30
0.0
 10
23.446097
 20
-159.022982
 30
0.0
 10
5.713001
 20
-161.361106
 30
0.0
  0
SPLINE
  5
11b
100
AcDbEntity
  8
edge
 62
2
100
AcDbSpline
 70
8
 71
3
 72
8
 73
4
 74
0
 40
0
 40
0
 40
0
 40
0
 40
1
 40
1
 40
1
 40
1
 10
5.713001
 20
-161.361106
 30
0.0
 10
-0.616674
 20
-185.817576
 30
0.0
 10
0.933348
 20
-211.647855
 30
0.0
 10
10.142232
 20
-235.171887
 30
0.0
  0
SPLINE
  5
11c
100
AcDbEntity
  8
edge
 62
2
100
AcDbSpline
 70
8
 71
3
 72
8
 73
4
 74
0
 40
0
 40
0
 40
0
 40
0
 40
1
 40
1
 40
1
 40
1
 10
10.142232
 20
-235.171887
 30
0.0
 10
19.351117
 20
-258.695909
 30
0.0
 10
35.749105
 20
-278.713702
 30
0.0
 10
56.999966
 20
-292.373308
 30
0.0
  0
SPLINE
  5
11d
100
AcDbEntity
  8
edge
 62
2
100
AcDbSpline
 70
8
 71
3
 72
8
 73
4
 74
0
 40
0
 40
0
 40
0
 40
0
 40
1
 40
1
 40
1
 40
1
 10
56.999966
 20
-292.373308
 30
0.0
 10
78.251152
 20
-278.713956
 30
0.0
 10
94.649506
 20
-258.696290
 30
0.0
 10
103.858724
 20
-235.172227
 30
0.0
  0
SPLINE
  5
11e
100
AcDbEntity
  8
edge
 62
2
100
AcDbSpline
 70
8
 71
3
 72
8
 73
4
 74
0
 40
0
 40
0
 40
0
 40
0
 40
1
 40
1
 40
1
 40
1
 10
103.858724
 20
-235.172227
 30
0.0
 10
113.067938
 20
-211.648175
 30
0.0
 10
114.618235
 20
-185.817764
 30
0.0
 10
108.288734
 20
-161.361106
 30
0.0
  0
SPLINE
  5
11f
100
AcDbEntity
  8
edge
 62
2
100
AcDbSpline
 70
8
 71
3
 72
8
 73
4
 74
0
 40
0
 40
0
 40
0
 40
0
 40
1
 40
1
 40
1
 40
1
 10
108.288734
 20
-161.361106
 30
0.0
 10
90.555023
 20
-159.023157
 30
0.0
 10
73.268839
 20
-154.054966
 30
0.0
 10
56.999966
 20
-146.620294
 30
0.0
  0
LINE
  5
120
100
AcDbEntity
  8
edge
 62
2
100
AcDbLine
 10
56.999966
 20
-146.620294
 30
0.0
 11
56.999966
 21
-146.620294
 31
0.0
  0
ENDSEC
  0
SECTION
  2
OBJECTS
  0
DICTIONARY
  5
C
330
0
100
AcDbDictionary
  3
ACAD_GROUP
350
D
  3
ACAD_MLINESTYLE
350
17
  0
DICTIONARY
  5
D
330
C
100
AcDbDictionary
  0
DICTIONARY
  5
1A
330
C
100
AcDbDictionary
  0
DICTIONARY
  5
17
330
C
100
AcDbDictionary
  3
STANDARD
350
18
  0
DICTIONARY
  5
19
330
C
100
AcDbDictionary
  0
ENDSEC
  0
EOF
