  0
SECTION
  2
HEADER
  9
$ANGBASE
  50
0.0
  9
$ANGDIR
  70
1
  9
$MEASUREMENT
  70
0
  0
ENDSEC
  0
SECTION
  2
TABLES
  0
TABLE
  2
LTYPE
  70
4
  0
LTYPE
  5
40F
  2
CONTINUOUS
  70
0
  3
Solid line
  72
65
  73
0
  40
0.0
  0
LTYPE
  5
410
  2
DASHDOT
 70
0
  3
Dash Dot ____ _ ____ _
 72
65
 73
4
 40
2.0
 49
1.25
 49
-0.25
 49
0.25
 49
-0.25
  0
LTYPE
  5
411
  2
DASHED
 70
0
  3
Dashed __ __ __ __ __
 72
65
 73
2
 40
0.75
 49
0.5
 49
-0.25
  0
LTYPE
  5
43B
  2
DOTTED
 70
0
  3
Dotted .  .  .  .
 72
65
 73
2
 40
0.2
 49
0.0
 49
-0.2
  0
ENDTAB
  0
TABLE
  2
STYLE
  70
4
  0
STYLE
  2
KICAD
  70
0
  40
0
  41
1
  42
1
  50
0
  71
0
  3
isocp.shx
  0
STYLE
  2
KICADB
  70
0
  40
0
  41
1
  42
1
  50
0
  71
0
  3
isocp.shx
  0
STYLE
  2
KICADI
  70
0
  40
0
  41
1
  42
1
  50
15
  71
0
  3
isocp.shx
  0
STYLE
  2
KICADBI
  70
0
  40
0
  41
1
  42
1
  50
15
  71
0
  3
isocp.shx
  0
ENDTAB
  0
TABLE
  2
LAYER
  70
1
  0
LAYER
  2
BLACK
  70
0
  62
7
  6
CONTINUOUS
  0
ENDTAB
  0
ENDSEC
  0
SECTION
  2
ENTITIES
0
LINE
8
BLACK
6
CONTINUOUS
10
0.000458346
20
5.74028
11
0.00090378
21
5.74028
0
LINE
8
BLACK
6
CONTINUOUS
10
0.00090378
20
5.74028
11
0.0289801
21
5.72753
0
LINE
8
BLACK
6
CONTINUOUS
10
0.0289801
20
5.72753
11
0.119412
21
5.68743
0
LINE
8
BLACK
6
CONTINUOUS
10
0.119412
20
5.68743
11
0.210389
21
5.64861
0
LINE
8
BLACK
6
CONTINUOUS
10
0.210389
20
5.64861
11
0.301901
21
5.61106
0
LINE
8
BLACK
6
CONTINUOUS
10
0.301901
20
5.61106
11
0.393929
21
5.57479
0
LINE
8
BLACK
6
CONTINUOUS
10
0.393929
20
5.57479
11
0.486453
21
5.53981
0
LINE
8
BLACK
6
CONTINUOUS
10
0.486453
20
5.53981
11
0.579456
21
5.50612
0
LINE
8
BLACK
6
CONTINUOUS
10
0.579456
20
5.50612
11
0.672924
21
5.47374
0
LINE
8
BLACK
6
CONTINUOUS
10
0.672924
20
5.47374
11
0.766831
21
5.44266
0
LINE
8
BLACK
6
CONTINUOUS
10
0.766831
20
5.44266
11
0.861163
21
5.4129
0
LINE
8
BLACK
6
CONTINUOUS
10
0.861163
20
5.4129
11
0.955902
21
5.38446
0
LINE
8
BLACK
6
CONTINUOUS
10
0.955902
20
5.38446
11
1.05103
21
5.35734
0
LINE
8
BLACK
6
CONTINUOUS
10
1.05103
20
5.35734
11
1.14653
21
5.33156
0
LINE
8
BLACK
6
CONTINUOUS
10
1.14653
20
5.33156
11
1.24237
21
5.30711
0
LINE
8
BLACK
6
CONTINUOUS
10
1.24237
20
5.30711
11
1.33855
21
5.284
0
LINE
8
BLACK
6
CONTINUOUS
10
1.33855
20
5.284
11
1.43505
21
5.26223
0
LINE
8
BLACK
6
CONTINUOUS
10
1.43505
20
5.26223
11
1.53183
21
5.24182
0
LINE
8
BLACK
6
CONTINUOUS
10
1.53183
20
5.24182
11
1.62889
21
5.22276
0
LINE
8
BLACK
6
CONTINUOUS
10
1.62889
20
5.22276
11
1.72622
21
5.20505
0
LINE
8
BLACK
6
CONTINUOUS
10
1.72622
20
5.20505
11
1.82377
21
5.18871
0
LINE
8
BLACK
6
CONTINUOUS
10
1.82377
20
5.18871
11
1.92155
21
5.17373
0
LINE
8
BLACK
6
CONTINUOUS
10
1.92155
20
5.17373
11
2.01954
21
5.16011
0
LINE
8
BLACK
6
CONTINUOUS
10
2.01954
20
5.16011
11
2.02001
21
5.15993
0
LINE
8
BLACK
6
CONTINUOUS
10
2.02001
20
5.15993
11
2.02015
21
5.15994
0
LINE
8
BLACK
6
CONTINUOUS
10
2.02015
20
5.15994
11
2.02021
21
5.15986
0
LINE
8
BLACK
6
CONTINUOUS
10
2.02021
20
5.15986
11
2.02045
21
5.15977
0
LINE
8
BLACK
6
CONTINUOUS
10
2.02045
20
5.15977
11
2.02085
21
5.15909
0
LINE
8
BLACK
6
CONTINUOUS
10
2.02085
20
5.15909
11
2.02136
21
5.15848
0
LINE
8
BLACK
6
CONTINUOUS
10
2.02136
20
5.15848
11
2.04132
21
5.07848
0
LINE
8
BLACK
6
CONTINUOUS
10
2.04132
20
5.07848
11
2.04132
21
5.07845
0
LINE
8
BLACK
6
CONTINUOUS
10
2.04132
20
5.07845
11
2.04133
21
5.07844
0
LINE
8
BLACK
6
CONTINUOUS
10
2.04133
20
5.07844
11
2.05989
21
4.9981
0
LINE
8
BLACK
6
CONTINUOUS
10
2.05989
20
4.9981
11
2.05989
21
4.99807
0
LINE
8
BLACK
6
CONTINUOUS
10
2.05989
20
4.99807
11
2.0599
21
4.99806
0
LINE
8
BLACK
6
CONTINUOUS
10
2.0599
20
4.99806
11
2.07705
21
4.91741
0
LINE
8
BLACK
6
CONTINUOUS
10
2.07705
20
4.91741
11
2.07705
21
4.91739
0
LINE
8
BLACK
6
CONTINUOUS
10
2.07705
20
4.91739
11
2.07706
21
4.91737
0
LINE
8
BLACK
6
CONTINUOUS
10
2.07706
20
4.91737
11
2.09281
21
4.83644
0
LINE
8
BLACK
6
CONTINUOUS
10
2.09281
20
4.83644
11
2.09281
21
4.83641
0
LINE
8
BLACK
6
CONTINUOUS
10
2.09281
20
4.83641
11
2.09282
21
4.8364
0
LINE
8
BLACK
6
CONTINUOUS
10
2.09282
20
4.8364
11
2.10715
21
4.7552
0
LINE
8
BLACK
6
CONTINUOUS
10
2.10715
20
4.7552
11
2.10715
21
4.75517
0
LINE
8
BLACK
6
CONTINUOUS
10
2.10715
20
4.75517
11
2.10716
21
4.75516
0
LINE
8
BLACK
6
CONTINUOUS
10
2.10716
20
4.75516
11
2.12007
21
4.67372
0
LINE
8
BLACK
6
CONTINUOUS
10
2.12007
20
4.67372
11
2.12007
21
4.6737
0
LINE
8
BLACK
6
CONTINUOUS
10
2.12007
20
4.6737
11
2.12007
21
4.67369
0
LINE
8
BLACK
6
CONTINUOUS
10
2.12007
20
4.67369
11
2.13156
21
4.59203
0
LINE
8
BLACK
6
CONTINUOUS
10
2.13156
20
4.59203
11
2.13156
21
4.59201
0
LINE
8
BLACK
6
CONTINUOUS
10
2.13156
20
4.59201
11
2.13157
21
4.592
0
LINE
8
BLACK
6
CONTINUOUS
10
2.13157
20
4.592
11
2.14163
21
4.51016
0
LINE
8
BLACK
6
CONTINUOUS
10
2.14163
20
4.51016
11
2.14163
21
4.51013
0
LINE
8
BLACK
6
CONTINUOUS
10
2.14163
20
4.51013
11
2.14164
21
4.51012
0
LINE
8
BLACK
6
CONTINUOUS
10
2.14164
20
4.51012
11
2.15027
21
4.42812
0
LINE
8
BLACK
6
CONTINUOUS
10
2.15027
20
4.42812
11
2.15027
21
4.42809
0
LINE
8
BLACK
6
CONTINUOUS
10
2.15027
20
4.42809
11
2.15027
21
4.42808
0
LINE
8
BLACK
6
CONTINUOUS
10
2.15027
20
4.42808
11
2.15747
21
4.34594
0
LINE
8
BLACK
6
CONTINUOUS
10
2.15747
20
4.34594
11
2.15747
21
4.34591
0
LINE
8
BLACK
6
CONTINUOUS
10
2.15747
20
4.34591
11
2.15748
21
4.3459
0
LINE
8
BLACK
6
CONTINUOUS
10
2.15748
20
4.3459
11
2.16324
21
4.26365
0
LINE
8
BLACK
6
CONTINUOUS
10
2.16324
20
4.26365
11
2.16324
21
4.26362
0
LINE
8
BLACK
6
CONTINUOUS
10
2.16324
20
4.26362
11
2.16325
21
4.26361
0
LINE
8
BLACK
6
CONTINUOUS
10
2.16325
20
4.26361
11
2.16758
21
4.18127
0
LINE
8
BLACK
6
CONTINUOUS
10
2.16758
20
4.18127
11
2.16757
21
4.18124
0
LINE
8
BLACK
6
CONTINUOUS
10
2.16757
20
4.18124
11
2.16758
21
4.18123
0
LINE
8
BLACK
6
CONTINUOUS
10
2.16758
20
4.18123
11
2.17047
21
4.09882
0
LINE
8
BLACK
6
CONTINUOUS
10
2.17047
20
4.09882
11
2.17046
21
4.0988
0
LINE
8
BLACK
6
CONTINUOUS
10
2.17046
20
4.0988
11
2.17047
21
4.09879
0
LINE
8
BLACK
6
CONTINUOUS
10
2.17047
20
4.09879
11
2.17192
21
4.01634
0
LINE
8
BLACK
6
CONTINUOUS
10
2.17192
20
4.01634
11
2.17192
21
4.01632
0
LINE
8
BLACK
6
CONTINUOUS
10
2.17192
20
4.01632
11
2.17192
21
4.01631
0
LINE
8
BLACK
6
CONTINUOUS
10
2.17192
20
4.01631
11
2.17194
21
3.93385
0
LINE
8
BLACK
6
CONTINUOUS
10
2.17194
20
3.93385
11
2.17193
21
3.93382
0
LINE
8
BLACK
6
CONTINUOUS
10
2.17193
20
3.93382
11
2.17194
21
3.93381
0
LINE
8
BLACK
6
CONTINUOUS
10
2.17194
20
3.93381
11
2.17051
21
3.85137
0
LINE
8
BLACK
6
CONTINUOUS
10
2.17051
20
3.85137
11
2.17051
21
3.85134
0
LINE
8
BLACK
6
CONTINUOUS
10
2.17051
20
3.85134
11
2.17051
21
3.85133
0
LINE
8
BLACK
6
CONTINUOUS
10
2.17051
20
3.85133
11
2.16765
21
3.76893
0
LINE
8
BLACK
6
CONTINUOUS
10
2.16765
20
3.76893
11
2.16764
21
3.7689
0
LINE
8
BLACK
6
CONTINUOUS
10
2.16764
20
3.7689
11
2.16765
21
3.76889
0
LINE
8
BLACK
6
CONTINUOUS
10
2.16765
20
3.76889
11
2.16335
21
3.68654
0
LINE
8
BLACK
6
CONTINUOUS
10
2.16335
20
3.68654
11
2.16334
21
3.68652
0
LINE
8
BLACK
6
CONTINUOUS
10
2.16334
20
3.68652
11
2.16334
21
3.68651
0
LINE
8
BLACK
6
CONTINUOUS
10
2.16334
20
3.68651
11
2.15761
21
3.60425
0
LINE
8
BLACK
6
CONTINUOUS
10
2.15761
20
3.60425
11
2.1576
21
3.60423
0
LINE
8
BLACK
6
CONTINUOUS
10
2.1576
20
3.60423
11
2.1576
21
3.60421
0
LINE
8
BLACK
6
CONTINUOUS
10
2.1576
20
3.60421
11
2.15043
21
3.52207
0
LINE
8
BLACK
6
CONTINUOUS
10
2.15043
20
3.52207
11
2.15042
21
3.52204
0
LINE
8
BLACK
6
CONTINUOUS
10
2.15042
20
3.52204
11
2.15043
21
3.52203
0
LINE
8
BLACK
6
CONTINUOUS
10
2.15043
20
3.52203
11
2.14182
21
3.44003
0
LINE
8
BLACK
6
CONTINUOUS
10
2.14182
20
3.44003
11
2.14182
21
3.44
0
LINE
8
BLACK
6
CONTINUOUS
10
2.14182
20
3.44
11
2.14182
21
3.43999
0
LINE
8
BLACK
6
CONTINUOUS
10
2.14182
20
3.43999
11
2.13179
21
3.35815
0
LINE
8
BLACK
6
CONTINUOUS
10
2.13179
20
3.35815
11
2.13178
21
3.35812
0
LINE
8
BLACK
6
CONTINUOUS
10
2.13178
20
3.35812
11
2.13178
21
3.35811
0
LINE
8
BLACK
6
CONTINUOUS
10
2.13178
20
3.35811
11
2.12032
21
3.27645
0
LINE
8
BLACK
6
CONTINUOUS
10
2.12032
20
3.27645
11
2.12031
21
3.27643
0
LINE
8
BLACK
6
CONTINUOUS
10
2.12031
20
3.27643
11
2.12031
21
3.27642
0
LINE
8
BLACK
6
CONTINUOUS
10
2.12031
20
3.27642
11
2.10743
21
3.19497
0
LINE
8
BLACK
6
CONTINUOUS
10
2.10743
20
3.19497
11
2.10742
21
3.19495
0
LINE
8
BLACK
6
CONTINUOUS
10
2.10742
20
3.19495
11
2.10742
21
3.19494
0
LINE
8
BLACK
6
CONTINUOUS
10
2.10742
20
3.19494
11
2.09312
21
3.11373
0
LINE
8
BLACK
6
CONTINUOUS
10
2.09312
20
3.11373
11
2.09311
21
3.11371
0
LINE
8
BLACK
6
CONTINUOUS
10
2.09311
20
3.11371
11
2.09311
21
3.11369
0
LINE
8
BLACK
6
CONTINUOUS
10
2.09311
20
3.11369
11
2.07739
21
3.03275
0
LINE
8
BLACK
6
CONTINUOUS
10
2.07739
20
3.03275
11
2.07738
21
3.03272
0
LINE
8
BLACK
6
CONTINUOUS
10
2.07738
20
3.03272
11
2.07739
21
3.03271
0
LINE
8
BLACK
6
CONTINUOUS
10
2.07739
20
3.03271
11
2.06026
21
2.95206
0
LINE
8
BLACK
6
CONTINUOUS
10
2.06026
20
2.95206
11
2.06024
21
2.95203
0
LINE
8
BLACK
6
CONTINUOUS
10
2.06024
20
2.95203
11
2.06025
21
2.95202
0
LINE
8
BLACK
6
CONTINUOUS
10
2.06025
20
2.95202
11
2.04171
21
2.87167
0
LINE
8
BLACK
6
CONTINUOUS
10
2.04171
20
2.87167
11
2.0417
21
2.87165
0
LINE
8
BLACK
6
CONTINUOUS
10
2.0417
20
2.87165
11
2.0417
21
2.87164
0
LINE
8
BLACK
6
CONTINUOUS
10
2.0417
20
2.87164
11
2.02177
21
2.79163
0
LINE
8
BLACK
6
CONTINUOUS
10
2.02177
20
2.79163
11
2.02176
21
2.7916
0
LINE
8
BLACK
6
CONTINUOUS
10
2.02176
20
2.7916
11
2.02176
21
2.79159
0
LINE
8
BLACK
6
CONTINUOUS
10
2.02176
20
2.79159
11
2.00043
21
2.71194
0
LINE
8
BLACK
6
CONTINUOUS
10
2.00043
20
2.71194
11
2.00042
21
2.71192
0
LINE
8
BLACK
6
CONTINUOUS
10
2.00042
20
2.71192
11
2.00042
21
2.7119
0
LINE
8
BLACK
6
CONTINUOUS
10
2.00042
20
2.7119
11
1.97771
21
2.63264
0
LINE
8
BLACK
6
CONTINUOUS
10
1.97771
20
2.63264
11
1.9777
21
2.63261
0
LINE
8
BLACK
6
CONTINUOUS
10
1.9777
20
2.63261
11
1.9777
21
2.6326
0
LINE
8
BLACK
6
CONTINUOUS
10
1.9777
20
2.6326
11
1.95361
21
2.55374
0
LINE
8
BLACK
6
CONTINUOUS
10
1.95361
20
2.55374
11
1.95359
21
2.55372
0
LINE
8
BLACK
6
CONTINUOUS
10
1.95359
20
2.55372
11
1.95359
21
2.55371
0
LINE
8
BLACK
6
CONTINUOUS
10
1.95359
20
2.55371
11
1.92813
21
2.47528
0
LINE
8
BLACK
6
CONTINUOUS
10
1.92813
20
2.47528
11
1.92811
21
2.47526
0
LINE
8
BLACK
6
CONTINUOUS
10
1.92811
20
2.47526
11
1.92812
21
2.47525
0
LINE
8
BLACK
6
CONTINUOUS
10
1.92812
20
2.47525
11
1.90128
21
2.39728
0
LINE
8
BLACK
6
CONTINUOUS
10
1.90128
20
2.39728
11
1.90127
21
2.39726
0
LINE
8
BLACK
6
CONTINUOUS
10
1.90127
20
2.39726
11
1.90127
21
2.39724
0
LINE
8
BLACK
6
CONTINUOUS
10
1.90127
20
2.39724
11
1.87308
21
2.31976
0
LINE
8
BLACK
6
CONTINUOUS
10
1.87308
20
2.31976
11
1.87307
21
2.31973
0
LINE
8
BLACK
6
CONTINUOUS
10
1.87307
20
2.31973
11
1.87307
21
2.31972
0
LINE
8
BLACK
6
CONTINUOUS
10
1.87307
20
2.31972
11
1.84353
21
2.24274
0
LINE
8
BLACK
6
CONTINUOUS
10
1.84353
20
2.24274
11
1.84352
21
2.24271
0
LINE
8
BLACK
6
CONTINUOUS
10
1.84352
20
2.24271
11
1.84352
21
2.2427
0
LINE
8
BLACK
6
CONTINUOUS
10
1.84352
20
2.2427
11
1.81265
21
2.16624
0
LINE
8
BLACK
6
CONTINUOUS
10
1.81265
20
2.16624
11
1.81263
21
2.16622
0
LINE
8
BLACK
6
CONTINUOUS
10
1.81263
20
2.16622
11
1.81263
21
2.16621
0
LINE
8
BLACK
6
CONTINUOUS
10
1.81263
20
2.16621
11
1.78043
21
2.0903
0
LINE
8
BLACK
6
CONTINUOUS
10
1.78043
20
2.0903
11
1.78041
21
2.09028
0
LINE
8
BLACK
6
CONTINUOUS
10
1.78041
20
2.09028
11
1.78041
21
2.09027
0
LINE
8
BLACK
6
CONTINUOUS
10
1.78041
20
2.09027
11
1.74689
21
2.01493
0
LINE
8
BLACK
6
CONTINUOUS
10
1.74689
20
2.01493
11
1.74687
21
2.01491
0
LINE
8
BLACK
6
CONTINUOUS
10
1.74687
20
2.01491
11
1.74687
21
2.0149
0
LINE
8
BLACK
6
CONTINUOUS
10
1.74687
20
2.0149
11
1.71204
21
1.94016
0
LINE
8
BLACK
6
CONTINUOUS
10
1.71204
20
1.94016
11
1.71202
21
1.94014
0
LINE
8
BLACK
6
CONTINUOUS
10
1.71202
20
1.94014
11
1.71202
21
1.94013
0
LINE
8
BLACK
6
CONTINUOUS
10
1.71202
20
1.94013
11
1.67589
21
1.86601
0
LINE
8
BLACK
6
CONTINUOUS
10
1.67589
20
1.86601
11
1.67587
21
1.86599
0
LINE
8
BLACK
6
CONTINUOUS
10
1.67587
20
1.86599
11
1.67587
21
1.86598
0
LINE
8
BLACK
6
CONTINUOUS
10
1.67587
20
1.86598
11
1.63845
21
1.7925
0
LINE
8
BLACK
6
CONTINUOUS
10
1.63845
20
1.7925
11
1.63843
21
1.79248
0
LINE
8
BLACK
6
CONTINUOUS
10
1.63843
20
1.79248
11
1.63843
21
1.79247
0
LINE
8
BLACK
6
CONTINUOUS
10
1.63843
20
1.79247
11
1.59973
21
1.71966
0
LINE
8
BLACK
6
CONTINUOUS
10
1.59973
20
1.71966
11
1.59972
21
1.71964
0
LINE
8
BLACK
6
CONTINUOUS
10
1.59972
20
1.71964
11
1.59972
21
1.71963
0
LINE
8
BLACK
6
CONTINUOUS
10
1.59972
20
1.71963
11
1.55975
21
1.6475
0
LINE
8
BLACK
6
CONTINUOUS
10
1.55975
20
1.6475
11
1.55974
21
1.64748
0
LINE
8
BLACK
6
CONTINUOUS
10
1.55974
20
1.64748
11
1.55973
21
1.64747
0
LINE
8
BLACK
6
CONTINUOUS
10
1.55973
20
1.64747
11
1.51852
21
1.57605
0
LINE
8
BLACK
6
CONTINUOUS
10
1.51852
20
1.57605
11
1.5185
21
1.57603
0
LINE
8
BLACK
6
CONTINUOUS
10
1.5185
20
1.57603
11
1.5185
21
1.57602
0
LINE
8
BLACK
6
CONTINUOUS
10
1.5185
20
1.57602
11
1.47604
21
1.50533
0
LINE
8
BLACK
6
CONTINUOUS
10
1.47604
20
1.50533
11
1.47603
21
1.50531
0
LINE
8
BLACK
6
CONTINUOUS
10
1.47603
20
1.50531
11
1.47602
21
1.5053
0
LINE
8
BLACK
6
CONTINUOUS
10
1.47602
20
1.5053
11
1.43234
21
1.43537
0
LINE
8
BLACK
6
CONTINUOUS
10
1.43234
20
1.43537
11
1.43232
21
1.43535
0
LINE
8
BLACK
6
CONTINUOUS
10
1.43232
20
1.43535
11
1.43232
21
1.43534
0
LINE
8
BLACK
6
CONTINUOUS
10
1.43232
20
1.43534
11
1.38743
21
1.36617
0
LINE
8
BLACK
6
CONTINUOUS
10
1.38743
20
1.36617
11
1.38741
21
1.36616
0
LINE
8
BLACK
6
CONTINUOUS
10
1.38741
20
1.36616
11
1.3874
21
1.36614
0
LINE
8
BLACK
6
CONTINUOUS
10
1.3874
20
1.36614
11
1.34131
21
1.29778
0
LINE
8
BLACK
6
CONTINUOUS
10
1.34131
20
1.29778
11
1.34129
21
1.29776
0
LINE
8
BLACK
6
CONTINUOUS
10
1.34129
20
1.29776
11
1.34129
21
1.29774
0
LINE
8
BLACK
6
CONTINUOUS
10
1.34129
20
1.29774
11
1.294
21
1.23019
0
LINE
8
BLACK
6
CONTINUOUS
10
1.294
20
1.23019
11
1.29398
21
1.23017
0
LINE
8
BLACK
6
CONTINUOUS
10
1.29398
20
1.23017
11
1.29398
21
1.23016
0
LINE
8
BLACK
6
CONTINUOUS
10
1.29398
20
1.23016
11
1.24553
21
1.16345
0
LINE
8
BLACK
6
CONTINUOUS
10
1.24553
20
1.16345
11
1.24551
21
1.16343
0
LINE
8
BLACK
6
CONTINUOUS
10
1.24551
20
1.16343
11
1.2455
21
1.16341
0
LINE
8
BLACK
6
CONTINUOUS
10
1.2455
20
1.16341
11
1.19589
21
1.09755
0
LINE
8
BLACK
6
CONTINUOUS
10
1.19589
20
1.09755
11
1.19587
21
1.09754
0
LINE
8
BLACK
6
CONTINUOUS
10
1.19587
20
1.09754
11
1.19587
21
1.09752
0
LINE
8
BLACK
6
CONTINUOUS
10
1.19587
20
1.09752
11
1.14512
21
1.03254
0
LINE
8
BLACK
6
CONTINUOUS
10
1.14512
20
1.03254
11
1.1451
21
1.03252
0
LINE
8
BLACK
6
CONTINUOUS
10
1.1451
20
1.03252
11
1.14509
21
1.03251
0
LINE
8
BLACK
6
CONTINUOUS
10
1.14509
20
1.03251
11
1.09321
21
0.96842
0
LINE
8
BLACK
6
CONTINUOUS
10
1.09321
20
0.96842
11
1.09319
21
0.968404
0
LINE
8
BLACK
6
CONTINUOUS
10
1.09319
20
0.968404
11
1.09319
21
0.968391
0
LINE
8
BLACK
6
CONTINUOUS
10
1.09319
20
0.968391
11
1.0402
21
0.905217
0
LINE
8
BLACK
6
CONTINUOUS
10
1.0402
20
0.905217
11
1.04018
21
0.905201
0
LINE
8
BLACK
6
CONTINUOUS
10
1.04018
20
0.905201
11
1.04017
21
0.905188
0
LINE
8
BLACK
6
CONTINUOUS
10
1.04017
20
0.905188
11
0.986089
21
0.842949
0
LINE
8
BLACK
6
CONTINUOUS
10
0.986089
20
0.842949
11
0.986067
21
0.842933
0
LINE
8
BLACK
6
CONTINUOUS
10
0.986067
20
0.842933
11
0.986063
21
0.84292
0
LINE
8
BLACK
6
CONTINUOUS
10
0.986063
20
0.84292
11
0.930901
21
0.781634
0
LINE
8
BLACK
6
CONTINUOUS
10
0.930901
20
0.781634
11
0.930879
21
0.781619
0
LINE
8
BLACK
6
CONTINUOUS
10
0.930879
20
0.781619
11
0.930875
21
0.781606
0
LINE
8
BLACK
6
CONTINUOUS
10
0.930875
20
0.781606
11
0.874651
21
0.721292
0
LINE
8
BLACK
6
CONTINUOUS
10
0.874651
20
0.721292
11
0.874629
21
0.721277
0
LINE
8
BLACK
6
CONTINUOUS
10
0.874629
20
0.721277
11
0.874625
21
0.721264
0
LINE
8
BLACK
6
CONTINUOUS
10
0.874625
20
0.721264
11
0.817357
21
0.661941
0
LINE
8
BLACK
6
CONTINUOUS
10
0.817357
20
0.661941
11
0.817335
21
0.661926
0
LINE
8
BLACK
6
CONTINUOUS
10
0.817335
20
0.661926
11
0.81733
21
0.661914
0
LINE
8
BLACK
6
CONTINUOUS
10
0.81733
20
0.661914
11
0.759035
21
0.603599
0
LINE
8
BLACK
6
CONTINUOUS
10
0.759035
20
0.603599
11
0.759013
21
0.603584
0
LINE
8
BLACK
6
CONTINUOUS
10
0.759013
20
0.603584
11
0.759008
21
0.603572
0
LINE
8
BLACK
6
CONTINUOUS
10
0.759008
20
0.603572
11
0.699705
21
0.546283
0
LINE
8
BLACK
6
CONTINUOUS
10
0.699705
20
0.546283
11
0.699682
21
0.546269
0
LINE
8
BLACK
6
CONTINUOUS
10
0.699682
20
0.546269
11
0.699677
21
0.546257
0
LINE
8
BLACK
6
CONTINUOUS
10
0.699677
20
0.546257
11
0.639383
21
0.490012
0
LINE
8
BLACK
6
CONTINUOUS
10
0.639383
20
0.490012
11
0.63936
21
0.489998
0
LINE
8
BLACK
6
CONTINUOUS
10
0.63936
20
0.489998
11
0.639355
21
0.489986
0
LINE
8
BLACK
6
CONTINUOUS
10
0.639355
20
0.489986
11
0.578088
21
0.434802
0
LINE
8
BLACK
6
CONTINUOUS
10
0.578088
20
0.434802
11
0.578065
21
0.434789
0
LINE
8
BLACK
6
CONTINUOUS
10
0.578065
20
0.434789
11
0.57806
21
0.434777
0
LINE
8
BLACK
6
CONTINUOUS
10
0.57806
20
0.434777
11
0.515839
21
0.38067
0
LINE
8
BLACK
6
CONTINUOUS
10
0.515839
20
0.38067
11
0.515816
21
0.380657
0
LINE
8
BLACK
6
CONTINUOUS
10
0.515816
20
0.380657
11
0.51581
21
0.380645
0
LINE
8
BLACK
6
CONTINUOUS
10
0.51581
20
0.380645
11
0.452655
21
0.327633
0
LINE
8
BLACK
6
CONTINUOUS
10
0.452655
20
0.327633
11
0.452631
21
0.327621
0
LINE
8
BLACK
6
CONTINUOUS
10
0.452631
20
0.327621
11
0.452626
21
0.327609
0
LINE
8
BLACK
6
CONTINUOUS
10
0.452626
20
0.327609
11
0.388555
21
0.275706
0
LINE
8
BLACK
6
CONTINUOUS
10
0.388555
20
0.275706
11
0.388531
21
0.275695
0
LINE
8
BLACK
6
CONTINUOUS
10
0.388531
20
0.275695
11
0.388525
21
0.275683
0
LINE
8
BLACK
6
CONTINUOUS
10
0.388525
20
0.275683
11
0.323558
21
0.224907
0
LINE
8
BLACK
6
CONTINUOUS
10
0.323558
20
0.224907
11
0.323534
21
0.224895
0
LINE
8
BLACK
6
CONTINUOUS
10
0.323534
20
0.224895
11
0.323528
21
0.224883
0
LINE
8
BLACK
6
CONTINUOUS
10
0.323528
20
0.224883
11
0.257685
21
0.175249
0
LINE
8
BLACK
6
CONTINUOUS
10
0.257685
20
0.175249
11
0.25766
21
0.175238
0
LINE
8
BLACK
6
CONTINUOUS
10
0.25766
20
0.175238
11
0.257654
21
0.175226
0
LINE
8
BLACK
6
CONTINUOUS
10
0.257654
20
0.175226
11
0.190955
21
0.126749
0
LINE
8
BLACK
6
CONTINUOUS
10
0.190955
20
0.126749
11
0.19093
21
0.126738
0
LINE
8
BLACK
6
CONTINUOUS
10
0.19093
20
0.126738
11
0.190923
21
0.126726
0
LINE
8
BLACK
6
CONTINUOUS
10
0.190923
20
0.126726
11
0.123388
21
0.07942
0
LINE
8
BLACK
6
CONTINUOUS
10
0.123388
20
0.07942
11
0.123364
21
0.07941
0
LINE
8
BLACK
6
CONTINUOUS
10
0.123364
20
0.07941
11
0.123357
21
0.0793984
0
LINE
8
BLACK
6
CONTINUOUS
10
0.123357
20
0.0793984
11
0.0550062
21
0.0332779
0
LINE
8
BLACK
6
CONTINUOUS
10
0.0550062
20
0.0332779
11
0.0549842
21
0.0332694
0
LINE
8
BLACK
6
CONTINUOUS
10
0.0549842
20
0.0332694
11
0.054978
21
0.0332592
0
LINE
8
BLACK
6
CONTINUOUS
10
0.054978
20
0.0332592
11
0.00119378
21
-0.00182988
0
LINE
8
BLACK
6
CONTINUOUS
10
0.00119378
20
-0.00182988
11
0.000777913
21
-0.00198307
0
LINE
8
BLACK
6
CONTINUOUS
10
0.000777913
20
-0.00198307
11
0.00068126
21
-0.00207598
0
LINE
8
BLACK
6
CONTINUOUS
10
0.00068126
20
-0.00207598
11
0.000566772
21
-0.00206083
0
LINE
8
BLACK
6
CONTINUOUS
10
0.000566772
20
-0.00206083
11
0.000278346
21
-0.00216709
0
LINE
8
BLACK
6
CONTINUOUS
10
0.000278346
20
-0.00216709
11
-0.000443465
21
-0.00192724
0
LINE
8
BLACK
6
CONTINUOUS
10
-0.000443465
20
-0.00192724
11
-0.00119736
21
-0.00182756
0
LINE
8
BLACK
6
CONTINUOUS
10
-0.00119736
20
-0.00182756
11
-0.070168
21
0.0433606
0
LINE
8
BLACK
6
CONTINUOUS
10
-0.070168
20
0.0433606
11
-0.0701864
21
0.0433798
0
LINE
8
BLACK
6
CONTINUOUS
10
-0.0701864
20
0.0433798
11
-0.0701996
21
0.0433817
0
LINE
8
BLACK
6
CONTINUOUS
10
-0.0701996
20
0.0433817
11
-0.138371
21
0.0897666
0
LINE
8
BLACK
6
CONTINUOUS
10
-0.138371
20
0.0897666
11
-0.138389
21
0.0897861
0
LINE
8
BLACK
6
CONTINUOUS
10
-0.138389
20
0.0897861
11
-0.138402
21
0.0897883
0
LINE
8
BLACK
6
CONTINUOUS
10
-0.138402
20
0.0897883
11
-0.205754
21
0.137356
0
LINE
8
BLACK
6
CONTINUOUS
10
-0.205754
20
0.137356
11
-0.205772
21
0.137376
0
LINE
8
BLACK
6
CONTINUOUS
10
-0.205772
20
0.137376
11
-0.205785
21
0.137378
0
LINE
8
BLACK
6
CONTINUOUS
10
-0.205785
20
0.137378
11
-0.272296
21
0.186114
0
LINE
8
BLACK
6
CONTINUOUS
10
-0.272296
20
0.186114
11
-0.272313
21
0.186134
0
LINE
8
BLACK
6
CONTINUOUS
10
-0.272313
20
0.186134
11
-0.272326
21
0.186137
0
LINE
8
BLACK
6
CONTINUOUS
10
-0.272326
20
0.186137
11
-0.337977
21
0.236026
0
LINE
8
BLACK
6
CONTINUOUS
10
-0.337977
20
0.236026
11
-0.337994
21
0.236046
0
LINE
8
BLACK
6
CONTINUOUS
10
-0.337994
20
0.236046
11
-0.338007
21
0.236049
0
LINE
8
BLACK
6
CONTINUOUS
10
-0.338007
20
0.236049
11
-0.402777
21
0.287077
0
LINE
8
BLACK
6
CONTINUOUS
10
-0.402777
20
0.287077
11
-0.402793
21
0.287097
0
LINE
8
BLACK
6
CONTINUOUS
10
-0.402793
20
0.287097
11
-0.402806
21
0.287101
0
LINE
8
BLACK
6
CONTINUOUS
10
-0.402806
20
0.287101
11
-0.466676
21
0.33925
0
LINE
8
BLACK
6
CONTINUOUS
10
-0.466676
20
0.33925
11
-0.466692
21
0.339271
0
LINE
8
BLACK
6
CONTINUOUS
10
-0.466692
20
0.339271
11
-0.466705
21
0.339275
0
LINE
8
BLACK
6
CONTINUOUS
10
-0.466705
20
0.339275
11
-0.529655
21
0.392531
0
LINE
8
BLACK
6
CONTINUOUS
10
-0.529655
20
0.392531
11
-0.529671
21
0.392553
0
LINE
8
BLACK
6
CONTINUOUS
10
-0.529671
20
0.392553
11
-0.529683
21
0.392556
0
LINE
8
BLACK
6
CONTINUOUS
10
-0.529683
20
0.392556
11
-0.591694
21
0.446904
0
LINE
8
BLACK
6
CONTINUOUS
10
-0.591694
20
0.446904
11
-0.591709
21
0.446925
0
LINE
8
BLACK
6
CONTINUOUS
10
-0.591709
20
0.446925
11
-0.591722
21
0.446929
0
LINE
8
BLACK
6
CONTINUOUS
10
-0.591722
20
0.446929
11
-0.652775
21
0.50235
0
LINE
8
BLACK
6
CONTINUOUS
10
-0.652775
20
0.50235
11
-0.65279
21
0.502372
0
LINE
8
BLACK
6
CONTINUOUS
10
-0.65279
20
0.502372
11
-0.652803
21
0.502376
0
LINE
8
BLACK
6
CONTINUOUS
10
-0.652803
20
0.502376
11
-0.712879
21
0.558854
0
LINE
8
BLACK
6
CONTINUOUS
10
-0.712879
20
0.558854
11
-0.712893
21
0.558876
0
LINE
8
BLACK
6
CONTINUOUS
10
-0.712893
20
0.558876
11
-0.712906
21
0.558881
0
LINE
8
BLACK
6
CONTINUOUS
10
-0.712906
20
0.558881
11
-0.771987
21
0.616399
0
LINE
8
BLACK
6
CONTINUOUS
10
-0.771987
20
0.616399
11
-0.772002
21
0.616421
0
LINE
8
BLACK
6
CONTINUOUS
10
-0.772002
20
0.616421
11
-0.772014
21
0.616425
0
LINE
8
BLACK
6
CONTINUOUS
10
-0.772014
20
0.616425
11
-0.830083
21
0.674966
0
LINE
8
BLACK
6
CONTINUOUS
10
-0.830083
20
0.674966
11
-0.830097
21
0.674988
0
LINE
8
BLACK
6
CONTINUOUS
10
-0.830097
20
0.674988
11
-0.830109
21
0.674993
0
LINE
8
BLACK
6
CONTINUOUS
10
-0.830109
20
0.674993
11
-0.887147
21
0.734538
0
LINE
8
BLACK
6
CONTINUOUS
10
-0.887147
20
0.734538
11
-0.887161
21
0.734561
0
LINE
8
BLACK
6
CONTINUOUS
10
-0.887161
20
0.734561
11
-0.887173
21
0.734566
0
LINE
8
BLACK
6
CONTINUOUS
10
-0.887173
20
0.734566
11
-0.943163
21
0.795097
0
LINE
8
BLACK
6
CONTINUOUS
10
-0.943163
20
0.795097
11
-0.943176
21
0.79512
0
LINE
8
BLACK
6
CONTINUOUS
10
-0.943176
20
0.79512
11
-0.943189
21
0.795125
0
LINE
8
BLACK
6
CONTINUOUS
10
-0.943189
20
0.795125
11
-0.998113
21
0.856625
0
LINE
8
BLACK
6
CONTINUOUS
10
-0.998113
20
0.856625
11
-0.998126
21
0.856648
0
LINE
8
BLACK
6
CONTINUOUS
10
-0.998126
20
0.856648
11
-0.998139
21
0.856653
0
LINE
8
BLACK
6
CONTINUOUS
10
-0.998139
20
0.856653
11
-1.05198
21
0.919102
0
LINE
8
BLACK
6
CONTINUOUS
10
-1.05198
20
0.919102
11
-1.05199
21
0.919125
0
LINE
8
BLACK
6
CONTINUOUS
10
-1.05199
20
0.919125
11
-1.05201
21
0.919131
0
LINE
8
BLACK
6
CONTINUOUS
10
-1.05201
20
0.919131
11
-1.10475
21
0.982509
0
LINE
8
BLACK
6
CONTINUOUS
10
-1.10475
20
0.982509
11
-1.10476
21
0.982533
0
LINE
8
BLACK
6
CONTINUOUS
10
-1.10476
20
0.982533
11
-1.10478
21
0.982539
0
LINE
8
BLACK
6
CONTINUOUS
10
-1.10478
20
0.982539
11
-1.15641
21
1.04683
0
LINE
8
BLACK
6
CONTINUOUS
10
-1.15641
20
1.04683
11
-1.15642
21
1.04685
0
LINE
8
BLACK
6
CONTINUOUS
10
-1.15642
20
1.04685
11
-1.15643
21
1.04686
0
LINE
8
BLACK
6
CONTINUOUS
10
-1.15643
20
1.04686
11
-1.20693
21
1.11204
0
LINE
8
BLACK
6
CONTINUOUS
10
-1.20693
20
1.11204
11
-1.20694
21
1.11206
0
LINE
8
BLACK
6
CONTINUOUS
10
-1.20694
20
1.11206
11
-1.20695
21
1.11207
0
LINE
8
BLACK
6
CONTINUOUS
10
-1.20695
20
1.11207
11
-1.25631
21
1.17812
0
LINE
8
BLACK
6
CONTINUOUS
10
-1.25631
20
1.17812
11
-1.25632
21
1.17815
0
LINE
8
BLACK
6
CONTINUOUS
10
-1.25632
20
1.17815
11
-1.25633
21
1.17815
0
LINE
8
BLACK
6
CONTINUOUS
10
-1.25633
20
1.17815
11
-1.30453
21
1.24506
0
LINE
8
BLACK
6
CONTINUOUS
10
-1.30453
20
1.24506
11
-1.30454
21
1.24508
0
LINE
8
BLACK
6
CONTINUOUS
10
-1.30454
20
1.24508
11
-1.30455
21
1.24509
0
LINE
8
BLACK
6
CONTINUOUS
10
-1.30455
20
1.24509
11
-1.35157
21
1.31282
0
LINE
8
BLACK
6
CONTINUOUS
10
-1.35157
20
1.31282
11
-1.35158
21
1.31285
0
LINE
8
BLACK
6
CONTINUOUS
10
-1.35158
20
1.31285
11
-1.35159
21
1.31285
0
LINE
8
BLACK
6
CONTINUOUS
10
-1.35159
20
1.31285
11
-1.39742
21
1.3814
0
LINE
8
BLACK
6
CONTINUOUS
10
-1.39742
20
1.3814
11
-1.39743
21
1.38142
0
LINE
8
BLACK
6
CONTINUOUS
10
-1.39743
20
1.38142
11
-1.39745
21
1.38143
0
LINE
8
BLACK
6
CONTINUOUS
10
-1.39745
20
1.38143
11
-1.44207
21
1.45076
0
LINE
8
BLACK
6
CONTINUOUS
10
-1.44207
20
1.45076
11
-1.44208
21
1.45079
0
LINE
8
BLACK
6
CONTINUOUS
10
-1.44208
20
1.45079
11
-1.44209
21
1.4508
0
LINE
8
BLACK
6
CONTINUOUS
10
-1.44209
20
1.4508
11
-1.4855
21
1.5209
0
LINE
8
BLACK
6
CONTINUOUS
10
-1.4855
20
1.5209
11
-1.48551
21
1.52092
0
LINE
8
BLACK
6
CONTINUOUS
10
-1.48551
20
1.52092
11
-1.48552
21
1.52093
0
LINE
8
BLACK
6
CONTINUOUS
10
-1.48552
20
1.52093
11
-1.52771
21
1.59178
0
LINE
8
BLACK
6
CONTINUOUS
10
-1.52771
20
1.59178
11
-1.52771
21
1.59181
0
LINE
8
BLACK
6
CONTINUOUS
10
-1.52771
20
1.59181
11
-1.52772
21
1.59181
0
LINE
8
BLACK
6
CONTINUOUS
10
-1.52772
20
1.59181
11
-1.56866
21
1.66339
0
LINE
8
BLACK
6
CONTINUOUS
10
-1.56866
20
1.66339
11
-1.56867
21
1.66341
0
LINE
8
BLACK
6
CONTINUOUS
10
-1.56867
20
1.66341
11
-1.56868
21
1.66342
0
LINE
8
BLACK
6
CONTINUOUS
10
-1.56868
20
1.66342
11
-1.60836
21
1.7357
0
LINE
8
BLACK
6
CONTINUOUS
10
-1.60836
20
1.7357
11
-1.60837
21
1.73573
0
LINE
8
BLACK
6
CONTINUOUS
10
-1.60837
20
1.73573
11
-1.60838
21
1.73573
0
LINE
8
BLACK
6
CONTINUOUS
10
-1.60838
20
1.73573
11
-1.6468
21
1.80869
0
LINE
8
BLACK
6
CONTINUOUS
10
-1.6468
20
1.80869
11
-1.6468
21
1.80872
0
LINE
8
BLACK
6
CONTINUOUS
10
-1.6468
20
1.80872
11
-1.64682
21
1.80873
0
LINE
8
BLACK
6
CONTINUOUS
10
-1.64682
20
1.80873
11
-1.68395
21
1.88235
0
LINE
8
BLACK
6
CONTINUOUS
10
-1.68395
20
1.88235
11
-1.68396
21
1.88237
0
LINE
8
BLACK
6
CONTINUOUS
10
-1.68396
20
1.88237
11
-1.68397
21
1.88238
0
LINE
8
BLACK
6
CONTINUOUS
10
-1.68397
20
1.88238
11
-1.71981
21
1.95664
0
LINE
8
BLACK
6
CONTINUOUS
10
-1.71981
20
1.95664
11
-1.71982
21
1.95666
0
LINE
8
BLACK
6
CONTINUOUS
10
-1.71982
20
1.95666
11
-1.71983
21
1.95667
0
LINE
8
BLACK
6
CONTINUOUS
10
-1.71983
20
1.95667
11
-1.75437
21
2.03154
0
LINE
8
BLACK
6
CONTINUOUS
10
-1.75437
20
2.03154
11
-1.75438
21
2.03157
0
LINE
8
BLACK
6
CONTINUOUS
10
-1.75438
20
2.03157
11
-1.75439
21
2.03158
0
LINE
8
BLACK
6
CONTINUOUS
10
-1.75439
20
2.03158
11
-1.78762
21
2.10704
0
LINE
8
BLACK
6
CONTINUOUS
10
-1.78762
20
2.10704
11
-1.78763
21
2.10707
0
LINE
8
BLACK
6
CONTINUOUS
10
-1.78763
20
2.10707
11
-1.78764
21
2.10707
0
LINE
8
BLACK
6
CONTINUOUS
10
-1.78764
20
2.10707
11
-1.81955
21
2.1831
0
LINE
8
BLACK
6
CONTINUOUS
10
-1.81955
20
2.1831
11
-1.81955
21
2.18313
0
LINE
8
BLACK
6
CONTINUOUS
10
-1.81955
20
2.18313
11
-1.81956
21
2.18314
0
LINE
8
BLACK
6
CONTINUOUS
10
-1.81956
20
2.18314
11
-1.85014
21
2.25972
0
LINE
8
BLACK
6
CONTINUOUS
10
-1.85014
20
2.25972
11
-1.85015
21
2.25974
0
LINE
8
BLACK
6
CONTINUOUS
10
-1.85015
20
2.25974
11
-1.85016
21
2.25975
0
LINE
8
BLACK
6
CONTINUOUS
10
-1.85016
20
2.25975
11
-1.87939
21
2.33685
0
LINE
8
BLACK
6
CONTINUOUS
10
-1.87939
20
2.33685
11
-1.8794
21
2.33688
0
LINE
8
BLACK
6
CONTINUOUS
10
-1.8794
20
2.33688
11
-1.87941
21
2.33689
0
LINE
8
BLACK
6
CONTINUOUS
10
-1.87941
20
2.33689
11
-1.90729
21
2.41448
0
LINE
8
BLACK
6
CONTINUOUS
10
-1.90729
20
2.41448
11
-1.9073
21
2.41451
0
LINE
8
BLACK
6
CONTINUOUS
10
-1.9073
20
2.41451
11
-1.90731
21
2.41452
0
LINE
8
BLACK
6
CONTINUOUS
10
-1.90731
20
2.41452
11
-1.93383
21
2.49259
0
LINE
8
BLACK
6
CONTINUOUS
10
-1.93383
20
2.49259
11
-1.93384
21
2.49262
0
LINE
8
BLACK
6
CONTINUOUS
10
-1.93384
20
2.49262
11
-1.93385
21
2.49262
0
LINE
8
BLACK
6
CONTINUOUS
10
-1.93385
20
2.49262
11
-1.95901
21
2.57115
0
LINE
8
BLACK
6
CONTINUOUS
10
-1.95901
20
2.57115
11
-1.95901
21
2.57117
0
LINE
8
BLACK
6
CONTINUOUS
10
-1.95901
20
2.57117
11
-1.95902
21
2.57118
0
LINE
8
BLACK
6
CONTINUOUS
10
-1.95902
20
2.57118
11
-1.98281
21
2.65013
0
LINE
8
BLACK
6
CONTINUOUS
10
-1.98281
20
2.65013
11
-1.98281
21
2.65016
0
LINE
8
BLACK
6
CONTINUOUS
10
-1.98281
20
2.65016
11
-1.98282
21
2.65017
0
LINE
8
BLACK
6
CONTINUOUS
10
-1.98282
20
2.65017
11
-2.00523
21
2.72952
0
LINE
8
BLACK
6
CONTINUOUS
10
-2.00523
20
2.72952
11
-2.00523
21
2.72955
0
LINE
8
BLACK
6
CONTINUOUS
10
-2.00523
20
2.72955
11
-2.00524
21
2.72956
0
LINE
8
BLACK
6
CONTINUOUS
10
-2.00524
20
2.72956
11
-2.02625
21
2.80929
0
LINE
8
BLACK
6
CONTINUOUS
10
-2.02625
20
2.80929
11
-2.02626
21
2.80932
0
LINE
8
BLACK
6
CONTINUOUS
10
-2.02626
20
2.80932
11
-2.02626
21
2.80933
0
LINE
8
BLACK
6
CONTINUOUS
10
-2.02626
20
2.80933
11
-2.04589
21
2.88941
0
LINE
8
BLACK
6
CONTINUOUS
10
-2.04589
20
2.88941
11
-2.04589
21
2.88944
0
LINE
8
BLACK
6
CONTINUOUS
10
-2.04589
20
2.88944
11
-2.0459
21
2.88945
0
LINE
8
BLACK
6
CONTINUOUS
10
-2.0459
20
2.88945
11
-2.06412
21
2.96987
0
LINE
8
BLACK
6
CONTINUOUS
10
-2.06412
20
2.96987
11
-2.06412
21
2.96989
0
LINE
8
BLACK
6
CONTINUOUS
10
-2.06412
20
2.96989
11
-2.06413
21
2.96991
0
LINE
8
BLACK
6
CONTINUOUS
10
-2.06413
20
2.96991
11
-2.08094
21
3.05063
0
LINE
8
BLACK
6
CONTINUOUS
10
-2.08094
20
3.05063
11
-2.08094
21
3.05065
0
LINE
8
BLACK
6
CONTINUOUS
10
-2.08094
20
3.05065
11
-2.08095
21
3.05066
0
LINE
8
BLACK
6
CONTINUOUS
10
-2.08095
20
3.05066
11
-2.09636
21
3.13167
0
LINE
8
BLACK
6
CONTINUOUS
10
-2.09636
20
3.13167
11
-2.09636
21
3.13169
0
LINE
8
BLACK
6
CONTINUOUS
10
-2.09636
20
3.13169
11
-2.09636
21
3.13171
0
LINE
8
BLACK
6
CONTINUOUS
10
-2.09636
20
3.13171
11
-2.11035
21
3.21297
0
LINE
8
BLACK
6
CONTINUOUS
10
-2.11035
20
3.21297
11
-2.11035
21
3.21299
0
LINE
8
BLACK
6
CONTINUOUS
10
-2.11035
20
3.21299
11
-2.11036
21
3.213
0
LINE
8
BLACK
6
CONTINUOUS
10
-2.11036
20
3.213
11
-2.12293
21
3.2945
0
LINE
8
BLACK
6
CONTINUOUS
10
-2.12293
20
3.2945
11
-2.12293
21
3.29452
0
LINE
8
BLACK
6
CONTINUOUS
10
-2.12293
20
3.29452
11
-2.12293
21
3.29453
0
LINE
8
BLACK
6
CONTINUOUS
10
-2.12293
20
3.29453
11
-2.13408
21
3.37623
0
LINE
8
BLACK
6
CONTINUOUS
10
-2.13408
20
3.37623
11
-2.13408
21
3.37626
0
LINE
8
BLACK
6
CONTINUOUS
10
-2.13408
20
3.37626
11
-2.13408
21
3.37627
0
LINE
8
BLACK
6
CONTINUOUS
10
-2.13408
20
3.37627
11
-2.1438
21
3.45815
0
LINE
8
BLACK
6
CONTINUOUS
10
-2.1438
20
3.45815
11
-2.1438
21
3.45818
0
LINE
8
BLACK
6
CONTINUOUS
10
-2.1438
20
3.45818
11
-2.1438
21
3.45819
0
LINE
8
BLACK
6
CONTINUOUS
10
-2.1438
20
3.45819
11
-2.15209
21
3.54023
0
LINE
8
BLACK
6
CONTINUOUS
10
-2.15209
20
3.54023
11
-2.15209
21
3.54025
0
LINE
8
BLACK
6
CONTINUOUS
10
-2.15209
20
3.54025
11
-2.1521
21
3.54026
0
LINE
8
BLACK
6
CONTINUOUS
10
-2.1521
20
3.54026
11
-2.15895
21
3.62243
0
LINE
8
BLACK
6
CONTINUOUS
10
-2.15895
20
3.62243
11
-2.15895
21
3.62246
0
LINE
8
BLACK
6
CONTINUOUS
10
-2.15895
20
3.62246
11
-2.15895
21
3.62247
0
LINE
8
BLACK
6
CONTINUOUS
10
-2.15895
20
3.62247
11
-2.16437
21
3.70475
0
LINE
8
BLACK
6
CONTINUOUS
10
-2.16437
20
3.70475
11
-2.16437
21
3.70478
0
LINE
8
BLACK
6
CONTINUOUS
10
-2.16437
20
3.70478
11
-2.16437
21
3.70479
0
LINE
8
BLACK
6
CONTINUOUS
10
-2.16437
20
3.70479
11
-2.16835
21
3.78715
0
LINE
8
BLACK
6
CONTINUOUS
10
-2.16835
20
3.78715
11
-2.16835
21
3.78717
0
LINE
8
BLACK
6
CONTINUOUS
10
-2.16835
20
3.78717
11
-2.16836
21
3.78719
0
LINE
8
BLACK
6
CONTINUOUS
10
-2.16836
20
3.78719
11
-2.1709
21
3.8696
0
LINE
8
BLACK
6
CONTINUOUS
10
-2.1709
20
3.8696
11
-2.1709
21
3.86963
0
LINE
8
BLACK
6
CONTINUOUS
10
-2.1709
20
3.86963
11
-2.1709
21
3.86964
0
LINE
8
BLACK
6
CONTINUOUS
10
-2.1709
20
3.86964
11
-2.17201
21
3.95209
0
LINE
8
BLACK
6
CONTINUOUS
10
-2.17201
20
3.95209
11
-2.172
21
3.95211
0
LINE
8
BLACK
6
CONTINUOUS
10
-2.172
20
3.95211
11
-2.17201
21
3.95213
0
LINE
8
BLACK
6
CONTINUOUS
10
-2.17201
20
3.95213
11
-2.17167
21
4.03458
0
LINE
8
BLACK
6
CONTINUOUS
10
-2.17167
20
4.03458
11
-2.17167
21
4.03461
0
LINE
8
BLACK
6
CONTINUOUS
10
-2.17167
20
4.03461
11
-2.17167
21
4.03462
0
LINE
8
BLACK
6
CONTINUOUS
10
-2.17167
20
4.03462
11
-2.1699
21
4.11706
0
LINE
8
BLACK
6
CONTINUOUS
10
-2.1699
20
4.11706
11
-2.16989
21
4.11708
0
LINE
8
BLACK
6
CONTINUOUS
10
-2.16989
20
4.11708
11
-2.1699
21
4.11709
0
LINE
8
BLACK
6
CONTINUOUS
10
-2.1699
20
4.11709
11
-2.16669
21
4.19949
0
LINE
8
BLACK
6
CONTINUOUS
10
-2.16669
20
4.19949
11
-2.16668
21
4.19951
0
LINE
8
BLACK
6
CONTINUOUS
10
-2.16668
20
4.19951
11
-2.16668
21
4.19952
0
LINE
8
BLACK
6
CONTINUOUS
10
-2.16668
20
4.19952
11
-2.16204
21
4.28185
0
LINE
8
BLACK
6
CONTINUOUS
10
-2.16204
20
4.28185
11
-2.16203
21
4.28187
0
LINE
8
BLACK
6
CONTINUOUS
10
-2.16203
20
4.28187
11
-2.16203
21
4.28189
0
LINE
8
BLACK
6
CONTINUOUS
10
-2.16203
20
4.28189
11
-2.15595
21
4.36412
0
LINE
8
BLACK
6
CONTINUOUS
10
-2.15595
20
4.36412
11
-2.15594
21
4.36414
0
LINE
8
BLACK
6
CONTINUOUS
10
-2.15594
20
4.36414
11
-2.15595
21
4.36416
0
LINE
8
BLACK
6
CONTINUOUS
10
-2.15595
20
4.36416
11
-2.14843
21
4.44627
0
LINE
8
BLACK
6
CONTINUOUS
10
-2.14843
20
4.44627
11
-2.14842
21
4.44629
0
LINE
8
BLACK
6
CONTINUOUS
10
-2.14842
20
4.44629
11
-2.14842
21
4.44631
0
LINE
8
BLACK
6
CONTINUOUS
10
-2.14842
20
4.44631
11
-2.13947
21
4.52827
0
LINE
8
BLACK
6
CONTINUOUS
10
-2.13947
20
4.52827
11
-2.13946
21
4.5283
0
LINE
8
BLACK
6
CONTINUOUS
10
-2.13946
20
4.5283
11
-2.13947
21
4.52831
0
LINE
8
BLACK
6
CONTINUOUS
10
-2.13947
20
4.52831
11
-2.12909
21
4.61011
0
LINE
8
BLACK
6
CONTINUOUS
10
-2.12909
20
4.61011
11
-2.12908
21
4.61014
0
LINE
8
BLACK
6
CONTINUOUS
10
-2.12908
20
4.61014
11
-2.12908
21
4.61015
0
LINE
8
BLACK
6
CONTINUOUS
10
-2.12908
20
4.61015
11
-2.11728
21
4.69175
0
LINE
8
BLACK
6
CONTINUOUS
10
-2.11728
20
4.69175
11
-2.11727
21
4.69178
0
LINE
8
BLACK
6
CONTINUOUS
10
-2.11727
20
4.69178
11
-2.11727
21
4.69179
0
LINE
8
BLACK
6
CONTINUOUS
10
-2.11727
20
4.69179
11
-2.10404
21
4.77318
0
LINE
8
BLACK
6
CONTINUOUS
10
-2.10404
20
4.77318
11
-2.10403
21
4.7732
0
LINE
8
BLACK
6
CONTINUOUS
10
-2.10403
20
4.7732
11
-2.10404
21
4.77322
0
LINE
8
BLACK
6
CONTINUOUS
10
-2.10404
20
4.77322
11
-2.08939
21
4.85436
0
LINE
8
BLACK
6
CONTINUOUS
10
-2.08939
20
4.85436
11
-2.08938
21
4.85439
0
LINE
8
BLACK
6
CONTINUOUS
10
-2.08938
20
4.85439
11
-2.08938
21
4.8544
0
LINE
8
BLACK
6
CONTINUOUS
10
-2.08938
20
4.8544
11
-2.07332
21
4.93527
0
LINE
8
BLACK
6
CONTINUOUS
10
-2.07332
20
4.93527
11
-2.07331
21
4.9353
0
LINE
8
BLACK
6
CONTINUOUS
10
-2.07331
20
4.9353
11
-2.07331
21
4.93531
0
LINE
8
BLACK
6
CONTINUOUS
10
-2.07331
20
4.93531
11
-2.05584
21
5.0159
0
LINE
8
BLACK
6
CONTINUOUS
10
-2.05584
20
5.0159
11
-2.05583
21
5.01592
0
LINE
8
BLACK
6
CONTINUOUS
10
-2.05583
20
5.01592
11
-2.05583
21
5.01593
0
LINE
8
BLACK
6
CONTINUOUS
10
-2.05583
20
5.01593
11
-2.03696
21
5.0962
0
LINE
8
BLACK
6
CONTINUOUS
10
-2.03696
20
5.0962
11
-2.03695
21
5.09622
0
LINE
8
BLACK
6
CONTINUOUS
10
-2.03695
20
5.09622
11
-2.03695
21
5.09623
0
LINE
8
BLACK
6
CONTINUOUS
10
-2.03695
20
5.09623
11
-2.02129
21
5.15848
0
LINE
8
BLACK
6
CONTINUOUS
10
-2.02129
20
5.15848
11
-2.02106
21
5.15894
0
LINE
8
BLACK
6
CONTINUOUS
10
-2.02106
20
5.15894
11
-2.02105
21
5.15907
0
LINE
8
BLACK
6
CONTINUOUS
10
-2.02105
20
5.15907
11
-2.02096
21
5.15913
0
LINE
8
BLACK
6
CONTINUOUS
10
-2.02096
20
5.15913
11
-2.02085
21
5.15935
0
LINE
8
BLACK
6
CONTINUOUS
10
-2.02085
20
5.15935
11
-2.02013
21
5.15968
0
LINE
8
BLACK
6
CONTINUOUS
10
-2.02013
20
5.15968
11
-2.01946
21
5.16011
0
LINE
8
BLACK
6
CONTINUOUS
10
-2.01946
20
5.16011
11
-1.98896
21
5.1642
0
LINE
8
BLACK
6
CONTINUOUS
10
-1.98896
20
5.1642
11
-1.89104
21
5.17824
0
LINE
8
BLACK
6
CONTINUOUS
10
-1.89104
20
5.17824
11
-1.79333
21
5.19365
0
LINE
8
BLACK
6
CONTINUOUS
10
-1.79333
20
5.19365
11
-1.69584
21
5.21042
0
LINE
8
BLACK
6
CONTINUOUS
10
-1.69584
20
5.21042
11
-1.5986
21
5.22855
0
LINE
8
BLACK
6
CONTINUOUS
10
-1.5986
20
5.22855
11
-1.50163
21
5.24803
0
LINE
8
BLACK
6
CONTINUOUS
10
-1.50163
20
5.24803
11
-1.40493
21
5.26887
0
LINE
8
BLACK
6
CONTINUOUS
10
-1.40493
20
5.26887
11
-1.30853
21
5.29105
0
LINE
8
BLACK
6
CONTINUOUS
10
-1.30853
20
5.29105
11
-1.21246
21
5.31458
0
LINE
8
BLACK
6
CONTINUOUS
10
-1.21246
20
5.31458
11
-1.11671
21
5.33945
0
LINE
8
BLACK
6
CONTINUOUS
10
-1.11671
20
5.33945
11
-1.02133
21
5.36565
0
LINE
8
BLACK
6
CONTINUOUS
10
-1.02133
20
5.36565
11
-0.926323
21
5.39318
0
LINE
8
BLACK
6
CONTINUOUS
10
-0.926323
20
5.39318
11
-0.83171
21
5.42203
0
LINE
8
BLACK
6
CONTINUOUS
10
-0.83171
20
5.42203
11
-0.737507
21
5.45221
0
LINE
8
BLACK
6
CONTINUOUS
10
-0.737507
20
5.45221
11
-0.643734
21
5.48369
0
LINE
8
BLACK
6
CONTINUOUS
10
-0.643734
20
5.48369
11
-0.550411
21
5.51648
0
LINE
8
BLACK
6
CONTINUOUS
10
-0.550411
20
5.51648
11
-0.457556
21
5.55057
0
LINE
8
BLACK
6
CONTINUOUS
10
-0.457556
20
5.55057
11
-0.365184
21
5.58596
0
LINE
8
BLACK
6
CONTINUOUS
10
-0.365184
20
5.58596
11
-0.273314
21
5.62263
0
LINE
8
BLACK
6
CONTINUOUS
10
-0.273314
20
5.62263
11
-0.181967
21
5.66058
0
LINE
8
BLACK
6
CONTINUOUS
10
-0.181967
20
5.66058
11
-0.0911605
21
5.6998
0
LINE
8
BLACK
6
CONTINUOUS
10
-0.0911605
20
5.6998
11
-0.000894291
21
5.74029
0
LINE
8
BLACK
6
CONTINUOUS
10
-0.000894291
20
5.74029
11
6.25197e-05
21
5.74048
0
LINE
8
BLACK
6
CONTINUOUS
10
6.25197e-05
20
5.74048
11
0.000458346
21
5.74028
0
LINE
8
BLACK
6
CONTINUOUS
10
-0.0893856
20
5.6958
11
-0.0894065
21
5.6958
0
LINE
8
BLACK
6
CONTINUOUS
10
-0.0894065
20
5.6958
11
-0.0894135
21
5.69579
0
LINE
8
BLACK
6
CONTINUOUS
10
-0.0894135
20
5.69579
11
-0.18025
21
5.65656
0
LINE
8
BLACK
6
CONTINUOUS
10
-0.18025
20
5.65656
11
-0.180271
21
5.65656
0
LINE
8
BLACK
6
CONTINUOUS
10
-0.180271
20
5.65656
11
-0.180278
21
5.65655
0
LINE
8
BLACK
6
CONTINUOUS
10
-0.180278
20
5.65655
11
-0.271653
21
5.61859
0
LINE
8
BLACK
6
CONTINUOUS
10
-0.271653
20
5.61859
11
-0.271674
21
5.61858
0
LINE
8
BLACK
6
CONTINUOUS
10
-0.271674
20
5.61858
11
-0.271682
21
5.61857
0
LINE
8
BLACK
6
CONTINUOUS
10
-0.271682
20
5.61857
11
-0.363578
21
5.58189
0
LINE
8
BLACK
6
CONTINUOUS
10
-0.363578
20
5.58189
11
-0.363599
21
5.58189
0
LINE
8
BLACK
6
CONTINUOUS
10
-0.363599
20
5.58189
11
-0.363607
21
5.58188
0
LINE
8
BLACK
6
CONTINUOUS
10
-0.363607
20
5.58188
11
-0.456006
21
5.54649
0
LINE
8
BLACK
6
CONTINUOUS
10
-0.456006
20
5.54649
11
-0.456027
21
5.54648
0
LINE
8
BLACK
6
CONTINUOUS
10
-0.456027
20
5.54648
11
-0.456035
21
5.54648
0
LINE
8
BLACK
6
CONTINUOUS
10
-0.456035
20
5.54648
11
-0.54892
21
5.51237
0
LINE
8
BLACK
6
CONTINUOUS
10
-0.54892
20
5.51237
11
-0.548941
21
5.51237
0
LINE
8
BLACK
6
CONTINUOUS
10
-0.548941
20
5.51237
11
-0.548948
21
5.51236
0
LINE
8
BLACK
6
CONTINUOUS
10
-0.548948
20
5.51236
11
-0.6423
21
5.47956
0
LINE
8
BLACK
6
CONTINUOUS
10
-0.6423
20
5.47956
11
-0.642321
21
5.47956
0
LINE
8
BLACK
6
CONTINUOUS
10
-0.642321
20
5.47956
11
-0.642329
21
5.47955
0
LINE
8
BLACK
6
CONTINUOUS
10
-0.642329
20
5.47955
11
-0.73613
21
5.44806
0
LINE
8
BLACK
6
CONTINUOUS
10
-0.73613
20
5.44806
11
-0.736151
21
5.44806
0
LINE
8
BLACK
6
CONTINUOUS
10
-0.736151
20
5.44806
11
-0.736159
21
5.44805
0
LINE
8
BLACK
6
CONTINUOUS
10
-0.736159
20
5.44805
11
-0.83039
21
5.41787
0
LINE
8
BLACK
6
CONTINUOUS
10
-0.83039
20
5.41787
11
-0.830412
21
5.41787
0
LINE
8
BLACK
6
CONTINUOUS
10
-0.830412
20
5.41787
11
-0.830419
21
5.41786
0
LINE
8
BLACK
6
CONTINUOUS
10
-0.830419
20
5.41786
11
-0.925063
21
5.38899
0
LINE
8
BLACK
6
CONTINUOUS
10
-0.925063
20
5.38899
11
-0.925084
21
5.38899
0
LINE
8
BLACK
6
CONTINUOUS
10
-0.925084
20
5.38899
11
-0.925092
21
5.38899
0
LINE
8
BLACK
6
CONTINUOUS
10
-0.925092
20
5.38899
11
-1.02013
21
5.36145
0
LINE
8
BLACK
6
CONTINUOUS
10
-1.02013
20
5.36145
11
-1.02015
21
5.36145
0
LINE
8
BLACK
6
CONTINUOUS
10
-1.02015
20
5.36145
11
-1.02016
21
5.36144
0
LINE
8
BLACK
6
CONTINUOUS
10
-1.02016
20
5.36144
11
-1.11557
21
5.33523
0
LINE
8
BLACK
6
CONTINUOUS
10
-1.11557
20
5.33523
11
-1.11559
21
5.33523
0
LINE
8
BLACK
6
CONTINUOUS
10
-1.11559
20
5.33523
11
-1.1156
21
5.33522
0
LINE
8
BLACK
6
CONTINUOUS
10
-1.1156
20
5.33522
11
-1.21137
21
5.31035
0
LINE
8
BLACK
6
CONTINUOUS
10
-1.21137
20
5.31035
11
-1.21139
21
5.31035
0
LINE
8
BLACK
6
CONTINUOUS
10
-1.21139
20
5.31035
11
-1.2114
21
5.31034
0
LINE
8
BLACK
6
CONTINUOUS
10
-1.2114
20
5.31034
11
-1.30751
21
5.2868
0
LINE
8
BLACK
6
CONTINUOUS
10
-1.30751
20
5.2868
11
-1.30753
21
5.2868
0
LINE
8
BLACK
6
CONTINUOUS
10
-1.30753
20
5.2868
11
-1.30754
21
5.2868
0
LINE
8
BLACK
6
CONTINUOUS
10
-1.30754
20
5.2868
11
-1.40396
21
5.26461
0
LINE
8
BLACK
6
CONTINUOUS
10
-1.40396
20
5.26461
11
-1.40398
21
5.26461
0
LINE
8
BLACK
6
CONTINUOUS
10
-1.40398
20
5.26461
11
-1.40399
21
5.2646
0
LINE
8
BLACK
6
CONTINUOUS
10
-1.40399
20
5.2646
11
-1.50072
21
5.24376
0
LINE
8
BLACK
6
CONTINUOUS
10
-1.50072
20
5.24376
11
-1.50074
21
5.24376
0
LINE
8
BLACK
6
CONTINUOUS
10
-1.50074
20
5.24376
11
-1.50075
21
5.24375
0
LINE
8
BLACK
6
CONTINUOUS
10
-1.50075
20
5.24375
11
-1.59776
21
5.22426
0
LINE
8
BLACK
6
CONTINUOUS
10
-1.59776
20
5.22426
11
-1.59778
21
5.22426
0
LINE
8
BLACK
6
CONTINUOUS
10
-1.59778
20
5.22426
11
-1.59779
21
5.22425
0
LINE
8
BLACK
6
CONTINUOUS
10
-1.59779
20
5.22425
11
-1.69506
21
5.20612
0
LINE
8
BLACK
6
CONTINUOUS
10
-1.69506
20
5.20612
11
-1.69508
21
5.20612
0
LINE
8
BLACK
6
CONTINUOUS
10
-1.69508
20
5.20612
11
-1.69509
21
5.20612
0
LINE
8
BLACK
6
CONTINUOUS
10
-1.69509
20
5.20612
11
-1.7926
21
5.18934
0
LINE
8
BLACK
6
CONTINUOUS
10
-1.7926
20
5.18934
11
-1.79263
21
5.18934
0
LINE
8
BLACK
6
CONTINUOUS
10
-1.79263
20
5.18934
11
-1.79263
21
5.18934
0
LINE
8
BLACK
6
CONTINUOUS
10
-1.79263
20
5.18934
11
-1.89037
21
5.17393
0
LINE
8
BLACK
6
CONTINUOUS
10
-1.89037
20
5.17393
11
-1.8904
21
5.17393
0
LINE
8
BLACK
6
CONTINUOUS
10
-1.8904
20
5.17393
11
-1.8904
21
5.17392
0
LINE
8
BLACK
6
CONTINUOUS
10
-1.8904
20
5.17392
11
-1.98835
21
5.15988
0
LINE
8
BLACK
6
CONTINUOUS
10
-1.98835
20
5.15988
11
-1.98836
21
5.15988
0
LINE
8
BLACK
6
CONTINUOUS
10
-1.98836
20
5.15988
11
-1.98837
21
5.15987
0
LINE
8
BLACK
6
CONTINUOUS
10
-1.98837
20
5.15987
11
-2.01742
21
5.15598
0
LINE
8
BLACK
6
CONTINUOUS
10
-2.01742
20
5.15598
11
-2.03271
21
5.09518
0
LINE
8
BLACK
6
CONTINUOUS
10
-2.03271
20
5.09518
11
-2.05158
21
5.01495
0
LINE
8
BLACK
6
CONTINUOUS
10
-2.05158
20
5.01495
11
-2.06904
21
4.93441
0
LINE
8
BLACK
6
CONTINUOUS
10
-2.06904
20
4.93441
11
-2.08509
21
4.85357
0
LINE
8
BLACK
6
CONTINUOUS
10
-2.08509
20
4.85357
11
-2.09973
21
4.77246
0
LINE
8
BLACK
6
CONTINUOUS
10
-2.09973
20
4.77246
11
-2.11295
21
4.69111
0
LINE
8
BLACK
6
CONTINUOUS
10
-2.11295
20
4.69111
11
-2.12475
21
4.60954
0
LINE
8
BLACK
6
CONTINUOUS
10
-2.12475
20
4.60954
11
-2.13513
21
4.52778
0
LINE
8
BLACK
6
CONTINUOUS
10
-2.13513
20
4.52778
11
-2.14408
21
4.44585
0
LINE
8
BLACK
6
CONTINUOUS
10
-2.14408
20
4.44585
11
-2.15159
21
4.36378
0
LINE
8
BLACK
6
CONTINUOUS
10
-2.15159
20
4.36378
11
-2.15767
21
4.28158
0
LINE
8
BLACK
6
CONTINUOUS
10
-2.15767
20
4.28158
11
-2.16232
21
4.1993
0
LINE
8
BLACK
6
CONTINUOUS
10
-2.16232
20
4.1993
11
-2.16553
21
4.11694
0
LINE
8
BLACK
6
CONTINUOUS
10
-2.16553
20
4.11694
11
-2.1673
21
4.03455
0
LINE
8
BLACK
6
CONTINUOUS
10
-2.1673
20
4.03455
11
-2.16764
21
3.95213
0
LINE
8
BLACK
6
CONTINUOUS
10
-2.16764
20
3.95213
11
-2.16653
21
3.86972
0
LINE
8
BLACK
6
CONTINUOUS
10
-2.16653
20
3.86972
11
-2.16399
21
3.78734
0
LINE
8
BLACK
6
CONTINUOUS
10
-2.16399
20
3.78734
11
-2.16001
21
3.70502
0
LINE
8
BLACK
6
CONTINUOUS
10
-2.16001
20
3.70502
11
-2.15459
21
3.62278
0
LINE
8
BLACK
6
CONTINUOUS
10
-2.15459
20
3.62278
11
-2.14774
21
3.54065
0
LINE
8
BLACK
6
CONTINUOUS
10
-2.14774
20
3.54065
11
-2.13946
21
3.45865
0
LINE
8
BLACK
6
CONTINUOUS
10
-2.13946
20
3.45865
11
-2.12975
21
3.3768
0
LINE
8
BLACK
6
CONTINUOUS
10
-2.12975
20
3.3768
11
-2.11861
21
3.29514
0
LINE
8
BLACK
6
CONTINUOUS
10
-2.11861
20
3.29514
11
-2.10604
21
3.21369
0
LINE
8
BLACK
6
CONTINUOUS
10
-2.10604
20
3.21369
11
-2.09206
21
3.13247
0
LINE
8
BLACK
6
CONTINUOUS
10
-2.09206
20
3.13247
11
-2.07666
21
3.0515
0
LINE
8
BLACK
6
CONTINUOUS
10
-2.07666
20
3.0515
11
-2.05985
21
2.97081
0
LINE
8
BLACK
6
CONTINUOUS
10
-2.05985
20
2.97081
11
-2.04164
21
2.89043
0
LINE
8
BLACK
6
CONTINUOUS
10
-2.04164
20
2.89043
11
-2.02202
21
2.81039
0
LINE
8
BLACK
6
CONTINUOUS
10
-2.02202
20
2.81039
11
-2.00102
21
2.73069
0
LINE
8
BLACK
6
CONTINUOUS
10
-2.00102
20
2.73069
11
-1.97862
21
2.65137
0
LINE
8
BLACK
6
CONTINUOUS
10
-1.97862
20
2.65137
11
-1.95484
21
2.57246
0
LINE
8
BLACK
6
CONTINUOUS
10
-1.95484
20
2.57246
11
-1.92969
21
2.49398
0
LINE
8
BLACK
6
CONTINUOUS
10
-1.92969
20
2.49398
11
-1.90318
21
2.41594
0
LINE
8
BLACK
6
CONTINUOUS
10
-1.90318
20
2.41594
11
-1.8753
21
2.33838
0
LINE
8
BLACK
6
CONTINUOUS
10
-1.8753
20
2.33838
11
-1.84608
21
2.26132
0
LINE
8
BLACK
6
CONTINUOUS
10
-1.84608
20
2.26132
11
-1.81551
21
2.18478
0
LINE
8
BLACK
6
CONTINUOUS
10
-1.81551
20
2.18478
11
-1.78362
21
2.10878
0
LINE
8
BLACK
6
CONTINUOUS
10
-1.78362
20
2.10878
11
-1.7504
21
2.03336
0
LINE
8
BLACK
6
CONTINUOUS
10
-1.7504
20
2.03336
11
-1.71587
21
1.95852
0
LINE
8
BLACK
6
CONTINUOUS
10
-1.71587
20
1.95852
11
-1.68004
21
1.8843
0
LINE
8
BLACK
6
CONTINUOUS
10
-1.68004
20
1.8843
11
-1.64292
21
1.81071
0
LINE
8
BLACK
6
CONTINUOUS
10
-1.64292
20
1.81071
11
-1.60452
21
1.73779
0
LINE
8
BLACK
6
CONTINUOUS
10
-1.60452
20
1.73779
11
-1.56486
21
1.66554
0
LINE
8
BLACK
6
CONTINUOUS
10
-1.56486
20
1.66554
11
-1.52394
21
1.594
0
LINE
8
BLACK
6
CONTINUOUS
10
-1.52394
20
1.594
11
-1.48178
21
1.52318
0
LINE
8
BLACK
6
CONTINUOUS
10
-1.48178
20
1.52318
11
-1.43839
21
1.45311
0
LINE
8
BLACK
6
CONTINUOUS
10
-1.43839
20
1.45311
11
-1.39378
21
1.38381
0
LINE
8
BLACK
6
CONTINUOUS
10
-1.39378
20
1.38381
11
-1.34797
21
1.3153
0
LINE
8
BLACK
6
CONTINUOUS
10
-1.34797
20
1.3153
11
-1.30097
21
1.2476
0
LINE
8
BLACK
6
CONTINUOUS
10
-1.30097
20
1.2476
11
-1.2528
21
1.18072
0
LINE
8
BLACK
6
CONTINUOUS
10
-1.2528
20
1.18072
11
-1.20346
21
1.1147
0
LINE
8
BLACK
6
CONTINUOUS
10
-1.20346
20
1.1147
11
-1.15299
21
1.04955
0
LINE
8
BLACK
6
CONTINUOUS
10
-1.15299
20
1.04955
11
-1.10138
21
0.98529
0
LINE
8
BLACK
6
CONTINUOUS
10
-1.10138
20
0.98529
11
-1.04866
21
0.921941
0
LINE
8
BLACK
6
CONTINUOUS
10
-1.04866
20
0.921941
11
-0.994841
21
0.859521
0
LINE
8
BLACK
6
CONTINUOUS
10
-0.994841
20
0.859521
11
-0.939943
21
0.798051
0
LINE
8
BLACK
6
CONTINUOUS
10
-0.939943
20
0.798051
11
-0.883978
21
0.737547
0
LINE
8
BLACK
6
CONTINUOUS
10
-0.883978
20
0.737547
11
-0.826966
21
0.678029
0
LINE
8
BLACK
6
CONTINUOUS
10
-0.826966
20
0.678029
11
-0.768926
21
0.619517
0
LINE
8
BLACK
6
CONTINUOUS
10
-0.768926
20
0.619517
11
-0.709872
21
0.562025
0
LINE
8
BLACK
6
CONTINUOUS
10
-0.709872
20
0.562025
11
-0.649824
21
0.505573
0
LINE
8
BLACK
6
CONTINUOUS
10
-0.649824
20
0.505573
11
-0.588799
21
0.450177
0
LINE
8
BLACK
6
CONTINUOUS
10
-0.588799
20
0.450177
11
-0.526818
21
0.395855
0
LINE
8
BLACK
6
CONTINUOUS
10
-0.526818
20
0.395855
11
-0.463898
21
0.342624
0
LINE
8
BLACK
6
CONTINUOUS
10
-0.463898
20
0.342624
11
-0.400058
21
0.290498
0
LINE
8
BLACK
6
CONTINUOUS
10
-0.400058
20
0.290498
11
-0.335317
21
0.239493
0
LINE
8
BLACK
6
CONTINUOUS
10
-0.335317
20
0.239493
11
-0.269698
21
0.189628
0
LINE
8
BLACK
6
CONTINUOUS
10
-0.269698
20
0.189628
11
-0.203217
21
0.140914
0
LINE
8
BLACK
6
CONTINUOUS
10
-0.203217
20
0.140914
11
-0.135897
21
0.0933688
0
LINE
8
BLACK
6
CONTINUOUS
10
-0.135897
20
0.0933688
11
-0.067758
21
0.0470057
0
LINE
8
BLACK
6
CONTINUOUS
10
-0.067758
20
0.0470057
11
2.51969e-06
21
0.00261039
0
LINE
8
BLACK
6
CONTINUOUS
10
2.51969e-06
20
0.00261039
11
0.0525754
21
0.0369092
0
LINE
8
BLACK
6
CONTINUOUS
10
0.0525754
20
0.0369092
11
0.120897
21
0.0830104
0
LINE
8
BLACK
6
CONTINUOUS
10
0.120897
20
0.0830104
11
0.188401
21
0.130294
0
LINE
8
BLACK
6
CONTINUOUS
10
0.188401
20
0.130294
11
0.25507
21
0.17875
0
LINE
8
BLACK
6
CONTINUOUS
10
0.25507
20
0.17875
11
0.320883
21
0.228362
0
LINE
8
BLACK
6
CONTINUOUS
10
0.320883
20
0.228362
11
0.385819
21
0.279114
0
LINE
8
BLACK
6
CONTINUOUS
10
0.385819
20
0.279114
11
0.44986
21
0.330992
0
LINE
8
BLACK
6
CONTINUOUS
10
0.44986
20
0.330992
11
0.512986
21
0.38398
0
LINE
8
BLACK
6
CONTINUOUS
10
0.512986
20
0.38398
11
0.575178
21
0.438062
0
LINE
8
BLACK
6
CONTINUOUS
10
0.575178
20
0.438062
11
0.636416
21
0.49322
0
LINE
8
BLACK
6
CONTINUOUS
10
0.636416
20
0.49322
11
0.696682
21
0.549439
0
LINE
8
BLACK
6
CONTINUOUS
10
0.696682
20
0.549439
11
0.755959
21
0.606702
0
LINE
8
BLACK
6
CONTINUOUS
10
0.755959
20
0.606702
11
0.814226
21
0.664989
0
LINE
8
BLACK
6
CONTINUOUS
10
0.814226
20
0.664989
11
0.871468
21
0.724285
0
LINE
8
BLACK
6
CONTINUOUS
10
0.871468
20
0.724285
11
0.927666
21
0.784572
0
LINE
8
BLACK
6
CONTINUOUS
10
0.927666
20
0.784572
11
0.982803
21
0.845829
0
LINE
8
BLACK
6
CONTINUOUS
10
0.982803
20
0.845829
11
1.03686
21
0.90804
0
LINE
8
BLACK
6
CONTINUOUS
10
1.03686
20
0.90804
11
1.08983
21
0.971185
0
LINE
8
BLACK
6
CONTINUOUS
10
1.08983
20
0.971185
11
1.14168
21
1.03524
0
LINE
8
BLACK
6
CONTINUOUS
10
1.14168
20
1.03524
11
1.19241
21
1.1002
0
LINE
8
BLACK
6
CONTINUOUS
10
1.19241
20
1.1002
11
1.242
21
1.16603
0
LINE
8
BLACK
6
CONTINUOUS
10
1.242
20
1.16603
11
1.29043
21
1.23272
0
LINE
8
BLACK
6
CONTINUOUS
10
1.29043
20
1.23272
11
1.33769
21
1.30023
0
LINE
8
BLACK
6
CONTINUOUS
10
1.33769
20
1.30023
11
1.38377
21
1.36857
0
LINE
8
BLACK
6
CONTINUOUS
10
1.38377
20
1.36857
11
1.42865
21
1.4377
0
LINE
8
BLACK
6
CONTINUOUS
10
1.42865
20
1.4377
11
1.47231
21
1.5076
0
LINE
8
BLACK
6
CONTINUOUS
10
1.47231
20
1.5076
11
1.51474
21
1.57825
0
LINE
8
BLACK
6
CONTINUOUS
10
1.51474
20
1.57825
11
1.55594
21
1.64964
0
LINE
8
BLACK
6
CONTINUOUS
10
1.55594
20
1.64964
11
1.59588
21
1.72173
0
LINE
8
BLACK
6
CONTINUOUS
10
1.59588
20
1.72173
11
1.63456
21
1.7945
0
LINE
8
BLACK
6
CONTINUOUS
10
1.63456
20
1.7945
11
1.67197
21
1.86794
0
LINE
8
BLACK
6
CONTINUOUS
10
1.67197
20
1.86794
11
1.70808
21
1.94203
0
LINE
8
BLACK
6
CONTINUOUS
10
1.70808
20
1.94203
11
1.7429
21
2.01673
0
LINE
8
BLACK
6
CONTINUOUS
10
1.7429
20
2.01673
11
1.77641
21
2.09203
0
LINE
8
BLACK
6
CONTINUOUS
10
1.77641
20
2.09203
11
1.8086
21
2.1679
0
LINE
8
BLACK
6
CONTINUOUS
10
1.8086
20
2.1679
11
1.83946
21
2.24432
0
LINE
8
BLACK
6
CONTINUOUS
10
1.83946
20
2.24432
11
1.86898
21
2.32127
0
LINE
8
BLACK
6
CONTINUOUS
10
1.86898
20
2.32127
11
1.89716
21
2.39872
0
LINE
8
BLACK
6
CONTINUOUS
10
1.89716
20
2.39872
11
1.92398
21
2.47665
0
LINE
8
BLACK
6
CONTINUOUS
10
1.92398
20
2.47665
11
1.94943
21
2.55504
0
LINE
8
BLACK
6
CONTINUOUS
10
1.94943
20
2.55504
11
1.97351
21
2.63386
0
LINE
8
BLACK
6
CONTINUOUS
10
1.97351
20
2.63386
11
1.99622
21
2.71309
0
LINE
8
BLACK
6
CONTINUOUS
10
1.99622
20
2.71309
11
2.01754
21
2.7927
0
LINE
8
BLACK
6
CONTINUOUS
10
2.01754
20
2.7927
11
2.03746
21
2.87267
0
LINE
8
BLACK
6
CONTINUOUS
10
2.03746
20
2.87267
11
2.05599
21
2.95298
0
LINE
8
BLACK
6
CONTINUOUS
10
2.05599
20
2.95298
11
2.07311
21
3.0336
0
LINE
8
BLACK
6
CONTINUOUS
10
2.07311
20
3.0336
11
2.08882
21
3.11451
0
LINE
8
BLACK
6
CONTINUOUS
10
2.08882
20
3.11451
11
2.10312
21
3.19568
0
LINE
8
BLACK
6
CONTINUOUS
10
2.10312
20
3.19568
11
2.11599
21
3.27708
0
LINE
8
BLACK
6
CONTINUOUS
10
2.11599
20
3.27708
11
2.12745
21
3.35869
0
LINE
8
BLACK
6
CONTINUOUS
10
2.12745
20
3.35869
11
2.13748
21
3.4405
0
LINE
8
BLACK
6
CONTINUOUS
10
2.13748
20
3.4405
11
2.14608
21
3.52247
0
LINE
8
BLACK
6
CONTINUOUS
10
2.14608
20
3.52247
11
2.15325
21
3.60458
0
LINE
8
BLACK
6
CONTINUOUS
10
2.15325
20
3.60458
11
2.15898
21
3.68679
0
LINE
8
BLACK
6
CONTINUOUS
10
2.15898
20
3.68679
11
2.16328
21
3.76909
0
LINE
8
BLACK
6
CONTINUOUS
10
2.16328
20
3.76909
11
2.16615
21
3.85146
0
LINE
8
BLACK
6
CONTINUOUS
10
2.16615
20
3.85146
11
2.16757
21
3.93387
0
LINE
8
BLACK
6
CONTINUOUS
10
2.16757
20
3.93387
11
2.16755
21
4.01629
0
LINE
8
BLACK
6
CONTINUOUS
10
2.16755
20
4.01629
11
2.1661
21
4.09869
0
LINE
8
BLACK
6
CONTINUOUS
10
2.1661
20
4.09869
11
2.16321
21
4.18106
0
LINE
8
BLACK
6
CONTINUOUS
10
2.16321
20
4.18106
11
2.15888
21
4.26336
0
LINE
8
BLACK
6
CONTINUOUS
10
2.15888
20
4.26336
11
2.15312
21
4.34558
0
LINE
8
BLACK
6
CONTINUOUS
10
2.15312
20
4.34558
11
2.14592
21
4.42768
0
LINE
8
BLACK
6
CONTINUOUS
10
2.14592
20
4.42768
11
2.13729
21
4.50964
0
LINE
8
BLACK
6
CONTINUOUS
10
2.13729
20
4.50964
11
2.12723
21
4.59144
0
LINE
8
BLACK
6
CONTINUOUS
10
2.12723
20
4.59144
11
2.11575
21
4.67306
0
LINE
8
BLACK
6
CONTINUOUS
10
2.11575
20
4.67306
11
2.10284
21
4.75446
0
LINE
8
BLACK
6
CONTINUOUS
10
2.10284
20
4.75446
11
2.08852
21
4.83562
0
LINE
8
BLACK
6
CONTINUOUS
10
2.08852
20
4.83562
11
2.07278
21
4.91652
0
LINE
8
BLACK
6
CONTINUOUS
10
2.07278
20
4.91652
11
2.05563
21
4.99714
0
LINE
8
BLACK
6
CONTINUOUS
10
2.05563
20
4.99714
11
2.03707
21
5.07743
0
LINE
8
BLACK
6
CONTINUOUS
10
2.03707
20
5.07743
11
2.01747
21
5.15599
0
LINE
8
BLACK
6
CONTINUOUS
10
2.01747
20
5.15599
11
1.92093
21
5.1694
0
LINE
8
BLACK
6
CONTINUOUS
10
1.92093
20
5.1694
11
1.92091
21
5.16941
0
LINE
8
BLACK
6
CONTINUOUS
10
1.92091
20
5.16941
11
1.9209
21
5.16941
0
LINE
8
BLACK
6
CONTINUOUS
10
1.9209
20
5.16941
11
1.82309
21
5.18439
0
LINE
8
BLACK
6
CONTINUOUS
10
1.82309
20
5.18439
11
1.82307
21
5.1844
0
LINE
8
BLACK
6
CONTINUOUS
10
1.82307
20
5.1844
11
1.82306
21
5.1844
0
LINE
8
BLACK
6
CONTINUOUS
10
1.82306
20
5.1844
11
1.72548
21
5.20075
0
LINE
8
BLACK
6
CONTINUOUS
10
1.72548
20
5.20075
11
1.72546
21
5.20075
0
LINE
8
BLACK
6
CONTINUOUS
10
1.72546
20
5.20075
11
1.72545
21
5.20075
0
LINE
8
BLACK
6
CONTINUOUS
10
1.72545
20
5.20075
11
1.6281
21
5.21846
0
LINE
8
BLACK
6
CONTINUOUS
10
1.6281
20
5.21846
11
1.62808
21
5.21847
0
LINE
8
BLACK
6
CONTINUOUS
10
1.62808
20
5.21847
11
1.62807
21
5.21847
0
LINE
8
BLACK
6
CONTINUOUS
10
1.62807
20
5.21847
11
1.53097
21
5.23753
0
LINE
8
BLACK
6
CONTINUOUS
10
1.53097
20
5.23753
11
1.53096
21
5.23754
0
LINE
8
BLACK
6
CONTINUOUS
10
1.53096
20
5.23754
11
1.53095
21
5.23754
0
LINE
8
BLACK
6
CONTINUOUS
10
1.53095
20
5.23754
11
1.43413
21
5.25796
0
LINE
8
BLACK
6
CONTINUOUS
10
1.43413
20
5.25796
11
1.43411
21
5.25797
0
LINE
8
BLACK
6
CONTINUOUS
10
1.43411
20
5.25797
11
1.4341
21
5.25797
0
LINE
8
BLACK
6
CONTINUOUS
10
1.4341
20
5.25797
11
1.33758
21
5.27974
0
LINE
8
BLACK
6
CONTINUOUS
10
1.33758
20
5.27974
11
1.33756
21
5.27975
0
LINE
8
BLACK
6
CONTINUOUS
10
1.33756
20
5.27975
11
1.33755
21
5.27974
0
LINE
8
BLACK
6
CONTINUOUS
10
1.33755
20
5.27974
11
1.24134
21
5.30286
0
LINE
8
BLACK
6
CONTINUOUS
10
1.24134
20
5.30286
11
1.24132
21
5.30287
0
LINE
8
BLACK
6
CONTINUOUS
10
1.24132
20
5.30287
11
1.24131
21
5.30287
0
LINE
8
BLACK
6
CONTINUOUS
10
1.24131
20
5.30287
11
1.14543
21
5.32732
0
LINE
8
BLACK
6
CONTINUOUS
10
1.14543
20
5.32732
11
1.14541
21
5.32733
0
LINE
8
BLACK
6
CONTINUOUS
10
1.14541
20
5.32733
11
1.1454
21
5.32733
0
LINE
8
BLACK
6
CONTINUOUS
10
1.1454
20
5.32733
11
1.04988
21
5.35313
0
LINE
8
BLACK
6
CONTINUOUS
10
1.04988
20
5.35313
11
1.04986
21
5.35314
0
LINE
8
BLACK
6
CONTINUOUS
10
1.04986
20
5.35314
11
1.04985
21
5.35313
0
LINE
8
BLACK
6
CONTINUOUS
10
1.04985
20
5.35313
11
0.95469
21
5.38026
0
LINE
8
BLACK
6
CONTINUOUS
10
0.95469
20
5.38026
11
0.954671
21
5.38027
0
LINE
8
BLACK
6
CONTINUOUS
10
0.954671
20
5.38027
11
0.954661
21
5.38027
0
LINE
8
BLACK
6
CONTINUOUS
10
0.954661
20
5.38027
11
0.859892
21
5.40872
0
LINE
8
BLACK
6
CONTINUOUS
10
0.859892
20
5.40872
11
0.859874
21
5.40873
0
LINE
8
BLACK
6
CONTINUOUS
10
0.859874
20
5.40873
11
0.859863
21
5.40873
0
LINE
8
BLACK
6
CONTINUOUS
10
0.859863
20
5.40873
11
0.765501
21
5.4385
0
LINE
8
BLACK
6
CONTINUOUS
10
0.765501
20
5.4385
11
0.765483
21
5.43851
0
LINE
8
BLACK
6
CONTINUOUS
10
0.765483
20
5.43851
11
0.765472
21
5.43851
0
LINE
8
BLACK
6
CONTINUOUS
10
0.765472
20
5.43851
11
0.671535
21
5.46959
0
LINE
8
BLACK
6
CONTINUOUS
10
0.671535
20
5.46959
11
0.671517
21
5.4696
0
LINE
8
BLACK
6
CONTINUOUS
10
0.671517
20
5.4696
11
0.671506
21
5.4696
0
LINE
8
BLACK
6
CONTINUOUS
10
0.671506
20
5.4696
11
0.578012
21
5.502
0
LINE
8
BLACK
6
CONTINUOUS
10
0.578012
20
5.502
11
0.577994
21
5.50201
0
LINE
8
BLACK
6
CONTINUOUS
10
0.577994
20
5.50201
11
0.577983
21
5.50201
0
LINE
8
BLACK
6
CONTINUOUS
10
0.577983
20
5.50201
11
0.484951
21
5.5357
0
LINE
8
BLACK
6
CONTINUOUS
10
0.484951
20
5.5357
11
0.484933
21
5.53572
0
LINE
8
BLACK
6
CONTINUOUS
10
0.484933
20
5.53572
11
0.484922
21
5.53571
0
LINE
8
BLACK
6
CONTINUOUS
10
0.484922
20
5.53571
11
0.392369
21
5.57071
0
LINE
8
BLACK
6
CONTINUOUS
10
0.392369
20
5.57071
11
0.392351
21
5.57072
0
LINE
8
BLACK
6
CONTINUOUS
10
0.392351
20
5.57072
11
0.392341
21
5.57072
0
LINE
8
BLACK
6
CONTINUOUS
10
0.392341
20
5.57072
11
0.300285
21
5.607
0
LINE
8
BLACK
6
CONTINUOUS
10
0.300285
20
5.607
11
0.300268
21
5.60701
0
LINE
8
BLACK
6
CONTINUOUS
10
0.300268
20
5.60701
11
0.300257
21
5.60701
0
LINE
8
BLACK
6
CONTINUOUS
10
0.300257
20
5.60701
11
0.208717
21
5.64457
0
LINE
8
BLACK
6
CONTINUOUS
10
0.208717
20
5.64457
11
0.208699
21
5.64459
0
LINE
8
BLACK
6
CONTINUOUS
10
0.208699
20
5.64459
11
0.208689
21
5.64458
0
LINE
8
BLACK
6
CONTINUOUS
10
0.208689
20
5.64458
11
0.117682
21
5.68342
0
LINE
8
BLACK
6
CONTINUOUS
10
0.117682
20
5.68342
11
0.117665
21
5.68343
0
LINE
8
BLACK
6
CONTINUOUS
10
0.117665
20
5.68343
11
0.117654
21
5.68343
0
LINE
8
BLACK
6
CONTINUOUS
10
0.117654
20
5.68343
11
0.0271989
21
5.72354
0
LINE
8
BLACK
6
CONTINUOUS
10
0.0271989
20
5.72354
11
0.0271877
21
5.72355
0
LINE
8
BLACK
6
CONTINUOUS
10
0.0271877
20
5.72355
11
0.0271806
21
5.72355
0
LINE
8
BLACK
6
CONTINUOUS
10
0.0271806
20
5.72355
11
-5.7874e-06
21
5.7359
0
LINE
8
BLACK
6
CONTINUOUS
10
-5.7874e-06
20
5.7359
11
-0.0893856
21
5.6958
0
LINE
8
BLACK
6
CONTINUOUS
10
1.64443
20
4.61916
11
1.64478
21
4.61904
0
LINE
8
BLACK
6
CONTINUOUS
10
1.64478
20
4.61904
11
1.64491
21
4.61906
0
LINE
8
BLACK
6
CONTINUOUS
10
1.64491
20
4.61906
11
1.65167
21
4.61676
0
LINE
8
BLACK
6
CONTINUOUS
10
1.65167
20
4.61676
11
1.65199
21
4.61656
0
LINE
8
BLACK
6
CONTINUOUS
10
1.65199
20
4.61656
11
1.65211
21
4.61655
0
LINE
8
BLACK
6
CONTINUOUS
10
1.65211
20
4.61655
11
1.6582
21
4.6128
0
LINE
8
BLACK
6
CONTINUOUS
10
1.6582
20
4.6128
11
1.65846
21
4.61254
0
LINE
8
BLACK
6
CONTINUOUS
10
1.65846
20
4.61254
11
1.65858
21
4.6125
0
LINE
8
BLACK
6
CONTINUOUS
10
1.65858
20
4.6125
11
1.66369
21
4.6075
0
LINE
8
BLACK
6
CONTINUOUS
10
1.66369
20
4.6075
11
1.66389
21
4.60719
0
LINE
8
BLACK
6
CONTINUOUS
10
1.66389
20
4.60719
11
1.664
21
4.60713
0
LINE
8
BLACK
6
CONTINUOUS
10
1.664
20
4.60713
11
1.66787
21
4.60112
0
LINE
8
BLACK
6
CONTINUOUS
10
1.66787
20
4.60112
11
1.66799
21
4.60077
0
LINE
8
BLACK
6
CONTINUOUS
10
1.66799
20
4.60077
11
1.66809
21
4.60068
0
LINE
8
BLACK
6
CONTINUOUS
10
1.66809
20
4.60068
11
1.67053
21
4.59397
0
LINE
8
BLACK
6
CONTINUOUS
10
1.67053
20
4.59397
11
1.67057
21
4.5936
0
LINE
8
BLACK
6
CONTINUOUS
10
1.67057
20
4.5936
11
1.67064
21
4.5935
0
LINE
8
BLACK
6
CONTINUOUS
10
1.67064
20
4.5935
11
1.67154
21
4.58641
0
LINE
8
BLACK
6
CONTINUOUS
10
1.67154
20
4.58641
11
1.67152
21
4.58622
0
LINE
8
BLACK
6
CONTINUOUS
10
1.67152
20
4.58622
11
1.67156
21
4.58615
0
LINE
8
BLACK
6
CONTINUOUS
10
1.67156
20
4.58615
11
1.67156
21
4.5857
0
LINE
8
BLACK
6
CONTINUOUS
10
1.67156
20
4.5857
11
1.67135
21
4.58475
0
LINE
8
BLACK
6
CONTINUOUS
10
1.67135
20
4.58475
11
1.67134
21
4.58474
0
LINE
8
BLACK
6
CONTINUOUS
10
1.67134
20
4.58474
11
1.67134
21
4.02868
0
LINE
8
BLACK
6
CONTINUOUS
10
1.67134
20
4.02868
11
1.67155
21
4.0281
0
LINE
8
BLACK
6
CONTINUOUS
10
1.67155
20
4.0281
11
1.67075
21
4.021
0
LINE
8
BLACK
6
CONTINUOUS
10
1.67075
20
4.021
11
1.67063
21
4.02065
0
LINE
8
BLACK
6
CONTINUOUS
10
1.67063
20
4.02065
11
1.67064
21
4.02053
0
LINE
8
BLACK
6
CONTINUOUS
10
1.67064
20
4.02053
11
1.66829
21
4.01378
0
LINE
8
BLACK
6
CONTINUOUS
10
1.66829
20
4.01378
11
1.66809
21
4.01347
0
LINE
8
BLACK
6
CONTINUOUS
10
1.66809
20
4.01347
11
1.66808
21
4.01334
0
LINE
8
BLACK
6
CONTINUOUS
10
1.66808
20
4.01334
11
1.66429
21
4.00728
0
LINE
8
BLACK
6
CONTINUOUS
10
1.66429
20
4.00728
11
1.66403
21
4.00702
0
LINE
8
BLACK
6
CONTINUOUS
10
1.66403
20
4.00702
11
1.66399
21
4.0069
0
LINE
8
BLACK
6
CONTINUOUS
10
1.66399
20
4.0069
11
1.65896
21
4.00183
0
LINE
8
BLACK
6
CONTINUOUS
10
1.65896
20
4.00183
11
1.65864
21
4.00163
0
LINE
8
BLACK
6
CONTINUOUS
10
1.65864
20
4.00163
11
1.65858
21
4.00152
0
LINE
8
BLACK
6
CONTINUOUS
10
1.65858
20
4.00152
11
1.65254
21
3.99769
0
LINE
8
BLACK
6
CONTINUOUS
10
1.65254
20
3.99769
11
1.65219
21
3.99757
0
LINE
8
BLACK
6
CONTINUOUS
10
1.65219
20
3.99757
11
1.65211
21
3.99748
0
LINE
8
BLACK
6
CONTINUOUS
10
1.65211
20
3.99748
11
1.64537
21
3.99508
0
LINE
8
BLACK
6
CONTINUOUS
10
1.64537
20
3.99508
11
1.64501
21
3.99504
0
LINE
8
BLACK
6
CONTINUOUS
10
1.64501
20
3.99504
11
1.6449
21
3.99497
0
LINE
8
BLACK
6
CONTINUOUS
10
1.6449
20
3.99497
11
1.6378
21
3.99412
0
LINE
8
BLACK
6
CONTINUOUS
10
1.6378
20
3.99412
11
1.63744
21
3.99416
0
LINE
8
BLACK
6
CONTINUOUS
10
1.63744
20
3.99416
11
1.63732
21
3.99412
0
LINE
8
BLACK
6
CONTINUOUS
10
1.63732
20
3.99412
11
1.63021
21
3.99487
0
LINE
8
BLACK
6
CONTINUOUS
10
1.63021
20
3.99487
11
1.62986
21
3.99499
0
LINE
8
BLACK
6
CONTINUOUS
10
1.62986
20
3.99499
11
1.62973
21
3.99497
0
LINE
8
BLACK
6
CONTINUOUS
10
1.62973
20
3.99497
11
1.62297
21
3.99728
0
LINE
8
BLACK
6
CONTINUOUS
10
1.62297
20
3.99728
11
1.62266
21
3.99747
0
LINE
8
BLACK
6
CONTINUOUS
10
1.62266
20
3.99747
11
1.62253
21
3.99748
0
LINE
8
BLACK
6
CONTINUOUS
10
1.62253
20
3.99748
11
1.61644
21
4.00123
0
LINE
8
BLACK
6
CONTINUOUS
10
1.61644
20
4.00123
11
1.61618
21
4.00149
0
LINE
8
BLACK
6
CONTINUOUS
10
1.61618
20
4.00149
11
1.61606
21
4.00153
0
LINE
8
BLACK
6
CONTINUOUS
10
1.61606
20
4.00153
11
1.61095
21
4.00653
0
LINE
8
BLACK
6
CONTINUOUS
10
1.61095
20
4.00653
11
1.61075
21
4.00684
0
LINE
8
BLACK
6
CONTINUOUS
10
1.61075
20
4.00684
11
1.61065
21
4.0069
0
LINE
8
BLACK
6
CONTINUOUS
10
1.61065
20
4.0069
11
1.60678
21
4.01291
0
LINE
8
BLACK
6
CONTINUOUS
10
1.60678
20
4.01291
11
1.60665
21
4.01326
0
LINE
8
BLACK
6
CONTINUOUS
10
1.60665
20
4.01326
11
1.60656
21
4.01335
0
LINE
8
BLACK
6
CONTINUOUS
10
1.60656
20
4.01335
11
1.60411
21
4.02006
0
LINE
8
BLACK
6
CONTINUOUS
10
1.60411
20
4.02006
11
1.60407
21
4.02043
0
LINE
8
BLACK
6
CONTINUOUS
10
1.60407
20
4.02043
11
1.604
21
4.02054
0
LINE
8
BLACK
6
CONTINUOUS
10
1.604
20
4.02054
11
1.6031
21
4.02763
0
LINE
8
BLACK
6
CONTINUOUS
10
1.6031
20
4.02763
11
1.60312
21
4.02781
0
LINE
8
BLACK
6
CONTINUOUS
10
1.60312
20
4.02781
11
1.60309
21
4.02788
0
LINE
8
BLACK
6
CONTINUOUS
10
1.60309
20
4.02788
11
1.60308
21
4.02833
0
LINE
8
BLACK
6
CONTINUOUS
10
1.60308
20
4.02833
11
1.6033
21
4.02928
0
LINE
8
BLACK
6
CONTINUOUS
10
1.6033
20
4.02928
11
1.6033
21
4.02929
0
LINE
8
BLACK
6
CONTINUOUS
10
1.6033
20
4.02929
11
1.6033
21
4.58535
0
LINE
8
BLACK
6
CONTINUOUS
10
1.6033
20
4.58535
11
1.6031
21
4.58593
0
LINE
8
BLACK
6
CONTINUOUS
10
1.6031
20
4.58593
11
1.60389
21
4.59303
0
LINE
8
BLACK
6
CONTINUOUS
10
1.60389
20
4.59303
11
1.60402
21
4.59338
0
LINE
8
BLACK
6
CONTINUOUS
10
1.60402
20
4.59338
11
1.604
21
4.5935
0
LINE
8
BLACK
6
CONTINUOUS
10
1.604
20
4.5935
11
1.60635
21
4.60025
0
LINE
8
BLACK
6
CONTINUOUS
10
1.60635
20
4.60025
11
1.60655
21
4.60057
0
LINE
8
BLACK
6
CONTINUOUS
10
1.60655
20
4.60057
11
1.60656
21
4.60069
0
LINE
8
BLACK
6
CONTINUOUS
10
1.60656
20
4.60069
11
1.61035
21
4.60675
0
LINE
8
BLACK
6
CONTINUOUS
10
1.61035
20
4.60675
11
1.61061
21
4.60701
0
LINE
8
BLACK
6
CONTINUOUS
10
1.61061
20
4.60701
11
1.61065
21
4.60713
0
LINE
8
BLACK
6
CONTINUOUS
10
1.61065
20
4.60713
11
1.61569
21
4.6122
0
LINE
8
BLACK
6
CONTINUOUS
10
1.61569
20
4.6122
11
1.616
21
4.6124
0
LINE
8
BLACK
6
CONTINUOUS
10
1.616
20
4.6124
11
1.61607
21
4.61251
0
LINE
8
BLACK
6
CONTINUOUS
10
1.61607
20
4.61251
11
1.6221
21
4.61634
0
LINE
8
BLACK
6
CONTINUOUS
10
1.6221
20
4.61634
11
1.62245
21
4.61646
0
LINE
8
BLACK
6
CONTINUOUS
10
1.62245
20
4.61646
11
1.62254
21
4.61655
0
LINE
8
BLACK
6
CONTINUOUS
10
1.62254
20
4.61655
11
1.62927
21
4.61895
0
LINE
8
BLACK
6
CONTINUOUS
10
1.62927
20
4.61895
11
1.62964
21
4.61899
0
LINE
8
BLACK
6
CONTINUOUS
10
1.62964
20
4.61899
11
1.62974
21
4.61906
0
LINE
8
BLACK
6
CONTINUOUS
10
1.62974
20
4.61906
11
1.63684
21
4.61991
0
LINE
8
BLACK
6
CONTINUOUS
10
1.63684
20
4.61991
11
1.63721
21
4.61987
0
LINE
8
BLACK
6
CONTINUOUS
10
1.63721
20
4.61987
11
1.63733
21
4.61991
0
LINE
8
BLACK
6
CONTINUOUS
10
1.63733
20
4.61991
11
1.64443
21
4.61916
0
LINE
8
BLACK
6
CONTINUOUS
10
1.6305
20
4.61475
11
1.62423
21
4.61252
0
LINE
8
BLACK
6
CONTINUOUS
10
1.62423
20
4.61252
11
1.61862
21
4.60895
0
LINE
8
BLACK
6
CONTINUOUS
10
1.61862
20
4.60895
11
1.61393
21
4.60423
0
LINE
8
BLACK
6
CONTINUOUS
10
1.61393
20
4.60423
11
1.6104
21
4.59858
0
LINE
8
BLACK
6
CONTINUOUS
10
1.6104
20
4.59858
11
1.60821
21
4.5923
0
LINE
8
BLACK
6
CONTINUOUS
10
1.60821
20
4.5923
11
1.60744
21
4.58544
0
LINE
8
BLACK
6
CONTINUOUS
10
1.60744
20
4.58544
11
1.60724
21
4.58486
0
LINE
8
BLACK
6
CONTINUOUS
10
1.60724
20
4.58486
11
1.60724
21
4.0288
0
LINE
8
BLACK
6
CONTINUOUS
10
1.60724
20
4.0288
11
1.60745
21
4.02836
0
LINE
8
BLACK
6
CONTINUOUS
10
1.60745
20
4.02836
11
1.60746
21
4.02804
0
LINE
8
BLACK
6
CONTINUOUS
10
1.60746
20
4.02804
11
1.6083
21
4.02133
0
LINE
8
BLACK
6
CONTINUOUS
10
1.6083
20
4.02133
11
1.61058
21
4.01507
0
LINE
8
BLACK
6
CONTINUOUS
10
1.61058
20
4.01507
11
1.61419
21
4.00948
0
LINE
8
BLACK
6
CONTINUOUS
10
1.61419
20
4.00948
11
1.61894
21
4.00482
0
LINE
8
BLACK
6
CONTINUOUS
10
1.61894
20
4.00482
11
1.62461
21
4.00133
0
LINE
8
BLACK
6
CONTINUOUS
10
1.62461
20
4.00133
11
1.63091
21
3.99919
0
LINE
8
BLACK
6
CONTINUOUS
10
1.63091
20
3.99919
11
1.63753
21
3.99849
0
LINE
8
BLACK
6
CONTINUOUS
10
1.63753
20
3.99849
11
1.64414
21
3.99928
0
LINE
8
BLACK
6
CONTINUOUS
10
1.64414
20
3.99928
11
1.65041
21
4.00151
0
LINE
8
BLACK
6
CONTINUOUS
10
1.65041
20
4.00151
11
1.65603
21
4.00508
0
LINE
8
BLACK
6
CONTINUOUS
10
1.65603
20
4.00508
11
1.66072
21
4.0098
0
LINE
8
BLACK
6
CONTINUOUS
10
1.66072
20
4.0098
11
1.66425
21
4.01545
0
LINE
8
BLACK
6
CONTINUOUS
10
1.66425
20
4.01545
11
1.66643
21
4.02173
0
LINE
8
BLACK
6
CONTINUOUS
10
1.66643
20
4.02173
11
1.6672
21
4.02859
0
LINE
8
BLACK
6
CONTINUOUS
10
1.6672
20
4.02859
11
1.66741
21
4.02917
0
LINE
8
BLACK
6
CONTINUOUS
10
1.66741
20
4.02917
11
1.66741
21
4.58523
0
LINE
8
BLACK
6
CONTINUOUS
10
1.66741
20
4.58523
11
1.66719
21
4.58567
0
LINE
8
BLACK
6
CONTINUOUS
10
1.66719
20
4.58567
11
1.66719
21
4.58599
0
LINE
8
BLACK
6
CONTINUOUS
10
1.66719
20
4.58599
11
1.66634
21
4.5927
0
LINE
8
BLACK
6
CONTINUOUS
10
1.66634
20
4.5927
11
1.66406
21
4.59896
0
LINE
8
BLACK
6
CONTINUOUS
10
1.66406
20
4.59896
11
1.66046
21
4.60455
0
LINE
8
BLACK
6
CONTINUOUS
10
1.66046
20
4.60455
11
1.6557
21
4.60921
0
LINE
8
BLACK
6
CONTINUOUS
10
1.6557
20
4.60921
11
1.65003
21
4.6127
0
LINE
8
BLACK
6
CONTINUOUS
10
1.65003
20
4.6127
11
1.64373
21
4.61484
0
LINE
8
BLACK
6
CONTINUOUS
10
1.64373
20
4.61484
11
1.63711
21
4.61554
0
LINE
8
BLACK
6
CONTINUOUS
10
1.63711
20
4.61554
11
1.6305
21
4.61475
  0
ENDSEC
  0
EOF
