%TF.GenerationSoftware,KiCad,Pcbnew,5.99.0-unknown-r17145-8bd2765f*%
%TF.CreationDate,2019-12-26T00:38:18+08:00*%
%TF.ProjectId,r2,72322e6b-6963-4616-945f-706362585858,rev?*%
%TF.SameCoordinates,Original*%
%TF.FileFunction,Profile,NP*%
%FSLAX46Y46*%
G04 Gerber Fmt 4.6, Leading zero omitted, Abs format (unit mm)*
G04 Created by KiCad (PCBNEW 5.99.0-unknown-r17145-8bd2765f) date 2019-12-26 00:38:18*
%MOMM*%
%LPD*%
G04 APERTURE LIST*
%ADD10C,0.200000*%
%TA.AperFunction,Profile*%
%ADD11C,0.200000*%
%TD*%
%TA.AperFunction,Profile*%
%ADD12C,0.100000*%
%TD*%
G04 APERTURE END LIST*
D10*
X-46883119Y57219047D02*
X-45998794Y55024030D01*
X-45072774Y52850080D01*
X-44105487Y50697719D01*
X-43097358Y48567469D01*
X-42048818Y46459852D01*
X-40960292Y44375391D01*
X-39832210Y42314607D01*
X-38664999Y40278023D01*
X-37459086Y38266162D01*
X-36214900Y36279544D01*
X-34932868Y34318693D01*
X-33613417Y32384130D01*
X-32256977Y30476379D01*
X-30863974Y28595960D01*
X-29434836Y26743397D01*
X-27969992Y24919211D01*
X-26469868Y23123925D01*
X-24934893Y21358060D01*
X-23365494Y19622140D01*
X-21762100Y17916686D01*
X-20125137Y16242221D01*
X-18455034Y14599266D01*
X-16752218Y12988344D01*
X-15017118Y11409978D01*
X-13250161Y9864688D01*
X-11451775Y8352998D01*
X-9622387Y6875430D01*
X-7762426Y5432506D01*
X-5872319Y4024748D01*
X-3952493Y2652678D01*
X-2003378Y1316819D01*
X-25400Y17693D01*
D11*
X-25387675Y125540899D02*
X-39068699Y122480184D01*
D10*
X-25400Y17693D02*
X1952607Y1316796D01*
X3901753Y2652634D01*
X5821608Y4024683D01*
X7711746Y5432421D01*
X9571738Y6875326D01*
X11401156Y8352876D01*
X13199573Y9864548D01*
X14966562Y11409821D01*
X16701693Y12988171D01*
X18404540Y14599078D01*
X20074674Y16242018D01*
X21711668Y17916470D01*
X23315094Y19621911D01*
X24884525Y21357819D01*
X26419532Y23123672D01*
X27919687Y24918948D01*
X29384563Y26743124D01*
X30813733Y28595678D01*
X32206768Y30476088D01*
X33563240Y32383832D01*
X34882722Y34318388D01*
X36164785Y36279233D01*
X37409003Y38265846D01*
X38614948Y40277703D01*
X39782190Y42314283D01*
X40910304Y44375064D01*
X41998860Y46459523D01*
X43047432Y48567138D01*
X44055591Y50697387D01*
X45022910Y52849748D01*
X45948960Y55023699D01*
X46833315Y57218717D01*
X46833315Y57218717D02*
X47674233Y59430739D01*
X48470235Y61655601D01*
X49221280Y63892629D01*
X49927327Y66141149D01*
X50588335Y68400488D01*
X51204266Y70669972D01*
X51775077Y72948926D01*
X52300728Y75236677D01*
X52781180Y77532551D01*
X53216391Y79835874D01*
X53606321Y82145973D01*
X53950931Y84462173D01*
X54250178Y86783801D01*
X54504023Y89110182D01*
X54712426Y91440644D01*
X54875345Y93774512D01*
X54992741Y96111112D01*
X55064573Y98449770D01*
X55090801Y100789813D01*
X55071384Y103130566D01*
X55006282Y105471357D01*
X54895454Y107811510D01*
X54738859Y110150353D01*
X54536459Y112487211D01*
X54288211Y114821411D01*
X53994075Y117152278D01*
X53654012Y119479139D01*
X53267981Y121801320D01*
X52835940Y124118147D01*
X52357850Y126428946D01*
X51833671Y128733044D01*
X51263362Y131029767D01*
D11*
X-27807059Y135739115D02*
X-25387675Y125540899D01*
D10*
X-41327353Y132632849D02*
X-41637711Y132574316D01*
X-41948184Y132516325D01*
X-42258772Y132458877D01*
X-42569473Y132401972D01*
X-42880287Y132345610D01*
X-43191214Y132289790D01*
X-43502252Y132234514D01*
X-43813401Y132179782D01*
X-44124660Y132125593D01*
X-44436029Y132071948D01*
X-44747506Y132018847D01*
X-45059091Y131966290D01*
X-45370784Y131914278D01*
X-45682583Y131862810D01*
X-45994488Y131811888D01*
X-46306499Y131761510D01*
X-46618614Y131711678D01*
X-46930833Y131662391D01*
X-47243155Y131613650D01*
X-47555579Y131565455D01*
X-47868106Y131517806D01*
X-48180733Y131470703D01*
X-48493461Y131424147D01*
X-48806288Y131378137D01*
X-49119214Y131332675D01*
X-49432238Y131287759D01*
X-49745360Y131243391D01*
X-50058579Y131199570D01*
X-50371894Y131156297D01*
X-50685304Y131113572D01*
X-50998809Y131071395D01*
X-51312409Y131029767D01*
X-25400Y145770600D02*
X-868405Y145387969D01*
X-1713210Y145009749D01*
X-2559797Y144635945D01*
X-3408149Y144266562D01*
X-4258247Y143901604D01*
X-5110075Y143541077D01*
X-5963614Y143184986D01*
X-6818848Y142833336D01*
X-7675758Y142486132D01*
X-8534327Y142143378D01*
X-9394538Y141805081D01*
X-10256373Y141471245D01*
X-11119814Y141141875D01*
X-11984844Y140816976D01*
X-12851445Y140496553D01*
X-13719600Y140180611D01*
X-14589292Y139869156D01*
X-15460501Y139562192D01*
X-16333212Y139259724D01*
X-17207406Y138961758D01*
X-18083067Y138668299D01*
X-18960175Y138379351D01*
X-19838715Y138094919D01*
X-20718667Y137815009D01*
X-21600016Y137539626D01*
X-22482742Y137268775D01*
X-23366829Y137002460D01*
X-24252259Y136740687D01*
X-25139015Y136483461D01*
X-26027078Y136230787D01*
X-26916432Y135982670D01*
X-27807059Y135739115D01*
D11*
X-39068699Y122480184D02*
X-41327353Y132632849D01*
D10*
X-51312409Y131029767D02*
X-51882734Y128733061D01*
X-52406930Y126428980D01*
X-52885037Y124118197D01*
X-53317096Y121801386D01*
X-53703146Y119479221D01*
X-54043228Y117152375D01*
X-54337383Y114821523D01*
X-54585651Y112487337D01*
X-54788072Y110150493D01*
X-54944687Y107811664D01*
X-55055536Y105471524D01*
X-55120661Y103130746D01*
X-55140100Y100790005D01*
X-55113895Y98449974D01*
X-55042086Y96111327D01*
X-54924714Y93774739D01*
X-54761819Y91440881D01*
X-54553441Y89110430D01*
X-54299621Y86784058D01*
X-54000399Y84462439D01*
X-53655816Y82146247D01*
X-53265911Y79836157D01*
X-52830727Y77532841D01*
X-52350302Y75236974D01*
X-51824678Y72949229D01*
X-51253895Y70670280D01*
X-50637993Y68400802D01*
X-49977013Y66141468D01*
X-49270995Y63892951D01*
X-48519980Y61655926D01*
X-47724007Y59431067D01*
X-46883119Y57219047D01*
X51263362Y131029767D02*
X49602155Y131256651D01*
X47943674Y131498917D01*
X46288025Y131756534D01*
X44635311Y132029473D01*
X42985636Y132317704D01*
X41339105Y132621196D01*
X39695823Y132939920D01*
X38055893Y133273846D01*
X36419420Y133622943D01*
X34786508Y133987182D01*
X33157261Y134366533D01*
X31531785Y134760965D01*
X29910183Y135170449D01*
X28292559Y135594955D01*
X26679018Y136034453D01*
X25069664Y136488913D01*
X23464602Y136958304D01*
X21863936Y137442597D01*
X20267770Y137941762D01*
X18676208Y138455769D01*
X17089356Y138984587D01*
X15507316Y139528188D01*
X13930194Y140086540D01*
X12358094Y140659615D01*
X10791120Y141247381D01*
X9229377Y141849809D01*
X7672968Y142466869D01*
X6121999Y143098531D01*
X4576573Y143744765D01*
X3036795Y144405541D01*
X1502769Y145080829D01*
X-25400Y145770600D01*
D12*
X42402116Y116476400D02*
X42402116Y102320000D01*
X40773836Y116476400D02*
G75*
G02X42402116Y116476400I814140J0D01*
G01*
X40773835Y102320000D02*
X40773835Y116476400D01*
X42402117Y102320000D02*
G75*
G02X40773835Y102320000I-814141J0D01*
G01*
M02*
