%FSLAX45Y45*%
G04 Gerber Fmt 4.5, Leading zero omitted, Abs format (unit mm)*
G04 Created by KiCad (PCBNEW 5.99.0-unknown-r17145-8bd2765f) date 2019-12-26 06:39:35*
%MOMM*%
%LPD*%
G04 APERTURE LIST*
%ADD10C,0.200000*%
%TA.AperFunction,Profile*%
%ADD11C,0.200000*%
%TD*%
%TA.AperFunction,Profile*%
%ADD12C,0.100000*%
%TD*%
%ADD13C,0.300000*%
G04 APERTURE END LIST*
D10*
X-4688312Y5721905D02*
X-4599879Y5502403D01*
X-4507277Y5285008D01*
X-4410549Y5069772D01*
X-4309736Y4856747D01*
X-4204882Y4645985D01*
X-4096029Y4437539D01*
X-3983221Y4231461D01*
X-3866500Y4027802D01*
X-3745909Y3826616D01*
X-3621490Y3627954D01*
X-3493287Y3431869D01*
X-3361342Y3238413D01*
X-3225698Y3047638D01*
X-3086397Y2859596D01*
X-2943484Y2674340D01*
X-2796999Y2491921D01*
X-2646987Y2312393D01*
X-2493489Y2135806D01*
X-2336549Y1962214D01*
X-2176210Y1791669D01*
X-2012514Y1624222D01*
X-1845503Y1459927D01*
X-1675222Y1298834D01*
X-1501712Y1140998D01*
X-1325016Y986469D01*
X-1145178Y835300D01*
X-962239Y687543D01*
X-776243Y543251D01*
X-587232Y402475D01*
X-395249Y265268D01*
X-200338Y131682D01*
X-2540Y1769D01*
D11*
X-2538768Y12554090D02*
X-3906870Y12248018D01*
D10*
X-2540Y1769D02*
X195261Y131680D01*
X390175Y265263D01*
X582161Y402468D01*
X771175Y543242D01*
X957174Y687533D01*
X1140116Y835288D01*
X1319957Y986455D01*
X1496656Y1140982D01*
X1670169Y1298817D01*
X1840454Y1459908D01*
X2007467Y1624202D01*
X2171167Y1791647D01*
X2331509Y1962191D01*
X2488453Y2135782D01*
X2641953Y2312367D01*
X2791969Y2491895D01*
X2938456Y2674312D01*
X3081373Y2859568D01*
X3220677Y3047609D01*
X3356324Y3238383D01*
X3488272Y3431839D01*
X3616478Y3627923D01*
X3740900Y3826585D01*
X3861495Y4027770D01*
X3978219Y4231428D01*
X4091030Y4437506D01*
X4199886Y4645952D01*
X4304743Y4856714D01*
X4405559Y5069739D01*
X4502291Y5284975D01*
X4594896Y5502370D01*
X4683332Y5721872D01*
X4683332Y5721872D02*
X4767423Y5943074D01*
X4847024Y6165560D01*
X4922128Y6389263D01*
X4992733Y6614115D01*
X5058834Y6840049D01*
X5120427Y7066997D01*
X5177508Y7294893D01*
X5230073Y7523668D01*
X5278118Y7753255D01*
X5321639Y7983587D01*
X5360632Y8214597D01*
X5395093Y8446217D01*
X5425018Y8678380D01*
X5450402Y8911018D01*
X5471243Y9144064D01*
X5487535Y9377451D01*
X5499274Y9611111D01*
X5506457Y9844977D01*
X5509080Y10078981D01*
X5507138Y10313057D01*
X5500628Y10547136D01*
X5489545Y10781151D01*
X5473886Y11015035D01*
X5453646Y11248721D01*
X5428821Y11482141D01*
X5399408Y11715228D01*
X5365401Y11947914D01*
X5326798Y12180132D01*
X5283594Y12411815D01*
X5235785Y12642895D01*
X5183367Y12873304D01*
X5126336Y13102977D01*
D11*
X-2780706Y13573911D02*
X-2538768Y12554090D01*
D10*
X-4132735Y13263285D02*
X-4163771Y13257432D01*
X-4194818Y13251632D01*
X-4225877Y13245888D01*
X-4256947Y13240197D01*
X-4288029Y13234561D01*
X-4319121Y13228979D01*
X-4350225Y13223451D01*
X-4381340Y13217978D01*
X-4412466Y13212559D01*
X-4443603Y13207195D01*
X-4474751Y13201885D01*
X-4505909Y13196629D01*
X-4537078Y13191428D01*
X-4568258Y13186281D01*
X-4599449Y13181189D01*
X-4630650Y13176151D01*
X-4661861Y13171168D01*
X-4693083Y13166239D01*
X-4724316Y13161365D01*
X-4755558Y13156545D01*
X-4786811Y13151781D01*
X-4818073Y13147070D01*
X-4849346Y13142415D01*
X-4880629Y13137814D01*
X-4911921Y13133267D01*
X-4943224Y13128776D01*
X-4974536Y13124339D01*
X-5005858Y13119957D01*
X-5037189Y13115630D01*
X-5068530Y13111357D01*
X-5099881Y13107139D01*
X-5131241Y13102977D01*
X-2540Y14577060D02*
X-86841Y14538797D01*
X-171321Y14500975D01*
X-255980Y14463594D01*
X-340815Y14426656D01*
X-425825Y14390160D01*
X-511007Y14354108D01*
X-596361Y14318499D01*
X-681885Y14283334D01*
X-767576Y14248613D01*
X-853433Y14214338D01*
X-939454Y14180508D01*
X-1025637Y14147124D01*
X-1111981Y14114187D01*
X-1198484Y14081698D01*
X-1285145Y14049655D01*
X-1371960Y14018061D01*
X-1458929Y13986916D01*
X-1546050Y13956219D01*
X-1633321Y13925972D01*
X-1720741Y13896176D01*
X-1808307Y13866830D01*
X-1896017Y13837935D01*
X-1983871Y13809492D01*
X-2071867Y13781501D01*
X-2160002Y13753963D01*
X-2248274Y13726877D01*
X-2336683Y13700246D01*
X-2425226Y13674069D01*
X-2513902Y13648346D01*
X-2602708Y13623079D01*
X-2691643Y13598267D01*
X-2780706Y13573911D01*
D11*
X-3906870Y12248018D02*
X-4132735Y13263285D01*
D10*
X-5131241Y13102977D02*
X-5188273Y12873306D01*
X-5240693Y12642898D01*
X-5288504Y12411820D01*
X-5331710Y12180139D01*
X-5370315Y11947922D01*
X-5404323Y11715237D01*
X-5433738Y11482152D01*
X-5458565Y11248734D01*
X-5478807Y11015049D01*
X-5494469Y10781166D01*
X-5505554Y10547152D01*
X-5512066Y10313075D01*
X-5514010Y10079001D01*
X-5511390Y9844997D01*
X-5504209Y9611133D01*
X-5492471Y9377474D01*
X-5476182Y9144088D01*
X-5455344Y8911043D01*
X-5429962Y8678406D01*
X-5400040Y8446244D01*
X-5365582Y8214625D01*
X-5326591Y7983616D01*
X-5283073Y7753284D01*
X-5235030Y7523697D01*
X-5182468Y7294923D01*
X-5125390Y7067028D01*
X-5063799Y6840080D01*
X-4997701Y6614147D01*
X-4927100Y6389295D01*
X-4851998Y6165593D01*
X-4772401Y5943107D01*
X-4688312Y5721905D01*
X5126336Y13102977D02*
X4960216Y13125665D01*
X4794367Y13149892D01*
X4628803Y13175653D01*
X4463531Y13202947D01*
X4298564Y13231770D01*
X4133910Y13262120D01*
X3969582Y13293992D01*
X3805589Y13327385D01*
X3641942Y13362294D01*
X3478651Y13398718D01*
X3315726Y13436653D01*
X3153178Y13476096D01*
X2991018Y13517045D01*
X2829256Y13559495D01*
X2667902Y13603445D01*
X2506966Y13648891D01*
X2346460Y13695830D01*
X2186394Y13744260D01*
X2026777Y13794176D01*
X1867621Y13845577D01*
X1708936Y13898459D01*
X1550732Y13952819D01*
X1393019Y14008654D01*
X1235809Y14065961D01*
X1079112Y14124738D01*
X922938Y14184981D01*
X767297Y14246687D01*
X612200Y14309853D01*
X457657Y14374476D01*
X303680Y14440554D01*
X150277Y14508083D01*
X-2540Y14577060D01*
D12*
X4240212Y11647640D02*
X4240212Y10232000D01*
X4077384Y11647640D02*
G75*
G02X4240212Y11647640I81414J0D01*
G01*
X4077383Y10232000D02*
X4077383Y11647640D01*
X4240212Y10232000D02*
G75*
G02X4077383Y10232000I-81414J0D01*
G01*
D10*
X3000351Y12865051D02*
X3065351Y12800051D01*
X3065351Y12865051D02*
X3000351Y12800051D01*
X3564649Y12739949D02*
X3629649Y12674949D01*
X3629649Y12739949D02*
X3564649Y12674949D01*
X-4819548Y10714147D02*
G75*
G03X-4819548Y10714147I-40000J0D01*
G01*
X-4573473Y9956183D02*
X-4573473Y9866183D01*
X-4618473Y9911183D02*
X-4528473Y9911183D01*
X-4545553Y10755696D02*
X-4545553Y10665696D01*
X-4590553Y10710696D02*
X-4500553Y10710696D01*
X5213785Y10794377D02*
X5213785Y10704377D01*
X5168785Y10749377D02*
X5258785Y10749377D01*
X5224255Y10494560D02*
X5224255Y10404560D01*
X5179255Y10449560D02*
X5269255Y10449560D01*
X-218644Y3891644D02*
X-218644Y3962356D01*
X-289356Y3962356D01*
X-289356Y3891644D01*
X-218644Y3891644D01*
X-218644Y3637644D02*
X-218644Y3708356D01*
X-289356Y3708356D01*
X-289356Y3637644D01*
X-218644Y3637644D01*
X35356Y3891644D02*
X35356Y3962356D01*
X-35356Y3962356D01*
X-35356Y3891644D01*
X35356Y3891644D01*
X35356Y3637644D02*
X35356Y3708356D01*
X-35356Y3708356D01*
X-35356Y3637644D01*
X35356Y3637644D01*
X289356Y3891644D02*
X289356Y3962356D01*
X218644Y3962356D01*
X218644Y3891644D01*
X289356Y3891644D01*
X289356Y3637644D02*
X289356Y3708356D01*
X218644Y3708356D01*
X218644Y3637644D01*
X289356Y3637644D01*
X-4590847Y10390447D02*
X-4535847Y10445447D01*
X-4590847Y10500447D01*
X-4645847Y10445447D01*
X-4590847Y10390447D01*
X4502833Y12189479D02*
X4652833Y12039479D01*
X4652833Y12189479D02*
X4502833Y12039479D01*
X4652833Y12114479D02*
G75*
G03X4652833Y12114479I-75000J0D01*
G01*
X4612338Y12880861D02*
X4762338Y12730861D01*
X4762338Y12880861D02*
X4612338Y12730861D01*
X4762338Y12805861D02*
G75*
G03X4762338Y12805861I-75000J0D01*
G01*
D13*
X286429Y-465714D02*
X286429Y-165714D01*
X357857Y-165714D01*
X400714Y-180000D01*
X429286Y-208571D01*
X443571Y-237143D01*
X457857Y-294286D01*
X457857Y-337143D01*
X443571Y-394286D01*
X429286Y-422857D01*
X400714Y-451428D01*
X357857Y-465714D01*
X286429Y-465714D01*
X586429Y-465714D02*
X586429Y-265714D01*
X586429Y-322857D02*
X600714Y-294286D01*
X615000Y-280000D01*
X643571Y-265714D01*
X672143Y-265714D01*
X772143Y-465714D02*
X772143Y-265714D01*
X772143Y-165714D02*
X757857Y-180000D01*
X772143Y-194286D01*
X786428Y-180000D01*
X772143Y-165714D01*
X772143Y-194286D01*
X957857Y-465714D02*
X929286Y-451428D01*
X915000Y-422857D01*
X915000Y-165714D01*
X1115000Y-465714D02*
X1086429Y-451428D01*
X1072143Y-422857D01*
X1072143Y-165714D01*
X1457857Y-465714D02*
X1457857Y-165714D01*
X1557857Y-380000D01*
X1657857Y-165714D01*
X1657857Y-465714D01*
X1929286Y-465714D02*
X1929286Y-308571D01*
X1915000Y-280000D01*
X1886428Y-265714D01*
X1829286Y-265714D01*
X1800714Y-280000D01*
X1929286Y-451428D02*
X1900714Y-465714D01*
X1829286Y-465714D01*
X1800714Y-451428D01*
X1786428Y-422857D01*
X1786428Y-394286D01*
X1800714Y-365714D01*
X1829286Y-351428D01*
X1900714Y-351428D01*
X1929286Y-337143D01*
X2072143Y-265714D02*
X2072143Y-565714D01*
X2072143Y-280000D02*
X2100714Y-265714D01*
X2157857Y-265714D01*
X2186429Y-280000D01*
X2200714Y-294286D01*
X2215000Y-322857D01*
X2215000Y-408571D01*
X2200714Y-437143D01*
X2186429Y-451428D01*
X2157857Y-465714D01*
X2100714Y-465714D01*
X2072143Y-451428D01*
X2343571Y-437143D02*
X2357857Y-451428D01*
X2343571Y-465714D01*
X2329286Y-451428D01*
X2343571Y-437143D01*
X2343571Y-465714D01*
X2343571Y-280000D02*
X2357857Y-294286D01*
X2343571Y-308571D01*
X2329286Y-294286D01*
X2343571Y-280000D01*
X2343571Y-308571D01*
X-65000Y-927500D02*
X0Y-992500D01*
X0Y-927500D02*
X-65000Y-992500D01*
X343571Y-795714D02*
X372143Y-795714D01*
X400714Y-810000D01*
X415000Y-824286D01*
X429286Y-852857D01*
X443571Y-910000D01*
X443571Y-981428D01*
X429286Y-1038571D01*
X415000Y-1067143D01*
X400714Y-1081429D01*
X372143Y-1095714D01*
X343571Y-1095714D01*
X315000Y-1081429D01*
X300714Y-1067143D01*
X286429Y-1038571D01*
X272143Y-981428D01*
X272143Y-910000D01*
X286429Y-852857D01*
X300714Y-824286D01*
X315000Y-810000D01*
X343571Y-795714D01*
X572143Y-1067143D02*
X586429Y-1081429D01*
X572143Y-1095714D01*
X557857Y-1081429D01*
X572143Y-1067143D01*
X572143Y-1095714D01*
X843571Y-795714D02*
X786428Y-795714D01*
X757857Y-810000D01*
X743571Y-824286D01*
X715000Y-867143D01*
X700714Y-924286D01*
X700714Y-1038571D01*
X715000Y-1067143D01*
X729286Y-1081429D01*
X757857Y-1095714D01*
X815000Y-1095714D01*
X843571Y-1081429D01*
X857857Y-1067143D01*
X872143Y-1038571D01*
X872143Y-967143D01*
X857857Y-938571D01*
X843571Y-924286D01*
X815000Y-910000D01*
X757857Y-910000D01*
X729286Y-924286D01*
X715000Y-938571D01*
X700714Y-967143D01*
X1143571Y-795714D02*
X1000714Y-795714D01*
X986428Y-938571D01*
X1000714Y-924286D01*
X1029286Y-910000D01*
X1100714Y-910000D01*
X1129286Y-924286D01*
X1143571Y-938571D01*
X1157857Y-967143D01*
X1157857Y-1038571D01*
X1143571Y-1067143D01*
X1129286Y-1081429D01*
X1100714Y-1095714D01*
X1029286Y-1095714D01*
X1000714Y-1081429D01*
X986428Y-1067143D01*
X1286429Y-1095714D02*
X1286429Y-895714D01*
X1286429Y-924286D02*
X1300714Y-910000D01*
X1329286Y-895714D01*
X1372143Y-895714D01*
X1400714Y-910000D01*
X1415000Y-938571D01*
X1415000Y-1095714D01*
X1415000Y-938571D02*
X1429286Y-910000D01*
X1457857Y-895714D01*
X1500714Y-895714D01*
X1529286Y-910000D01*
X1543571Y-938571D01*
X1543571Y-1095714D01*
X1686428Y-1095714D02*
X1686428Y-895714D01*
X1686428Y-924286D02*
X1700714Y-910000D01*
X1729286Y-895714D01*
X1772143Y-895714D01*
X1800714Y-910000D01*
X1815000Y-938571D01*
X1815000Y-1095714D01*
X1815000Y-938571D02*
X1829286Y-910000D01*
X1857857Y-895714D01*
X1900714Y-895714D01*
X1929286Y-910000D01*
X1943571Y-938571D01*
X1943571Y-1095714D01*
X2529286Y-781428D02*
X2272143Y-1167143D01*
X2915000Y-795714D02*
X2943571Y-795714D01*
X2972143Y-810000D01*
X2986428Y-824286D01*
X3000714Y-852857D01*
X3015000Y-910000D01*
X3015000Y-981428D01*
X3000714Y-1038571D01*
X2986428Y-1067143D01*
X2972143Y-1081429D01*
X2943571Y-1095714D01*
X2915000Y-1095714D01*
X2886428Y-1081429D01*
X2872143Y-1067143D01*
X2857857Y-1038571D01*
X2843571Y-981428D01*
X2843571Y-910000D01*
X2857857Y-852857D01*
X2872143Y-824286D01*
X2886428Y-810000D01*
X2915000Y-795714D01*
X3143571Y-1067143D02*
X3157857Y-1081429D01*
X3143571Y-1095714D01*
X3129286Y-1081429D01*
X3143571Y-1067143D01*
X3143571Y-1095714D01*
X3343571Y-795714D02*
X3372143Y-795714D01*
X3400714Y-810000D01*
X3415000Y-824286D01*
X3429286Y-852857D01*
X3443571Y-910000D01*
X3443571Y-981428D01*
X3429286Y-1038571D01*
X3415000Y-1067143D01*
X3400714Y-1081429D01*
X3372143Y-1095714D01*
X3343571Y-1095714D01*
X3315000Y-1081429D01*
X3300714Y-1067143D01*
X3286428Y-1038571D01*
X3272143Y-981428D01*
X3272143Y-910000D01*
X3286428Y-852857D01*
X3300714Y-824286D01*
X3315000Y-810000D01*
X3343571Y-795714D01*
X3557857Y-824286D02*
X3572143Y-810000D01*
X3600714Y-795714D01*
X3672143Y-795714D01*
X3700714Y-810000D01*
X3715000Y-824286D01*
X3729286Y-852857D01*
X3729286Y-881428D01*
X3715000Y-924286D01*
X3543571Y-1095714D01*
X3729286Y-1095714D01*
X3986428Y-795714D02*
X3929286Y-795714D01*
X3900714Y-810000D01*
X3886428Y-824286D01*
X3857857Y-867143D01*
X3843571Y-924286D01*
X3843571Y-1038571D01*
X3857857Y-1067143D01*
X3872143Y-1081429D01*
X3900714Y-1095714D01*
X3957857Y-1095714D01*
X3986428Y-1081429D01*
X4000714Y-1067143D01*
X4015000Y-1038571D01*
X4015000Y-967143D01*
X4000714Y-938571D01*
X3986428Y-924286D01*
X3957857Y-910000D01*
X3900714Y-910000D01*
X3872143Y-924286D01*
X3857857Y-938571D01*
X3843571Y-967143D01*
X4129286Y-795714D02*
X4129286Y-852857D01*
X4243571Y-795714D02*
X4243571Y-852857D01*
X4686429Y-1210000D02*
X4672143Y-1195714D01*
X4643571Y-1152857D01*
X4629286Y-1124286D01*
X4615000Y-1081429D01*
X4600714Y-1010000D01*
X4600714Y-952857D01*
X4615000Y-881428D01*
X4629286Y-838571D01*
X4643571Y-810000D01*
X4672143Y-767143D01*
X4686429Y-752857D01*
X4786429Y-824286D02*
X4800714Y-810000D01*
X4829286Y-795714D01*
X4900714Y-795714D01*
X4929286Y-810000D01*
X4943571Y-824286D01*
X4957857Y-852857D01*
X4957857Y-881428D01*
X4943571Y-924286D01*
X4772143Y-1095714D01*
X4957857Y-1095714D01*
X5315000Y-1095714D02*
X5315000Y-795714D01*
X5443571Y-1095714D02*
X5443571Y-938571D01*
X5429286Y-910000D01*
X5400714Y-895714D01*
X5357857Y-895714D01*
X5329286Y-910000D01*
X5315000Y-924286D01*
X5629286Y-1095714D02*
X5600714Y-1081429D01*
X5586429Y-1067143D01*
X5572143Y-1038571D01*
X5572143Y-952857D01*
X5586429Y-924286D01*
X5600714Y-910000D01*
X5629286Y-895714D01*
X5672143Y-895714D01*
X5700714Y-910000D01*
X5715000Y-924286D01*
X5729286Y-952857D01*
X5729286Y-1038571D01*
X5715000Y-1067143D01*
X5700714Y-1081429D01*
X5672143Y-1095714D01*
X5629286Y-1095714D01*
X5900714Y-1095714D02*
X5872143Y-1081429D01*
X5857857Y-1052857D01*
X5857857Y-795714D01*
X6129286Y-1081429D02*
X6100714Y-1095714D01*
X6043571Y-1095714D01*
X6015000Y-1081429D01*
X6000714Y-1052857D01*
X6000714Y-938571D01*
X6015000Y-910000D01*
X6043571Y-895714D01*
X6100714Y-895714D01*
X6129286Y-910000D01*
X6143571Y-938571D01*
X6143571Y-967143D01*
X6000714Y-995714D01*
X6257857Y-1081429D02*
X6286428Y-1095714D01*
X6343571Y-1095714D01*
X6372143Y-1081429D01*
X6386428Y-1052857D01*
X6386428Y-1038571D01*
X6372143Y-1010000D01*
X6343571Y-995714D01*
X6300714Y-995714D01*
X6272143Y-981428D01*
X6257857Y-952857D01*
X6257857Y-938571D01*
X6272143Y-910000D01*
X6300714Y-895714D01*
X6343571Y-895714D01*
X6372143Y-910000D01*
X6486428Y-1210000D02*
X6500714Y-1195714D01*
X6529286Y-1152857D01*
X6543571Y-1124286D01*
X6557857Y-1081429D01*
X6572143Y-1010000D01*
X6572143Y-952857D01*
X6557857Y-881428D01*
X6543571Y-838571D01*
X6529286Y-810000D01*
X6500714Y-767143D01*
X6486428Y-752857D01*
X7029286Y-1210000D02*
X7015000Y-1195714D01*
X6986428Y-1152857D01*
X6972143Y-1124286D01*
X6957857Y-1081429D01*
X6943571Y-1010000D01*
X6943571Y-952857D01*
X6957857Y-881428D01*
X6972143Y-838571D01*
X6986428Y-810000D01*
X7015000Y-767143D01*
X7029286Y-752857D01*
X7143571Y-895714D02*
X7143571Y-1095714D01*
X7143571Y-924286D02*
X7157857Y-910000D01*
X7186428Y-895714D01*
X7229286Y-895714D01*
X7257857Y-910000D01*
X7272143Y-938571D01*
X7272143Y-1095714D01*
X7457857Y-1095714D02*
X7429286Y-1081429D01*
X7415000Y-1067143D01*
X7400714Y-1038571D01*
X7400714Y-952857D01*
X7415000Y-924286D01*
X7429286Y-910000D01*
X7457857Y-895714D01*
X7500714Y-895714D01*
X7529286Y-910000D01*
X7543571Y-924286D01*
X7557857Y-952857D01*
X7557857Y-1038571D01*
X7543571Y-1067143D01*
X7529286Y-1081429D01*
X7500714Y-1095714D01*
X7457857Y-1095714D01*
X7643571Y-895714D02*
X7757857Y-895714D01*
X7686428Y-795714D02*
X7686428Y-1052857D01*
X7700714Y-1081429D01*
X7729286Y-1095714D01*
X7757857Y-1095714D01*
X8086428Y-895714D02*
X8086428Y-1195714D01*
X8086428Y-910000D02*
X8115000Y-895714D01*
X8172143Y-895714D01*
X8200714Y-910000D01*
X8215000Y-924286D01*
X8229286Y-952857D01*
X8229286Y-1038571D01*
X8215000Y-1067143D01*
X8200714Y-1081429D01*
X8172143Y-1095714D01*
X8115000Y-1095714D01*
X8086428Y-1081429D01*
X8400714Y-1095714D02*
X8372143Y-1081429D01*
X8357857Y-1052857D01*
X8357857Y-795714D01*
X8643571Y-1095714D02*
X8643571Y-938571D01*
X8629286Y-910000D01*
X8600714Y-895714D01*
X8543571Y-895714D01*
X8515000Y-910000D01*
X8643571Y-1081429D02*
X8615000Y-1095714D01*
X8543571Y-1095714D01*
X8515000Y-1081429D01*
X8500714Y-1052857D01*
X8500714Y-1024286D01*
X8515000Y-995714D01*
X8543571Y-981428D01*
X8615000Y-981428D01*
X8643571Y-967143D01*
X8743571Y-895714D02*
X8857857Y-895714D01*
X8786429Y-795714D02*
X8786429Y-1052857D01*
X8800714Y-1081429D01*
X8829286Y-1095714D01*
X8857857Y-1095714D01*
X9072143Y-1081429D02*
X9043571Y-1095714D01*
X8986429Y-1095714D01*
X8957857Y-1081429D01*
X8943571Y-1052857D01*
X8943571Y-938571D01*
X8957857Y-910000D01*
X8986429Y-895714D01*
X9043571Y-895714D01*
X9072143Y-910000D01*
X9086429Y-938571D01*
X9086429Y-967143D01*
X8943571Y-995714D01*
X9343571Y-1095714D02*
X9343571Y-795714D01*
X9343571Y-1081429D02*
X9315000Y-1095714D01*
X9257857Y-1095714D01*
X9229286Y-1081429D01*
X9215000Y-1067143D01*
X9200714Y-1038571D01*
X9200714Y-952857D01*
X9215000Y-924286D01*
X9229286Y-910000D01*
X9257857Y-895714D01*
X9315000Y-895714D01*
X9343571Y-910000D01*
X9457857Y-1210000D02*
X9472143Y-1195714D01*
X9500714Y-1152857D01*
X9515000Y-1124286D01*
X9529286Y-1081429D01*
X9543571Y-1010000D01*
X9543571Y-952857D01*
X9529286Y-881428D01*
X9515000Y-838571D01*
X9500714Y-810000D01*
X9472143Y-767143D01*
X9457857Y-752857D01*
X0Y-1356000D02*
G75*
G03X0Y-1356000I-40000J0D01*
G01*
X343571Y-1191714D02*
X372143Y-1191714D01*
X400714Y-1206000D01*
X415000Y-1220286D01*
X429286Y-1248857D01*
X443571Y-1306000D01*
X443571Y-1377429D01*
X429286Y-1434571D01*
X415000Y-1463143D01*
X400714Y-1477428D01*
X372143Y-1491714D01*
X343571Y-1491714D01*
X315000Y-1477428D01*
X300714Y-1463143D01*
X286429Y-1434571D01*
X272143Y-1377429D01*
X272143Y-1306000D01*
X286429Y-1248857D01*
X300714Y-1220286D01*
X315000Y-1206000D01*
X343571Y-1191714D01*
X572143Y-1463143D02*
X586429Y-1477428D01*
X572143Y-1491714D01*
X557857Y-1477428D01*
X572143Y-1463143D01*
X572143Y-1491714D01*
X757857Y-1320286D02*
X729286Y-1306000D01*
X715000Y-1291714D01*
X700714Y-1263143D01*
X700714Y-1248857D01*
X715000Y-1220286D01*
X729286Y-1206000D01*
X757857Y-1191714D01*
X815000Y-1191714D01*
X843571Y-1206000D01*
X857857Y-1220286D01*
X872143Y-1248857D01*
X872143Y-1263143D01*
X857857Y-1291714D01*
X843571Y-1306000D01*
X815000Y-1320286D01*
X757857Y-1320286D01*
X729286Y-1334571D01*
X715000Y-1348857D01*
X700714Y-1377429D01*
X700714Y-1434571D01*
X715000Y-1463143D01*
X729286Y-1477428D01*
X757857Y-1491714D01*
X815000Y-1491714D01*
X843571Y-1477428D01*
X857857Y-1463143D01*
X872143Y-1434571D01*
X872143Y-1377429D01*
X857857Y-1348857D01*
X843571Y-1334571D01*
X815000Y-1320286D01*
X1057857Y-1191714D02*
X1086429Y-1191714D01*
X1115000Y-1206000D01*
X1129286Y-1220286D01*
X1143571Y-1248857D01*
X1157857Y-1306000D01*
X1157857Y-1377429D01*
X1143571Y-1434571D01*
X1129286Y-1463143D01*
X1115000Y-1477428D01*
X1086429Y-1491714D01*
X1057857Y-1491714D01*
X1029286Y-1477428D01*
X1015000Y-1463143D01*
X1000714Y-1434571D01*
X986428Y-1377429D01*
X986428Y-1306000D01*
X1000714Y-1248857D01*
X1015000Y-1220286D01*
X1029286Y-1206000D01*
X1057857Y-1191714D01*
X1286429Y-1491714D02*
X1286429Y-1291714D01*
X1286429Y-1320286D02*
X1300714Y-1306000D01*
X1329286Y-1291714D01*
X1372143Y-1291714D01*
X1400714Y-1306000D01*
X1415000Y-1334571D01*
X1415000Y-1491714D01*
X1415000Y-1334571D02*
X1429286Y-1306000D01*
X1457857Y-1291714D01*
X1500714Y-1291714D01*
X1529286Y-1306000D01*
X1543571Y-1334571D01*
X1543571Y-1491714D01*
X1686428Y-1491714D02*
X1686428Y-1291714D01*
X1686428Y-1320286D02*
X1700714Y-1306000D01*
X1729286Y-1291714D01*
X1772143Y-1291714D01*
X1800714Y-1306000D01*
X1815000Y-1334571D01*
X1815000Y-1491714D01*
X1815000Y-1334571D02*
X1829286Y-1306000D01*
X1857857Y-1291714D01*
X1900714Y-1291714D01*
X1929286Y-1306000D01*
X1943571Y-1334571D01*
X1943571Y-1491714D01*
X2529286Y-1177429D02*
X2272143Y-1563143D01*
X2915000Y-1191714D02*
X2943571Y-1191714D01*
X2972143Y-1206000D01*
X2986428Y-1220286D01*
X3000714Y-1248857D01*
X3015000Y-1306000D01*
X3015000Y-1377429D01*
X3000714Y-1434571D01*
X2986428Y-1463143D01*
X2972143Y-1477428D01*
X2943571Y-1491714D01*
X2915000Y-1491714D01*
X2886428Y-1477428D01*
X2872143Y-1463143D01*
X2857857Y-1434571D01*
X2843571Y-1377429D01*
X2843571Y-1306000D01*
X2857857Y-1248857D01*
X2872143Y-1220286D01*
X2886428Y-1206000D01*
X2915000Y-1191714D01*
X3143571Y-1463143D02*
X3157857Y-1477428D01*
X3143571Y-1491714D01*
X3129286Y-1477428D01*
X3143571Y-1463143D01*
X3143571Y-1491714D01*
X3343571Y-1191714D02*
X3372143Y-1191714D01*
X3400714Y-1206000D01*
X3415000Y-1220286D01*
X3429286Y-1248857D01*
X3443571Y-1306000D01*
X3443571Y-1377429D01*
X3429286Y-1434571D01*
X3415000Y-1463143D01*
X3400714Y-1477428D01*
X3372143Y-1491714D01*
X3343571Y-1491714D01*
X3315000Y-1477428D01*
X3300714Y-1463143D01*
X3286428Y-1434571D01*
X3272143Y-1377429D01*
X3272143Y-1306000D01*
X3286428Y-1248857D01*
X3300714Y-1220286D01*
X3315000Y-1206000D01*
X3343571Y-1191714D01*
X3543571Y-1191714D02*
X3729286Y-1191714D01*
X3629286Y-1306000D01*
X3672143Y-1306000D01*
X3700714Y-1320286D01*
X3715000Y-1334571D01*
X3729286Y-1363143D01*
X3729286Y-1434571D01*
X3715000Y-1463143D01*
X3700714Y-1477428D01*
X3672143Y-1491714D01*
X3586428Y-1491714D01*
X3557857Y-1477428D01*
X3543571Y-1463143D01*
X4015000Y-1491714D02*
X3843571Y-1491714D01*
X3929286Y-1491714D02*
X3929286Y-1191714D01*
X3900714Y-1234571D01*
X3872143Y-1263143D01*
X3843571Y-1277429D01*
X4129286Y-1191714D02*
X4129286Y-1248857D01*
X4243571Y-1191714D02*
X4243571Y-1248857D01*
X4686429Y-1606000D02*
X4672143Y-1591714D01*
X4643571Y-1548857D01*
X4629286Y-1520286D01*
X4615000Y-1477428D01*
X4600714Y-1406000D01*
X4600714Y-1348857D01*
X4615000Y-1277429D01*
X4629286Y-1234571D01*
X4643571Y-1206000D01*
X4672143Y-1163143D01*
X4686429Y-1148857D01*
X4957857Y-1491714D02*
X4786429Y-1491714D01*
X4872143Y-1491714D02*
X4872143Y-1191714D01*
X4843571Y-1234571D01*
X4815000Y-1263143D01*
X4786429Y-1277429D01*
X5315000Y-1491714D02*
X5315000Y-1191714D01*
X5443571Y-1491714D02*
X5443571Y-1334571D01*
X5429286Y-1306000D01*
X5400714Y-1291714D01*
X5357857Y-1291714D01*
X5329286Y-1306000D01*
X5315000Y-1320286D01*
X5629286Y-1491714D02*
X5600714Y-1477428D01*
X5586429Y-1463143D01*
X5572143Y-1434571D01*
X5572143Y-1348857D01*
X5586429Y-1320286D01*
X5600714Y-1306000D01*
X5629286Y-1291714D01*
X5672143Y-1291714D01*
X5700714Y-1306000D01*
X5715000Y-1320286D01*
X5729286Y-1348857D01*
X5729286Y-1434571D01*
X5715000Y-1463143D01*
X5700714Y-1477428D01*
X5672143Y-1491714D01*
X5629286Y-1491714D01*
X5900714Y-1491714D02*
X5872143Y-1477428D01*
X5857857Y-1448857D01*
X5857857Y-1191714D01*
X6129286Y-1477428D02*
X6100714Y-1491714D01*
X6043571Y-1491714D01*
X6015000Y-1477428D01*
X6000714Y-1448857D01*
X6000714Y-1334571D01*
X6015000Y-1306000D01*
X6043571Y-1291714D01*
X6100714Y-1291714D01*
X6129286Y-1306000D01*
X6143571Y-1334571D01*
X6143571Y-1363143D01*
X6000714Y-1391714D01*
X6243571Y-1606000D02*
X6257857Y-1591714D01*
X6286428Y-1548857D01*
X6300714Y-1520286D01*
X6315000Y-1477428D01*
X6329286Y-1406000D01*
X6329286Y-1348857D01*
X6315000Y-1277429D01*
X6300714Y-1234571D01*
X6286428Y-1206000D01*
X6257857Y-1163143D01*
X6243571Y-1148857D01*
X6786428Y-1606000D02*
X6772143Y-1591714D01*
X6743571Y-1548857D01*
X6729286Y-1520286D01*
X6715000Y-1477428D01*
X6700714Y-1406000D01*
X6700714Y-1348857D01*
X6715000Y-1277429D01*
X6729286Y-1234571D01*
X6743571Y-1206000D01*
X6772143Y-1163143D01*
X6786428Y-1148857D01*
X6900714Y-1291714D02*
X6900714Y-1491714D01*
X6900714Y-1320286D02*
X6915000Y-1306000D01*
X6943571Y-1291714D01*
X6986428Y-1291714D01*
X7015000Y-1306000D01*
X7029286Y-1334571D01*
X7029286Y-1491714D01*
X7215000Y-1491714D02*
X7186428Y-1477428D01*
X7172143Y-1463143D01*
X7157857Y-1434571D01*
X7157857Y-1348857D01*
X7172143Y-1320286D01*
X7186428Y-1306000D01*
X7215000Y-1291714D01*
X7257857Y-1291714D01*
X7286428Y-1306000D01*
X7300714Y-1320286D01*
X7315000Y-1348857D01*
X7315000Y-1434571D01*
X7300714Y-1463143D01*
X7286428Y-1477428D01*
X7257857Y-1491714D01*
X7215000Y-1491714D01*
X7400714Y-1291714D02*
X7515000Y-1291714D01*
X7443571Y-1191714D02*
X7443571Y-1448857D01*
X7457857Y-1477428D01*
X7486428Y-1491714D01*
X7515000Y-1491714D01*
X7843571Y-1291714D02*
X7843571Y-1591714D01*
X7843571Y-1306000D02*
X7872143Y-1291714D01*
X7929286Y-1291714D01*
X7957857Y-1306000D01*
X7972143Y-1320286D01*
X7986428Y-1348857D01*
X7986428Y-1434571D01*
X7972143Y-1463143D01*
X7957857Y-1477428D01*
X7929286Y-1491714D01*
X7872143Y-1491714D01*
X7843571Y-1477428D01*
X8157857Y-1491714D02*
X8129286Y-1477428D01*
X8115000Y-1448857D01*
X8115000Y-1191714D01*
X8400714Y-1491714D02*
X8400714Y-1334571D01*
X8386428Y-1306000D01*
X8357857Y-1291714D01*
X8300714Y-1291714D01*
X8272143Y-1306000D01*
X8400714Y-1477428D02*
X8372143Y-1491714D01*
X8300714Y-1491714D01*
X8272143Y-1477428D01*
X8257857Y-1448857D01*
X8257857Y-1420286D01*
X8272143Y-1391714D01*
X8300714Y-1377429D01*
X8372143Y-1377429D01*
X8400714Y-1363143D01*
X8500714Y-1291714D02*
X8615000Y-1291714D01*
X8543571Y-1191714D02*
X8543571Y-1448857D01*
X8557857Y-1477428D01*
X8586429Y-1491714D01*
X8615000Y-1491714D01*
X8829286Y-1477428D02*
X8800714Y-1491714D01*
X8743571Y-1491714D01*
X8715000Y-1477428D01*
X8700714Y-1448857D01*
X8700714Y-1334571D01*
X8715000Y-1306000D01*
X8743571Y-1291714D01*
X8800714Y-1291714D01*
X8829286Y-1306000D01*
X8843571Y-1334571D01*
X8843571Y-1363143D01*
X8700714Y-1391714D01*
X9100714Y-1491714D02*
X9100714Y-1191714D01*
X9100714Y-1477428D02*
X9072143Y-1491714D01*
X9015000Y-1491714D01*
X8986429Y-1477428D01*
X8972143Y-1463143D01*
X8957857Y-1434571D01*
X8957857Y-1348857D01*
X8972143Y-1320286D01*
X8986429Y-1306000D01*
X9015000Y-1291714D01*
X9072143Y-1291714D01*
X9100714Y-1306000D01*
X9215000Y-1606000D02*
X9229286Y-1591714D01*
X9257857Y-1548857D01*
X9272143Y-1520286D01*
X9286429Y-1477428D01*
X9300714Y-1406000D01*
X9300714Y-1348857D01*
X9286429Y-1277429D01*
X9272143Y-1234571D01*
X9257857Y-1206000D01*
X9229286Y-1163143D01*
X9215000Y-1148857D01*
X-45000Y-1707000D02*
X-45000Y-1797000D01*
X-90000Y-1752000D02*
X0Y-1752000D01*
X343571Y-1587714D02*
X372143Y-1587714D01*
X400714Y-1602000D01*
X415000Y-1616286D01*
X429286Y-1644857D01*
X443571Y-1702000D01*
X443571Y-1773428D01*
X429286Y-1830571D01*
X415000Y-1859143D01*
X400714Y-1873428D01*
X372143Y-1887714D01*
X343571Y-1887714D01*
X315000Y-1873428D01*
X300714Y-1859143D01*
X286429Y-1830571D01*
X272143Y-1773428D01*
X272143Y-1702000D01*
X286429Y-1644857D01*
X300714Y-1616286D01*
X315000Y-1602000D01*
X343571Y-1587714D01*
X572143Y-1859143D02*
X586429Y-1873428D01*
X572143Y-1887714D01*
X557857Y-1873428D01*
X572143Y-1859143D01*
X572143Y-1887714D01*
X729286Y-1887714D02*
X786428Y-1887714D01*
X815000Y-1873428D01*
X829286Y-1859143D01*
X857857Y-1816286D01*
X872143Y-1759143D01*
X872143Y-1644857D01*
X857857Y-1616286D01*
X843571Y-1602000D01*
X815000Y-1587714D01*
X757857Y-1587714D01*
X729286Y-1602000D01*
X715000Y-1616286D01*
X700714Y-1644857D01*
X700714Y-1716286D01*
X715000Y-1744857D01*
X729286Y-1759143D01*
X757857Y-1773428D01*
X815000Y-1773428D01*
X843571Y-1759143D01*
X857857Y-1744857D01*
X872143Y-1716286D01*
X1057857Y-1587714D02*
X1086429Y-1587714D01*
X1115000Y-1602000D01*
X1129286Y-1616286D01*
X1143571Y-1644857D01*
X1157857Y-1702000D01*
X1157857Y-1773428D01*
X1143571Y-1830571D01*
X1129286Y-1859143D01*
X1115000Y-1873428D01*
X1086429Y-1887714D01*
X1057857Y-1887714D01*
X1029286Y-1873428D01*
X1015000Y-1859143D01*
X1000714Y-1830571D01*
X986428Y-1773428D01*
X986428Y-1702000D01*
X1000714Y-1644857D01*
X1015000Y-1616286D01*
X1029286Y-1602000D01*
X1057857Y-1587714D01*
X1286429Y-1887714D02*
X1286429Y-1687714D01*
X1286429Y-1716286D02*
X1300714Y-1702000D01*
X1329286Y-1687714D01*
X1372143Y-1687714D01*
X1400714Y-1702000D01*
X1415000Y-1730571D01*
X1415000Y-1887714D01*
X1415000Y-1730571D02*
X1429286Y-1702000D01*
X1457857Y-1687714D01*
X1500714Y-1687714D01*
X1529286Y-1702000D01*
X1543571Y-1730571D01*
X1543571Y-1887714D01*
X1686428Y-1887714D02*
X1686428Y-1687714D01*
X1686428Y-1716286D02*
X1700714Y-1702000D01*
X1729286Y-1687714D01*
X1772143Y-1687714D01*
X1800714Y-1702000D01*
X1815000Y-1730571D01*
X1815000Y-1887714D01*
X1815000Y-1730571D02*
X1829286Y-1702000D01*
X1857857Y-1687714D01*
X1900714Y-1687714D01*
X1929286Y-1702000D01*
X1943571Y-1730571D01*
X1943571Y-1887714D01*
X2529286Y-1573428D02*
X2272143Y-1959143D01*
X2915000Y-1587714D02*
X2943571Y-1587714D01*
X2972143Y-1602000D01*
X2986428Y-1616286D01*
X3000714Y-1644857D01*
X3015000Y-1702000D01*
X3015000Y-1773428D01*
X3000714Y-1830571D01*
X2986428Y-1859143D01*
X2972143Y-1873428D01*
X2943571Y-1887714D01*
X2915000Y-1887714D01*
X2886428Y-1873428D01*
X2872143Y-1859143D01*
X2857857Y-1830571D01*
X2843571Y-1773428D01*
X2843571Y-1702000D01*
X2857857Y-1644857D01*
X2872143Y-1616286D01*
X2886428Y-1602000D01*
X2915000Y-1587714D01*
X3143571Y-1859143D02*
X3157857Y-1873428D01*
X3143571Y-1887714D01*
X3129286Y-1873428D01*
X3143571Y-1859143D01*
X3143571Y-1887714D01*
X3343571Y-1587714D02*
X3372143Y-1587714D01*
X3400714Y-1602000D01*
X3415000Y-1616286D01*
X3429286Y-1644857D01*
X3443571Y-1702000D01*
X3443571Y-1773428D01*
X3429286Y-1830571D01*
X3415000Y-1859143D01*
X3400714Y-1873428D01*
X3372143Y-1887714D01*
X3343571Y-1887714D01*
X3315000Y-1873428D01*
X3300714Y-1859143D01*
X3286428Y-1830571D01*
X3272143Y-1773428D01*
X3272143Y-1702000D01*
X3286428Y-1644857D01*
X3300714Y-1616286D01*
X3315000Y-1602000D01*
X3343571Y-1587714D01*
X3543571Y-1587714D02*
X3729286Y-1587714D01*
X3629286Y-1702000D01*
X3672143Y-1702000D01*
X3700714Y-1716286D01*
X3715000Y-1730571D01*
X3729286Y-1759143D01*
X3729286Y-1830571D01*
X3715000Y-1859143D01*
X3700714Y-1873428D01*
X3672143Y-1887714D01*
X3586428Y-1887714D01*
X3557857Y-1873428D01*
X3543571Y-1859143D01*
X4000714Y-1587714D02*
X3857857Y-1587714D01*
X3843571Y-1730571D01*
X3857857Y-1716286D01*
X3886428Y-1702000D01*
X3957857Y-1702000D01*
X3986428Y-1716286D01*
X4000714Y-1730571D01*
X4015000Y-1759143D01*
X4015000Y-1830571D01*
X4000714Y-1859143D01*
X3986428Y-1873428D01*
X3957857Y-1887714D01*
X3886428Y-1887714D01*
X3857857Y-1873428D01*
X3843571Y-1859143D01*
X4129286Y-1587714D02*
X4129286Y-1644857D01*
X4243571Y-1587714D02*
X4243571Y-1644857D01*
X4686429Y-2002000D02*
X4672143Y-1987714D01*
X4643571Y-1944857D01*
X4629286Y-1916286D01*
X4615000Y-1873428D01*
X4600714Y-1802000D01*
X4600714Y-1744857D01*
X4615000Y-1673428D01*
X4629286Y-1630571D01*
X4643571Y-1602000D01*
X4672143Y-1559143D01*
X4686429Y-1544857D01*
X4929286Y-1687714D02*
X4929286Y-1887714D01*
X4857857Y-1573428D02*
X4786429Y-1787714D01*
X4972143Y-1787714D01*
X5315000Y-1887714D02*
X5315000Y-1587714D01*
X5443571Y-1887714D02*
X5443571Y-1730571D01*
X5429286Y-1702000D01*
X5400714Y-1687714D01*
X5357857Y-1687714D01*
X5329286Y-1702000D01*
X5315000Y-1716286D01*
X5629286Y-1887714D02*
X5600714Y-1873428D01*
X5586429Y-1859143D01*
X5572143Y-1830571D01*
X5572143Y-1744857D01*
X5586429Y-1716286D01*
X5600714Y-1702000D01*
X5629286Y-1687714D01*
X5672143Y-1687714D01*
X5700714Y-1702000D01*
X5715000Y-1716286D01*
X5729286Y-1744857D01*
X5729286Y-1830571D01*
X5715000Y-1859143D01*
X5700714Y-1873428D01*
X5672143Y-1887714D01*
X5629286Y-1887714D01*
X5900714Y-1887714D02*
X5872143Y-1873428D01*
X5857857Y-1844857D01*
X5857857Y-1587714D01*
X6129286Y-1873428D02*
X6100714Y-1887714D01*
X6043571Y-1887714D01*
X6015000Y-1873428D01*
X6000714Y-1844857D01*
X6000714Y-1730571D01*
X6015000Y-1702000D01*
X6043571Y-1687714D01*
X6100714Y-1687714D01*
X6129286Y-1702000D01*
X6143571Y-1730571D01*
X6143571Y-1759143D01*
X6000714Y-1787714D01*
X6257857Y-1873428D02*
X6286428Y-1887714D01*
X6343571Y-1887714D01*
X6372143Y-1873428D01*
X6386428Y-1844857D01*
X6386428Y-1830571D01*
X6372143Y-1802000D01*
X6343571Y-1787714D01*
X6300714Y-1787714D01*
X6272143Y-1773428D01*
X6257857Y-1744857D01*
X6257857Y-1730571D01*
X6272143Y-1702000D01*
X6300714Y-1687714D01*
X6343571Y-1687714D01*
X6372143Y-1702000D01*
X6486428Y-2002000D02*
X6500714Y-1987714D01*
X6529286Y-1944857D01*
X6543571Y-1916286D01*
X6557857Y-1873428D01*
X6572143Y-1802000D01*
X6572143Y-1744857D01*
X6557857Y-1673428D01*
X6543571Y-1630571D01*
X6529286Y-1602000D01*
X6500714Y-1559143D01*
X6486428Y-1544857D01*
X7029286Y-2002000D02*
X7015000Y-1987714D01*
X6986428Y-1944857D01*
X6972143Y-1916286D01*
X6957857Y-1873428D01*
X6943571Y-1802000D01*
X6943571Y-1744857D01*
X6957857Y-1673428D01*
X6972143Y-1630571D01*
X6986428Y-1602000D01*
X7015000Y-1559143D01*
X7029286Y-1544857D01*
X7143571Y-1687714D02*
X7143571Y-1887714D01*
X7143571Y-1716286D02*
X7157857Y-1702000D01*
X7186428Y-1687714D01*
X7229286Y-1687714D01*
X7257857Y-1702000D01*
X7272143Y-1730571D01*
X7272143Y-1887714D01*
X7457857Y-1887714D02*
X7429286Y-1873428D01*
X7415000Y-1859143D01*
X7400714Y-1830571D01*
X7400714Y-1744857D01*
X7415000Y-1716286D01*
X7429286Y-1702000D01*
X7457857Y-1687714D01*
X7500714Y-1687714D01*
X7529286Y-1702000D01*
X7543571Y-1716286D01*
X7557857Y-1744857D01*
X7557857Y-1830571D01*
X7543571Y-1859143D01*
X7529286Y-1873428D01*
X7500714Y-1887714D01*
X7457857Y-1887714D01*
X7643571Y-1687714D02*
X7757857Y-1687714D01*
X7686428Y-1587714D02*
X7686428Y-1844857D01*
X7700714Y-1873428D01*
X7729286Y-1887714D01*
X7757857Y-1887714D01*
X8086428Y-1687714D02*
X8086428Y-1987714D01*
X8086428Y-1702000D02*
X8115000Y-1687714D01*
X8172143Y-1687714D01*
X8200714Y-1702000D01*
X8215000Y-1716286D01*
X8229286Y-1744857D01*
X8229286Y-1830571D01*
X8215000Y-1859143D01*
X8200714Y-1873428D01*
X8172143Y-1887714D01*
X8115000Y-1887714D01*
X8086428Y-1873428D01*
X8400714Y-1887714D02*
X8372143Y-1873428D01*
X8357857Y-1844857D01*
X8357857Y-1587714D01*
X8643571Y-1887714D02*
X8643571Y-1730571D01*
X8629286Y-1702000D01*
X8600714Y-1687714D01*
X8543571Y-1687714D01*
X8515000Y-1702000D01*
X8643571Y-1873428D02*
X8615000Y-1887714D01*
X8543571Y-1887714D01*
X8515000Y-1873428D01*
X8500714Y-1844857D01*
X8500714Y-1816286D01*
X8515000Y-1787714D01*
X8543571Y-1773428D01*
X8615000Y-1773428D01*
X8643571Y-1759143D01*
X8743571Y-1687714D02*
X8857857Y-1687714D01*
X8786429Y-1587714D02*
X8786429Y-1844857D01*
X8800714Y-1873428D01*
X8829286Y-1887714D01*
X8857857Y-1887714D01*
X9072143Y-1873428D02*
X9043571Y-1887714D01*
X8986429Y-1887714D01*
X8957857Y-1873428D01*
X8943571Y-1844857D01*
X8943571Y-1730571D01*
X8957857Y-1702000D01*
X8986429Y-1687714D01*
X9043571Y-1687714D01*
X9072143Y-1702000D01*
X9086429Y-1730571D01*
X9086429Y-1759143D01*
X8943571Y-1787714D01*
X9343571Y-1887714D02*
X9343571Y-1587714D01*
X9343571Y-1873428D02*
X9315000Y-1887714D01*
X9257857Y-1887714D01*
X9229286Y-1873428D01*
X9215000Y-1859143D01*
X9200714Y-1830571D01*
X9200714Y-1744857D01*
X9215000Y-1716286D01*
X9229286Y-1702000D01*
X9257857Y-1687714D01*
X9315000Y-1687714D01*
X9343571Y-1702000D01*
X9457857Y-2002000D02*
X9472143Y-1987714D01*
X9500714Y-1944857D01*
X9515000Y-1916286D01*
X9529286Y-1873428D01*
X9543571Y-1802000D01*
X9543571Y-1744857D01*
X9529286Y-1673428D01*
X9515000Y-1630571D01*
X9500714Y-1602000D01*
X9472143Y-1559143D01*
X9457857Y-1544857D01*
X-14644Y-2183356D02*
X-14644Y-2112644D01*
X-85356Y-2112644D01*
X-85356Y-2183356D01*
X-14644Y-2183356D01*
X443571Y-2283714D02*
X272143Y-2283714D01*
X357857Y-2283714D02*
X357857Y-1983714D01*
X329286Y-2026571D01*
X300714Y-2055143D01*
X272143Y-2069428D01*
X572143Y-2255143D02*
X586429Y-2269429D01*
X572143Y-2283714D01*
X557857Y-2269429D01*
X572143Y-2255143D01*
X572143Y-2283714D01*
X772143Y-1983714D02*
X800714Y-1983714D01*
X829286Y-1998000D01*
X843571Y-2012286D01*
X857857Y-2040857D01*
X872143Y-2098000D01*
X872143Y-2169429D01*
X857857Y-2226571D01*
X843571Y-2255143D01*
X829286Y-2269429D01*
X800714Y-2283714D01*
X772143Y-2283714D01*
X743571Y-2269429D01*
X729286Y-2255143D01*
X715000Y-2226571D01*
X700714Y-2169429D01*
X700714Y-2098000D01*
X715000Y-2040857D01*
X729286Y-2012286D01*
X743571Y-1998000D01*
X772143Y-1983714D01*
X1057857Y-1983714D02*
X1086429Y-1983714D01*
X1115000Y-1998000D01*
X1129286Y-2012286D01*
X1143571Y-2040857D01*
X1157857Y-2098000D01*
X1157857Y-2169429D01*
X1143571Y-2226571D01*
X1129286Y-2255143D01*
X1115000Y-2269429D01*
X1086429Y-2283714D01*
X1057857Y-2283714D01*
X1029286Y-2269429D01*
X1015000Y-2255143D01*
X1000714Y-2226571D01*
X986428Y-2169429D01*
X986428Y-2098000D01*
X1000714Y-2040857D01*
X1015000Y-2012286D01*
X1029286Y-1998000D01*
X1057857Y-1983714D01*
X1286429Y-2283714D02*
X1286429Y-2083714D01*
X1286429Y-2112286D02*
X1300714Y-2098000D01*
X1329286Y-2083714D01*
X1372143Y-2083714D01*
X1400714Y-2098000D01*
X1415000Y-2126571D01*
X1415000Y-2283714D01*
X1415000Y-2126571D02*
X1429286Y-2098000D01*
X1457857Y-2083714D01*
X1500714Y-2083714D01*
X1529286Y-2098000D01*
X1543571Y-2126571D01*
X1543571Y-2283714D01*
X1686428Y-2283714D02*
X1686428Y-2083714D01*
X1686428Y-2112286D02*
X1700714Y-2098000D01*
X1729286Y-2083714D01*
X1772143Y-2083714D01*
X1800714Y-2098000D01*
X1815000Y-2126571D01*
X1815000Y-2283714D01*
X1815000Y-2126571D02*
X1829286Y-2098000D01*
X1857857Y-2083714D01*
X1900714Y-2083714D01*
X1929286Y-2098000D01*
X1943571Y-2126571D01*
X1943571Y-2283714D01*
X2529286Y-1969428D02*
X2272143Y-2355143D01*
X2915000Y-1983714D02*
X2943571Y-1983714D01*
X2972143Y-1998000D01*
X2986428Y-2012286D01*
X3000714Y-2040857D01*
X3015000Y-2098000D01*
X3015000Y-2169429D01*
X3000714Y-2226571D01*
X2986428Y-2255143D01*
X2972143Y-2269429D01*
X2943571Y-2283714D01*
X2915000Y-2283714D01*
X2886428Y-2269429D01*
X2872143Y-2255143D01*
X2857857Y-2226571D01*
X2843571Y-2169429D01*
X2843571Y-2098000D01*
X2857857Y-2040857D01*
X2872143Y-2012286D01*
X2886428Y-1998000D01*
X2915000Y-1983714D01*
X3143571Y-2255143D02*
X3157857Y-2269429D01*
X3143571Y-2283714D01*
X3129286Y-2269429D01*
X3143571Y-2255143D01*
X3143571Y-2283714D01*
X3343571Y-1983714D02*
X3372143Y-1983714D01*
X3400714Y-1998000D01*
X3415000Y-2012286D01*
X3429286Y-2040857D01*
X3443571Y-2098000D01*
X3443571Y-2169429D01*
X3429286Y-2226571D01*
X3415000Y-2255143D01*
X3400714Y-2269429D01*
X3372143Y-2283714D01*
X3343571Y-2283714D01*
X3315000Y-2269429D01*
X3300714Y-2255143D01*
X3286428Y-2226571D01*
X3272143Y-2169429D01*
X3272143Y-2098000D01*
X3286428Y-2040857D01*
X3300714Y-2012286D01*
X3315000Y-1998000D01*
X3343571Y-1983714D01*
X3543571Y-1983714D02*
X3729286Y-1983714D01*
X3629286Y-2098000D01*
X3672143Y-2098000D01*
X3700714Y-2112286D01*
X3715000Y-2126571D01*
X3729286Y-2155143D01*
X3729286Y-2226571D01*
X3715000Y-2255143D01*
X3700714Y-2269429D01*
X3672143Y-2283714D01*
X3586428Y-2283714D01*
X3557857Y-2269429D01*
X3543571Y-2255143D01*
X3872143Y-2283714D02*
X3929286Y-2283714D01*
X3957857Y-2269429D01*
X3972143Y-2255143D01*
X4000714Y-2212286D01*
X4015000Y-2155143D01*
X4015000Y-2040857D01*
X4000714Y-2012286D01*
X3986428Y-1998000D01*
X3957857Y-1983714D01*
X3900714Y-1983714D01*
X3872143Y-1998000D01*
X3857857Y-2012286D01*
X3843571Y-2040857D01*
X3843571Y-2112286D01*
X3857857Y-2140857D01*
X3872143Y-2155143D01*
X3900714Y-2169429D01*
X3957857Y-2169429D01*
X3986428Y-2155143D01*
X4000714Y-2140857D01*
X4015000Y-2112286D01*
X4129286Y-1983714D02*
X4129286Y-2040857D01*
X4243571Y-1983714D02*
X4243571Y-2040857D01*
X4686429Y-2398000D02*
X4672143Y-2383714D01*
X4643571Y-2340857D01*
X4629286Y-2312286D01*
X4615000Y-2269429D01*
X4600714Y-2198000D01*
X4600714Y-2140857D01*
X4615000Y-2069428D01*
X4629286Y-2026571D01*
X4643571Y-1998000D01*
X4672143Y-1955143D01*
X4686429Y-1940857D01*
X4929286Y-1983714D02*
X4872143Y-1983714D01*
X4843571Y-1998000D01*
X4829286Y-2012286D01*
X4800714Y-2055143D01*
X4786429Y-2112286D01*
X4786429Y-2226571D01*
X4800714Y-2255143D01*
X4815000Y-2269429D01*
X4843571Y-2283714D01*
X4900714Y-2283714D01*
X4929286Y-2269429D01*
X4943571Y-2255143D01*
X4957857Y-2226571D01*
X4957857Y-2155143D01*
X4943571Y-2126571D01*
X4929286Y-2112286D01*
X4900714Y-2098000D01*
X4843571Y-2098000D01*
X4815000Y-2112286D01*
X4800714Y-2126571D01*
X4786429Y-2155143D01*
X5315000Y-2283714D02*
X5315000Y-1983714D01*
X5443571Y-2283714D02*
X5443571Y-2126571D01*
X5429286Y-2098000D01*
X5400714Y-2083714D01*
X5357857Y-2083714D01*
X5329286Y-2098000D01*
X5315000Y-2112286D01*
X5629286Y-2283714D02*
X5600714Y-2269429D01*
X5586429Y-2255143D01*
X5572143Y-2226571D01*
X5572143Y-2140857D01*
X5586429Y-2112286D01*
X5600714Y-2098000D01*
X5629286Y-2083714D01*
X5672143Y-2083714D01*
X5700714Y-2098000D01*
X5715000Y-2112286D01*
X5729286Y-2140857D01*
X5729286Y-2226571D01*
X5715000Y-2255143D01*
X5700714Y-2269429D01*
X5672143Y-2283714D01*
X5629286Y-2283714D01*
X5900714Y-2283714D02*
X5872143Y-2269429D01*
X5857857Y-2240857D01*
X5857857Y-1983714D01*
X6129286Y-2269429D02*
X6100714Y-2283714D01*
X6043571Y-2283714D01*
X6015000Y-2269429D01*
X6000714Y-2240857D01*
X6000714Y-2126571D01*
X6015000Y-2098000D01*
X6043571Y-2083714D01*
X6100714Y-2083714D01*
X6129286Y-2098000D01*
X6143571Y-2126571D01*
X6143571Y-2155143D01*
X6000714Y-2183714D01*
X6257857Y-2269429D02*
X6286428Y-2283714D01*
X6343571Y-2283714D01*
X6372143Y-2269429D01*
X6386428Y-2240857D01*
X6386428Y-2226571D01*
X6372143Y-2198000D01*
X6343571Y-2183714D01*
X6300714Y-2183714D01*
X6272143Y-2169429D01*
X6257857Y-2140857D01*
X6257857Y-2126571D01*
X6272143Y-2098000D01*
X6300714Y-2083714D01*
X6343571Y-2083714D01*
X6372143Y-2098000D01*
X6486428Y-2398000D02*
X6500714Y-2383714D01*
X6529286Y-2340857D01*
X6543571Y-2312286D01*
X6557857Y-2269429D01*
X6572143Y-2198000D01*
X6572143Y-2140857D01*
X6557857Y-2069428D01*
X6543571Y-2026571D01*
X6529286Y-1998000D01*
X6500714Y-1955143D01*
X6486428Y-1940857D01*
X7029286Y-2398000D02*
X7015000Y-2383714D01*
X6986428Y-2340857D01*
X6972143Y-2312286D01*
X6957857Y-2269429D01*
X6943571Y-2198000D01*
X6943571Y-2140857D01*
X6957857Y-2069428D01*
X6972143Y-2026571D01*
X6986428Y-1998000D01*
X7015000Y-1955143D01*
X7029286Y-1940857D01*
X7143571Y-2083714D02*
X7143571Y-2283714D01*
X7143571Y-2112286D02*
X7157857Y-2098000D01*
X7186428Y-2083714D01*
X7229286Y-2083714D01*
X7257857Y-2098000D01*
X7272143Y-2126571D01*
X7272143Y-2283714D01*
X7457857Y-2283714D02*
X7429286Y-2269429D01*
X7415000Y-2255143D01*
X7400714Y-2226571D01*
X7400714Y-2140857D01*
X7415000Y-2112286D01*
X7429286Y-2098000D01*
X7457857Y-2083714D01*
X7500714Y-2083714D01*
X7529286Y-2098000D01*
X7543571Y-2112286D01*
X7557857Y-2140857D01*
X7557857Y-2226571D01*
X7543571Y-2255143D01*
X7529286Y-2269429D01*
X7500714Y-2283714D01*
X7457857Y-2283714D01*
X7643571Y-2083714D02*
X7757857Y-2083714D01*
X7686428Y-1983714D02*
X7686428Y-2240857D01*
X7700714Y-2269429D01*
X7729286Y-2283714D01*
X7757857Y-2283714D01*
X8086428Y-2083714D02*
X8086428Y-2383714D01*
X8086428Y-2098000D02*
X8115000Y-2083714D01*
X8172143Y-2083714D01*
X8200714Y-2098000D01*
X8215000Y-2112286D01*
X8229286Y-2140857D01*
X8229286Y-2226571D01*
X8215000Y-2255143D01*
X8200714Y-2269429D01*
X8172143Y-2283714D01*
X8115000Y-2283714D01*
X8086428Y-2269429D01*
X8400714Y-2283714D02*
X8372143Y-2269429D01*
X8357857Y-2240857D01*
X8357857Y-1983714D01*
X8643571Y-2283714D02*
X8643571Y-2126571D01*
X8629286Y-2098000D01*
X8600714Y-2083714D01*
X8543571Y-2083714D01*
X8515000Y-2098000D01*
X8643571Y-2269429D02*
X8615000Y-2283714D01*
X8543571Y-2283714D01*
X8515000Y-2269429D01*
X8500714Y-2240857D01*
X8500714Y-2212286D01*
X8515000Y-2183714D01*
X8543571Y-2169429D01*
X8615000Y-2169429D01*
X8643571Y-2155143D01*
X8743571Y-2083714D02*
X8857857Y-2083714D01*
X8786429Y-1983714D02*
X8786429Y-2240857D01*
X8800714Y-2269429D01*
X8829286Y-2283714D01*
X8857857Y-2283714D01*
X9072143Y-2269429D02*
X9043571Y-2283714D01*
X8986429Y-2283714D01*
X8957857Y-2269429D01*
X8943571Y-2240857D01*
X8943571Y-2126571D01*
X8957857Y-2098000D01*
X8986429Y-2083714D01*
X9043571Y-2083714D01*
X9072143Y-2098000D01*
X9086429Y-2126571D01*
X9086429Y-2155143D01*
X8943571Y-2183714D01*
X9343571Y-2283714D02*
X9343571Y-1983714D01*
X9343571Y-2269429D02*
X9315000Y-2283714D01*
X9257857Y-2283714D01*
X9229286Y-2269429D01*
X9215000Y-2255143D01*
X9200714Y-2226571D01*
X9200714Y-2140857D01*
X9215000Y-2112286D01*
X9229286Y-2098000D01*
X9257857Y-2083714D01*
X9315000Y-2083714D01*
X9343571Y-2098000D01*
X9457857Y-2398000D02*
X9472143Y-2383714D01*
X9500714Y-2340857D01*
X9515000Y-2312286D01*
X9529286Y-2269429D01*
X9543571Y-2198000D01*
X9543571Y-2140857D01*
X9529286Y-2069428D01*
X9515000Y-2026571D01*
X9500714Y-1998000D01*
X9472143Y-1955143D01*
X9457857Y-1940857D01*
X-55000Y-2599000D02*
X0Y-2544000D01*
X-55000Y-2489000D01*
X-110000Y-2544000D01*
X-55000Y-2599000D01*
X443571Y-2679714D02*
X272143Y-2679714D01*
X357857Y-2679714D02*
X357857Y-2379714D01*
X329286Y-2422571D01*
X300714Y-2451143D01*
X272143Y-2465429D01*
X572143Y-2651143D02*
X586429Y-2665429D01*
X572143Y-2679714D01*
X557857Y-2665429D01*
X572143Y-2651143D01*
X572143Y-2679714D01*
X872143Y-2679714D02*
X700714Y-2679714D01*
X786428Y-2679714D02*
X786428Y-2379714D01*
X757857Y-2422571D01*
X729286Y-2451143D01*
X700714Y-2465429D01*
X1057857Y-2379714D02*
X1086429Y-2379714D01*
X1115000Y-2394000D01*
X1129286Y-2408286D01*
X1143571Y-2436857D01*
X1157857Y-2494000D01*
X1157857Y-2565429D01*
X1143571Y-2622571D01*
X1129286Y-2651143D01*
X1115000Y-2665429D01*
X1086429Y-2679714D01*
X1057857Y-2679714D01*
X1029286Y-2665429D01*
X1015000Y-2651143D01*
X1000714Y-2622571D01*
X986428Y-2565429D01*
X986428Y-2494000D01*
X1000714Y-2436857D01*
X1015000Y-2408286D01*
X1029286Y-2394000D01*
X1057857Y-2379714D01*
X1286429Y-2679714D02*
X1286429Y-2479714D01*
X1286429Y-2508286D02*
X1300714Y-2494000D01*
X1329286Y-2479714D01*
X1372143Y-2479714D01*
X1400714Y-2494000D01*
X1415000Y-2522571D01*
X1415000Y-2679714D01*
X1415000Y-2522571D02*
X1429286Y-2494000D01*
X1457857Y-2479714D01*
X1500714Y-2479714D01*
X1529286Y-2494000D01*
X1543571Y-2522571D01*
X1543571Y-2679714D01*
X1686428Y-2679714D02*
X1686428Y-2479714D01*
X1686428Y-2508286D02*
X1700714Y-2494000D01*
X1729286Y-2479714D01*
X1772143Y-2479714D01*
X1800714Y-2494000D01*
X1815000Y-2522571D01*
X1815000Y-2679714D01*
X1815000Y-2522571D02*
X1829286Y-2494000D01*
X1857857Y-2479714D01*
X1900714Y-2479714D01*
X1929286Y-2494000D01*
X1943571Y-2522571D01*
X1943571Y-2679714D01*
X2529286Y-2365429D02*
X2272143Y-2751143D01*
X2915000Y-2379714D02*
X2943571Y-2379714D01*
X2972143Y-2394000D01*
X2986428Y-2408286D01*
X3000714Y-2436857D01*
X3015000Y-2494000D01*
X3015000Y-2565429D01*
X3000714Y-2622571D01*
X2986428Y-2651143D01*
X2972143Y-2665429D01*
X2943571Y-2679714D01*
X2915000Y-2679714D01*
X2886428Y-2665429D01*
X2872143Y-2651143D01*
X2857857Y-2622571D01*
X2843571Y-2565429D01*
X2843571Y-2494000D01*
X2857857Y-2436857D01*
X2872143Y-2408286D01*
X2886428Y-2394000D01*
X2915000Y-2379714D01*
X3143571Y-2651143D02*
X3157857Y-2665429D01*
X3143571Y-2679714D01*
X3129286Y-2665429D01*
X3143571Y-2651143D01*
X3143571Y-2679714D01*
X3343571Y-2379714D02*
X3372143Y-2379714D01*
X3400714Y-2394000D01*
X3415000Y-2408286D01*
X3429286Y-2436857D01*
X3443571Y-2494000D01*
X3443571Y-2565429D01*
X3429286Y-2622571D01*
X3415000Y-2651143D01*
X3400714Y-2665429D01*
X3372143Y-2679714D01*
X3343571Y-2679714D01*
X3315000Y-2665429D01*
X3300714Y-2651143D01*
X3286428Y-2622571D01*
X3272143Y-2565429D01*
X3272143Y-2494000D01*
X3286428Y-2436857D01*
X3300714Y-2408286D01*
X3315000Y-2394000D01*
X3343571Y-2379714D01*
X3700714Y-2479714D02*
X3700714Y-2679714D01*
X3629286Y-2365429D02*
X3557857Y-2579714D01*
X3743571Y-2579714D01*
X3829286Y-2379714D02*
X4015000Y-2379714D01*
X3915000Y-2494000D01*
X3957857Y-2494000D01*
X3986428Y-2508286D01*
X4000714Y-2522571D01*
X4015000Y-2551143D01*
X4015000Y-2622571D01*
X4000714Y-2651143D01*
X3986428Y-2665429D01*
X3957857Y-2679714D01*
X3872143Y-2679714D01*
X3843571Y-2665429D01*
X3829286Y-2651143D01*
X4129286Y-2379714D02*
X4129286Y-2436857D01*
X4243571Y-2379714D02*
X4243571Y-2436857D01*
X4686429Y-2794000D02*
X4672143Y-2779714D01*
X4643571Y-2736857D01*
X4629286Y-2708286D01*
X4615000Y-2665429D01*
X4600714Y-2594000D01*
X4600714Y-2536857D01*
X4615000Y-2465429D01*
X4629286Y-2422571D01*
X4643571Y-2394000D01*
X4672143Y-2351143D01*
X4686429Y-2336857D01*
X4957857Y-2679714D02*
X4786429Y-2679714D01*
X4872143Y-2679714D02*
X4872143Y-2379714D01*
X4843571Y-2422571D01*
X4815000Y-2451143D01*
X4786429Y-2465429D01*
X5315000Y-2679714D02*
X5315000Y-2379714D01*
X5443571Y-2679714D02*
X5443571Y-2522571D01*
X5429286Y-2494000D01*
X5400714Y-2479714D01*
X5357857Y-2479714D01*
X5329286Y-2494000D01*
X5315000Y-2508286D01*
X5629286Y-2679714D02*
X5600714Y-2665429D01*
X5586429Y-2651143D01*
X5572143Y-2622571D01*
X5572143Y-2536857D01*
X5586429Y-2508286D01*
X5600714Y-2494000D01*
X5629286Y-2479714D01*
X5672143Y-2479714D01*
X5700714Y-2494000D01*
X5715000Y-2508286D01*
X5729286Y-2536857D01*
X5729286Y-2622571D01*
X5715000Y-2651143D01*
X5700714Y-2665429D01*
X5672143Y-2679714D01*
X5629286Y-2679714D01*
X5900714Y-2679714D02*
X5872143Y-2665429D01*
X5857857Y-2636857D01*
X5857857Y-2379714D01*
X6129286Y-2665429D02*
X6100714Y-2679714D01*
X6043571Y-2679714D01*
X6015000Y-2665429D01*
X6000714Y-2636857D01*
X6000714Y-2522571D01*
X6015000Y-2494000D01*
X6043571Y-2479714D01*
X6100714Y-2479714D01*
X6129286Y-2494000D01*
X6143571Y-2522571D01*
X6143571Y-2551143D01*
X6000714Y-2579714D01*
X6243571Y-2794000D02*
X6257857Y-2779714D01*
X6286428Y-2736857D01*
X6300714Y-2708286D01*
X6315000Y-2665429D01*
X6329286Y-2594000D01*
X6329286Y-2536857D01*
X6315000Y-2465429D01*
X6300714Y-2422571D01*
X6286428Y-2394000D01*
X6257857Y-2351143D01*
X6243571Y-2336857D01*
X6786428Y-2794000D02*
X6772143Y-2779714D01*
X6743571Y-2736857D01*
X6729286Y-2708286D01*
X6715000Y-2665429D01*
X6700714Y-2594000D01*
X6700714Y-2536857D01*
X6715000Y-2465429D01*
X6729286Y-2422571D01*
X6743571Y-2394000D01*
X6772143Y-2351143D01*
X6786428Y-2336857D01*
X6900714Y-2479714D02*
X6900714Y-2679714D01*
X6900714Y-2508286D02*
X6915000Y-2494000D01*
X6943571Y-2479714D01*
X6986428Y-2479714D01*
X7015000Y-2494000D01*
X7029286Y-2522571D01*
X7029286Y-2679714D01*
X7215000Y-2679714D02*
X7186428Y-2665429D01*
X7172143Y-2651143D01*
X7157857Y-2622571D01*
X7157857Y-2536857D01*
X7172143Y-2508286D01*
X7186428Y-2494000D01*
X7215000Y-2479714D01*
X7257857Y-2479714D01*
X7286428Y-2494000D01*
X7300714Y-2508286D01*
X7315000Y-2536857D01*
X7315000Y-2622571D01*
X7300714Y-2651143D01*
X7286428Y-2665429D01*
X7257857Y-2679714D01*
X7215000Y-2679714D01*
X7400714Y-2479714D02*
X7515000Y-2479714D01*
X7443571Y-2379714D02*
X7443571Y-2636857D01*
X7457857Y-2665429D01*
X7486428Y-2679714D01*
X7515000Y-2679714D01*
X7843571Y-2479714D02*
X7843571Y-2779714D01*
X7843571Y-2494000D02*
X7872143Y-2479714D01*
X7929286Y-2479714D01*
X7957857Y-2494000D01*
X7972143Y-2508286D01*
X7986428Y-2536857D01*
X7986428Y-2622571D01*
X7972143Y-2651143D01*
X7957857Y-2665429D01*
X7929286Y-2679714D01*
X7872143Y-2679714D01*
X7843571Y-2665429D01*
X8157857Y-2679714D02*
X8129286Y-2665429D01*
X8115000Y-2636857D01*
X8115000Y-2379714D01*
X8400714Y-2679714D02*
X8400714Y-2522571D01*
X8386428Y-2494000D01*
X8357857Y-2479714D01*
X8300714Y-2479714D01*
X8272143Y-2494000D01*
X8400714Y-2665429D02*
X8372143Y-2679714D01*
X8300714Y-2679714D01*
X8272143Y-2665429D01*
X8257857Y-2636857D01*
X8257857Y-2608286D01*
X8272143Y-2579714D01*
X8300714Y-2565429D01*
X8372143Y-2565429D01*
X8400714Y-2551143D01*
X8500714Y-2479714D02*
X8615000Y-2479714D01*
X8543571Y-2379714D02*
X8543571Y-2636857D01*
X8557857Y-2665429D01*
X8586429Y-2679714D01*
X8615000Y-2679714D01*
X8829286Y-2665429D02*
X8800714Y-2679714D01*
X8743571Y-2679714D01*
X8715000Y-2665429D01*
X8700714Y-2636857D01*
X8700714Y-2522571D01*
X8715000Y-2494000D01*
X8743571Y-2479714D01*
X8800714Y-2479714D01*
X8829286Y-2494000D01*
X8843571Y-2522571D01*
X8843571Y-2551143D01*
X8700714Y-2579714D01*
X9100714Y-2679714D02*
X9100714Y-2379714D01*
X9100714Y-2665429D02*
X9072143Y-2679714D01*
X9015000Y-2679714D01*
X8986429Y-2665429D01*
X8972143Y-2651143D01*
X8957857Y-2622571D01*
X8957857Y-2536857D01*
X8972143Y-2508286D01*
X8986429Y-2494000D01*
X9015000Y-2479714D01*
X9072143Y-2479714D01*
X9100714Y-2494000D01*
X9215000Y-2794000D02*
X9229286Y-2779714D01*
X9257857Y-2736857D01*
X9272143Y-2708286D01*
X9286429Y-2665429D01*
X9300714Y-2594000D01*
X9300714Y-2536857D01*
X9286429Y-2465429D01*
X9272143Y-2422571D01*
X9257857Y-2394000D01*
X9229286Y-2351143D01*
X9215000Y-2336857D01*
X-150000Y-2865000D02*
X0Y-3015000D01*
X0Y-2865000D02*
X-150000Y-3015000D01*
X0Y-2940000D02*
G75*
G03X0Y-2940000I-75000J0D01*
G01*
X443571Y-3075714D02*
X272143Y-3075714D01*
X357857Y-3075714D02*
X357857Y-2775714D01*
X329286Y-2818571D01*
X300714Y-2847143D01*
X272143Y-2861428D01*
X572143Y-3047143D02*
X586429Y-3061428D01*
X572143Y-3075714D01*
X557857Y-3061428D01*
X572143Y-3047143D01*
X572143Y-3075714D01*
X857857Y-2775714D02*
X715000Y-2775714D01*
X700714Y-2918571D01*
X715000Y-2904286D01*
X743571Y-2890000D01*
X815000Y-2890000D01*
X843571Y-2904286D01*
X857857Y-2918571D01*
X872143Y-2947143D01*
X872143Y-3018571D01*
X857857Y-3047143D01*
X843571Y-3061428D01*
X815000Y-3075714D01*
X743571Y-3075714D01*
X715000Y-3061428D01*
X700714Y-3047143D01*
X1057857Y-2775714D02*
X1086429Y-2775714D01*
X1115000Y-2790000D01*
X1129286Y-2804286D01*
X1143571Y-2832857D01*
X1157857Y-2890000D01*
X1157857Y-2961428D01*
X1143571Y-3018571D01*
X1129286Y-3047143D01*
X1115000Y-3061428D01*
X1086429Y-3075714D01*
X1057857Y-3075714D01*
X1029286Y-3061428D01*
X1015000Y-3047143D01*
X1000714Y-3018571D01*
X986428Y-2961428D01*
X986428Y-2890000D01*
X1000714Y-2832857D01*
X1015000Y-2804286D01*
X1029286Y-2790000D01*
X1057857Y-2775714D01*
X1286429Y-3075714D02*
X1286429Y-2875714D01*
X1286429Y-2904286D02*
X1300714Y-2890000D01*
X1329286Y-2875714D01*
X1372143Y-2875714D01*
X1400714Y-2890000D01*
X1415000Y-2918571D01*
X1415000Y-3075714D01*
X1415000Y-2918571D02*
X1429286Y-2890000D01*
X1457857Y-2875714D01*
X1500714Y-2875714D01*
X1529286Y-2890000D01*
X1543571Y-2918571D01*
X1543571Y-3075714D01*
X1686428Y-3075714D02*
X1686428Y-2875714D01*
X1686428Y-2904286D02*
X1700714Y-2890000D01*
X1729286Y-2875714D01*
X1772143Y-2875714D01*
X1800714Y-2890000D01*
X1815000Y-2918571D01*
X1815000Y-3075714D01*
X1815000Y-2918571D02*
X1829286Y-2890000D01*
X1857857Y-2875714D01*
X1900714Y-2875714D01*
X1929286Y-2890000D01*
X1943571Y-2918571D01*
X1943571Y-3075714D01*
X2529286Y-2761429D02*
X2272143Y-3147143D01*
X2915000Y-2775714D02*
X2943571Y-2775714D01*
X2972143Y-2790000D01*
X2986428Y-2804286D01*
X3000714Y-2832857D01*
X3015000Y-2890000D01*
X3015000Y-2961428D01*
X3000714Y-3018571D01*
X2986428Y-3047143D01*
X2972143Y-3061428D01*
X2943571Y-3075714D01*
X2915000Y-3075714D01*
X2886428Y-3061428D01*
X2872143Y-3047143D01*
X2857857Y-3018571D01*
X2843571Y-2961428D01*
X2843571Y-2890000D01*
X2857857Y-2832857D01*
X2872143Y-2804286D01*
X2886428Y-2790000D01*
X2915000Y-2775714D01*
X3143571Y-3047143D02*
X3157857Y-3061428D01*
X3143571Y-3075714D01*
X3129286Y-3061428D01*
X3143571Y-3047143D01*
X3143571Y-3075714D01*
X3343571Y-2775714D02*
X3372143Y-2775714D01*
X3400714Y-2790000D01*
X3415000Y-2804286D01*
X3429286Y-2832857D01*
X3443571Y-2890000D01*
X3443571Y-2961428D01*
X3429286Y-3018571D01*
X3415000Y-3047143D01*
X3400714Y-3061428D01*
X3372143Y-3075714D01*
X3343571Y-3075714D01*
X3315000Y-3061428D01*
X3300714Y-3047143D01*
X3286428Y-3018571D01*
X3272143Y-2961428D01*
X3272143Y-2890000D01*
X3286428Y-2832857D01*
X3300714Y-2804286D01*
X3315000Y-2790000D01*
X3343571Y-2775714D01*
X3715000Y-2775714D02*
X3572143Y-2775714D01*
X3557857Y-2918571D01*
X3572143Y-2904286D01*
X3600714Y-2890000D01*
X3672143Y-2890000D01*
X3700714Y-2904286D01*
X3715000Y-2918571D01*
X3729286Y-2947143D01*
X3729286Y-3018571D01*
X3715000Y-3047143D01*
X3700714Y-3061428D01*
X3672143Y-3075714D01*
X3600714Y-3075714D01*
X3572143Y-3061428D01*
X3557857Y-3047143D01*
X3872143Y-3075714D02*
X3929286Y-3075714D01*
X3957857Y-3061428D01*
X3972143Y-3047143D01*
X4000714Y-3004286D01*
X4015000Y-2947143D01*
X4015000Y-2832857D01*
X4000714Y-2804286D01*
X3986428Y-2790000D01*
X3957857Y-2775714D01*
X3900714Y-2775714D01*
X3872143Y-2790000D01*
X3857857Y-2804286D01*
X3843571Y-2832857D01*
X3843571Y-2904286D01*
X3857857Y-2932857D01*
X3872143Y-2947143D01*
X3900714Y-2961428D01*
X3957857Y-2961428D01*
X3986428Y-2947143D01*
X4000714Y-2932857D01*
X4015000Y-2904286D01*
X4129286Y-2775714D02*
X4129286Y-2832857D01*
X4243571Y-2775714D02*
X4243571Y-2832857D01*
X4686429Y-3190000D02*
X4672143Y-3175714D01*
X4643571Y-3132857D01*
X4629286Y-3104286D01*
X4615000Y-3061428D01*
X4600714Y-2990000D01*
X4600714Y-2932857D01*
X4615000Y-2861428D01*
X4629286Y-2818571D01*
X4643571Y-2790000D01*
X4672143Y-2747143D01*
X4686429Y-2732857D01*
X4786429Y-2804286D02*
X4800714Y-2790000D01*
X4829286Y-2775714D01*
X4900714Y-2775714D01*
X4929286Y-2790000D01*
X4943571Y-2804286D01*
X4957857Y-2832857D01*
X4957857Y-2861428D01*
X4943571Y-2904286D01*
X4772143Y-3075714D01*
X4957857Y-3075714D01*
X5315000Y-3075714D02*
X5315000Y-2775714D01*
X5443571Y-3075714D02*
X5443571Y-2918571D01*
X5429286Y-2890000D01*
X5400714Y-2875714D01*
X5357857Y-2875714D01*
X5329286Y-2890000D01*
X5315000Y-2904286D01*
X5629286Y-3075714D02*
X5600714Y-3061428D01*
X5586429Y-3047143D01*
X5572143Y-3018571D01*
X5572143Y-2932857D01*
X5586429Y-2904286D01*
X5600714Y-2890000D01*
X5629286Y-2875714D01*
X5672143Y-2875714D01*
X5700714Y-2890000D01*
X5715000Y-2904286D01*
X5729286Y-2932857D01*
X5729286Y-3018571D01*
X5715000Y-3047143D01*
X5700714Y-3061428D01*
X5672143Y-3075714D01*
X5629286Y-3075714D01*
X5900714Y-3075714D02*
X5872143Y-3061428D01*
X5857857Y-3032857D01*
X5857857Y-2775714D01*
X6129286Y-3061428D02*
X6100714Y-3075714D01*
X6043571Y-3075714D01*
X6015000Y-3061428D01*
X6000714Y-3032857D01*
X6000714Y-2918571D01*
X6015000Y-2890000D01*
X6043571Y-2875714D01*
X6100714Y-2875714D01*
X6129286Y-2890000D01*
X6143571Y-2918571D01*
X6143571Y-2947143D01*
X6000714Y-2975714D01*
X6257857Y-3061428D02*
X6286428Y-3075714D01*
X6343571Y-3075714D01*
X6372143Y-3061428D01*
X6386428Y-3032857D01*
X6386428Y-3018571D01*
X6372143Y-2990000D01*
X6343571Y-2975714D01*
X6300714Y-2975714D01*
X6272143Y-2961428D01*
X6257857Y-2932857D01*
X6257857Y-2918571D01*
X6272143Y-2890000D01*
X6300714Y-2875714D01*
X6343571Y-2875714D01*
X6372143Y-2890000D01*
X6486428Y-3190000D02*
X6500714Y-3175714D01*
X6529286Y-3132857D01*
X6543571Y-3104286D01*
X6557857Y-3061428D01*
X6572143Y-2990000D01*
X6572143Y-2932857D01*
X6557857Y-2861428D01*
X6543571Y-2818571D01*
X6529286Y-2790000D01*
X6500714Y-2747143D01*
X6486428Y-2732857D01*
X7029286Y-3190000D02*
X7015000Y-3175714D01*
X6986428Y-3132857D01*
X6972143Y-3104286D01*
X6957857Y-3061428D01*
X6943571Y-2990000D01*
X6943571Y-2932857D01*
X6957857Y-2861428D01*
X6972143Y-2818571D01*
X6986428Y-2790000D01*
X7015000Y-2747143D01*
X7029286Y-2732857D01*
X7143571Y-2875714D02*
X7143571Y-3075714D01*
X7143571Y-2904286D02*
X7157857Y-2890000D01*
X7186428Y-2875714D01*
X7229286Y-2875714D01*
X7257857Y-2890000D01*
X7272143Y-2918571D01*
X7272143Y-3075714D01*
X7457857Y-3075714D02*
X7429286Y-3061428D01*
X7415000Y-3047143D01*
X7400714Y-3018571D01*
X7400714Y-2932857D01*
X7415000Y-2904286D01*
X7429286Y-2890000D01*
X7457857Y-2875714D01*
X7500714Y-2875714D01*
X7529286Y-2890000D01*
X7543571Y-2904286D01*
X7557857Y-2932857D01*
X7557857Y-3018571D01*
X7543571Y-3047143D01*
X7529286Y-3061428D01*
X7500714Y-3075714D01*
X7457857Y-3075714D01*
X7643571Y-2875714D02*
X7757857Y-2875714D01*
X7686428Y-2775714D02*
X7686428Y-3032857D01*
X7700714Y-3061428D01*
X7729286Y-3075714D01*
X7757857Y-3075714D01*
X8086428Y-2875714D02*
X8086428Y-3175714D01*
X8086428Y-2890000D02*
X8115000Y-2875714D01*
X8172143Y-2875714D01*
X8200714Y-2890000D01*
X8215000Y-2904286D01*
X8229286Y-2932857D01*
X8229286Y-3018571D01*
X8215000Y-3047143D01*
X8200714Y-3061428D01*
X8172143Y-3075714D01*
X8115000Y-3075714D01*
X8086428Y-3061428D01*
X8400714Y-3075714D02*
X8372143Y-3061428D01*
X8357857Y-3032857D01*
X8357857Y-2775714D01*
X8643571Y-3075714D02*
X8643571Y-2918571D01*
X8629286Y-2890000D01*
X8600714Y-2875714D01*
X8543571Y-2875714D01*
X8515000Y-2890000D01*
X8643571Y-3061428D02*
X8615000Y-3075714D01*
X8543571Y-3075714D01*
X8515000Y-3061428D01*
X8500714Y-3032857D01*
X8500714Y-3004286D01*
X8515000Y-2975714D01*
X8543571Y-2961428D01*
X8615000Y-2961428D01*
X8643571Y-2947143D01*
X8743571Y-2875714D02*
X8857857Y-2875714D01*
X8786429Y-2775714D02*
X8786429Y-3032857D01*
X8800714Y-3061428D01*
X8829286Y-3075714D01*
X8857857Y-3075714D01*
X9072143Y-3061428D02*
X9043571Y-3075714D01*
X8986429Y-3075714D01*
X8957857Y-3061428D01*
X8943571Y-3032857D01*
X8943571Y-2918571D01*
X8957857Y-2890000D01*
X8986429Y-2875714D01*
X9043571Y-2875714D01*
X9072143Y-2890000D01*
X9086429Y-2918571D01*
X9086429Y-2947143D01*
X8943571Y-2975714D01*
X9343571Y-3075714D02*
X9343571Y-2775714D01*
X9343571Y-3061428D02*
X9315000Y-3075714D01*
X9257857Y-3075714D01*
X9229286Y-3061428D01*
X9215000Y-3047143D01*
X9200714Y-3018571D01*
X9200714Y-2932857D01*
X9215000Y-2904286D01*
X9229286Y-2890000D01*
X9257857Y-2875714D01*
X9315000Y-2875714D01*
X9343571Y-2890000D01*
X9457857Y-3190000D02*
X9472143Y-3175714D01*
X9500714Y-3132857D01*
X9515000Y-3104286D01*
X9529286Y-3061428D01*
X9543571Y-2990000D01*
X9543571Y-2932857D01*
X9529286Y-2861428D01*
X9515000Y-2818571D01*
X9500714Y-2790000D01*
X9472143Y-2747143D01*
X9457857Y-2732857D01*
M02*
