G04 #@! TF.GenerationSoftware,KiCad,Pcbnew,6.0.0-unknown-r16647.959a4bdde.fc31*
G04 #@! TF.CreationDate,2020-02-05T23:37:17+00:00*
G04 #@! TF.ProjectId,r2,72322e6b-6963-4616-945f-706362585858,rev?*
G04 #@! TF.SameCoordinates,Original*
G04 #@! TF.FileFunction,Profile,NP*
%FSLAX46Y46*%
G04 Gerber Fmt 4.6, Leading zero omitted, Abs format (unit mm)*
G04 Created by KiCad (PCBNEW 6.0.0-unknown-r16647.959a4bdde.fc31) date 2020-02-05 23:37:17*
%MOMM*%
%LPD*%
G04 APERTURE LIST*
%ADD10C,0.200000*%
%ADD11C,0.100000*%
G04 APERTURE END LIST*
D10*
X-51312409Y131029767D02*
X-51091331Y131059011D01*
X-51091331Y131059011D02*
X-50909306Y131083300D01*
X-50909306Y131083300D02*
X-50720813Y131108649D01*
X-50720813Y131108649D02*
X-50525861Y131135083D01*
X-50525861Y131135083D02*
X-50337443Y131160835D01*
X-50337443Y131160835D02*
X-50129574Y131189482D01*
X-50129574Y131189482D02*
X-49928243Y131217463D01*
X-49928243Y131217463D02*
X-49720463Y131246582D01*
X-49720463Y131246582D02*
X-49512728Y131275943D01*
X-49512728Y131275943D02*
X-49305036Y131305542D01*
X-49305036Y131305542D02*
X-49110367Y131333510D01*
X-49110367Y131333510D02*
X-48915738Y131361689D01*
X-48915738Y131361689D02*
X-48695206Y131393882D01*
X-48695206Y131393882D02*
X-48500662Y131422511D01*
X-48500662Y131422511D02*
X-48234850Y131461981D01*
X-48234850Y131461981D02*
X-48033921Y131492085D01*
X-48033921Y131492085D02*
X-47820075Y131524378D01*
X-47820075Y131524378D02*
X-47612757Y131555935D01*
X-47612757Y131555935D02*
X-47411963Y131586734D01*
X-47411963Y131586734D02*
X-47217687Y131616757D01*
X-47217687Y131616757D02*
X-46997557Y131651034D01*
X-46997557Y131651034D02*
X-46790425Y131683544D01*
X-46790425Y131683544D02*
X-46583340Y131716292D01*
X-46583340Y131716292D02*
X-46376305Y131749282D01*
X-46376305Y131749282D02*
X-46169316Y131782508D01*
X-46169316Y131782508D02*
X-45962374Y131815976D01*
X-45962374Y131815976D02*
X-45755481Y131849682D01*
X-45755481Y131849682D02*
X-45548637Y131883628D01*
X-45548637Y131883628D02*
X-45341841Y131917813D01*
X-45341841Y131917813D02*
X-45135094Y131952238D01*
X-45135094Y131952238D02*
X-44928396Y131986900D01*
X-44928396Y131986900D02*
X-44715291Y132022898D01*
X-44715291Y132022898D02*
X-44508692Y132058046D01*
X-44508692Y132058046D02*
X-44302143Y132093433D01*
X-44302143Y132093433D02*
X-44095644Y132129059D01*
X-44095644Y132129059D02*
X-43914998Y132160428D01*
X-43914998Y132160428D02*
X-43708593Y132196500D01*
X-43708593Y132196500D02*
X-43502238Y132232812D01*
X-43502238Y132232812D02*
X-43295934Y132269364D01*
X-43295934Y132269364D02*
X-43089681Y132306154D01*
X-43089681Y132306154D02*
X-42877034Y132344342D01*
X-42877034Y132344342D02*
X-42703093Y132375776D01*
X-42703093Y132375776D02*
X-42522746Y132408554D01*
X-42522746Y132408554D02*
X-42342439Y132441514D01*
X-42342439Y132441514D02*
X-42136422Y132479406D01*
X-42136422Y132479406D02*
X-41956200Y132512757D01*
X-41956200Y132512757D02*
X-41750282Y132551096D01*
X-41750282Y132551096D02*
X-41550846Y132588464D01*
X-41550846Y132588464D02*
X-41364325Y132623625D01*
X-41364325Y132623625D02*
X-41177844Y132658978D01*
X-41177844Y132658978D02*
X-41004263Y132692070D01*
X-41004263Y132692070D02*
X-40824292Y132726564D01*
X-40824292Y132726564D02*
X-40650789Y132760001D01*
X-40650789Y132760001D02*
X-40464475Y132796104D01*
X-40464475Y132796104D02*
X-40284626Y132831146D01*
X-40284626Y132831146D02*
X-40111240Y132865110D01*
X-40111240Y132865110D02*
X-39931475Y132900511D01*
X-39931475Y132900511D02*
X-39745332Y132937368D01*
X-39745332Y132937368D02*
X-39572064Y132971856D01*
X-39572064Y132971856D02*
X-39360346Y133014240D01*
X-39360346Y133014240D02*
X-39180753Y133050399D01*
X-39180753Y133050399D02*
X-38981965Y133090646D01*
X-38981965Y133090646D02*
X-38796051Y133128496D01*
X-38796051Y133128496D02*
X-38597362Y133169174D01*
X-38597362Y133169174D02*
X-38392320Y133211398D01*
X-38392320Y133211398D02*
X-38206551Y133249867D01*
X-38206551Y133249867D02*
X-38008016Y133291203D01*
X-38008016Y133291203D02*
X-37822339Y133330075D01*
X-37822339Y133330075D02*
X-37643108Y133367792D01*
X-37643108Y133367792D02*
X-37463920Y133405690D01*
X-37463920Y133405690D02*
X-37291171Y133442405D01*
X-37291171Y133442405D02*
X-37080089Y133487509D01*
X-37080089Y133487509D02*
X-36907429Y133524599D01*
X-36907429Y133524599D02*
X-36741204Y133560475D01*
X-36741204Y133560475D02*
X-36568626Y133597897D01*
X-36568626Y133597897D02*
X-36364141Y133642467D01*
X-36364141Y133642467D02*
X-36185262Y133681659D01*
X-36185262Y133681659D02*
X-36006428Y133721031D01*
X-36006428Y133721031D02*
X-35827639Y133760586D01*
X-35827639Y133760586D02*
X-35655276Y133798900D01*
X-35655276Y133798900D02*
X-35489335Y133835952D01*
X-35489335Y133835952D02*
X-35317055Y133874596D01*
X-35317055Y133874596D02*
X-35106546Y133922054D01*
X-35106546Y133922054D02*
X-34934358Y133961072D01*
X-34934358Y133961072D02*
X-34755836Y134001712D01*
X-34755836Y134001712D02*
X-34577358Y134042533D01*
X-34577358Y134042533D02*
X-34398927Y134083535D01*
X-34398927Y134083535D02*
X-34220539Y134124716D01*
X-34220539Y134124716D02*
X-34048566Y134164597D01*
X-34048566Y134164597D02*
X-33863901Y134207621D01*
X-33863901Y134207621D02*
X-33666555Y134253827D01*
X-33666555Y134253827D02*
X-33501084Y134292749D01*
X-33501084Y134292749D02*
X-33335650Y134331829D01*
X-33335650Y134331829D02*
X-33157537Y134374088D01*
X-33157537Y134374088D02*
X-32979470Y134416527D01*
X-32979470Y134416527D02*
X-32814163Y134456094D01*
X-32814163Y134456094D02*
X-32642540Y134497351D01*
X-32642540Y134497351D02*
X-32464608Y134540313D01*
X-32464608Y134540313D02*
X-32280369Y134584999D01*
X-32280369Y134584999D02*
X-32102530Y134628326D01*
X-32102530Y134628326D02*
X-31931089Y134670278D01*
X-31931089Y134670278D02*
X-31759692Y134712397D01*
X-31759692Y134712397D02*
X-31550265Y134764104D01*
X-31550265Y134764104D02*
X-31372621Y134808170D01*
X-31372621Y134808170D02*
X-31195023Y134852417D01*
X-31195023Y134852417D02*
X-30973093Y134907980D01*
X-30973093Y134907980D02*
X-30808280Y134949437D01*
X-30808280Y134949437D02*
X-30643508Y134991049D01*
X-30643508Y134991049D02*
X-30415431Y135048921D01*
X-30415431Y135048921D02*
X-30238094Y135094140D01*
X-30238094Y135094140D02*
X-30073465Y135136289D01*
X-30073465Y135136289D02*
X-29908880Y135178593D01*
X-29908880Y135178593D02*
X-29725353Y135225962D01*
X-29725353Y135225962D02*
X-29548204Y135271879D01*
X-29548204Y135271879D02*
X-29371103Y135317975D01*
X-29371103Y135317975D02*
X-29175086Y135369221D01*
X-29175086Y135369221D02*
X-28998088Y135415695D01*
X-28998088Y135415695D02*
X-28821141Y135462350D01*
X-28821141Y135462350D02*
X-28644242Y135509184D01*
X-28644242Y135509184D02*
X-28480024Y135552834D01*
X-28480024Y135552834D02*
X-28315851Y135596641D01*
X-28315851Y135596641D02*
X-28158029Y135638905D01*
X-28158029Y135638905D02*
X-27956077Y135693212D01*
X-27956077Y135693212D02*
X-27779421Y135740923D01*
X-27779421Y135740923D02*
X-27621737Y135783675D01*
X-27621737Y135783675D02*
X-27426265Y135836885D01*
X-27426265Y135836885D02*
X-27249761Y135885134D01*
X-27249761Y135885134D02*
X-27048104Y135940496D01*
X-27048104Y135940496D02*
X-26878008Y135987389D01*
X-26878008Y135987389D02*
X-26714259Y136032705D01*
X-26714259Y136032705D02*
X-26544254Y136079924D01*
X-26544254Y136079924D02*
X-26342830Y136136103D01*
X-26342830Y136136103D02*
X-26172929Y136183685D01*
X-26172929Y136183685D02*
X-25996789Y136233208D01*
X-25996789Y136233208D02*
X-25820700Y136282908D01*
X-25820700Y136282908D02*
X-25663521Y136327434D01*
X-25663521Y136327434D02*
X-25462392Y136384637D01*
X-25462392Y136384637D02*
X-25305307Y136429488D01*
X-25305307Y136429488D02*
X-25141982Y136476286D01*
X-25141982Y136476286D02*
X-24959865Y136528662D01*
X-24959865Y136528662D02*
X-24758972Y136586680D01*
X-24758972Y136586680D02*
X-24583249Y136637637D01*
X-24583249Y136637637D02*
X-24407578Y136688773D01*
X-24407578Y136688773D02*
X-24238230Y136738251D01*
X-24238230Y136738251D02*
X-24056393Y136791579D01*
X-24056393Y136791579D02*
X-23899684Y136837707D01*
X-23899684Y136837707D02*
X-23724218Y136889536D01*
X-23724218Y136889536D02*
X-23536279Y136945267D01*
X-23536279Y136945267D02*
X-23354662Y136999334D01*
X-23354662Y136999334D02*
X-23185621Y137049844D01*
X-23185621Y137049844D02*
X-23010372Y137102400D01*
X-23010372Y137102400D02*
X-22835177Y137155134D01*
X-22835177Y137155134D02*
X-22660038Y137208048D01*
X-22660038Y137208048D02*
X-22503709Y137255442D01*
X-22503709Y137255442D02*
X-22328671Y137308692D01*
X-22328671Y137308692D02*
X-22153685Y137362118D01*
X-22153685Y137362118D02*
X-21997497Y137409972D01*
X-21997497Y137409972D02*
X-21803883Y137469507D01*
X-21803883Y137469507D02*
X-21635302Y137521537D01*
X-21635302Y137521537D02*
X-21454295Y137577607D01*
X-21454295Y137577607D02*
X-21298300Y137626095D01*
X-21298300Y137626095D02*
X-21136113Y137676674D01*
X-21136113Y137676674D02*
X-20930327Y137741091D01*
X-20930327Y137741091D02*
X-20755782Y137795941D01*
X-20755782Y137795941D02*
X-20581293Y137850969D01*
X-20581293Y137850969D02*
X-20425544Y137900251D01*
X-20425544Y137900251D02*
X-20257387Y137953636D01*
X-20257387Y137953636D02*
X-20101733Y138003212D01*
X-20101733Y138003212D02*
X-19939897Y138054921D01*
X-19939897Y138054921D02*
X-19759447Y138112777D01*
X-19759447Y138112777D02*
X-19603935Y138162807D01*
X-19603935Y138162807D02*
X-19417379Y138223028D01*
X-19417379Y138223028D02*
X-19237103Y138281437D01*
X-19237103Y138281437D02*
X-19069315Y138335988D01*
X-19069315Y138335988D02*
X-18907792Y138388675D01*
X-18907792Y138388675D02*
X-18746318Y138441514D01*
X-18746318Y138441514D02*
X-18572475Y138498587D01*
X-18572475Y138498587D02*
X-18411103Y138551744D01*
X-18411103Y138551744D02*
X-18249779Y138605053D01*
X-18249779Y138605053D02*
X-18069899Y138664693D01*
X-18069899Y138664693D02*
X-17914881Y138716260D01*
X-17914881Y138716260D02*
X-17753709Y138770037D01*
X-17753709Y138770037D02*
X-17573998Y138830201D01*
X-17573998Y138830201D02*
X-17419127Y138882218D01*
X-17419127Y138882218D02*
X-17258109Y138936467D01*
X-17258109Y138936467D02*
X-17053812Y139005541D01*
X-17053812Y139005541D02*
X-16880532Y139064340D01*
X-16880532Y139064340D02*
X-16682570Y139131757D01*
X-16682570Y139131757D02*
X-16503233Y139193052D01*
X-16503233Y139193052D02*
X-16317778Y139256662D01*
X-16317778Y139256662D02*
X-16089142Y139335391D01*
X-16089142Y139335391D02*
X-15934718Y139388762D01*
X-15934718Y139388762D02*
X-15767992Y139446560D01*
X-15767992Y139446560D02*
X-15545778Y139523882D01*
X-15545778Y139523882D02*
X-15379178Y139582062D01*
X-15379178Y139582062D02*
X-15206468Y139642570D01*
X-15206468Y139642570D02*
X-15052314Y139696745D01*
X-15052314Y139696745D02*
X-14904370Y139748886D01*
X-14904370Y139748886D02*
X-14750310Y139803338D01*
X-14750310Y139803338D02*
X-14559341Y139871051D01*
X-14559341Y139871051D02*
X-14386916Y139932398D01*
X-14386916Y139932398D02*
X-14239171Y139985121D01*
X-14239171Y139985121D02*
X-14073011Y140044589D01*
X-14073011Y140044589D02*
X-13894605Y140108646D01*
X-13894605Y140108646D02*
X-13747008Y140161802D01*
X-13747008Y140161802D02*
X-13599456Y140215085D01*
X-13599456Y140215085D02*
X-13451948Y140268498D01*
X-13451948Y140268498D02*
X-13298340Y140324274D01*
X-13298340Y140324274D02*
X-13138642Y140382431D01*
X-13138642Y140382431D02*
X-12936023Y140456463D01*
X-12936023Y140456463D02*
X-12788719Y140510460D01*
X-12788719Y140510460D02*
X-12641457Y140564583D01*
X-12641457Y140564583D02*
X-12488109Y140621100D01*
X-12488109Y140621100D02*
X-12298027Y140691376D01*
X-12298027Y140691376D02*
X-12126401Y140755034D01*
X-12126401Y140755034D02*
X-11979346Y140809740D01*
X-11979346Y140809740D02*
X-11832334Y140864574D01*
X-11832334Y140864574D02*
X-11660879Y140928710D01*
X-11660879Y140928710D02*
X-11495606Y140990723D01*
X-11495606Y140990723D02*
X-11348745Y141045980D01*
X-11348745Y141045980D02*
X-11177467Y141110612D01*
X-11177467Y141110612D02*
X-11030707Y141166152D01*
X-11030707Y141166152D02*
X-10853433Y141233434D01*
X-10853433Y141233434D02*
X-10706774Y141289256D01*
X-10706774Y141289256D02*
X-10560161Y141345207D01*
X-10560161Y141345207D02*
X-10389172Y141410647D01*
X-10389172Y141410647D02*
X-10236557Y141469224D01*
X-10236557Y141469224D02*
X-10090093Y141525589D01*
X-10090093Y141525589D02*
X-9943677Y141582082D01*
X-9943677Y141582082D02*
X-9785111Y141643429D01*
X-9785111Y141643429D02*
X-9608315Y141712034D01*
X-9608315Y141712034D02*
X-9455961Y141771326D01*
X-9455961Y141771326D02*
X-9309746Y141828377D01*
X-9309746Y141828377D02*
X-9145313Y141892714D01*
X-9145313Y141892714D02*
X-8993112Y141952429D01*
X-8993112Y141952429D02*
X-8828793Y142017080D01*
X-8828793Y142017080D02*
X-8682783Y142074683D01*
X-8682783Y142074683D02*
X-8530738Y142134823D01*
X-8530738Y142134823D02*
X-8342275Y142209590D01*
X-8342275Y142209590D02*
X-8190346Y142270043D01*
X-8190346Y142270043D02*
X-8008100Y142342768D01*
X-8008100Y142342768D02*
X-7832001Y142413261D01*
X-7832001Y142413261D02*
X-7680248Y142474183D01*
X-7680248Y142474183D02*
X-7534612Y142532797D01*
X-7534612Y142532797D02*
X-7376894Y142596440D01*
X-7376894Y142596440D02*
X-7231360Y142655320D01*
X-7231360Y142655320D02*
X-7079812Y142716793D01*
X-7079812Y142716793D02*
X-6934378Y142775939D01*
X-6934378Y142775939D02*
X-6770819Y142842627D01*
X-6770819Y142842627D02*
X-6619430Y142904522D01*
X-6619430Y142904522D02*
X-6474148Y142964071D01*
X-6474148Y142964071D02*
X-6310764Y143031218D01*
X-6310764Y143031218D02*
X-6165587Y143091042D01*
X-6165587Y143091042D02*
X-5990226Y143163496D01*
X-5990226Y143163496D02*
X-5839111Y143226106D01*
X-5839111Y143226106D02*
X-5694090Y143286345D01*
X-5694090Y143286345D02*
X-5531003Y143354265D01*
X-5531003Y143354265D02*
X-5386088Y143414777D01*
X-5386088Y143414777D02*
X-5235186Y143477942D01*
X-5235186Y143477942D02*
X-5090371Y143538715D01*
X-5090371Y143538715D02*
X-4927514Y143607234D01*
X-4927514Y143607234D02*
X-4776777Y143670823D01*
X-4776777Y143670823D02*
X-4589938Y143749868D01*
X-4589938Y143749868D02*
X-4439318Y143813766D01*
X-4439318Y143813766D02*
X-4276714Y143882934D01*
X-4276714Y143882934D02*
X-4126208Y143947122D01*
X-4126208Y143947122D02*
X-3981775Y144008872D01*
X-3981775Y144008872D02*
X-3837394Y144070753D01*
X-3837394Y144070753D02*
X-3675022Y144140518D01*
X-3675022Y144140518D02*
X-3524735Y144205260D01*
X-3524735Y144205260D02*
X-3368496Y144272740D01*
X-3368496Y144272740D02*
X-3218321Y144337765D01*
X-3218321Y144337765D02*
X-3050192Y144410758D01*
X-3050192Y144410758D02*
X-2906134Y144473459D01*
X-2906134Y144473459D02*
X-2756126Y144538910D01*
X-2756126Y144538910D02*
X-2612173Y144601873D01*
X-2612173Y144601873D02*
X-2450285Y144672860D01*
X-2450285Y144672860D02*
X-2300448Y144738732D01*
X-2300448Y144738732D02*
X-2144674Y144807384D01*
X-2144674Y144807384D02*
X-1994950Y144873538D01*
X-1994950Y144873538D02*
X-1851266Y144937175D01*
X-1851266Y144937175D02*
X-1689685Y145008919D01*
X-1689685Y145008919D02*
X-1546111Y145072829D01*
X-1546111Y145072829D02*
X-1396609Y145139535D01*
X-1396609Y145139535D02*
X-1253139Y145203702D01*
X-1253139Y145203702D02*
X-1085824Y145278726D01*
X-1085824Y145278726D02*
X-942467Y145343169D01*
X-942467Y145343169D02*
X-799162Y145407740D01*
X-799162Y145407740D02*
X-649939Y145475136D01*
X-649939Y145475136D02*
X-506741Y145539966D01*
X-506741Y145539966D02*
X-363594Y145604925D01*
X-363594Y145604925D02*
X-220500Y145670009D01*
X-220500Y145670009D02*
X-59581Y145743383D01*
X-59581Y145743383D02*
X0Y145770600D01*
X-46883119Y57219047D02*
X-46812154Y57038203D01*
X-46812154Y57038203D02*
X-46744308Y56866103D01*
X-46744308Y56866103D02*
X-46662554Y56659750D01*
X-46662554Y56659750D02*
X-46600995Y56505103D01*
X-46600995Y56505103D02*
X-46539229Y56350559D01*
X-46539229Y56350559D02*
X-46477256Y56196118D01*
X-46477256Y56196118D02*
X-46408154Y56024636D01*
X-46408154Y56024636D02*
X-46345743Y55870412D01*
X-46345743Y55870412D02*
X-46283126Y55716291D01*
X-46283126Y55716291D02*
X-46213310Y55545167D01*
X-46213310Y55545167D02*
X-46150255Y55391264D01*
X-46150255Y55391264D02*
X-46086996Y55237464D01*
X-46086996Y55237464D02*
X-46016465Y55066699D01*
X-46016465Y55066699D02*
X-45952768Y54913120D01*
X-45952768Y54913120D02*
X-45888868Y54759646D01*
X-45888868Y54759646D02*
X-45824759Y54606273D01*
X-45824759Y54606273D02*
X-45731795Y54384921D01*
X-45731795Y54384921D02*
X-45667185Y54231807D01*
X-45667185Y54231807D02*
X-45602369Y54078797D01*
X-45602369Y54078797D02*
X-45530111Y53908912D01*
X-45530111Y53908912D02*
X-45464862Y53756123D01*
X-45464862Y53756123D02*
X-45392123Y53586484D01*
X-45392123Y53586484D02*
X-45319132Y53416976D01*
X-45319132Y53416976D02*
X-45253225Y53264531D01*
X-45253225Y53264531D02*
X-45179753Y53095271D01*
X-45179753Y53095271D02*
X-45113413Y52943049D01*
X-45113413Y52943049D02*
X-45039463Y52774040D01*
X-45039463Y52774040D02*
X-44965261Y52605160D01*
X-44965261Y52605160D02*
X-44890807Y52436415D01*
X-44890807Y52436415D02*
X-44823584Y52284657D01*
X-44823584Y52284657D02*
X-44756156Y52133005D01*
X-44756156Y52133005D02*
X-44673470Y51947801D01*
X-44673470Y51947801D02*
X-44598039Y51779574D01*
X-44598039Y51779574D02*
X-44529933Y51628282D01*
X-44529933Y51628282D02*
X-44454025Y51460306D01*
X-44454025Y51460306D02*
X-44377865Y51292465D01*
X-44377865Y51292465D02*
X-44301456Y51124759D01*
X-44301456Y51124759D02*
X-44224799Y50957188D01*
X-44224799Y50957188D02*
X-44147890Y50789748D01*
X-44147890Y50789748D02*
X-44078459Y50639170D01*
X-44078459Y50639170D02*
X-43993324Y50455277D01*
X-43993324Y50455277D02*
X-43907889Y50271548D01*
X-43907889Y50271548D02*
X-43837764Y50121347D01*
X-43837764Y50121347D02*
X-43767437Y49971255D01*
X-43767437Y49971255D02*
X-43696910Y49821276D01*
X-43696910Y49821276D02*
X-43618310Y49654761D01*
X-43618310Y49654761D02*
X-43547358Y49505013D01*
X-43547358Y49505013D02*
X-43436587Y49272291D01*
X-43436587Y49272291D02*
X-43357170Y49106227D01*
X-43357170Y49106227D02*
X-43269524Y48923714D01*
X-43269524Y48923714D02*
X-43197592Y48774510D01*
X-43197592Y48774510D02*
X-43125462Y48625418D01*
X-43125462Y48625418D02*
X-43037028Y48443344D01*
X-43037028Y48443344D02*
X-42948297Y48261437D01*
X-42948297Y48261437D02*
X-42875477Y48112730D01*
X-42875477Y48112730D02*
X-42802457Y47964136D01*
X-42802457Y47964136D02*
X-42729239Y47815653D01*
X-42729239Y47815653D02*
X-42647652Y47650806D01*
X-42647652Y47650806D02*
X-42574015Y47502563D01*
X-42574015Y47502563D02*
X-42500176Y47354431D01*
X-42500176Y47354431D02*
X-42401417Y47157099D01*
X-42401417Y47157099D02*
X-42318850Y46992814D01*
X-42318850Y46992814D02*
X-42236036Y46828665D01*
X-42236036Y46828665D02*
X-42161296Y46681053D01*
X-42161296Y46681053D02*
X-42052989Y46468038D01*
X-42052989Y46468038D02*
X-41977764Y46320704D01*
X-41977764Y46320704D02*
X-41902340Y46173484D01*
X-41902340Y46173484D02*
X-41793051Y45961039D01*
X-41793051Y45961039D02*
X-41700252Y45781464D01*
X-41700252Y45781464D02*
X-41615636Y45618364D01*
X-41615636Y45618364D02*
X-41539273Y45471697D01*
X-41539273Y45471697D02*
X-41462712Y45325144D01*
X-41462712Y45325144D02*
X-41368872Y45146182D01*
X-41368872Y45146182D02*
X-41291875Y44999888D01*
X-41291875Y44999888D02*
X-41214682Y44853708D01*
X-41214682Y44853708D02*
X-41137293Y44707647D01*
X-41137293Y44707647D02*
X-41042441Y44529287D01*
X-41042441Y44529287D02*
X-40955960Y44367293D01*
X-40955960Y44367293D02*
X-40860548Y44189263D01*
X-40860548Y44189263D02*
X-40782268Y44043734D01*
X-40782268Y44043734D02*
X-40703793Y43898322D01*
X-40703793Y43898322D02*
X-40625122Y43753027D01*
X-40625122Y43753027D02*
X-40528705Y43575608D01*
X-40528705Y43575608D02*
X-40405572Y43350054D01*
X-40405572Y43350054D02*
X-40317330Y43189118D01*
X-40317330Y43189118D02*
X-40237708Y43044403D01*
X-40237708Y43044403D02*
X-40157892Y42899805D01*
X-40157892Y42899805D02*
X-40077882Y42755326D01*
X-40077882Y42755326D02*
X-39979829Y42578904D01*
X-39979829Y42578904D02*
X-39881486Y42402659D01*
X-39881486Y42402659D02*
X-39782854Y42226592D01*
X-39782854Y42226592D02*
X-39701940Y42082671D01*
X-39701940Y42082671D02*
X-39602782Y41906931D01*
X-39602782Y41906931D02*
X-39458039Y41651628D01*
X-39458039Y41651628D02*
X-39385440Y41524119D01*
X-39385440Y41524119D02*
X-39312688Y41396707D01*
X-39312688Y41396707D02*
X-39239784Y41269390D01*
X-39239784Y41269390D02*
X-39166727Y41142166D01*
X-39166727Y41142166D02*
X-39093518Y41015041D01*
X-39093518Y41015041D02*
X-39020158Y40888009D01*
X-39020158Y40888009D02*
X-38946648Y40761076D01*
X-38946648Y40761076D02*
X-38872985Y40634236D01*
X-38872985Y40634236D02*
X-38799170Y40507495D01*
X-38799170Y40507495D02*
X-38715948Y40365025D01*
X-38715948Y40365025D02*
X-38623254Y40206869D01*
X-38623254Y40206869D02*
X-38521018Y40033071D01*
X-38521018Y40033071D02*
X-38296965Y39654511D01*
X-38296965Y39654511D02*
X-38221980Y39528517D01*
X-38221980Y39528517D02*
X-38146845Y39402622D01*
X-38146845Y39402622D02*
X-38071560Y39276826D01*
X-38071560Y39276826D02*
X-37967795Y39104012D01*
X-37967795Y39104012D02*
X-37892151Y38978446D01*
X-37892151Y38978446D02*
X-37816358Y38852980D01*
X-37816358Y38852980D02*
X-37740417Y38727610D01*
X-37740417Y38727610D02*
X-37645276Y38571034D01*
X-37645276Y38571034D02*
X-37568996Y38445886D01*
X-37568996Y38445886D02*
X-37492567Y38320837D01*
X-37492567Y38320837D02*
X-37348857Y38086632D01*
X-37348857Y38086632D02*
X-37271998Y37961866D01*
X-37271998Y37961866D02*
X-37194988Y37837198D01*
X-37194988Y37837198D02*
X-37117831Y37712629D01*
X-37117831Y37712629D02*
X-37030849Y37572607D01*
X-37030849Y37572607D02*
X-36953375Y37448250D01*
X-36953375Y37448250D02*
X-36856324Y37292944D01*
X-36856324Y37292944D02*
X-36759039Y37137791D01*
X-36759039Y37137791D02*
X-36661522Y36982795D01*
X-36661522Y36982795D02*
X-36583341Y36858911D01*
X-36583341Y36858911D02*
X-36485407Y36704196D01*
X-36485407Y36704196D02*
X-36397068Y36565087D01*
X-36397068Y36565087D02*
X-36269138Y36364375D01*
X-36269138Y36364375D02*
X-36190217Y36240993D01*
X-36190217Y36240993D02*
X-36111148Y36117711D01*
X-36111148Y36117711D02*
X-36031931Y35994529D01*
X-36031931Y35994529D02*
X-35922767Y35825319D01*
X-35922767Y35825319D02*
X-35833243Y35687018D01*
X-35833243Y35687018D02*
X-35753510Y35564191D01*
X-35753510Y35564191D02*
X-35623631Y35364813D01*
X-35623631Y35364813D02*
X-35513430Y35196317D01*
X-35513430Y35196317D02*
X-35433109Y35073897D01*
X-35433109Y35073897D02*
X-35352641Y34951576D01*
X-35352641Y34951576D02*
X-35272027Y34829361D01*
X-35272027Y34829361D02*
X-35191266Y34707245D01*
X-35191266Y34707245D02*
X-35110358Y34585234D01*
X-35110358Y34585234D02*
X-34968417Y34371959D01*
X-34968417Y34371959D02*
X-34866757Y34219811D01*
X-34866757Y34219811D02*
X-34785265Y34098208D01*
X-34785265Y34098208D02*
X-34693411Y33961529D01*
X-34693411Y33961529D02*
X-34591135Y33809815D01*
X-34591135Y33809815D02*
X-34498891Y33673411D01*
X-34498891Y33673411D02*
X-34385900Y33506873D01*
X-34385900Y33506873D02*
X-34262323Y33325420D01*
X-34262323Y33325420D02*
X-34138418Y33144197D01*
X-34138418Y33144197D02*
X-34055634Y33023514D01*
X-34055634Y33023514D02*
X-33900021Y32797512D01*
X-33900021Y32797512D02*
X-33806411Y32662086D01*
X-33806411Y32662086D02*
X-33691749Y32496745D01*
X-33691749Y32496745D02*
X-33587274Y32346608D01*
X-33587274Y32346608D02*
X-33482571Y32196632D01*
X-33482571Y32196632D02*
X-33377643Y32046821D01*
X-33377643Y32046821D02*
X-33272491Y31897176D01*
X-33272491Y31897176D02*
X-33156562Y31732753D01*
X-33156562Y31732753D02*
X-33061510Y31598375D01*
X-33061510Y31598375D02*
X-32976865Y31479041D01*
X-32976865Y31479041D02*
X-32892079Y31359812D01*
X-32892079Y31359812D02*
X-32807146Y31240688D01*
X-32807146Y31240688D02*
X-32722072Y31121670D01*
X-32722072Y31121670D02*
X-32636854Y31002760D01*
X-32636854Y31002760D02*
X-32551492Y30883954D01*
X-32551492Y30883954D02*
X-32423182Y30705947D01*
X-32423182Y30705947D02*
X-32337463Y30587406D01*
X-32337463Y30587406D02*
X-32240859Y30454179D01*
X-32240859Y30454179D02*
X-32144072Y30321084D01*
X-32144072Y30321084D02*
X-32057889Y30202891D01*
X-32057889Y30202891D02*
X-31971564Y30084806D01*
X-31971564Y30084806D02*
X-31852633Y29922614D01*
X-31852633Y29922614D02*
X-31765969Y29804784D01*
X-31765969Y29804784D02*
X-31657439Y29657647D01*
X-31657439Y29657647D02*
X-31559573Y29525370D01*
X-31559573Y29525370D02*
X-31417892Y29334540D01*
X-31417892Y29334540D02*
X-31264894Y29129351D01*
X-31264894Y29129351D02*
X-31166309Y28997619D01*
X-31166309Y28997619D02*
X-31078528Y28880640D01*
X-31078528Y28880640D02*
X-30979605Y28749167D01*
X-30979605Y28749167D02*
X-30891524Y28632419D01*
X-30891524Y28632419D02*
X-30781224Y28486634D01*
X-30781224Y28486634D02*
X-30681765Y28355574D01*
X-30681765Y28355574D02*
X-30571044Y28210113D01*
X-30571044Y28210113D02*
X-30460105Y28064823D01*
X-30460105Y28064823D02*
X-30360072Y27934208D01*
X-30360072Y27934208D02*
X-30237568Y27774758D01*
X-30237568Y27774758D02*
X-30114799Y27615513D01*
X-30114799Y27615513D02*
X-29980565Y27442029D01*
X-29980565Y27442029D02*
X-29879683Y27312077D01*
X-29879683Y27312077D02*
X-29789862Y27196684D01*
X-29789862Y27196684D02*
X-29688644Y27066996D01*
X-29688644Y27066996D02*
X-29598527Y26951837D01*
X-29598527Y26951837D02*
X-29496977Y26822414D01*
X-29496977Y26822414D02*
X-29383936Y26678775D01*
X-29383936Y26678775D02*
X-29282013Y26549649D01*
X-29282013Y26549649D02*
X-29168557Y26406340D01*
X-29168557Y26406340D02*
X-29077639Y26291819D01*
X-29077639Y26291819D02*
X-28918193Y26091673D01*
X-28918193Y26091673D02*
X-28826890Y25977457D01*
X-28826890Y25977457D02*
X-28712569Y25834847D01*
X-28712569Y25834847D02*
X-28609491Y25706645D01*
X-28609491Y25706645D02*
X-28517721Y25592806D01*
X-28517721Y25592806D02*
X-28414314Y25464873D01*
X-28414314Y25464873D02*
X-28299213Y25322890D01*
X-28299213Y25322890D02*
X-28195436Y25195256D01*
X-28195436Y25195256D02*
X-28091485Y25067766D01*
X-28091485Y25067766D02*
X-27998938Y24954562D01*
X-27998938Y24954562D02*
X-27848253Y24770842D01*
X-27848253Y24770842D02*
X-27732095Y24629722D01*
X-27732095Y24629722D02*
X-27569113Y24432454D01*
X-27569113Y24432454D02*
X-27440759Y24277700D01*
X-27440759Y24277700D02*
X-27312149Y24123163D01*
X-27312149Y24123163D02*
X-27195003Y23982859D01*
X-27195003Y23982859D02*
X-27054145Y23814729D01*
X-27054145Y23814729D02*
X-26960070Y23702788D01*
X-26960070Y23702788D02*
X-26854073Y23576989D01*
X-26854073Y23576989D02*
X-26747901Y23451334D01*
X-26747901Y23451334D02*
X-26617902Y23297952D01*
X-26617902Y23297952D02*
X-26511349Y23172621D01*
X-26511349Y23172621D02*
X-26404621Y23047434D01*
X-26404621Y23047434D02*
X-26214458Y22825239D01*
X-26214458Y22825239D02*
X-26107254Y22700457D01*
X-26107254Y22700457D02*
X-26011816Y22589663D01*
X-26011816Y22589663D02*
X-25916242Y22478984D01*
X-25916242Y22478984D02*
X-25808561Y22354609D01*
X-25808561Y22354609D02*
X-25652719Y22175213D01*
X-25652719Y22175213D02*
X-25544617Y22051197D01*
X-25544617Y22051197D02*
X-25436346Y21927326D01*
X-25436346Y21927326D02*
X-25339962Y21817344D01*
X-25339962Y21817344D02*
X-25195133Y21652586D01*
X-25195133Y21652586D02*
X-25098411Y21542895D01*
X-25098411Y21542895D02*
X-24977321Y21405946D01*
X-24977321Y21405946D02*
X-24880296Y21296516D01*
X-24880296Y21296516D02*
X-24758826Y21159894D01*
X-24758826Y21159894D02*
X-24661498Y21050728D01*
X-24661498Y21050728D02*
X-24515257Y20887200D01*
X-24515257Y20887200D02*
X-24405378Y20764727D01*
X-24405378Y20764727D02*
X-24307565Y20655988D01*
X-24307565Y20655988D02*
X-24197366Y20533797D01*
X-24197366Y20533797D02*
X-24086996Y20411755D01*
X-24086996Y20411755D02*
X-23988749Y20303399D01*
X-23988749Y20303399D02*
X-23878061Y20181639D01*
X-23878061Y20181639D02*
X-23779532Y20073536D01*
X-23779532Y20073536D02*
X-23656181Y19938571D01*
X-23656181Y19938571D02*
X-23544987Y19817262D01*
X-23544987Y19817262D02*
X-23446008Y19709557D01*
X-23446008Y19709557D02*
X-23346897Y19601973D01*
X-23346897Y19601973D02*
X-23235235Y19481080D01*
X-23235235Y19481080D02*
X-23135840Y19373748D01*
X-23135840Y19373748D02*
X-23023863Y19253141D01*
X-23023863Y19253141D02*
X-22924187Y19146061D01*
X-22924187Y19146061D02*
X-22736937Y18945611D01*
X-22736937Y18945611D02*
X-22624365Y18825544D01*
X-22624365Y18825544D02*
X-22524160Y18718944D01*
X-22524160Y18718944D02*
X-22423822Y18612464D01*
X-22423822Y18612464D02*
X-22323354Y18506104D01*
X-22323354Y18506104D02*
X-22222754Y18399866D01*
X-22222754Y18399866D02*
X-22109421Y18280491D01*
X-22109421Y18280491D02*
X-21945424Y18108331D01*
X-21945424Y18108331D02*
X-21831686Y17989329D01*
X-21831686Y17989329D02*
X-21730445Y17883680D01*
X-21730445Y17883680D02*
X-21629072Y17778148D01*
X-21629072Y17778148D02*
X-21527568Y17672739D01*
X-21527568Y17672739D02*
X-21375069Y17514855D01*
X-21375069Y17514855D02*
X-21273238Y17409750D01*
X-21273238Y17409750D02*
X-21133007Y17265430D01*
X-21133007Y17265430D02*
X-20992532Y17121339D01*
X-20992532Y17121339D02*
X-20877414Y17003618D01*
X-20877414Y17003618D02*
X-20749311Y16873000D01*
X-20749311Y16873000D02*
X-20633845Y16755606D01*
X-20633845Y16755606D02*
X-20518214Y16638369D01*
X-20518214Y16638369D02*
X-20402418Y16521284D01*
X-20402418Y16521284D02*
X-20260667Y16378393D01*
X-20260667Y16378393D02*
X-20157424Y16274620D01*
X-20157424Y16274620D02*
X-20041117Y16158020D01*
X-20041117Y16158020D02*
X-19937597Y16054507D01*
X-19937597Y16054507D02*
X-19782074Y15899468D01*
X-19782074Y15899468D02*
X-19678231Y15796264D01*
X-19678231Y15796264D02*
X-19574258Y15693182D01*
X-19574258Y15693182D02*
X-19444113Y15564505D01*
X-19444113Y15564505D02*
X-19339852Y15461703D01*
X-19339852Y15461703D02*
X-19235461Y15359025D01*
X-19235461Y15359025D02*
X-19130942Y15256470D01*
X-19130942Y15256470D02*
X-19000111Y15128452D01*
X-19000111Y15128452D02*
X-18895305Y15026179D01*
X-18895305Y15026179D02*
X-18750984Y14885755D01*
X-18750984Y14885755D02*
X-18619574Y14758303D01*
X-18619574Y14758303D02*
X-18501135Y14643763D01*
X-18501135Y14643763D02*
X-18369343Y14516680D01*
X-18369343Y14516680D02*
X-18210931Y14364440D01*
X-18210931Y14364440D02*
X-18105164Y14263104D01*
X-18105164Y14263104D02*
X-17959525Y14123969D01*
X-17959525Y14123969D02*
X-17840189Y14010310D01*
X-17840189Y14010310D02*
X-17707403Y13884210D01*
X-17707403Y13884210D02*
X-17587727Y13770888D01*
X-17587727Y13770888D02*
X-17441235Y13632598D01*
X-17441235Y13632598D02*
X-17334547Y13532176D01*
X-17334547Y13532176D02*
X-17201009Y13406824D01*
X-17201009Y13406824D02*
X-17080655Y13294176D01*
X-17080655Y13294176D02*
X-16960141Y13181690D01*
X-16960141Y13181690D02*
X-16852884Y13081837D01*
X-16852884Y13081837D02*
X-16745501Y12982112D01*
X-16745501Y12982112D02*
X-16624540Y12870070D01*
X-16624540Y12870070D02*
X-16516889Y12770614D01*
X-16516889Y12770614D02*
X-16409111Y12671287D01*
X-16409111Y12671287D02*
X-16233704Y12510149D01*
X-16233704Y12510149D02*
X-16112075Y12398792D01*
X-16112075Y12398792D02*
X-15990286Y12287595D01*
X-15990286Y12287595D02*
X-15854778Y12164234D01*
X-15854778Y12164234D02*
X-15719075Y12041072D01*
X-15719075Y12041072D02*
X-15610373Y11942687D01*
X-15610373Y11942687D02*
X-15474319Y11819888D01*
X-15474319Y11819888D02*
X-15310795Y11672793D01*
X-15310795Y11672793D02*
X-15174311Y11550436D01*
X-15174311Y11550436D02*
X-15064986Y11452696D01*
X-15064986Y11452696D02*
X-14914458Y11318514D01*
X-14914458Y11318514D02*
X-14736258Y11160248D01*
X-14736258Y11160248D02*
X-14626433Y11063025D01*
X-14626433Y11063025D02*
X-14502732Y10953803D01*
X-14502732Y10953803D02*
X-14378874Y10844746D01*
X-14378874Y10844746D02*
X-14241071Y10723765D01*
X-14241071Y10723765D02*
X-14116884Y10615056D01*
X-14116884Y10615056D02*
X-13964885Y10482411D01*
X-13964885Y10482411D02*
X-13854193Y10386097D01*
X-13854193Y10386097D02*
X-13729520Y10277902D01*
X-13729520Y10277902D02*
X-13590810Y10157877D01*
X-13590810Y10157877D02*
X-13424104Y10014118D01*
X-13424104Y10014118D02*
X-13284971Y9894546D01*
X-13284971Y9894546D02*
X-13173526Y9799033D01*
X-13173526Y9799033D02*
X-13061959Y9703653D01*
X-13061959Y9703653D02*
X-12950268Y9608404D01*
X-12950268Y9608404D02*
X-12838456Y9513288D01*
X-12838456Y9513288D02*
X-12712520Y9406439D01*
X-12712520Y9406439D02*
X-12572413Y9287914D01*
X-12572413Y9287914D02*
X-12460188Y9193242D01*
X-12460188Y9193242D02*
X-12319735Y9075087D01*
X-12319735Y9075087D02*
X-12207235Y8980713D01*
X-12207235Y8980713D02*
X-12080528Y8874699D01*
X-12080528Y8874699D02*
X-11854891Y8686647D01*
X-11854891Y8686647D02*
X-11685345Y8545956D01*
X-11685345Y8545956D02*
X-11558005Y8440635D01*
X-11558005Y8440635D02*
X-11430512Y8335482D01*
X-11430512Y8335482D02*
X-11246084Y8183890D01*
X-11246084Y8183890D02*
X-11089781Y8055896D01*
X-11089781Y8055896D02*
X-10961728Y7951362D01*
X-10961728Y7951362D02*
X-10847773Y7858584D01*
X-10847773Y7858584D02*
X-10733699Y7765941D01*
X-10733699Y7765941D02*
X-10619504Y7673434D01*
X-10619504Y7673434D02*
X-10505189Y7581059D01*
X-10505189Y7581059D02*
X-10390752Y7488818D01*
X-10390752Y7488818D02*
X-10276196Y7396712D01*
X-10276196Y7396712D02*
X-10118488Y7270287D01*
X-10118488Y7270287D02*
X-9946181Y7132658D01*
X-9946181Y7132658D02*
X-9802388Y7018201D01*
X-9802388Y7018201D02*
X-9543088Y6812708D01*
X-9543088Y6812708D02*
X-9413211Y6710219D01*
X-9413211Y6710219D02*
X-9283184Y6607902D01*
X-9283184Y6607902D02*
X-9167477Y6517098D01*
X-9167477Y6517098D02*
X-9051652Y6426427D01*
X-9051652Y6426427D02*
X-8921206Y6324588D01*
X-8921206Y6324588D02*
X-8790610Y6222920D01*
X-8790610Y6222920D02*
X-8645327Y6110158D01*
X-8645327Y6110158D02*
X-8514414Y6008854D01*
X-8514414Y6008854D02*
X-8383350Y5907724D01*
X-8383350Y5907724D02*
X-8266724Y5817975D01*
X-8266724Y5817975D02*
X-8106170Y5694794D01*
X-8106170Y5694794D02*
X-7989265Y5605372D01*
X-7989265Y5605372D02*
X-7872240Y5516086D01*
X-7872240Y5516086D02*
X-7755099Y5426937D01*
X-7755099Y5426937D02*
X-7549814Y5271255D01*
X-7549814Y5271255D02*
X-7417657Y5171396D01*
X-7417657Y5171396D02*
X-7270641Y5060648D01*
X-7270641Y5060648D02*
X-7138168Y4961158D01*
X-7138168Y4961158D02*
X-6961308Y4828776D01*
X-6961308Y4828776D02*
X-6828493Y4729697D01*
X-6828493Y4729697D02*
X-6680743Y4619809D01*
X-6680743Y4619809D02*
X-6562413Y4532057D01*
X-6562413Y4532057D02*
X-6414337Y4422562D01*
X-6414337Y4422562D02*
X-6280912Y4324201D01*
X-6280912Y4324201D02*
X-6147340Y4226014D01*
X-6147340Y4226014D02*
X-5983885Y4106251D01*
X-5983885Y4106251D02*
X-5849987Y4008458D01*
X-5849987Y4008458D02*
X-5730842Y3921679D01*
X-5730842Y3921679D02*
X-5611581Y3835039D01*
X-5611581Y3835039D02*
X-5477274Y3737735D01*
X-5477274Y3737735D02*
X-5342821Y3640610D01*
X-5342821Y3640610D02*
X-5148353Y3500631D01*
X-5148353Y3500631D02*
X-5028529Y3414674D01*
X-5028529Y3414674D02*
X-4893589Y3318140D01*
X-4893589Y3318140D02*
X-4773519Y3232480D01*
X-4773519Y3232480D02*
X-4653335Y3146961D01*
X-4653335Y3146961D02*
X-4533034Y3061582D01*
X-4533034Y3061582D02*
X-4397561Y2965702D01*
X-4397561Y2965702D02*
X-4277016Y2880623D01*
X-4277016Y2880623D02*
X-4156359Y2795687D01*
X-4156359Y2795687D02*
X-3990268Y2679129D01*
X-3990268Y2679129D02*
X-3854213Y2583961D01*
X-3854213Y2583961D02*
X-3702872Y2478431D01*
X-3702872Y2478431D02*
X-3581670Y2394165D01*
X-3581670Y2394165D02*
X-3445182Y2299535D01*
X-3445182Y2299535D02*
X-3262972Y2173642D01*
X-3262972Y2173642D02*
X-3126149Y2079433D01*
X-3126149Y2079433D02*
X-2989180Y1985405D01*
X-2989180Y1985405D02*
X-2852068Y1891555D01*
X-2852068Y1891555D02*
X-2699550Y1787490D01*
X-2699550Y1787490D02*
X-2562137Y1694024D01*
X-2562137Y1694024D02*
X-2424579Y1600736D01*
X-2424579Y1600736D02*
X-2302183Y1517967D01*
X-2302183Y1517967D02*
X-2179676Y1435341D01*
X-2179676Y1435341D02*
X-2041720Y1342557D01*
X-2041720Y1342557D02*
X-1872913Y1229402D01*
X-1872913Y1229402D02*
X-1688517Y1106269D01*
X-1688517Y1106269D02*
X-1565447Y1024361D01*
X-1565447Y1024361D02*
X-1426857Y932385D01*
X-1426857Y932385D02*
X-1272704Y830404D01*
X-1272704Y830404D02*
X-1133815Y738813D01*
X-1133815Y738813D02*
X-1010240Y657555D01*
X-1010240Y657555D02*
X-871082Y566309D01*
X-871082Y566309D02*
X-747269Y485357D01*
X-747269Y485357D02*
X-592346Y384370D01*
X-592346Y384370D02*
X-468282Y303743D01*
X-468282Y303743D02*
X-328575Y213212D01*
X-328575Y213212D02*
X-188729Y122862D01*
X-188729Y122862D02*
X-48743Y32701D01*
X-48743Y32701D02*
X-25400Y17693D01*
X-25400Y17693D02*
X106836Y102809D01*
X106836Y102809D02*
X246715Y193114D01*
X246715Y193114D02*
X386453Y283604D01*
X386453Y283604D02*
X510548Y364193D01*
X510548Y364193D02*
X650021Y455029D01*
X650021Y455029D02*
X773878Y535926D01*
X773878Y535926D02*
X959455Y657543D01*
X959455Y657543D02*
X1083031Y738801D01*
X1083031Y738801D02*
X1237345Y840577D01*
X1237345Y840577D02*
X1376078Y932368D01*
X1376078Y932368D02*
X1499277Y1014113D01*
X1499277Y1014113D02*
X1699238Y1147257D01*
X1699238Y1147257D02*
X1822142Y1229379D01*
X1822142Y1229379D02*
X1990951Y1342534D01*
X1990951Y1342534D02*
X2128908Y1435315D01*
X2128908Y1435315D02*
X2251417Y1517941D01*
X2251417Y1517941D02*
X2419685Y1631785D01*
X2419685Y1631785D02*
X2541924Y1714748D01*
X2541924Y1714748D02*
X2709820Y1829059D01*
X2709820Y1829059D02*
X2847030Y1922785D01*
X2847030Y1922785D02*
X3014536Y2037585D01*
X3014536Y2037585D02*
X3212220Y2173605D01*
X3212220Y2173605D02*
X3333724Y2257497D01*
X3333724Y2257497D02*
X3455113Y2341531D01*
X3455113Y2341531D02*
X3576388Y2425706D01*
X3576388Y2425706D02*
X3758087Y2552236D01*
X3758087Y2552236D02*
X3924418Y2668501D01*
X3924418Y2668501D02*
X4105623Y2795639D01*
X4105623Y2795639D02*
X4271501Y2912462D01*
X4271501Y2912462D02*
X4392004Y2997593D01*
X4392004Y2997593D02*
X4542469Y3104202D01*
X4542469Y3104202D02*
X4662713Y3189648D01*
X4662713Y3189648D02*
X4797850Y3285946D01*
X4797850Y3285946D02*
X4917850Y3371691D01*
X4917850Y3371691D02*
X5052711Y3468322D01*
X5052711Y3468322D02*
X5172464Y3554366D01*
X5172464Y3554366D02*
X5426558Y3737674D01*
X5426558Y3737674D02*
X5560867Y3834976D01*
X5560867Y3834976D02*
X5680129Y3921615D01*
X5680129Y3921615D02*
X5799277Y4008394D01*
X5799277Y4008394D02*
X5918306Y4095310D01*
X5918306Y4095310D02*
X6141175Y4258654D01*
X6141175Y4258654D02*
X6274701Y4356898D01*
X6274701Y4356898D02*
X6422889Y4466261D01*
X6422889Y4466261D02*
X6556102Y4564874D01*
X6556102Y4564874D02*
X6689168Y4663663D01*
X6689168Y4663663D02*
X6851603Y4784642D01*
X6851603Y4784642D02*
X7102204Y4972124D01*
X7102204Y4972124D02*
X7219952Y5060567D01*
X7219952Y5060567D02*
X7366970Y5171313D01*
X7366970Y5171313D02*
X7499131Y5271171D01*
X7499131Y5271171D02*
X7616481Y5360078D01*
X7616481Y5360078D02*
X7777647Y5482551D01*
X7777647Y5482551D02*
X7894717Y5571784D01*
X7894717Y5571784D02*
X8011669Y5661156D01*
X8011669Y5661156D02*
X8128505Y5750665D01*
X8128505Y5750665D02*
X8332679Y5907632D01*
X8332679Y5907632D02*
X8449189Y5997517D01*
X8449189Y5997517D02*
X8565581Y6087537D01*
X8565581Y6087537D02*
X8696381Y6188974D01*
X8696381Y6188974D02*
X8870545Y6324491D01*
X8870545Y6324491D02*
X9087874Y6494318D01*
X9087874Y6494318D02*
X9203612Y6585087D01*
X9203612Y6585087D02*
X9319230Y6675993D01*
X9319230Y6675993D02*
X9449161Y6778424D01*
X9449161Y6778424D02*
X9636569Y6926682D01*
X9636569Y6926682D02*
X9751740Y7018095D01*
X9751740Y7018095D02*
X9881164Y7121095D01*
X9881164Y7121095D02*
X10010439Y7224268D01*
X10010439Y7224268D02*
X10153899Y7339105D01*
X10153899Y7339105D02*
X10282851Y7442637D01*
X10282851Y7442637D02*
X10425956Y7557873D01*
X10425956Y7557873D02*
X10554587Y7661764D01*
X10554587Y7661764D02*
X10668799Y7754256D01*
X10668799Y7754256D02*
X10811395Y7870058D01*
X10811395Y7870058D02*
X10939570Y7974460D01*
X10939570Y7974460D02*
X11124441Y8125559D01*
X11124441Y8125559D02*
X11266434Y8242030D01*
X11266434Y8242030D02*
X11379892Y8335359D01*
X11379892Y8335359D02*
X11493228Y8428818D01*
X11493228Y8428818D02*
X11606442Y8522411D01*
X11606442Y8522411D02*
X11719536Y8616137D01*
X11719536Y8616137D02*
X11945359Y8803989D01*
X11945359Y8803989D02*
X12170697Y8992372D01*
X12170697Y8992372D02*
X12339381Y9134007D01*
X12339381Y9134007D02*
X12465712Y9240427D01*
X12465712Y9240427D02*
X12591890Y9347016D01*
X12591890Y9347016D02*
X12717913Y9453772D01*
X12717913Y9453772D02*
X12885704Y9596371D01*
X12885704Y9596371D02*
X12997412Y9691603D01*
X12997412Y9691603D02*
X13108996Y9786966D01*
X13108996Y9786966D02*
X13290060Y9942210D01*
X13290060Y9942210D02*
X13456906Y10085820D01*
X13456906Y10085820D02*
X13623477Y10229725D01*
X13623477Y10229725D02*
X13734370Y10325823D01*
X13734370Y10325823D02*
X13845139Y10422054D01*
X13845139Y10422054D02*
X13983429Y10542525D01*
X13983429Y10542525D02*
X14093922Y10639052D01*
X14093922Y10639052D02*
X14231861Y10759888D01*
X14231861Y10759888D02*
X14369609Y10880929D01*
X14369609Y10880929D02*
X14479668Y10977908D01*
X14479668Y10977908D02*
X14617067Y11099315D01*
X14617067Y11099315D02*
X14822803Y11281804D01*
X14822803Y11281804D02*
X14959719Y11403718D01*
X14959719Y11403718D02*
X15110097Y11538053D01*
X15110097Y11538053D02*
X15219317Y11635906D01*
X15219317Y11635906D02*
X15382914Y11782927D01*
X15382914Y11782927D02*
X15491821Y11881101D01*
X15491821Y11881101D02*
X15600604Y11979403D01*
X15600604Y11979403D02*
X15722837Y12090149D01*
X15722837Y12090149D02*
X15872015Y12225724D01*
X15872015Y12225724D02*
X15980360Y12324476D01*
X15980360Y12324476D02*
X16129128Y12460469D01*
X16129128Y12460469D02*
X16358578Y12671117D01*
X16358578Y12671117D02*
X16466359Y12770444D01*
X16466359Y12770444D02*
X16574013Y12869898D01*
X16574013Y12869898D02*
X16681542Y12969482D01*
X16681542Y12969482D02*
X16788942Y13069190D01*
X16788942Y13069190D02*
X16909619Y13181516D01*
X16909619Y13181516D02*
X17070270Y13331531D01*
X17070270Y13331531D02*
X17270688Y13519453D01*
X17270688Y13519453D02*
X17377394Y13619861D01*
X17377394Y13619861D02*
X17483973Y13720394D01*
X17483973Y13720394D02*
X17656895Y13884029D01*
X17656895Y13884029D02*
X17776413Y13997510D01*
X17776413Y13997510D02*
X17882516Y14098515D01*
X17882516Y14098515D02*
X17988494Y14199648D01*
X17988494Y14199648D02*
X18107563Y14313569D01*
X18107563Y14313569D02*
X18266073Y14465715D01*
X18266073Y14465715D02*
X18371589Y14567302D01*
X18371589Y14567302D02*
X18490139Y14681736D01*
X18490139Y14681736D02*
X18647953Y14834561D01*
X18647953Y14834561D02*
X18753004Y14936601D01*
X18753004Y14936601D02*
X18897238Y15077108D01*
X18897238Y15077108D02*
X19028151Y15205048D01*
X19028151Y15205048D02*
X19145801Y15320359D01*
X19145801Y15320359D02*
X19276331Y15448668D01*
X19276331Y15448668D02*
X19393637Y15564309D01*
X19393637Y15564309D02*
X19523785Y15692985D01*
X19523785Y15692985D02*
X19627760Y15796066D01*
X19627760Y15796066D02*
X19731604Y15899269D01*
X19731604Y15899269D02*
X19848276Y16015522D01*
X19848276Y16015522D02*
X19977720Y16144874D01*
X19977720Y16144874D02*
X20094046Y16261456D01*
X20094046Y16261456D02*
X20210207Y16378192D01*
X20210207Y16378192D02*
X20351960Y16521081D01*
X20351960Y16521081D02*
X20454899Y16625148D01*
X20454899Y16625148D02*
X20570551Y16742368D01*
X20570551Y16742368D02*
X20673213Y16846694D01*
X20673213Y16846694D02*
X20826965Y17003412D01*
X20826965Y17003412D02*
X20954867Y17134221D01*
X20954867Y17134221D02*
X21069804Y17252112D01*
X21069804Y17252112D02*
X21197320Y17383283D01*
X21197320Y17383283D02*
X21299185Y17488357D01*
X21299185Y17488357D02*
X21400918Y17593552D01*
X21400918Y17593552D02*
X21502521Y17698868D01*
X21502521Y17698868D02*
X21616670Y17817495D01*
X21616670Y17817495D02*
X21717995Y17923070D01*
X21717995Y17923070D02*
X21819188Y18028765D01*
X21819188Y18028765D02*
X21920251Y18134580D01*
X21920251Y18134580D02*
X22033788Y18253767D01*
X22033788Y18253767D02*
X22210073Y18439473D01*
X22210073Y18439473D02*
X22411048Y18652159D01*
X22411048Y18652159D02*
X22636511Y18892006D01*
X22636511Y18892006D02*
X22811412Y19078974D01*
X22811412Y19078974D02*
X22973456Y19252916D01*
X22973456Y19252916D02*
X23085435Y19373522D01*
X23085435Y19373522D02*
X23234481Y19534563D01*
X23234481Y19534563D02*
X23333681Y19642075D01*
X23333681Y19642075D02*
X23445118Y19763165D01*
X23445118Y19763165D02*
X23568741Y19897889D01*
X23568741Y19897889D02*
X23692157Y20032797D01*
X23692157Y20032797D02*
X23790738Y20140855D01*
X23790738Y20140855D02*
X23926073Y20289631D01*
X23926073Y20289631D02*
X24024339Y20397971D01*
X24024339Y20397971D02*
X24122472Y20506430D01*
X24122472Y20506430D02*
X24232709Y20628586D01*
X24232709Y20628586D02*
X24330558Y20737296D01*
X24330558Y20737296D02*
X24464881Y20886963D01*
X24464881Y20886963D02*
X24586773Y21023217D01*
X24586773Y21023217D02*
X24696297Y21146005D01*
X24696297Y21146005D02*
X24793508Y21255272D01*
X24793508Y21255272D02*
X24902711Y21378338D01*
X24902711Y21378338D02*
X24999635Y21487852D01*
X24999635Y21487852D02*
X25096426Y21597485D01*
X25096426Y21597485D02*
X25229295Y21748420D01*
X25229295Y21748420D02*
X25337814Y21872076D01*
X25337814Y21872076D02*
X25446163Y21995881D01*
X25446163Y21995881D02*
X25542330Y22106051D01*
X25542330Y22106051D02*
X25686328Y22271527D01*
X25686328Y22271527D02*
X25782157Y22381987D01*
X25782157Y22381987D02*
X25889803Y22506394D01*
X25889803Y22506394D02*
X25997278Y22630948D01*
X25997278Y22630948D02*
X26104580Y22755648D01*
X26104580Y22755648D02*
X26271154Y22949916D01*
X26271154Y22949916D02*
X26389880Y23088896D01*
X26389880Y23088896D02*
X26496551Y23214129D01*
X26496551Y23214129D02*
X26591225Y23325571D01*
X26591225Y23325571D02*
X26685763Y23437126D01*
X26685763Y23437126D02*
X26803745Y23576734D01*
X26803745Y23576734D02*
X26909744Y23702532D01*
X26909744Y23702532D02*
X27003821Y23814473D01*
X27003821Y23814473D02*
X27121227Y23954562D01*
X27121227Y23954562D02*
X27238417Y24094828D01*
X27238417Y24094828D02*
X27390444Y24277441D01*
X27390444Y24277441D02*
X27518801Y24432194D01*
X27518801Y24432194D02*
X27611987Y24544875D01*
X27611987Y24544875D02*
X27763122Y24728226D01*
X27763122Y24728226D02*
X27983357Y24996737D01*
X27983357Y24996737D02*
X28168214Y25223343D01*
X28168214Y25223343D02*
X28260436Y25336815D01*
X28260436Y25336815D02*
X28352520Y25450399D01*
X28352520Y25450399D02*
X28444465Y25564097D01*
X28444465Y25564097D02*
X28547738Y25692140D01*
X28547738Y25692140D02*
X28639390Y25806077D01*
X28639390Y25806077D02*
X28753759Y25948653D01*
X28753759Y25948653D02*
X28867910Y26091403D01*
X28867910Y26091403D02*
X28993228Y26248632D01*
X28993228Y26248632D02*
X29095563Y26377428D01*
X29095563Y26377428D02*
X29186381Y26492034D01*
X29186381Y26492034D02*
X29277059Y26606750D01*
X29277059Y26606750D02*
X29378908Y26735940D01*
X29378908Y26735940D02*
X29480577Y26865267D01*
X29480577Y26865267D02*
X29570802Y26980342D01*
X29570802Y26980342D02*
X29672138Y27109936D01*
X29672138Y27109936D02*
X29773298Y27239668D01*
X29773298Y27239668D02*
X29863069Y27355103D01*
X29863069Y27355103D02*
X29997462Y27528462D01*
X29997462Y27528462D02*
X30086884Y27644174D01*
X30086884Y27644174D02*
X30187315Y27774479D01*
X30187315Y27774479D02*
X30276437Y27890423D01*
X30276437Y27890423D02*
X30365418Y28006476D01*
X30365418Y28006476D02*
X30454260Y28122639D01*
X30454260Y28122639D02*
X30554038Y28253453D01*
X30554038Y28253453D02*
X30664693Y28398963D01*
X30664693Y28398963D02*
X30753059Y28515496D01*
X30753059Y28515496D02*
X30852303Y28646723D01*
X30852303Y28646723D02*
X30962361Y28792692D01*
X30962361Y28792692D02*
X31072202Y28938832D01*
X31072202Y28938832D02*
X31159916Y29055867D01*
X31159916Y29055867D02*
X31313071Y29260935D01*
X31313071Y29260935D02*
X31433103Y29422295D01*
X31433103Y29422295D02*
X31531112Y29554468D01*
X31531112Y29554468D02*
X31683213Y29760341D01*
X31683213Y29760341D02*
X31791589Y29907593D01*
X31791589Y29907593D02*
X31899745Y30055015D01*
X31899745Y30055015D02*
X32018457Y30217371D01*
X32018457Y30217371D02*
X32115386Y30350359D01*
X32115386Y30350359D02*
X32201394Y30468686D01*
X32201394Y30468686D02*
X32287257Y30587116D01*
X32287257Y30587116D02*
X32437174Y30794628D01*
X32437174Y30794628D02*
X32618629Y31047046D01*
X32618629Y31047046D02*
X32799437Y31299944D01*
X32799437Y31299944D02*
X32894897Y31434026D01*
X32894897Y31434026D02*
X33032459Y31627932D01*
X33032459Y31627932D02*
X33116925Y31747397D01*
X33116925Y31747397D02*
X33211778Y31881923D01*
X33211778Y31881923D02*
X33295938Y32001614D01*
X33295938Y32001614D02*
X33463826Y32241311D01*
X33463826Y32241311D02*
X33568465Y32391335D01*
X33568465Y32391335D02*
X33683303Y32556548D01*
X33683303Y32556548D02*
X33777057Y32691870D01*
X33777057Y32691870D02*
X33964020Y32962911D01*
X33964020Y32962911D02*
X34067572Y33113717D01*
X34067572Y33113717D02*
X34191534Y33294899D01*
X34191534Y33294899D02*
X34273992Y33415816D01*
X34273992Y33415816D02*
X34387137Y33582246D01*
X34387137Y33582246D02*
X34469251Y33703410D01*
X34469251Y33703410D02*
X34571689Y33855010D01*
X34571689Y33855010D02*
X34694314Y34037141D01*
X34694314Y34037141D02*
X34775882Y34158693D01*
X34775882Y34158693D02*
X34887800Y34325994D01*
X34887800Y34325994D02*
X34999439Y34493486D01*
X34999439Y34493486D02*
X35090575Y34630670D01*
X35090575Y34630670D02*
X35201714Y34798517D01*
X35201714Y34798517D02*
X35282366Y34920707D01*
X35282366Y34920707D02*
X35362874Y35043002D01*
X35362874Y35043002D02*
X35463299Y35196010D01*
X35463299Y35196010D02*
X35573502Y35364506D01*
X35573502Y35364506D02*
X35653476Y35487167D01*
X35653476Y35487167D02*
X35733302Y35609931D01*
X35733302Y35609931D02*
X35812982Y35732796D01*
X35812982Y35732796D02*
X35942147Y35932667D01*
X35942147Y35932667D02*
X36031341Y36071196D01*
X36031341Y36071196D02*
X36110468Y36194441D01*
X36110468Y36194441D02*
X36189447Y36317786D01*
X36189447Y36317786D02*
X36278119Y36456669D01*
X36278119Y36456669D02*
X36396061Y36642042D01*
X36396061Y36642042D02*
X36474504Y36765752D01*
X36474504Y36765752D02*
X36552797Y36889560D01*
X36552797Y36889560D02*
X36640700Y37028964D01*
X36640700Y37028964D02*
X36747881Y37199519D01*
X36747881Y37199519D02*
X36893586Y37432397D01*
X36893586Y37432397D02*
X36971081Y37556742D01*
X36971081Y37556742D02*
X37048427Y37681187D01*
X37048427Y37681187D02*
X37125624Y37805731D01*
X37125624Y37805731D02*
X37202671Y37930373D01*
X37202671Y37930373D02*
X37308370Y38101919D01*
X37308370Y38101919D02*
X37404215Y38258033D01*
X37404215Y38258033D02*
X37509372Y38429933D01*
X37509372Y38429933D02*
X37585672Y38555069D01*
X37585672Y38555069D02*
X37661823Y38680304D01*
X37661823Y38680304D02*
X37737824Y38805637D01*
X37737824Y38805637D02*
X37813675Y38931067D01*
X37813675Y38931067D02*
X37889376Y39056596D01*
X37889376Y39056596D02*
X38021495Y39276507D01*
X38021495Y39276507D02*
X38096782Y39402303D01*
X38096782Y39402303D02*
X38171920Y39528198D01*
X38171920Y39528198D02*
X38246906Y39654191D01*
X38246906Y39654191D02*
X38349767Y39827589D01*
X38349767Y39827589D02*
X38443030Y39985382D01*
X38443030Y39985382D02*
X38526765Y40127525D01*
X38526765Y40127525D02*
X38601036Y40253979D01*
X38601036Y40253979D02*
X38684409Y40396355D01*
X38684409Y40396355D02*
X38758358Y40523012D01*
X38758358Y40523012D02*
X38896604Y40760753D01*
X38896604Y40760753D02*
X38970117Y40887686D01*
X38970117Y40887686D02*
X39043479Y41014717D01*
X39043479Y41014717D02*
X39116689Y41141842D01*
X39116689Y41141842D02*
X39189749Y41269066D01*
X39189749Y41269066D02*
X39262654Y41396383D01*
X39262654Y41396383D02*
X39335408Y41523795D01*
X39335408Y41523795D02*
X39408010Y41651304D01*
X39408010Y41651304D02*
X39480460Y41778907D01*
X39480460Y41778907D02*
X39615892Y42018421D01*
X39615892Y42018421D02*
X39705883Y42178280D01*
X39705883Y42178280D02*
X39795635Y42338290D01*
X39795635Y42338290D02*
X39885146Y42498445D01*
X39885146Y42498445D02*
X39965503Y42642710D01*
X39965503Y42642710D02*
X40045666Y42787096D01*
X40045666Y42787096D02*
X40125636Y42931602D01*
X40125636Y42931602D02*
X40205411Y43076226D01*
X40205411Y43076226D02*
X40311476Y43269241D01*
X40311476Y43269241D02*
X40390797Y43414141D01*
X40390797Y43414141D02*
X40478705Y43575281D01*
X40478705Y43575281D02*
X40566372Y43736565D01*
X40566372Y43736565D02*
X40662527Y43914146D01*
X40662527Y43914146D02*
X40749688Y44075735D01*
X40749688Y44075735D02*
X40836609Y44237472D01*
X40836609Y44237472D02*
X40940594Y44431744D01*
X40940594Y44431744D02*
X41018354Y44577585D01*
X41018354Y44577585D02*
X41095919Y44723542D01*
X41095919Y44723542D02*
X41190456Y44902095D01*
X41190456Y44902095D02*
X41284698Y45080818D01*
X41284698Y45080818D02*
X41378647Y45259717D01*
X41378647Y45259717D02*
X41472305Y45438790D01*
X41472305Y45438790D02*
X41548713Y45585432D01*
X41548713Y45585432D02*
X41624925Y45732190D01*
X41624925Y45732190D02*
X41717807Y45911717D01*
X41717807Y45911717D02*
X41801988Y46075074D01*
X41801988Y46075074D02*
X41877543Y46222217D01*
X41877543Y46222217D02*
X41952901Y46369472D01*
X41952901Y46369472D02*
X42036401Y46533225D01*
X42036401Y46533225D02*
X42111342Y46680723D01*
X42111342Y46680723D02*
X42186085Y46828335D01*
X42186085Y46828335D02*
X42260631Y46976063D01*
X42260631Y46976063D02*
X42343223Y47140335D01*
X42343223Y47140335D02*
X42417350Y47288302D01*
X42417350Y47288302D02*
X42491279Y47436381D01*
X42491279Y47436381D02*
X42573187Y47601048D01*
X42573187Y47601048D02*
X42663004Y47782343D01*
X42663004Y47782343D02*
X42736268Y47930798D01*
X42736268Y47930798D02*
X42825544Y48112399D01*
X42825544Y48112399D02*
X42898367Y48261106D01*
X42898367Y48261106D02*
X42970989Y48409925D01*
X42970989Y48409925D02*
X43043413Y48558859D01*
X43043413Y48558859D02*
X43115635Y48707901D01*
X43115635Y48707901D02*
X43187659Y48857055D01*
X43187659Y48857055D02*
X43267449Y49022912D01*
X43267449Y49022912D02*
X43354934Y49205515D01*
X43354934Y49205515D02*
X43434206Y49371664D01*
X43434206Y49371664D02*
X43505337Y49521312D01*
X43505337Y49521312D02*
X43599869Y49721017D01*
X43599869Y49721017D02*
X43670533Y49870925D01*
X43670533Y49870925D02*
X43756626Y50054293D01*
X43756626Y50054293D02*
X43826844Y50204446D01*
X43826844Y50204446D02*
X43912391Y50388115D01*
X43912391Y50388115D02*
X43997639Y50571949D01*
X43997639Y50571949D02*
X44067161Y50722479D01*
X44067161Y50722479D02*
X44136481Y50873118D01*
X44136481Y50873118D02*
X44213267Y51040624D01*
X44213267Y51040624D02*
X44282161Y51191493D01*
X44282161Y51191493D02*
X44350853Y51342471D01*
X44350853Y51342471D02*
X44419342Y51493559D01*
X44419342Y51493559D02*
X44487628Y51644754D01*
X44487628Y51644754D02*
X44563264Y51812875D01*
X44563264Y51812875D02*
X44646174Y51997962D01*
X44646174Y51997962D02*
X44713784Y52149517D01*
X44713784Y52149517D02*
X44788668Y52318039D01*
X44788668Y52318039D02*
X44863299Y52486691D01*
X44863299Y52486691D02*
X44930253Y52638593D01*
X44930253Y52638593D02*
X45011809Y52824396D01*
X45011809Y52824396D02*
X45078311Y52976534D01*
X45078311Y52976534D02*
X45144607Y53128780D01*
X45144607Y53128780D02*
X45218029Y53298064D01*
X45218029Y53298064D02*
X45291200Y53467481D01*
X45291200Y53467481D02*
X45364118Y53637030D01*
X45364118Y53637030D02*
X45429528Y53789735D01*
X45429528Y53789735D02*
X45494734Y53942546D01*
X45494734Y53942546D02*
X45566942Y54112457D01*
X45566942Y54112457D02*
X45631715Y54265491D01*
X45631715Y54265491D02*
X45724913Y54486725D01*
X45724913Y54486725D02*
X45796310Y54657053D01*
X45796310Y54657053D02*
X45860352Y54810459D01*
X45860352Y54810459D02*
X45931269Y54981033D01*
X45931269Y54981033D02*
X45994873Y55134658D01*
X45994873Y55134658D02*
X46058274Y55288388D01*
X46058274Y55288388D02*
X46121468Y55442221D01*
X46121468Y55442221D02*
X46184455Y55596159D01*
X46184455Y55596159D02*
X46247235Y55750198D01*
X46247235Y55750198D02*
X46316749Y55921477D01*
X46316749Y55921477D02*
X46392919Y56110031D01*
X46392919Y56110031D02*
X46461894Y56281575D01*
X46461894Y56281575D02*
X46523754Y56436073D01*
X46523754Y56436073D02*
X46592246Y56607859D01*
X46592246Y56607859D02*
X46653667Y56762573D01*
X46653667Y56762573D02*
X46714881Y56917390D01*
X46714881Y56917390D02*
X46796176Y57123971D01*
X46796176Y57123971D02*
X46833315Y57218717D01*
X46833315Y57218717D02*
X46890547Y57365195D01*
X46890547Y57365195D02*
X46950930Y57520357D01*
X46950930Y57520357D02*
X47017764Y57692836D01*
X47017764Y57692836D02*
X47077680Y57848138D01*
X47077680Y57848138D02*
X47143995Y58020773D01*
X47143995Y58020773D02*
X47203441Y58176212D01*
X47203441Y58176212D02*
X47262668Y58331720D01*
X47262668Y58331720D02*
X47321670Y58487289D01*
X47321670Y58487289D02*
X47386970Y58660222D01*
X47386970Y58660222D02*
X47445505Y58815931D01*
X47445505Y58815931D02*
X47510284Y58989013D01*
X47510284Y58989013D02*
X47568351Y59144857D01*
X47568351Y59144857D02*
X47632609Y59318092D01*
X47632609Y59318092D02*
X47690207Y59474070D01*
X47690207Y59474070D02*
X47760302Y59664794D01*
X47760302Y59664794D02*
X47823738Y59838264D01*
X47823738Y59838264D02*
X47886899Y60011811D01*
X47886899Y60011811D02*
X47956060Y60202800D01*
X47956060Y60202800D02*
X48024889Y60393886D01*
X48024889Y60393886D02*
X48080958Y60550296D01*
X48080958Y60550296D02*
X48149181Y60741547D01*
X48149181Y60741547D02*
X48223231Y60950290D01*
X48223231Y60950290D02*
X48278509Y61106920D01*
X48278509Y61106920D02*
X48345769Y61298435D01*
X48345769Y61298435D02*
X48400552Y61455200D01*
X48400552Y61455200D02*
X48461165Y61629454D01*
X48461165Y61629454D02*
X48515479Y61786346D01*
X48515479Y61786346D02*
X48569571Y61943297D01*
X48569571Y61943297D02*
X48635381Y62135206D01*
X48635381Y62135206D02*
X48688979Y62292289D01*
X48688979Y62292289D02*
X48754187Y62484361D01*
X48754187Y62484361D02*
X48824943Y62693993D01*
X48824943Y62693993D02*
X48883604Y62868766D01*
X48883604Y62868766D02*
X48936165Y63026123D01*
X48936165Y63026123D02*
X48994306Y63201034D01*
X48994306Y63201034D02*
X49052172Y63376017D01*
X49052172Y63376017D02*
X49104016Y63533561D01*
X49104016Y63533561D02*
X49155637Y63691163D01*
X49155637Y63691163D02*
X49218431Y63883866D01*
X49218431Y63883866D02*
X49275224Y64059121D01*
X49275224Y64059121D02*
X49343014Y64269521D01*
X49343014Y64269521D02*
X49393599Y64427388D01*
X49393599Y64427388D02*
X49449541Y64602861D01*
X49449541Y64602861D02*
X49499655Y64760844D01*
X49499655Y64760844D02*
X49555076Y64936447D01*
X49555076Y64936447D02*
X49610223Y65112118D01*
X49610223Y65112118D02*
X49659620Y65270280D01*
X49659620Y65270280D02*
X49708793Y65428498D01*
X49708793Y65428498D02*
X49763171Y65604359D01*
X49763171Y65604359D02*
X49811874Y65762690D01*
X49811874Y65762690D02*
X49865730Y65938678D01*
X49865730Y65938678D02*
X49919311Y66114734D01*
X49919311Y66114734D02*
X49967297Y66273239D01*
X49967297Y66273239D02*
X50015061Y66431796D01*
X50015061Y66431796D02*
X50073135Y66625661D01*
X50073135Y66625661D02*
X50125643Y66801971D01*
X50125643Y66801971D02*
X50172665Y66960705D01*
X50172665Y66960705D02*
X50219465Y67119492D01*
X50219465Y67119492D02*
X50271203Y67295984D01*
X50271203Y67295984D02*
X50317530Y67454878D01*
X50317530Y67454878D02*
X50363636Y67613826D01*
X50363636Y67613826D02*
X50409518Y67772825D01*
X50409518Y67772825D02*
X50460239Y67949550D01*
X50460239Y67949550D02*
X50505653Y68108658D01*
X50505653Y68108658D02*
X50555849Y68285502D01*
X50555849Y68285502D02*
X50605773Y68462410D01*
X50605773Y68462410D02*
X50650466Y68621677D01*
X50650466Y68621677D02*
X50699866Y68798701D01*
X50699866Y68798701D02*
X50744092Y68958076D01*
X50744092Y68958076D02*
X50788092Y69117498D01*
X50788092Y69117498D02*
X50831869Y69276970D01*
X50831869Y69276970D02*
X50875425Y69436491D01*
X50875425Y69436491D02*
X50923559Y69613794D01*
X50923559Y69613794D02*
X50966644Y69773417D01*
X50966644Y69773417D02*
X51014255Y69950833D01*
X51014255Y69950833D02*
X51056870Y70110558D01*
X51056870Y70110558D02*
X51099259Y70270329D01*
X51099259Y70270329D02*
X51141427Y70430149D01*
X51141427Y70430149D02*
X51183373Y70590018D01*
X51183373Y70590018D02*
X51229717Y70767702D01*
X51229717Y70767702D02*
X51275786Y70945445D01*
X51275786Y70945445D02*
X51317011Y71105461D01*
X51317011Y71105461D02*
X51358014Y71265525D01*
X51358014Y71265525D02*
X51398793Y71425633D01*
X51398793Y71425633D02*
X51439350Y71585788D01*
X51439350Y71585788D02*
X51479684Y71745990D01*
X51479684Y71745990D02*
X51519795Y71906235D01*
X51519795Y71906235D02*
X51559681Y72066526D01*
X51559681Y72066526D02*
X51603739Y72244679D01*
X51603739Y72244679D02*
X51647521Y72422889D01*
X51647521Y72422889D02*
X51691027Y72601152D01*
X51691027Y72601152D02*
X51734259Y72779469D01*
X51734259Y72779469D02*
X51777215Y72957843D01*
X51777215Y72957843D02*
X51819893Y73136266D01*
X51819893Y73136266D02*
X51862297Y73314745D01*
X51862297Y73314745D02*
X51904425Y73493277D01*
X51904425Y73493277D02*
X51950448Y73689722D01*
X51950448Y73689722D02*
X51991996Y73868364D01*
X51991996Y73868364D02*
X52041494Y74082805D01*
X52041494Y74082805D02*
X52090589Y74297317D01*
X52090589Y74297317D02*
X52135247Y74494018D01*
X52135247Y74494018D02*
X52175557Y74672893D01*
X52175557Y74672893D02*
X52215589Y74851816D01*
X52215589Y74851816D02*
X52263264Y75066593D01*
X52263264Y75066593D02*
X52302692Y75245628D01*
X52302692Y75245628D02*
X52341840Y75424710D01*
X52341840Y75424710D02*
X52380712Y75603843D01*
X52380712Y75603843D02*
X52423156Y75800947D01*
X52423156Y75800947D02*
X52461449Y75980181D01*
X52461449Y75980181D02*
X52503254Y76177397D01*
X52503254Y76177397D02*
X52540970Y76356733D01*
X52540970Y76356733D02*
X52589586Y76589940D01*
X52589586Y76589940D02*
X52626666Y76769385D01*
X52626666Y76769385D02*
X52663470Y76948879D01*
X52663470Y76948879D02*
X52707270Y77164330D01*
X52707270Y77164330D02*
X52743466Y77343923D01*
X52743466Y77343923D02*
X52779388Y77523565D01*
X52779388Y77523565D02*
X52815031Y77703249D01*
X52815031Y77703249D02*
X52850398Y77882980D01*
X52850398Y77882980D02*
X52892477Y78098716D01*
X52892477Y78098716D02*
X52927236Y78278543D01*
X52927236Y78278543D02*
X52961720Y78458417D01*
X52961720Y78458417D02*
X52999335Y78656329D01*
X52999335Y78656329D02*
X53033240Y78836292D01*
X53033240Y78836292D02*
X53073560Y79052307D01*
X53073560Y79052307D02*
X53106857Y79232366D01*
X53106857Y79232366D02*
X53139877Y79412468D01*
X53139877Y79412468D02*
X53175880Y79610627D01*
X53175880Y79610627D02*
X53208320Y79790817D01*
X53208320Y79790817D02*
X53240484Y79971047D01*
X53240484Y79971047D02*
X53272371Y80151319D01*
X53272371Y80151319D02*
X53316550Y80403769D01*
X53316550Y80403769D02*
X53347772Y80584137D01*
X53347772Y80584137D02*
X53381799Y80782589D01*
X53381799Y80782589D02*
X53412442Y80963045D01*
X53412442Y80963045D02*
X53442808Y81143536D01*
X53442808Y81143536D02*
X53472898Y81324066D01*
X53472898Y81324066D02*
X53502710Y81504636D01*
X53502710Y81504636D02*
X53532248Y81685245D01*
X53532248Y81685245D02*
X53561509Y81865893D01*
X53561509Y81865893D02*
X53590493Y82046576D01*
X53590493Y82046576D02*
X53622057Y82245371D01*
X53622057Y82245371D02*
X53653285Y82444213D01*
X53653285Y82444213D02*
X53681383Y82625013D01*
X53681383Y82625013D02*
X53709205Y82805855D01*
X53709205Y82805855D02*
X53736750Y82986731D01*
X53736750Y82986731D02*
X53766731Y83185734D01*
X53766731Y83185734D02*
X53804404Y83439074D01*
X53804404Y83439074D02*
X53830979Y83620073D01*
X53830979Y83620073D02*
X53857280Y83801106D01*
X53857280Y83801106D02*
X53883304Y83982175D01*
X53883304Y83982175D02*
X53911611Y84181390D01*
X53911611Y84181390D02*
X53939582Y84380645D01*
X53939582Y84380645D02*
X53964718Y84561821D01*
X53964718Y84561821D02*
X53989578Y84743029D01*
X53989578Y84743029D02*
X54016605Y84942396D01*
X54016605Y84942396D02*
X54040883Y85123672D01*
X54040883Y85123672D02*
X54064885Y85304980D01*
X54064885Y85304980D02*
X54088611Y85486321D01*
X54088611Y85486321D02*
X54112059Y85667692D01*
X54112059Y85667692D02*
X54135229Y85849094D01*
X54135229Y85849094D02*
X54158124Y86030527D01*
X54158124Y86030527D02*
X54180742Y86211992D01*
X54180742Y86211992D02*
X54203081Y86393485D01*
X54203081Y86393485D02*
X54225144Y86575008D01*
X54225144Y86575008D02*
X54246930Y86756562D01*
X54246930Y86756562D02*
X54268439Y86938144D01*
X54268439Y86938144D02*
X54289669Y87119753D01*
X54289669Y87119753D02*
X54310625Y87301391D01*
X54310625Y87301391D02*
X54331302Y87483059D01*
X54331302Y87483059D02*
X54351701Y87664754D01*
X54351701Y87664754D02*
X54371825Y87846477D01*
X54371825Y87846477D02*
X54393640Y88046402D01*
X54393640Y88046402D02*
X54413180Y88228182D01*
X54413180Y88228182D02*
X54432444Y88409986D01*
X54432444Y88409986D02*
X54451430Y88591818D01*
X54451430Y88591818D02*
X54473848Y88810050D01*
X54473848Y88810050D02*
X54494046Y89010127D01*
X54494046Y89010127D02*
X54515699Y89228430D01*
X54515699Y89228430D02*
X54535195Y89428570D01*
X54535195Y89428570D02*
X54554356Y89628741D01*
X54554356Y89628741D02*
X54576568Y89865343D01*
X54576568Y89865343D02*
X54594996Y90065577D01*
X54594996Y90065577D02*
X54613091Y90265839D01*
X54613091Y90265839D02*
X54632444Y90484335D01*
X54632444Y90484335D02*
X54651399Y90702866D01*
X54651399Y90702866D02*
X54668424Y90903214D01*
X54668424Y90903214D02*
X54686613Y91121806D01*
X54686613Y91121806D02*
X54702936Y91322208D01*
X54702936Y91322208D02*
X54720359Y91540859D01*
X54720359Y91540859D02*
X54737381Y91759537D01*
X54737381Y91759537D02*
X54752634Y91960018D01*
X54752634Y91960018D02*
X54768892Y92178753D01*
X54768892Y92178753D02*
X54783442Y92379285D01*
X54783442Y92379285D02*
X54797658Y92579841D01*
X54797658Y92579841D02*
X54812782Y92798651D01*
X54812782Y92798651D02*
X54826294Y92999253D01*
X54826294Y92999253D02*
X54840651Y93218118D01*
X54840651Y93218118D02*
X54853460Y93418765D01*
X54853460Y93418765D02*
X54867052Y93637676D01*
X54867052Y93637676D02*
X54881324Y93874859D01*
X54881324Y93874859D02*
X54893033Y94075572D01*
X54893033Y94075572D02*
X54905422Y94294554D01*
X54905422Y94294554D02*
X54916428Y94495308D01*
X54916428Y94495308D02*
X54927098Y94696080D01*
X54927098Y94696080D02*
X54937432Y94896872D01*
X54937432Y94896872D02*
X54947428Y95097680D01*
X54947428Y95097680D02*
X54957089Y95298506D01*
X54957089Y95298506D02*
X54966413Y95499350D01*
X54966413Y95499350D02*
X54975401Y95700208D01*
X54975401Y95700208D02*
X54984053Y95901084D01*
X54984053Y95901084D02*
X54992369Y96101978D01*
X54992369Y96101978D02*
X55000347Y96302881D01*
X55000347Y96302881D02*
X55007988Y96503802D01*
X55007988Y96503802D02*
X55015295Y96704739D01*
X55015295Y96704739D02*
X55022263Y96905687D01*
X55022263Y96905687D02*
X55028896Y97106651D01*
X55028896Y97106651D02*
X55035747Y97325899D01*
X55035747Y97325899D02*
X55041674Y97526889D01*
X55041674Y97526889D02*
X55047758Y97746165D01*
X55047758Y97746165D02*
X55053440Y97965455D01*
X55053440Y97965455D02*
X55058723Y98184758D01*
X55058723Y98184758D02*
X55063213Y98385798D01*
X55063213Y98385798D02*
X55067366Y98586846D01*
X55067366Y98586846D02*
X55071181Y98787905D01*
X55071181Y98787905D02*
X55074660Y98988974D01*
X55074660Y98988974D02*
X55077802Y99190052D01*
X55077802Y99190052D02*
X55080607Y99391138D01*
X55080607Y99391138D02*
X55083076Y99592235D01*
X55083076Y99592235D02*
X55085208Y99793336D01*
X55085208Y99793336D02*
X55087292Y100031012D01*
X55087292Y100031012D02*
X55088688Y100232131D01*
X55088688Y100232131D02*
X55089828Y100451539D01*
X55089828Y100451539D02*
X55090519Y100652671D01*
X55090519Y100652671D02*
X55090875Y100853808D01*
X55090875Y100853808D02*
X55090892Y101054948D01*
X55090892Y101054948D02*
X55090570Y101256095D01*
X55090570Y101256095D02*
X55089914Y101457246D01*
X55089914Y101457246D02*
X55088921Y101658401D01*
X55088921Y101658401D02*
X55087590Y101859559D01*
X55087590Y101859559D02*
X55085921Y102060719D01*
X55085921Y102060719D02*
X55083916Y102261882D01*
X55083916Y102261882D02*
X55081572Y102463050D01*
X55081572Y102463050D02*
X55078891Y102664218D01*
X55078891Y102664218D02*
X55075874Y102865387D01*
X55075874Y102865387D02*
X55072198Y103084843D01*
X55072198Y103084843D02*
X55068475Y103286014D01*
X55068475Y103286014D02*
X55064026Y103505471D01*
X55064026Y103505471D02*
X55058756Y103743216D01*
X55058756Y103743216D02*
X55053928Y103944384D01*
X55053928Y103944384D02*
X55048763Y104145550D01*
X55048763Y104145550D02*
X55043261Y104346714D01*
X55043261Y104346714D02*
X55037420Y104547876D01*
X55037420Y104547876D02*
X55031243Y104749035D01*
X55031243Y104749035D02*
X55024728Y104950192D01*
X55024728Y104950192D02*
X55017235Y105169632D01*
X55017235Y105169632D02*
X55010014Y105370778D01*
X55010014Y105370778D02*
X55002455Y105571923D01*
X55002455Y105571923D02*
X54993823Y105791347D01*
X54993823Y105791347D02*
X54985558Y105992480D01*
X54985558Y105992480D02*
X54976955Y106193608D01*
X54976955Y106193608D02*
X54968014Y106394729D01*
X54968014Y106394729D02*
X54957877Y106614127D01*
X54957877Y106614127D02*
X54948230Y106815234D01*
X54948230Y106815234D02*
X54938245Y107016332D01*
X54938245Y107016332D02*
X54927923Y107217425D01*
X54927923Y107217425D02*
X54917261Y107418505D01*
X54917261Y107418505D02*
X54906264Y107619580D01*
X54906264Y107619580D02*
X54894928Y107820647D01*
X54894928Y107820647D02*
X54883252Y108021699D01*
X54883252Y108021699D02*
X54871240Y108222744D01*
X54871240Y108222744D02*
X54858890Y108423779D01*
X54858890Y108423779D02*
X54846200Y108624801D01*
X54846200Y108624801D02*
X54831972Y108844088D01*
X54831972Y108844088D02*
X54818576Y109045086D01*
X54818576Y109045086D02*
X54804842Y109246073D01*
X54804842Y109246073D02*
X54790770Y109447046D01*
X54790770Y109447046D02*
X54776359Y109648007D01*
X54776359Y109648007D02*
X54761612Y109848955D01*
X54761612Y109848955D02*
X54746524Y110049887D01*
X54746524Y110049887D02*
X54731100Y110250807D01*
X54731100Y110250807D02*
X54715336Y110451710D01*
X54715336Y110451710D02*
X54699235Y110652598D01*
X54699235Y110652598D02*
X54682795Y110853471D01*
X54682795Y110853471D02*
X54666016Y111054328D01*
X54666016Y111054328D02*
X54648900Y111255169D01*
X54648900Y111255169D02*
X54631445Y111455992D01*
X54631445Y111455992D02*
X54610379Y111693304D01*
X54610379Y111693304D02*
X54588843Y111930594D01*
X54588843Y111930594D02*
X54570248Y112131357D01*
X54570248Y112131357D02*
X54551318Y112332102D01*
X54551318Y112332102D02*
X54532046Y112532826D01*
X54532046Y112532826D02*
X54514233Y112715285D01*
X54514233Y112715285D02*
X54496141Y112897727D01*
X54496141Y112897727D02*
X54477769Y113080155D01*
X54477769Y113080155D02*
X54459115Y113262563D01*
X54459115Y113262563D02*
X54436363Y113481429D01*
X54436363Y113481429D02*
X54417095Y113663801D01*
X54417095Y113663801D02*
X54397545Y113846150D01*
X54397545Y113846150D02*
X54377718Y114028483D01*
X54377718Y114028483D02*
X54355584Y114229029D01*
X54355584Y114229029D02*
X54335166Y114411320D01*
X54335166Y114411320D02*
X54314471Y114593593D01*
X54314471Y114593593D02*
X54293494Y114775846D01*
X54293494Y114775846D02*
X54265806Y115012745D01*
X54265806Y115012745D02*
X54244186Y115194950D01*
X54244186Y115194950D02*
X54220081Y115395353D01*
X54220081Y115395353D02*
X54197870Y115577513D01*
X54197870Y115577513D02*
X54170851Y115796078D01*
X54170851Y115796078D02*
X54143428Y116014614D01*
X54143428Y116014614D02*
X54117934Y116214907D01*
X54117934Y116214907D02*
X54094464Y116396968D01*
X54094464Y116396968D02*
X54070715Y116579008D01*
X54070715Y116579008D02*
X54044266Y116779222D01*
X54044266Y116779222D02*
X54019929Y116961212D01*
X54019929Y116961212D02*
X53995311Y117143178D01*
X53995311Y117143178D02*
X53970411Y117325117D01*
X53970411Y117325117D02*
X53945231Y117507032D01*
X53945231Y117507032D02*
X53914646Y117725298D01*
X53914646Y117725298D02*
X53888850Y117907157D01*
X53888850Y117907157D02*
X53862773Y118088991D01*
X53862773Y118088991D02*
X53836416Y118270800D01*
X53836416Y118270800D02*
X53804417Y118488933D01*
X53804417Y118488933D02*
X53777443Y118670684D01*
X53777443Y118670684D02*
X53750189Y118852406D01*
X53750189Y118852406D02*
X53717114Y119070437D01*
X53717114Y119070437D02*
X53689241Y119252099D01*
X53689241Y119252099D02*
X53661090Y119433733D01*
X53661090Y119433733D02*
X53632657Y119615336D01*
X53632657Y119615336D02*
X53603944Y119796913D01*
X53603944Y119796913D02*
X53569117Y120014765D01*
X53569117Y120014765D02*
X53536839Y120214425D01*
X53536839Y120214425D02*
X53507198Y120395905D01*
X53507198Y120395905D02*
X53474272Y120595497D01*
X53474272Y120595497D02*
X53444044Y120776911D01*
X53444044Y120776911D02*
X53413534Y120958295D01*
X53413534Y120958295D02*
X53382744Y121139648D01*
X53382744Y121139648D02*
X53351673Y121320970D01*
X53351673Y121320970D02*
X53320322Y121502260D01*
X53320322Y121502260D02*
X53285511Y121701640D01*
X53285511Y121701640D02*
X53253570Y121882864D01*
X53253570Y121882864D02*
X53221347Y122064050D01*
X53221347Y122064050D02*
X53185577Y122263320D01*
X53185577Y122263320D02*
X53152766Y122444438D01*
X53152766Y122444438D02*
X53119672Y122625523D01*
X53119672Y122625523D02*
X53086299Y122806574D01*
X53086299Y122806574D02*
X53052645Y122987591D01*
X53052645Y122987591D02*
X53015298Y123186669D01*
X53015298Y123186669D02*
X52981054Y123367611D01*
X52981054Y123367611D02*
X52943062Y123566609D01*
X52943062Y123566609D02*
X52908226Y123747477D01*
X52908226Y123747477D02*
X52873110Y123928309D01*
X52873110Y123928309D02*
X52830602Y124145260D01*
X52830602Y124145260D02*
X52794866Y124326009D01*
X52794866Y124326009D02*
X52755235Y124524793D01*
X52755235Y124524793D02*
X52715263Y124723532D01*
X52715263Y124723532D02*
X52678627Y124904162D01*
X52678627Y124904162D02*
X52638007Y125102814D01*
X52638007Y125102814D02*
X52597045Y125301419D01*
X52597045Y125301419D02*
X52559510Y125481926D01*
X52559510Y125481926D02*
X52521696Y125662394D01*
X52521696Y125662394D02*
X52483602Y125842826D01*
X52483602Y125842826D02*
X52441371Y126041250D01*
X52441371Y126041250D02*
X52398801Y126239627D01*
X52398801Y126239627D02*
X52359807Y126419931D01*
X52359807Y126419931D02*
X52320527Y126600188D01*
X52320527Y126600188D02*
X52276997Y126798427D01*
X52276997Y126798427D02*
X52237130Y126978599D01*
X52237130Y126978599D02*
X52196978Y127158730D01*
X52196978Y127158730D02*
X52156548Y127338818D01*
X52156548Y127338818D02*
X52115837Y127518866D01*
X52115837Y127518866D02*
X52074842Y127698868D01*
X52074842Y127698868D02*
X52033568Y127878829D01*
X52033568Y127878829D02*
X51992011Y128058745D01*
X51992011Y128058745D02*
X51950173Y128238618D01*
X51950173Y128238618D02*
X51903827Y128436428D01*
X51903827Y128436428D02*
X51861397Y128616208D01*
X51861397Y128616208D02*
X51822972Y128777972D01*
X51822972Y128777972D02*
X51780006Y128957666D01*
X51780006Y128957666D02*
X51732421Y129155277D01*
X51732421Y129155277D02*
X51693235Y129316919D01*
X51693235Y129316919D02*
X51653818Y129478521D01*
X51653818Y129478521D02*
X51614175Y129640087D01*
X51614175Y129640087D02*
X51574304Y129801617D01*
X51574304Y129801617D02*
X51534205Y129963107D01*
X51534205Y129963107D02*
X51493876Y130124558D01*
X51493876Y130124558D02*
X51448799Y130303904D01*
X51448799Y130303904D02*
X51403443Y130483203D01*
X51403443Y130483203D02*
X51362379Y130644530D01*
X51362379Y130644530D02*
X51321088Y130805819D01*
X51321088Y130805819D02*
X51279569Y130967067D01*
X51279569Y130967067D02*
X51263362Y131029767D01*
X-51312409Y131029767D02*
X-51356321Y130859573D01*
X-51356321Y130859573D02*
X-51397689Y130698300D01*
X-51397689Y130698300D02*
X-51438830Y130536986D01*
X-51438830Y130536986D02*
X-51479742Y130375634D01*
X-51479742Y130375634D02*
X-51520425Y130214243D01*
X-51520425Y130214243D02*
X-51565363Y130034874D01*
X-51565363Y130034874D02*
X-51605566Y129873404D01*
X-51605566Y129873404D02*
X-51649965Y129693943D01*
X-51649965Y129693943D02*
X-51689685Y129532392D01*
X-51689685Y129532392D02*
X-51729179Y129370802D01*
X-51729179Y129370802D02*
X-51772791Y129191214D01*
X-51772791Y129191214D02*
X-51816123Y129011581D01*
X-51816123Y129011581D02*
X-51854880Y128849871D01*
X-51854880Y128849871D02*
X-51897678Y128670150D01*
X-51897678Y128670150D02*
X-51935953Y128508363D01*
X-51935953Y128508363D02*
X-51982426Y128310576D01*
X-51982426Y128310576D02*
X-52024378Y128130722D01*
X-52024378Y128130722D02*
X-52066046Y127950822D01*
X-52066046Y127950822D02*
X-52111560Y127752883D01*
X-52111560Y127752883D02*
X-52152641Y127572896D01*
X-52152641Y127572896D02*
X-52205621Y127338845D01*
X-52205621Y127338845D02*
X-52246053Y127158757D01*
X-52246053Y127158757D02*
X-52286205Y126978627D01*
X-52286205Y126978627D02*
X-52326072Y126798456D01*
X-52326072Y126798456D02*
X-52369606Y126600220D01*
X-52369606Y126600220D02*
X-52408886Y126419964D01*
X-52408886Y126419964D02*
X-52459525Y126185564D01*
X-52459525Y126185564D02*
X-52498156Y126005213D01*
X-52498156Y126005213D02*
X-52536508Y125824820D01*
X-52536508Y125824820D02*
X-52574575Y125644387D01*
X-52574575Y125644387D02*
X-52612363Y125463916D01*
X-52612363Y125463916D02*
X-52657339Y125247299D01*
X-52657339Y125247299D02*
X-52694506Y125066741D01*
X-52694506Y125066741D02*
X-52731394Y124886144D01*
X-52731394Y124886144D02*
X-52775291Y124669380D01*
X-52775291Y124669380D02*
X-52811558Y124488701D01*
X-52811558Y124488701D02*
X-52847548Y124307984D01*
X-52847548Y124307984D02*
X-52890365Y124091076D01*
X-52890365Y124091076D02*
X-52925732Y123910278D01*
X-52925732Y123910278D02*
X-52960822Y123729443D01*
X-52960822Y123729443D02*
X-52999097Y123530485D01*
X-52999097Y123530485D02*
X-53043890Y123295293D01*
X-53043890Y123295293D02*
X-53078024Y123114339D01*
X-53078024Y123114339D02*
X-53115246Y122915246D01*
X-53115246Y122915246D02*
X-53148789Y122734217D01*
X-53148789Y122734217D02*
X-53182052Y122553154D01*
X-53182052Y122553154D02*
X-53215036Y122372058D01*
X-53215036Y122372058D02*
X-53250990Y122172812D01*
X-53250990Y122172812D02*
X-53283383Y121991644D01*
X-53283383Y121991644D02*
X-53315496Y121810445D01*
X-53315496Y121810445D02*
X-53350492Y121611084D01*
X-53350492Y121611084D02*
X-53382014Y121429815D01*
X-53382014Y121429815D02*
X-53413254Y121248513D01*
X-53413254Y121248513D02*
X-53447293Y121049044D01*
X-53447293Y121049044D02*
X-53477945Y120867678D01*
X-53477945Y120867678D02*
X-53511338Y120668138D01*
X-53511338Y120668138D02*
X-53544390Y120468560D01*
X-53544390Y120468560D02*
X-53574143Y120287095D01*
X-53574143Y120287095D02*
X-53603616Y120105599D01*
X-53603616Y120105599D02*
X-53632808Y119924075D01*
X-53632808Y119924075D02*
X-53661719Y119742520D01*
X-53661719Y119742520D02*
X-53693198Y119542778D01*
X-53693198Y119542778D02*
X-53724337Y119343000D01*
X-53724337Y119343000D02*
X-53752350Y119161353D01*
X-53752350Y119161353D02*
X-53782840Y118961510D01*
X-53782840Y118961510D02*
X-53812991Y118761633D01*
X-53812991Y118761633D02*
X-53840106Y118579898D01*
X-53840106Y118579898D02*
X-53866942Y118398137D01*
X-53866942Y118398137D02*
X-53893497Y118216349D01*
X-53893497Y118216349D02*
X-53924991Y117998167D01*
X-53924991Y117998167D02*
X-53956084Y117779950D01*
X-53956084Y117779950D02*
X-53991847Y117525316D01*
X-53991847Y117525316D02*
X-54017056Y117343404D01*
X-54017056Y117343404D02*
X-54046937Y117125078D01*
X-54046937Y117125078D02*
X-54076413Y116906716D01*
X-54076413Y116906716D02*
X-54105487Y116688319D01*
X-54105487Y116688319D02*
X-54131782Y116488093D01*
X-54131782Y116488093D02*
X-54155394Y116306043D01*
X-54155394Y116306043D02*
X-54178725Y116123973D01*
X-54178725Y116123973D02*
X-54206352Y115905456D01*
X-54206352Y115905456D02*
X-54229067Y115723335D01*
X-54229067Y115723335D02*
X-54251501Y115541192D01*
X-54251501Y115541192D02*
X-54273654Y115359026D01*
X-54273654Y115359026D02*
X-54297701Y115158620D01*
X-54297701Y115158620D02*
X-54323547Y114939968D01*
X-54323547Y114939968D02*
X-54346886Y114739510D01*
X-54346886Y114739510D02*
X-54369884Y114539027D01*
X-54369884Y114539027D02*
X-54390497Y114356748D01*
X-54390497Y114356748D02*
X-54414863Y114137989D01*
X-54414863Y114137989D02*
X-54434862Y113955670D01*
X-54434862Y113955670D02*
X-54454580Y113773330D01*
X-54454580Y113773330D02*
X-54475946Y113572737D01*
X-54475946Y113572737D02*
X-54496973Y113372120D01*
X-54496973Y113372120D02*
X-54515795Y113189722D01*
X-54515795Y113189722D02*
X-54536176Y112989066D01*
X-54536176Y112989066D02*
X-54554410Y112806633D01*
X-54554410Y112806633D02*
X-54574145Y112605937D01*
X-54574145Y112605937D02*
X-54591793Y112423469D01*
X-54591793Y112423469D02*
X-54610880Y112222735D01*
X-54610880Y112222735D02*
X-54629628Y112021981D01*
X-54629628Y112021981D02*
X-54648039Y111821208D01*
X-54648039Y111821208D02*
X-54667738Y111602165D01*
X-54667738Y111602165D02*
X-54685441Y111401355D01*
X-54685441Y111401355D02*
X-54702805Y111200529D01*
X-54702805Y111200529D02*
X-54719830Y110999686D01*
X-54719830Y110999686D02*
X-54736519Y110798825D01*
X-54736519Y110798825D02*
X-54752868Y110597950D01*
X-54752868Y110597950D02*
X-54768879Y110397059D01*
X-54768879Y110397059D02*
X-54784554Y110196152D01*
X-54784554Y110196152D02*
X-54799888Y109995231D01*
X-54799888Y109995231D02*
X-54814883Y109794295D01*
X-54814883Y109794295D02*
X-54830858Y109575077D01*
X-54830858Y109575077D02*
X-54845146Y109374112D01*
X-54845146Y109374112D02*
X-54859097Y109173133D01*
X-54859097Y109173133D02*
X-54872710Y108972146D01*
X-54872710Y108972146D02*
X-54885983Y108771141D01*
X-54885983Y108771141D02*
X-54900080Y108551854D01*
X-54900080Y108551854D02*
X-54912647Y108350829D01*
X-54912647Y108350829D02*
X-54924877Y108149791D01*
X-54924877Y108149791D02*
X-54936769Y107948744D01*
X-54936769Y107948744D02*
X-54949356Y107729408D01*
X-54949356Y107729408D02*
X-54960540Y107528341D01*
X-54960540Y107528341D02*
X-54973322Y107290703D01*
X-54973322Y107290703D02*
X-54983771Y107089616D01*
X-54983771Y107089616D02*
X-54993879Y106888522D01*
X-54993879Y106888522D02*
X-55003651Y106687419D01*
X-55003651Y106687419D02*
X-55013085Y106486308D01*
X-55013085Y106486308D02*
X-55022180Y106285189D01*
X-55022180Y106285189D02*
X-55030940Y106084066D01*
X-55030940Y106084066D02*
X-55039360Y105882937D01*
X-55039360Y105882937D02*
X-55047443Y105681802D01*
X-55047443Y105681802D02*
X-55055878Y105462378D01*
X-55055878Y105462378D02*
X-55063251Y105261230D01*
X-55063251Y105261230D02*
X-55070914Y105041795D01*
X-55070914Y105041795D02*
X-55077585Y104840640D01*
X-55077585Y104840640D02*
X-55084477Y104621196D01*
X-55084477Y104621196D02*
X-55090442Y104420036D01*
X-55090442Y104420036D02*
X-55096069Y104218874D01*
X-55096069Y104218874D02*
X-55101359Y104017709D01*
X-55101359Y104017709D02*
X-55106311Y103816543D01*
X-55106311Y103816543D02*
X-55111329Y103597089D01*
X-55111329Y103597089D02*
X-55115576Y103395921D01*
X-55115576Y103395921D02*
X-55119485Y103194753D01*
X-55119485Y103194753D02*
X-55123057Y102993583D01*
X-55123057Y102993583D02*
X-55126289Y102792415D01*
X-55126289Y102792415D02*
X-55129434Y102572959D01*
X-55129434Y102572959D02*
X-55131962Y102371793D01*
X-55131962Y102371793D02*
X-55134336Y102152341D01*
X-55134336Y102152341D02*
X-55136161Y101951182D01*
X-55136161Y101951182D02*
X-55137647Y101750021D01*
X-55137647Y101750021D02*
X-55138795Y101548867D01*
X-55138795Y101548867D02*
X-55139608Y101347716D01*
X-55139608Y101347716D02*
X-55140108Y101128281D01*
X-55140108Y101128281D02*
X-55140209Y100908855D01*
X-55140209Y100908855D02*
X-55139948Y100707719D01*
X-55139948Y100707719D02*
X-55139351Y100506587D01*
X-55139351Y100506587D02*
X-55138416Y100305460D01*
X-55138416Y100305460D02*
X-55137143Y100104341D01*
X-55137143Y100104341D02*
X-55135536Y99903228D01*
X-55135536Y99903228D02*
X-55133590Y99702123D01*
X-55133590Y99702123D02*
X-55131306Y99501023D01*
X-55131306Y99501023D02*
X-55128687Y99299934D01*
X-55128687Y99299934D02*
X-55125730Y99098853D01*
X-55125730Y99098853D02*
X-55122438Y98897780D01*
X-55122438Y98897780D02*
X-55118807Y98696716D01*
X-55118807Y98696716D02*
X-55114464Y98477387D01*
X-55114464Y98477387D02*
X-55110129Y98276344D01*
X-55110129Y98276344D02*
X-55104571Y98038760D01*
X-55104571Y98038760D02*
X-55099501Y97837741D01*
X-55099501Y97837741D02*
X-55094095Y97636734D01*
X-55094095Y97636734D02*
X-55088353Y97435737D01*
X-55088353Y97435737D02*
X-55080558Y97179943D01*
X-55080558Y97179943D02*
X-55074050Y96978976D01*
X-55074050Y96978976D02*
X-55067206Y96778022D01*
X-55067206Y96778022D02*
X-55060024Y96577082D01*
X-55060024Y96577082D02*
X-55052507Y96376157D01*
X-55052507Y96376157D02*
X-55044652Y96175248D01*
X-55044652Y96175248D02*
X-55036462Y95974351D01*
X-55036462Y95974351D02*
X-55027935Y95773471D01*
X-55027935Y95773471D02*
X-55019071Y95572606D01*
X-55019071Y95572606D02*
X-55009017Y95353500D01*
X-55009017Y95353500D02*
X-54999451Y95152670D01*
X-54999451Y95152670D02*
X-54988632Y94933604D01*
X-54988632Y94933604D02*
X-54976458Y94696303D01*
X-54976458Y94696303D02*
X-54965790Y94495532D01*
X-54965790Y94495532D02*
X-54954786Y94294778D01*
X-54954786Y94294778D02*
X-54943446Y94094044D01*
X-54943446Y94094044D02*
X-54931770Y93893331D01*
X-54931770Y93893331D02*
X-54919757Y93692636D01*
X-54919757Y93692636D02*
X-54907407Y93491961D01*
X-54907407Y93491961D02*
X-54894722Y93291308D01*
X-54894722Y93291308D02*
X-54881701Y93090673D01*
X-54881701Y93090673D02*
X-54868344Y92890064D01*
X-54868344Y92890064D02*
X-54854650Y92689475D01*
X-54854650Y92689475D02*
X-54839328Y92470676D01*
X-54839328Y92470676D02*
X-54824932Y92270133D01*
X-54824932Y92270133D02*
X-54810199Y92069617D01*
X-54810199Y92069617D02*
X-54793745Y91850897D01*
X-54793745Y91850897D02*
X-54778310Y91650428D01*
X-54778310Y91650428D02*
X-54762542Y91449988D01*
X-54762542Y91449988D02*
X-54746433Y91249570D01*
X-54746433Y91249570D02*
X-54729991Y91049178D01*
X-54729991Y91049178D02*
X-54711672Y90830597D01*
X-54711672Y90830597D02*
X-54694526Y90630259D01*
X-54694526Y90630259D02*
X-54677047Y90429949D01*
X-54677047Y90429949D02*
X-54659230Y90229667D01*
X-54659230Y90229667D02*
X-54641078Y90029411D01*
X-54641078Y90029411D02*
X-54619193Y89792781D01*
X-54619193Y89792781D02*
X-54600309Y89592589D01*
X-54600309Y89592589D02*
X-54579326Y89374229D01*
X-54579326Y89374229D02*
X-54559740Y89174098D01*
X-54559740Y89174098D02*
X-54541643Y88992185D01*
X-54541643Y88992185D02*
X-54523269Y88810298D01*
X-54523269Y88810298D02*
X-54504617Y88628436D01*
X-54504617Y88628436D02*
X-54485688Y88446599D01*
X-54485688Y88446599D02*
X-54462607Y88228432D01*
X-54462607Y88228432D02*
X-54443069Y88046652D01*
X-54443069Y88046652D02*
X-54423253Y87864902D01*
X-54423253Y87864902D02*
X-54403158Y87683176D01*
X-54403158Y87683176D02*
X-54382789Y87501480D01*
X-54382789Y87501480D02*
X-54360061Y87301645D01*
X-54360061Y87301645D02*
X-54339109Y87120008D01*
X-54339109Y87120008D02*
X-54317880Y86938399D01*
X-54317880Y86938399D02*
X-54296374Y86756818D01*
X-54296374Y86756818D02*
X-54274589Y86575265D01*
X-54274589Y86575265D02*
X-54252528Y86393743D01*
X-54252528Y86393743D02*
X-54230191Y86212251D01*
X-54230191Y86212251D02*
X-54207575Y86030786D01*
X-54207575Y86030786D02*
X-54184681Y85849354D01*
X-54184681Y85849354D02*
X-54161513Y85667954D01*
X-54161513Y85667954D02*
X-54138068Y85486583D01*
X-54138068Y85486583D02*
X-54114345Y85305242D01*
X-54114345Y85305242D02*
X-54090345Y85123934D01*
X-54090345Y85123934D02*
X-54066068Y84942659D01*
X-54066068Y84942659D02*
X-54039044Y84743293D01*
X-54039044Y84743293D02*
X-54014185Y84562085D01*
X-54014185Y84562085D02*
X-53989051Y84380911D01*
X-53989051Y84380911D02*
X-53961082Y84181657D01*
X-53961082Y84181657D02*
X-53935364Y84000551D01*
X-53935364Y84000551D02*
X-53909370Y83819480D01*
X-53909370Y83819480D02*
X-53880457Y83620342D01*
X-53880457Y83620342D02*
X-53853883Y83439345D01*
X-53853883Y83439345D02*
X-53824332Y83240286D01*
X-53824332Y83240286D02*
X-53797175Y83059361D01*
X-53797175Y83059361D02*
X-53769743Y82878472D01*
X-53769743Y82878472D02*
X-53742034Y82697620D01*
X-53742034Y82697620D02*
X-53714047Y82516802D01*
X-53714047Y82516802D02*
X-53685786Y82336020D01*
X-53685786Y82336020D02*
X-53657247Y82155281D01*
X-53657247Y82155281D02*
X-53625533Y81956504D01*
X-53625533Y81956504D02*
X-53596413Y81775838D01*
X-53596413Y81775838D02*
X-53567017Y81595214D01*
X-53567017Y81595214D02*
X-53537344Y81414624D01*
X-53537344Y81414624D02*
X-53507394Y81234074D01*
X-53507394Y81234074D02*
X-53474130Y81035514D01*
X-53474130Y81035514D02*
X-53440532Y80837001D01*
X-53440532Y80837001D02*
X-53406598Y80638536D01*
X-53406598Y80638536D02*
X-53375460Y80458156D01*
X-53375460Y80458156D02*
X-53344044Y80277815D01*
X-53344044Y80277815D02*
X-53312352Y80097514D01*
X-53312352Y80097514D02*
X-53277172Y79899233D01*
X-53277172Y79899233D02*
X-53241658Y79701000D01*
X-53241658Y79701000D02*
X-53209082Y79520831D01*
X-53209082Y79520831D02*
X-53176228Y79340704D01*
X-53176228Y79340704D02*
X-53143100Y79160621D01*
X-53143100Y79160621D02*
X-53109697Y78980579D01*
X-53109697Y78980579D02*
X-53076014Y78800580D01*
X-53076014Y78800580D02*
X-53038647Y78602633D01*
X-53038647Y78602633D02*
X-53004385Y78422726D01*
X-53004385Y78422726D02*
X-52969847Y78242862D01*
X-52969847Y78242862D02*
X-52931537Y78045063D01*
X-52931537Y78045063D02*
X-52889363Y77829345D01*
X-52889363Y77829345D02*
X-52850353Y77631659D01*
X-52850353Y77631659D02*
X-52811010Y77434029D01*
X-52811010Y77434029D02*
X-52767710Y77218494D01*
X-52767710Y77218494D02*
X-52731321Y77038933D01*
X-52731321Y77038933D02*
X-52694657Y76859417D01*
X-52694657Y76859417D02*
X-52657718Y76679949D01*
X-52657718Y76679949D02*
X-52616765Y76482589D01*
X-52616765Y76482589D02*
X-52575479Y76285286D01*
X-52575479Y76285286D02*
X-52530057Y76070111D01*
X-52530057Y76070111D02*
X-52484240Y75855007D01*
X-52484240Y75855007D02*
X-52441891Y75657888D01*
X-52441891Y75657888D02*
X-52403103Y75478740D01*
X-52403103Y75478740D02*
X-52360116Y75281737D01*
X-52360116Y75281737D02*
X-52320748Y75102693D01*
X-52320748Y75102693D02*
X-52281103Y74923698D01*
X-52281103Y74923698D02*
X-52237176Y74726863D01*
X-52237176Y74726863D02*
X-52196952Y74547975D01*
X-52196952Y74547975D02*
X-52152388Y74351256D01*
X-52152388Y74351256D02*
X-52111585Y74172475D01*
X-52111585Y74172475D02*
X-52070507Y73993745D01*
X-52070507Y73993745D02*
X-52029153Y73815068D01*
X-52029153Y73815068D02*
X-51987523Y73636440D01*
X-51987523Y73636440D02*
X-51941411Y73440013D01*
X-51941411Y73440013D02*
X-51886487Y73207953D01*
X-51886487Y73207953D02*
X-51843920Y73029508D01*
X-51843920Y73029508D02*
X-51792476Y72815443D01*
X-51792476Y72815443D02*
X-51744968Y72619285D01*
X-51744968Y72619285D02*
X-51701492Y72441016D01*
X-51701492Y72441016D02*
X-51653349Y72244985D01*
X-51653349Y72244985D02*
X-51609293Y72066832D01*
X-51609293Y72066832D02*
X-51569409Y71906541D01*
X-51569409Y71906541D02*
X-51529300Y71746296D01*
X-51529300Y71746296D02*
X-51488968Y71586094D01*
X-51488968Y71586094D02*
X-51448413Y71425939D01*
X-51448413Y71425939D02*
X-51407635Y71265832D01*
X-51407635Y71265832D02*
X-51366635Y71105768D01*
X-51366635Y71105768D02*
X-51325411Y70945753D01*
X-51325411Y70945753D02*
X-51279345Y70768011D01*
X-51279345Y70768011D02*
X-51237651Y70608093D01*
X-51237651Y70608093D02*
X-51191061Y70430459D01*
X-51191061Y70430459D02*
X-51148894Y70270639D01*
X-51148894Y70270639D02*
X-51106507Y70110868D01*
X-51106507Y70110868D02*
X-51063893Y69951143D01*
X-51063893Y69951143D02*
X-51021058Y69791466D01*
X-51021058Y69791466D02*
X-50973201Y69614104D01*
X-50973201Y69614104D02*
X-50925070Y69436802D01*
X-50925070Y69436802D02*
X-50881517Y69277281D01*
X-50881517Y69277281D02*
X-50837741Y69117809D01*
X-50837741Y69117809D02*
X-50793743Y68958388D01*
X-50793743Y68958388D02*
X-50749520Y68799013D01*
X-50749520Y68799013D02*
X-50705075Y68639690D01*
X-50705075Y68639690D02*
X-50660408Y68480417D01*
X-50660408Y68480417D02*
X-50615516Y68321192D01*
X-50615516Y68321192D02*
X-50555316Y68108972D01*
X-50555316Y68108972D02*
X-50509904Y67949864D01*
X-50509904Y67949864D02*
X-50464271Y67790810D01*
X-50464271Y67790810D02*
X-50418414Y67631806D01*
X-50418414Y67631806D02*
X-50372334Y67472852D01*
X-50372334Y67472852D02*
X-50326033Y67313952D01*
X-50326033Y67313952D02*
X-50274325Y67137455D01*
X-50274325Y67137455D02*
X-50222342Y66961022D01*
X-50222342Y66961022D02*
X-50175322Y66802288D01*
X-50175322Y66802288D02*
X-50128080Y66643607D01*
X-50128080Y66643607D02*
X-50075326Y66467356D01*
X-50075326Y66467356D02*
X-50027614Y66308787D01*
X-50027614Y66308787D02*
X-49979681Y66150271D01*
X-49979681Y66150271D02*
X-49926157Y65974203D01*
X-49926157Y65974203D02*
X-49877751Y65815799D01*
X-49877751Y65815799D02*
X-49818287Y65622267D01*
X-49818287Y65622267D02*
X-49769386Y65463984D01*
X-49769386Y65463984D02*
X-49709318Y65270600D01*
X-49709318Y65270600D02*
X-49659923Y65112438D01*
X-49659923Y65112438D02*
X-49599249Y64919204D01*
X-49599249Y64919204D02*
X-49538244Y64726054D01*
X-49538244Y64726054D02*
X-49488082Y64568081D01*
X-49488082Y64568081D02*
X-49437698Y64410166D01*
X-49437698Y64410166D02*
X-49375815Y64217234D01*
X-49375815Y64217234D02*
X-49324937Y64059443D01*
X-49324937Y64059443D02*
X-49268147Y63884188D01*
X-49268147Y63884188D02*
X-49205355Y63691485D01*
X-49205355Y63691485D02*
X-49153736Y63533883D01*
X-49153736Y63533883D02*
X-49101895Y63376340D01*
X-49101895Y63376340D02*
X-49049829Y63218852D01*
X-49049829Y63218852D02*
X-48997543Y63061424D01*
X-48997543Y63061424D02*
X-48939184Y62886571D01*
X-48939184Y62886571D02*
X-48886428Y62729266D01*
X-48886428Y62729266D02*
X-48833448Y62572018D01*
X-48833448Y62572018D02*
X-48780247Y62414829D01*
X-48780247Y62414829D02*
X-48720876Y62240246D01*
X-48720876Y62240246D02*
X-48667204Y62083182D01*
X-48667204Y62083182D02*
X-48613312Y61926179D01*
X-48613312Y61926179D02*
X-48547142Y61734366D01*
X-48547142Y61734366D02*
X-48492755Y61577494D01*
X-48492755Y61577494D02*
X-48425981Y61385846D01*
X-48425981Y61385846D02*
X-48371099Y61229108D01*
X-48371099Y61229108D02*
X-48315997Y61072432D01*
X-48315997Y61072432D02*
X-48254510Y60898419D01*
X-48254510Y60898419D02*
X-48198937Y60741872D01*
X-48198937Y60741872D02*
X-48124499Y60533240D01*
X-48124499Y60533240D02*
X-48049660Y60324714D01*
X-48049660Y60324714D02*
X-47986995Y60151029D01*
X-47986995Y60151029D02*
X-47911435Y59942709D01*
X-47911435Y59942709D02*
X-47841824Y59751847D01*
X-47841824Y59751847D02*
X-47784623Y59595757D01*
X-47784623Y59595757D02*
X-47727202Y59439731D01*
X-47727202Y59439731D02*
X-47663136Y59266440D01*
X-47663136Y59266440D02*
X-47585897Y59058598D01*
X-47585897Y59058598D02*
X-47521233Y58885483D01*
X-47521233Y58885483D02*
X-47462797Y58729746D01*
X-47462797Y58729746D02*
X-47397610Y58556781D01*
X-47397610Y58556781D02*
X-47325587Y58366613D01*
X-47325587Y58366613D02*
X-47266413Y58211092D01*
X-47266413Y58211092D02*
X-47207017Y58055639D01*
X-47207017Y58055639D02*
X-47147398Y57900249D01*
X-47147398Y57900249D02*
X-47067561Y57693165D01*
X-47067561Y57693165D02*
X-47000731Y57520686D01*
X-47000731Y57520686D02*
X-46940349Y57365524D01*
X-46940349Y57365524D02*
X-46883119Y57219047D01*
X51263362Y131029767D02*
X51068827Y131055556D01*
X51068827Y131055556D02*
X50880810Y131080688D01*
X50880810Y131080688D02*
X50679865Y131107772D01*
X50679865Y131107772D02*
X50491916Y131133314D01*
X50491916Y131133314D02*
X50310477Y131158162D01*
X50310477Y131158162D02*
X50083723Y131189482D01*
X50083723Y131189482D02*
X49857017Y131221089D01*
X49857017Y131221089D02*
X49669212Y131247496D01*
X49669212Y131247496D02*
X49468489Y131275943D01*
X49468489Y131275943D02*
X49261332Y131305542D01*
X49261332Y131305542D02*
X49067160Y131333510D01*
X49067160Y131333510D02*
X48873025Y131361689D01*
X48873025Y131361689D02*
X48685394Y131389131D01*
X48685394Y131389131D02*
X48510733Y131414855D01*
X48510733Y131414855D02*
X48323169Y131442679D01*
X48323169Y131442679D02*
X48148570Y131468759D01*
X48148570Y131468759D02*
X47967537Y131495986D01*
X47967537Y131495986D02*
X47780072Y131524378D01*
X47780072Y131524378D02*
X47605564Y131550988D01*
X47605564Y131550988D02*
X47411703Y131580756D01*
X47411703Y131580756D02*
X47217882Y131610735D01*
X47217882Y131610735D02*
X47030557Y131639916D01*
X47030557Y131639916D02*
X46856180Y131667259D01*
X46856180Y131667259D02*
X46668924Y131696820D01*
X46668924Y131696820D02*
X46494614Y131724518D01*
X46494614Y131724518D02*
X46307425Y131754459D01*
X46307425Y131754459D02*
X46126725Y131783551D01*
X46126725Y131783551D02*
X45946058Y131812828D01*
X45946058Y131812828D02*
X45746073Y131845456D01*
X45746073Y131845456D02*
X45539683Y131879371D01*
X45539683Y131879371D02*
X45352680Y131910315D01*
X45352680Y131910315D02*
X45172160Y131940377D01*
X45172160Y131940377D02*
X44991674Y131970623D01*
X44991674Y131970623D02*
X44811223Y132001051D01*
X44811223Y132001051D02*
X44630807Y132031663D01*
X44630807Y132031663D02*
X44456864Y132061353D01*
X44456864Y132061353D02*
X44270076Y132093433D01*
X44270076Y132093433D02*
X44064007Y132129059D01*
X44064007Y132129059D02*
X43857986Y132164924D01*
X43857986Y132164924D02*
X43658446Y132199894D01*
X43658446Y132199894D02*
X43452516Y132236228D01*
X43452516Y132236228D02*
X43233765Y132275096D01*
X43233765Y132275096D02*
X43040796Y132309615D01*
X43040796Y132309615D02*
X42860727Y132342020D01*
X42860727Y132342020D02*
X42674265Y132375776D01*
X42674265Y132375776D02*
X42494271Y132408554D01*
X42494271Y132408554D02*
X42288606Y132446238D01*
X42288606Y132446238D02*
X42082992Y132484159D01*
X42082992Y132484159D02*
X41877423Y132522319D01*
X41877423Y132522319D02*
X41671905Y132560718D01*
X41671905Y132560718D02*
X41466434Y132599355D01*
X41466434Y132599355D02*
X41235338Y132643106D01*
X41235338Y132643106D02*
X41029971Y132682247D01*
X41029971Y132682247D02*
X40850316Y132716690D01*
X40850316Y132716690D02*
X40677111Y132750077D01*
X40677111Y132750077D02*
X40471877Y132789866D01*
X40471877Y132789866D02*
X40260284Y132831146D01*
X40260284Y132831146D02*
X40055153Y132871418D01*
X40055153Y132871418D02*
X39850071Y132911928D01*
X39850071Y132911928D02*
X39670667Y132947569D01*
X39670667Y132947569D02*
X39465680Y132988523D01*
X39465680Y132988523D02*
X39260744Y133029714D01*
X39260744Y133029714D02*
X39055859Y133071143D01*
X39055859Y133071143D02*
X38844625Y133114116D01*
X38844625Y133114116D02*
X38671840Y133149464D01*
X38671840Y133149464D02*
X38467104Y133191577D01*
X38467104Y133191577D02*
X38256022Y133235252D01*
X38256022Y133235252D02*
X38083363Y133271176D01*
X38083363Y133271176D02*
X37878775Y133313968D01*
X37878775Y133313968D02*
X37674241Y133356998D01*
X37674241Y133356998D02*
X37476146Y133398909D01*
X37476146Y133398909D02*
X37310042Y133434232D01*
X37310042Y133434232D02*
X37143974Y133469709D01*
X37143974Y133469709D02*
X36977938Y133505345D01*
X36977938Y133505345D02*
X36805558Y133542518D01*
X36805558Y133542518D02*
X36633213Y133579859D01*
X36633213Y133579859D02*
X36454527Y133618760D01*
X36454527Y133618760D02*
X36269502Y133659241D01*
X36269502Y133659241D02*
X36090898Y133698510D01*
X36090898Y133698510D02*
X35912338Y133737961D01*
X35912338Y133737961D02*
X35740194Y133776175D01*
X35740194Y133776175D02*
X35555342Y133817407D01*
X35555342Y133817407D02*
X35376906Y133857400D01*
X35376906Y133857400D02*
X35153921Y133907647D01*
X35153921Y133907647D02*
X34943739Y133955281D01*
X34943739Y133955281D02*
X34765449Y133995896D01*
X34765449Y133995896D02*
X34568105Y134041072D01*
X34568105Y134041072D02*
X34402633Y134079133D01*
X34402633Y134079133D02*
X34237195Y134117348D01*
X34237195Y134117348D02*
X34071796Y134155720D01*
X34071796Y134155720D02*
X33900076Y134195734D01*
X33900076Y134195734D02*
X33722037Y134237406D01*
X33722037Y134237406D02*
X33544042Y134279258D01*
X33544042Y134279258D02*
X33366092Y134321292D01*
X33366092Y134321292D02*
X33194537Y134361995D01*
X33194537Y134361995D02*
X33029374Y134401348D01*
X33029374Y134401348D02*
X32857901Y134442381D01*
X32857901Y134442381D02*
X32648376Y134492758D01*
X32648376Y134492758D02*
X32476994Y134534164D01*
X32476994Y134534164D02*
X32267583Y134584999D01*
X32267583Y134584999D02*
X32070919Y134632979D01*
X32070919Y134632979D02*
X31867970Y134682739D01*
X31867970Y134682739D02*
X31690438Y134726473D01*
X31690438Y134726473D02*
X31512951Y134770387D01*
X31512951Y134770387D02*
X31335508Y134814480D01*
X31335508Y134814480D02*
X31088430Y134876195D01*
X31088430Y134876195D02*
X30879435Y134928689D01*
X30879435Y134928689D02*
X30702156Y134973426D01*
X30702156Y134973426D02*
X30524923Y135018342D01*
X30524923Y135018342D02*
X30347736Y135063438D01*
X30347736Y135063438D02*
X30170594Y135108713D01*
X30170594Y135108713D02*
X29974527Y135159049D01*
X29974527Y135159049D02*
X29765873Y135212875D01*
X29765873Y135212875D02*
X29588884Y135258741D01*
X29588884Y135258741D02*
X29411942Y135304786D01*
X29411942Y135304786D02*
X29235049Y135351012D01*
X29235049Y135351012D02*
X29039256Y135402398D01*
X29039256Y135402398D02*
X28862459Y135449002D01*
X28862459Y135449002D02*
X28654154Y135504158D01*
X28654154Y135504158D02*
X28477463Y135551153D01*
X28477463Y135551153D02*
X28300820Y135598329D01*
X28300820Y135598329D02*
X28124223Y135645681D01*
X28124223Y135645681D02*
X27947674Y135693212D01*
X27947674Y135693212D02*
X27752265Y135746046D01*
X27752265Y135746046D02*
X27569517Y135795671D01*
X27569517Y135795671D02*
X27393120Y135843767D01*
X27393120Y135843767D02*
X27216772Y135892042D01*
X27216772Y135892042D02*
X27059359Y135935296D01*
X27059359Y135935296D02*
X26895692Y135980432D01*
X26895692Y135980432D02*
X26738361Y136023978D01*
X26738361Y136023978D02*
X26555902Y136074669D01*
X26555902Y136074669D02*
X26379786Y136123793D01*
X26379786Y136123793D02*
X26216296Y136169569D01*
X26216296Y136169569D02*
X26059133Y136213731D01*
X26059133Y136213731D02*
X25902011Y136258037D01*
X25902011Y136258037D02*
X25738642Y136304262D01*
X25738642Y136304262D02*
X25575319Y136350643D01*
X25575319Y136350643D02*
X25380645Y136406147D01*
X25380645Y136406147D02*
X25204862Y136456467D01*
X25204862Y136456467D02*
X25047957Y136501548D01*
X25047957Y136501548D02*
X24884817Y136548580D01*
X24884817Y136548580D02*
X24727992Y136593949D01*
X24727992Y136593949D02*
X24558666Y136643107D01*
X24558666Y136643107D02*
X24401927Y136688773D01*
X24401927Y136688773D02*
X24245228Y136734581D01*
X24245228Y136734581D02*
X24076040Y136784212D01*
X24076040Y136784212D02*
X23906897Y136834011D01*
X23906897Y136834011D02*
X23731540Y136885828D01*
X23731540Y136885828D02*
X23556237Y136937825D01*
X23556237Y136937825D02*
X23393502Y136986266D01*
X23393502Y136986266D02*
X23230809Y137034861D01*
X23230809Y137034861D02*
X23074419Y137081733D01*
X23074419Y137081733D02*
X22899308Y137134396D01*
X22899308Y137134396D02*
X22730501Y137185350D01*
X22730501Y137185350D02*
X22574242Y137232674D01*
X22574242Y137232674D02*
X22399283Y137285848D01*
X22399283Y137285848D02*
X22224376Y137339200D01*
X22224376Y137339200D02*
X22049521Y137392728D01*
X22049521Y137392728D02*
X21874722Y137446437D01*
X21874722Y137446437D02*
X21718693Y137494537D01*
X21718693Y137494537D02*
X21550230Y137546648D01*
X21550230Y137546648D02*
X21394289Y137595046D01*
X21394289Y137595046D02*
X21219687Y137649420D01*
X21219687Y137649420D02*
X21032674Y137707876D01*
X21032674Y137707876D02*
X20858184Y137762617D01*
X20858184Y137762617D02*
X20683748Y137817538D01*
X20683748Y137817538D02*
X20503138Y137874607D01*
X20503138Y137874607D02*
X20328812Y137929889D01*
X20328812Y137929889D02*
X20160762Y137983363D01*
X20160762Y137983363D02*
X20005206Y138033025D01*
X20005206Y138033025D02*
X19837254Y138086819D01*
X19837254Y138086819D02*
X19656919Y138144780D01*
X19656919Y138144780D02*
X19501504Y138194901D01*
X19501504Y138194901D02*
X19333706Y138249188D01*
X19333706Y138249188D02*
X19178383Y138299602D01*
X19178383Y138299602D02*
X18985845Y138362312D01*
X18985845Y138362312D02*
X18830619Y138413042D01*
X18830619Y138413042D02*
X18663027Y138467991D01*
X18663027Y138467991D02*
X18464465Y138533326D01*
X18464465Y138533326D02*
X18296986Y138588635D01*
X18296986Y138588635D02*
X18141958Y138639991D01*
X18141958Y138639991D02*
X17968382Y138697680D01*
X17968382Y138697680D02*
X17794861Y138755544D01*
X17794861Y138755544D02*
X17627589Y138811509D01*
X17627589Y138811509D02*
X17447988Y138871804D01*
X17447988Y138871804D02*
X17280827Y138928111D01*
X17280827Y138928111D02*
X17119908Y138982490D01*
X17119908Y138982490D02*
X16959036Y139037019D01*
X16959036Y139037019D02*
X16785846Y139095912D01*
X16785846Y139095912D02*
X16631260Y139148646D01*
X16631260Y139148646D02*
X16464358Y139205759D01*
X16464358Y139205759D02*
X16285154Y139267283D01*
X16285154Y139267283D02*
X16106009Y139328996D01*
X16106009Y139328996D02*
X15939279Y139386625D01*
X15939279Y139386625D02*
X15747910Y139452992D01*
X15747910Y139452992D02*
X15550446Y139521729D01*
X15550446Y139521729D02*
X15377725Y139582062D01*
X15377725Y139582062D02*
X15223560Y139636079D01*
X15223560Y139636079D02*
X15050951Y139696745D01*
X15050951Y139696745D02*
X14884560Y139755412D01*
X14884560Y139755412D02*
X14681271Y139827339D01*
X14681271Y139827339D02*
X14527317Y139881992D01*
X14527317Y139881992D02*
X14367256Y139938981D01*
X14367256Y139938981D02*
X14219551Y139991720D01*
X14219551Y139991720D02*
X14071892Y140044589D01*
X14071892Y140044589D02*
X13899678Y140106434D01*
X13899678Y140106434D02*
X13745965Y140161802D01*
X13745965Y140161802D02*
X13598445Y140215085D01*
X13598445Y140215085D02*
X13450969Y140268498D01*
X13450969Y140268498D02*
X13254403Y140339918D01*
X13254403Y140339918D02*
X13107031Y140393632D01*
X13107031Y140393632D02*
X12959703Y140447477D01*
X12959703Y140447477D02*
X12812418Y140501451D01*
X12812418Y140501451D02*
X12640643Y140564583D01*
X12640643Y140564583D02*
X12444403Y140636950D01*
X12444403Y140636950D02*
X12266630Y140702730D01*
X12266630Y140702730D02*
X12119555Y140757311D01*
X12119555Y140757311D02*
X11960276Y140816586D01*
X11960276Y140816586D02*
X11807173Y140873726D01*
X11807173Y140873726D02*
X11635754Y140937887D01*
X11635754Y140937887D02*
X11488873Y140993023D01*
X11488873Y140993023D02*
X11323686Y141055202D01*
X11323686Y141055202D02*
X11146327Y141122172D01*
X11146327Y141122172D02*
X10993485Y141180057D01*
X10993485Y141180057D02*
X10846804Y141235757D01*
X10846804Y141235757D02*
X10681840Y141298572D01*
X10681840Y141298572D02*
X10535256Y141354545D01*
X10535256Y141354545D02*
X10388717Y141410647D01*
X10388717Y141410647D02*
X10236121Y141469224D01*
X10236121Y141469224D02*
X10071374Y141532644D01*
X10071374Y141532644D02*
X9924981Y141589153D01*
X9924981Y141589153D02*
X9772536Y141648154D01*
X9772536Y141648154D02*
X9607955Y141712034D01*
X9607955Y141712034D02*
X9455615Y141771326D01*
X9455615Y141771326D02*
X9285057Y141837898D01*
X9285057Y141837898D02*
X9096296Y141911808D01*
X9096296Y141911808D02*
X8944126Y141971567D01*
X8944126Y141971567D02*
X8779841Y142036266D01*
X8779841Y142036266D02*
X8633859Y142093912D01*
X8633859Y142093912D02*
X8481846Y142154098D01*
X8481846Y142154098D02*
X8317727Y142219253D01*
X8317727Y142219253D02*
X8171895Y142277306D01*
X8171895Y142277306D02*
X8026110Y142335487D01*
X8026110Y142335487D02*
X7856088Y142403527D01*
X7856088Y142403527D02*
X7704338Y142464428D01*
X7704338Y142464428D02*
X7540503Y142530352D01*
X7540503Y142530352D02*
X7388859Y142591538D01*
X7388859Y142591538D02*
X7225142Y142657777D01*
X7225142Y142657777D02*
X7073607Y142719254D01*
X7073607Y142719254D02*
X6928182Y142778406D01*
X6928182Y142778406D02*
X6764635Y142845100D01*
X6764635Y142845100D02*
X6613258Y142907000D01*
X6613258Y142907000D02*
X6467984Y142966555D01*
X6467984Y142966555D02*
X6310661Y143031218D01*
X6310661Y143031218D02*
X6159443Y143093538D01*
X6159443Y143093538D02*
X6014320Y143153491D01*
X6014320Y143153491D02*
X5869248Y143213574D01*
X5869248Y143213574D02*
X5700057Y143283833D01*
X5700057Y143283833D02*
X5555090Y143344193D01*
X5555090Y143344193D02*
X5386024Y143414777D01*
X5386024Y143414777D02*
X5235125Y143477942D01*
X5235125Y143477942D02*
X5090317Y143538715D01*
X5090317Y143538715D02*
X4903344Y143617399D01*
X4903344Y143617399D02*
X4710426Y143698847D01*
X4710426Y143698847D02*
X4565796Y143760082D01*
X4565796Y143760082D02*
X4397121Y143831683D01*
X4397121Y143831683D02*
X4228516Y143903459D01*
X4228516Y143903459D02*
X4059976Y143975409D01*
X4059976Y143975409D02*
X3909553Y144039796D01*
X3909553Y144039796D02*
X3765198Y144101739D01*
X3765198Y144101739D02*
X3602858Y144171577D01*
X3602858Y144171577D02*
X3458611Y144233792D01*
X3458611Y144233792D02*
X3308402Y144298733D01*
X3308402Y144298733D02*
X3164258Y144361208D01*
X3164258Y144361208D02*
X3008158Y144429032D01*
X3008158Y144429032D02*
X2840114Y144502240D01*
X2840114Y144502240D02*
X2696132Y144565130D01*
X2696132Y144565130D02*
X2552200Y144628146D01*
X2552200Y144628146D02*
X2360371Y144712366D01*
X2360371Y144712366D02*
X2210568Y144778321D01*
X2210568Y144778321D02*
X2042852Y144852353D01*
X2042852Y144852353D02*
X1893166Y144918602D01*
X1893166Y144918602D02*
X1731568Y144990304D01*
X1731568Y144990304D02*
X1546109Y145072829D01*
X1546109Y145072829D02*
X1396608Y145139535D01*
X1396608Y145139535D02*
X1253138Y145203702D01*
X1253138Y145203702D02*
X1085823Y145278726D01*
X1085823Y145278726D02*
X942466Y145343169D01*
X942466Y145343169D02*
X799162Y145407740D01*
X799162Y145407740D02*
X649939Y145475136D01*
X649939Y145475136D02*
X506741Y145539966D01*
X506741Y145539966D02*
X363594Y145604925D01*
X363594Y145604925D02*
X220500Y145670009D01*
X220500Y145670009D02*
X59581Y145743383D01*
X59581Y145743383D02*
X0Y145770600D01*
D11*
X42402116Y116476400D02*
X42402116Y102320000D01*
X40773836Y116476400D02*
G75*
G02X42402116Y116476400I814140J0D01*
G01*
X40773835Y102320000D02*
X40773835Y116476400D01*
X42402117Y102320000D02*
G75*
G02X40773835Y102320000I-814141J0D01*
G01*
M02*
