M48
; DRILL file {KiCad 6.0.0-unknown-r16647.959a4bdde.fc31} date Wed 05 Feb 2020 23:38:01 GMT
; FORMAT={-:-/ absolute / metric / decimal}
; #@! TF.CreationDate,2020-02-05T23:38:01+00:00
; #@! TF.GenerationSoftware,Kicad,Pcbnew,6.0.0-unknown-r16647.959a4bdde.fc31
; #@! TF.FileFunction,Plated,1,4,PTH
FMAT,2
METRIC
T1C0.300
T2C0.380
T3C0.400
T4C0.500
T5C0.600
T6C0.800
T7C1.000
T8C1.500
T9C1.700
%
G90
G05
T1
X-52.5Y88.8
X-52.3Y86.9
X-51.562Y81.839
X-50.724Y77.394
X-50.648Y97.638
X-50.013Y105.867
X-49.327Y84.01
X-49.098Y67.158
X-48.057Y118.262
X-47.498Y126.848
X-45.0Y88.8
X-45.0Y87.1
X-45.0Y80.9
X-45.0Y79.172
X-45.0Y72.974
X-45.0Y71.247
X-45.0Y65.049
X-45.0Y63.306
X-37.516Y72.974
X-37.5Y88.8
X-37.5Y87.1
X-37.5Y80.9
X-37.5Y79.146
X-37.5Y71.247
X-37.5Y63.3
X-37.5Y57.125
X-37.5Y55.372
X-37.5Y49.2
X-37.5Y47.473
X-37.49Y65.049
X-32.0Y41.0
X-32.0Y38.0
X-30.0Y88.8
X-30.0Y87.1
X-30.0Y80.9
X-30.0Y71.222
X-30.0Y65.049
X-30.0Y63.32
X-30.0Y57.125
X-30.0Y55.397
X-30.0Y49.2
X-30.0Y47.447
X-29.997Y79.146
X-29.997Y72.974
X-29.0Y41.0
X-29.0Y38.0
X-29.0Y35.0
X-26.0Y41.0
X-26.0Y38.0
X-26.0Y35.0
X-26.0Y32.0
X-23.0Y41.0
X-23.0Y38.0
X-23.0Y35.0
X-23.0Y32.0
X-23.0Y29.0
X-22.504Y65.049
X-22.504Y47.473
X-22.5Y88.8
X-22.5Y87.1
X-22.5Y80.878
X-22.5Y79.146
X-22.5Y72.974
X-22.5Y71.222
X-22.5Y63.3
X-22.5Y57.1
X-22.5Y55.402
X-22.5Y49.2
X-19.0Y25.0
X-19.0Y24.0
X-18.783Y38.28
X-18.0Y43.5
X-17.0Y33.0
X-17.0Y31.0
X-17.0Y29.0
X-16.98Y37.315
X-16.98Y36.07
X-16.98Y34.712
X-16.535Y36.693
X-16.383Y35.397
X-16.383Y34.089
X-15.748Y133.858
X-15.0Y88.8
X-15.0Y87.1
X-15.0Y80.9
X-15.0Y79.146
X-15.0Y72.974
X-15.0Y65.035
X-15.0Y63.3
X-15.0Y57.125
X-15.0Y55.372
X-15.0Y49.2
X-15.0Y47.473
X-15.0Y31.0
X-15.0Y29.0
X-15.0Y20.0
X-14.986Y71.222
X-14.0Y43.5
X-13.335Y39.423
X-13.132Y31.143
X-13.0Y29.0
X-12.84Y40.299
X-12.357Y30.0
X-12.141Y41.845
X-12.0Y23.0
X-12.0Y21.55
X-12.0Y20.0
X-11.455Y40.792
X-11.341Y30.0
X-11.0Y27.75
X-10.439Y23.624
X-10.338Y29.276
X-10.0Y27.75
X-9.804Y41.845
X-9.0Y43.5
X-9.0Y27.75
X-8.903Y41.692
X-8.331Y41.692
X-8.0Y27.75
X-7.518Y57.125
X-7.518Y41.504
X-7.5Y88.8
X-7.5Y87.1
X-7.5Y80.9
X-7.5Y79.146
X-7.5Y65.049
X-7.5Y63.3
X-7.5Y55.372
X-7.5Y49.2
X-7.5Y47.473
X-7.5Y23.75
X-7.5Y21.75
X-7.5Y20.0
X-7.493Y71.222
X-7.468Y72.974
X-7.01Y132.944
X-7.0Y43.5
X-7.0Y27.75
X-6.744Y30.127
X-6.0Y23.75
X-4.5Y23.75
X-4.5Y20.0
X-4.381Y34.94
X-4.369Y34.087
X-4.267Y36.474
X-4.127Y37.292
X-4.0Y29.0
X-4.0Y27.75
X-4.0Y25.0
X-3.937Y39.091
X-3.886Y35.687
X-3.734Y38.125
X-3.175Y31.242
X-1.219Y31.257
X-1.0Y26.0
X-1.0Y20.0
X-0.457Y33.2
X-0.457Y32.108
X0.0Y88.8
X0.0Y87.1
X0.0Y80.9
X0.0Y79.146
X0.0Y72.974
X0.0Y71.247
X0.0Y65.049
X0.0Y63.3
X0.0Y57.125
X0.0Y55.4
X0.0Y49.2
X0.0Y47.447
X0.356Y132.969
X3.0Y26.0
X3.0Y20.0
X3.759Y51.537
X4.25Y30.0
X4.521Y58.268
X5.232Y65.278
X5.893Y80.518
X5.994Y72.619
X6.375Y87.986
X7.0Y30.0
X7.0Y26.0
X7.0Y20.0
X7.036Y43.637
X7.493Y132.969
X7.5Y88.8
X7.5Y87.1
X7.5Y80.9
X7.5Y79.146
X7.5Y72.974
X7.5Y71.247
X7.5Y65.049
X7.5Y63.3
X7.5Y57.125
X7.5Y55.4
X7.5Y49.2
X7.5Y47.473
X11.0Y30.0
X11.0Y26.0
X11.0Y20.0
X14.986Y57.125
X15.0Y88.8
X15.0Y87.1
X15.0Y80.9
X15.0Y79.146
X15.0Y72.974
X15.0Y71.247
X15.0Y65.049
X15.0Y63.3
X15.0Y49.2
X15.0Y47.447
X15.0Y20.0
X15.011Y55.372
X15.25Y26.0
X16.231Y132.817
X19.5Y40.75
X19.5Y36.932
X19.5Y26.0
X19.52Y129.33
X20.54Y128.63
X22.098Y132.385
X22.479Y65.049
X22.5Y88.8
X22.5Y87.1
X22.5Y80.9
X22.5Y79.172
X22.5Y72.949
X22.5Y63.3
X22.5Y57.125
X22.5Y55.4
X22.5Y49.2
X22.504Y71.222
X22.504Y47.473
X26.797Y125.197
X28.194Y32.791
X29.794Y124.975
X29.972Y57.125
X29.997Y72.949
X29.997Y65.049
X30.0Y88.8
X30.0Y87.1
X30.0Y80.9
X30.0Y79.146
X30.0Y71.247
X30.0Y63.3
X30.0Y55.4
X30.0Y49.2
X30.0Y47.447
X31.953Y132.029
X35.433Y41.58
X37.49Y79.146
X37.49Y72.974
X37.49Y71.247
X37.49Y65.049
X37.49Y55.372
X37.5Y88.8
X37.5Y87.1
X37.5Y80.883
X37.5Y63.3
X37.5Y57.125
X37.5Y49.2
X37.5Y47.473
X41.885Y60.223
X44.983Y71.222
X44.983Y65.049
X45.0Y88.8
X45.0Y87.1
X45.0Y80.883
X45.0Y63.3
X45.009Y72.974
X45.07Y79.192
X47.625Y126.467
X49.378Y83.998
X50.114Y106.655
X50.724Y77.419
X51.537Y81.813
X52.273Y86.868
X52.5Y88.8
T2
X-9.0Y7.677
X-7.0Y12.677
X-7.0Y7.677
X-5.0Y12.677
X-5.0Y7.677
X-3.0Y12.677
X-3.0Y7.677
X-1.0Y12.677
X-1.0Y7.677
X1.0Y12.677
X1.0Y7.677
X3.0Y12.677
X3.0Y7.677
X5.0Y12.677
X5.0Y7.677
X7.0Y12.677
X7.0Y7.677
X9.0Y12.677
X9.0Y7.677
T3
X-52.832Y116.434
X-50.978Y106.35
X-47.396Y103.835
X-44.247Y105.461
X-43.967Y92.507
X-42.926Y111.049
X-41.91Y109.169
X-39.319Y119.558
X-37.348Y114.63
X-37.338Y112.471
X-37.16Y118.186
X-36.601Y102.718
X-36.144Y41.402
X-35.509Y119.863
X-33.858Y110.998
X-33.499Y119.188
X-32.564Y113.905
X-32.451Y98.394
X-32.206Y105.516
X-31.775Y106.858
X-31.214Y113.848
X-31.09Y119.964
X-30.926Y101.365
X-30.803Y100.25
X-30.269Y105.004
X-30.201Y113.868
X-29.754Y119.985
X-29.594Y109.245
X-29.362Y92.481
X-28.626Y105.867
X-28.6Y107.137
X-28.499Y120.125
X-27.788Y109.017
X-26.848Y108.229
X-26.645Y122.707
X-26.619Y100.609
X-25.832Y107.342
X-25.527Y110.871
X-25.121Y24.714
X-23.368Y21.641
X-22.425Y117.25
X-22.2Y121.025
X-22.05Y118.65
X-22.0Y129.8
X-21.92Y125.527
X-20.853Y117.018
X-20.828Y103.657
X-20.803Y112.192
X-20.777Y111.201
X-20.663Y107.554
X-20.65Y106.324
X-20.447Y125.171
X-19.66Y121.122
X-18.437Y126.745
X-17.729Y108.306
X-17.729Y106.324
X-17.653Y117.069
X-17.577Y103.657
X-17.399Y120.447
X-16.561Y92.481
X-16.425Y116.95
X-16.002Y120.625
X-15.596Y126.009
X-14.783Y112.141
X-14.529Y121.056
X-13.462Y117.043
X-12.852Y102.108
X-12.141Y119.583
X-10.516Y106.35
X-10.465Y101.321
X-10.363Y109.118
X-9.677Y108.382
X-9.652Y109.855
X-7.061Y117.5
X-6.147Y129.845
X-6.096Y121.666
X-5.965Y105.013
X-5.893Y101.482
X-5.004Y127.711
X-4.343Y109.169
X-4.216Y94.666
X-2.845Y109.474
X-2.845Y104.556
X-2.845Y101.457
X-2.845Y98.409
X-2.692Y107.645
X-1.727Y126.39
X-1.575Y111.557
X-1.448Y40.767
X-1.321Y35.23
X-0.864Y92.507
X-0.61Y106.299
X-0.559Y110.642
X-0.559Y108.661
X0.254Y101.457
X0.635Y105.08
X1.219Y110.668
X1.219Y35.23
X1.245Y40.742
X2.057Y105.486
X2.159Y107.975
X2.743Y123.393
X3.277Y21.641
X3.581Y104.267
X3.759Y34.417
X3.835Y114.656
X4.166Y111.531
X4.166Y108.102
X4.674Y115.722
X4.699Y113.894
X4.826Y34.392
X6.02Y34.315
X6.426Y110.922
X6.426Y108.052
X6.909Y95.174
X7.264Y34.315
X7.493Y92.507
X7.671Y96.037
X8.712Y95.199
X8.966Y34.315
X8.992Y36.576
X8.992Y35.408
X9.013Y39.456
X9.017Y38.481
X9.017Y40.406
X9.018Y37.526
X9.027Y41.359
X9.601Y96.063
X10.084Y102.616
X10.49Y95.199
X11.227Y102.616
X11.379Y96.063
X12.076Y95.174
X12.37Y38.202
X12.37Y37.135
X12.751Y97.307
X12.751Y96.063
X13.71Y105.75
X13.767Y95.174
X13.995Y103.607
X14.094Y111.276
X14.094Y107.314
X14.351Y33.858
X14.605Y129.921
X15.088Y92.507
X15.168Y121.182
X16.18Y94.031
X16.205Y42.367
X16.317Y130.055
X16.789Y112.065
X17.297Y32.69
X17.577Y123.8
X19.001Y119.581
X19.025Y32.182
X19.428Y103.675
X19.924Y109.3
X20.066Y131.572
X20.066Y130.099
X20.412Y34.483
X20.93Y99.924
X21.124Y109.3
X21.285Y118.72
X21.692Y29.642
X22.024Y109.3
X22.624Y103.6
X23.56Y122.048
X23.597Y117.78
X24.782Y114.646
X24.932Y111.246
X25.044Y92.507
X25.07Y24.511
X26.432Y105.471
X27.0Y117.312
X28.572Y110.584
X28.624Y111.988
X29.24Y125.91
X29.635Y118.153
X29.87Y121.996
X31.007Y107.621
X31.01Y116.33
X31.074Y112.196
X31.547Y100.381
X31.648Y98.831
X31.897Y113.918
X32.001Y108.533
X32.103Y109.828
X32.107Y110.871
X32.128Y111.913
X32.512Y128.295
X32.934Y105.79
X33.0Y95.3
X33.02Y94.031
X33.156Y125.425
X33.732Y123.225
X35.077Y124.943
X35.611Y95.402
X35.814Y103.403
X36.576Y92.507
X38.7Y94.7
X38.8Y125.0
X42.215Y99.543
X43.2Y95.2
X43.9Y95.2
X44.6Y95.2
X44.7Y116.9
X45.6Y95.2
X46.3Y95.2
X46.4Y119.7
X47.0Y95.2
X47.447Y106.02
X48.819Y119.228
X49.174Y67.056
X49.2Y94.539
X49.352Y92.507
X51.359Y97.587
X53.137Y114.529
X41.333Y119.925
X41.427Y120.518
X41.427Y120.518
X41.959Y123.876
X42.052Y124.469
X42.428Y126.839
X42.522Y127.432
X43.209Y119.628
X43.303Y120.221
X44.304Y126.542
X44.398Y127.134
X47.581Y117.822
X47.675Y118.415
X49.457Y117.525
X49.551Y118.117
T4
X-11.176Y37.592
X-11.176Y36.592
X-11.176Y35.592
X-10.176Y37.592
X-10.176Y36.592
X-10.176Y35.592
X-9.176Y37.592
X-9.176Y36.592
X-9.176Y35.592
T6
X10.495Y121.285
X-10.495Y111.125
X12.065Y130.175
X12.065Y125.095
X10.495Y128.905
X-10.495Y128.905
X-10.495Y116.205
X10.495Y131.445
X12.065Y112.395
X-12.065Y117.475
X-10.495Y113.665
X-12.065Y122.555
X-12.065Y130.175
X12.065Y114.935
X-12.065Y125.095
X10.495Y123.825
X10.495Y118.745
X10.495Y113.665
X-10.495Y118.745
X12.065Y117.475
X-12.065Y132.715
X12.065Y127.635
X12.065Y122.555
X-10.495Y131.445
X12.065Y132.715
X-12.065Y127.635
X-10.495Y123.825
X-12.065Y114.935
X-12.065Y112.395
X10.495Y111.125
X12.065Y120.015
X10.495Y126.365
T7
X-17.17Y99.695
X-17.17Y97.155
X-14.63Y99.695
X-14.63Y97.155
T8
X-16.345Y24.577
T9
X-18.885Y27.117
X-18.885Y22.037
X-13.805Y27.117
X-13.805Y22.037
T5
G00X28.943Y128.684
M15
G01X28.705Y127.61
M16
G05
G00X29.809Y132.589
M15
G01X29.636Y131.808
M16
G05
G00X37.378Y126.814
M15
G01X37.14Y125.74
M16
G05
G00X38.244Y130.719
M15
G01X38.071Y129.938
M16
G05
T0
M30
