M48
; DRILL file {KiCad 5.99.0-unknown-r17145-8bd2765f} date Tue 03 Dec 2019 04:13:20 CST
; FORMAT={-:-/ absolute / metric / decimal}
; #@! TF.CreationDate,2019-12-03T04:13:20+08:00
; #@! TF.GenerationSoftware,Kicad,Pcbnew,5.99.0-unknown-r17145-8bd2765f
; #@! TF.FileFunction,Plated,1,4,PTH
FMAT,2
METRIC
T1C0.300
T2C0.380
T3C0.400
T4C0.500
T5C0.600
T6C0.800
T7C1.000
T8C1.500
T9C1.700
%
G90
G05
T1
X-54.102Y101.092
X-53.594Y110.49
X-53.594Y89.662
X-52.984Y84.684
X-52.5Y88.8
X-52.324Y123.698
X-52.3Y86.9
X-51.562Y81.839
X-51.308Y75.184
X-50.8Y130.302
X-50.724Y77.394
X-49.53Y67.31
X-49.327Y84.01
X-45.0Y88.8
X-45.0Y87.1
X-45.0Y80.9
X-45.0Y79.172
X-45.0Y72.974
X-45.0Y71.247
X-45.0Y65.049
X-45.0Y63.306
X-41.656Y131.826
X-37.516Y72.974
X-37.5Y88.8
X-37.5Y87.1
X-37.5Y80.9
X-37.5Y79.146
X-37.5Y71.247
X-37.5Y63.3
X-37.5Y57.125
X-37.5Y55.372
X-37.5Y49.2
X-37.5Y47.473
X-37.49Y65.049
X-35.814Y36.678
X-33.782Y133.35
X-32.0Y41.0
X-32.0Y38.0
X-30.886Y29.515
X-30.0Y88.8
X-30.0Y87.1
X-30.0Y80.9
X-30.0Y71.222
X-30.0Y65.049
X-30.0Y63.32
X-30.0Y57.125
X-30.0Y55.397
X-30.0Y49.2
X-30.0Y47.447
X-29.997Y79.146
X-29.997Y72.974
X-29.0Y41.0
X-29.0Y38.0
X-29.0Y35.0
X-28.194Y133.858
X-26.0Y41.0
X-26.0Y38.0
X-26.0Y35.0
X-26.0Y32.0
X-23.0Y41.0
X-23.0Y38.0
X-23.0Y35.0
X-23.0Y32.0
X-23.0Y29.0
X-22.606Y133.858
X-22.504Y65.049
X-22.504Y47.473
X-22.5Y88.8
X-22.5Y87.1
X-22.5Y80.878
X-22.5Y79.146
X-22.5Y72.974
X-22.5Y71.222
X-22.5Y63.3
X-22.5Y57.1
X-22.5Y55.402
X-22.5Y49.2
X-22.0Y20.0
X-19.0Y25.0
X-19.0Y24.0
X-18.783Y38.28
X-18.0Y43.5
X-18.0Y20.0
X-17.0Y33.0
X-17.0Y31.0
X-17.0Y29.0
X-16.98Y37.315
X-16.98Y36.07
X-16.98Y34.712
X-16.535Y36.693
X-16.383Y35.397
X-16.383Y34.089
X-15.748Y133.858
X-15.0Y88.8
X-15.0Y87.1
X-15.0Y80.9
X-15.0Y79.146
X-15.0Y72.974
X-15.0Y65.035
X-15.0Y63.3
X-15.0Y57.125
X-15.0Y55.372
X-15.0Y49.2
X-15.0Y47.473
X-15.0Y31.0
X-15.0Y29.0
X-15.0Y20.0
X-14.986Y71.222
X-14.0Y43.5
X-13.335Y39.423
X-13.132Y31.143
X-13.0Y29.0
X-12.84Y40.299
X-12.357Y30.0
X-12.141Y41.845
X-12.0Y23.0
X-12.0Y21.55
X-12.0Y20.0
X-11.455Y40.792
X-11.341Y30.0
X-11.0Y27.75
X-10.439Y23.624
X-10.338Y29.276
X-10.0Y27.75
X-9.804Y41.845
X-9.0Y43.5
X-9.0Y27.75
X-8.903Y41.692
X-8.331Y41.692
X-8.0Y27.75
X-7.518Y57.125
X-7.5Y88.8
X-7.5Y87.1
X-7.5Y80.9
X-7.5Y79.146
X-7.5Y65.049
X-7.5Y63.3
X-7.5Y55.372
X-7.5Y49.2
X-7.5Y47.473
X-7.5Y23.75
X-7.5Y21.75
X-7.5Y20.0
X-7.493Y71.222
X-7.468Y72.974
X-7.0Y43.5
X-7.0Y27.75
X-6.995Y40.774
X-6.744Y30.127
X-6.096Y134.128
X-6.0Y23.75
X-4.5Y23.75
X-4.5Y20.0
X-4.381Y34.94
X-4.369Y34.087
X-4.267Y36.474
X-4.267Y35.763
X-4.127Y37.292
X-4.0Y29.0
X-4.0Y27.75
X-4.0Y25.0
X-3.937Y39.091
X-3.734Y38.125
X-2.464Y34.543
X-1.219Y31.257
X-1.0Y26.0
X-1.0Y20.0
X-0.991Y34.543
X-0.457Y33.2
X-0.457Y32.108
X0.0Y88.8
X0.0Y87.1
X0.0Y80.9
X0.0Y79.146
X0.0Y72.974
X0.0Y71.247
X0.0Y65.049
X0.0Y63.3
X0.0Y57.125
X0.0Y55.4
X0.0Y49.2
X0.0Y47.447
X0.483Y34.543
X1.016Y134.128
X1.981Y34.543
X3.0Y30.0
X3.0Y26.0
X3.0Y20.0
X3.454Y35.001
X3.759Y51.537
X4.47Y33.731
X4.521Y58.268
X5.232Y65.278
X5.893Y80.518
X5.994Y72.619
X6.375Y87.986
X7.0Y30.0
X7.0Y26.0
X7.0Y20.0
X7.036Y43.637
X7.087Y33.706
X7.112Y134.128
X7.5Y88.8
X7.5Y87.1
X7.5Y80.9
X7.5Y79.146
X7.5Y72.974
X7.5Y71.247
X7.5Y65.049
X7.5Y63.3
X7.5Y57.125
X7.5Y55.4
X7.5Y49.2
X7.5Y47.473
X11.0Y30.0
X11.0Y26.0
X11.0Y20.0
X14.478Y134.128
X14.986Y57.125
X15.0Y88.8
X15.0Y87.1
X15.0Y80.9
X15.0Y79.146
X15.0Y72.974
X15.0Y71.247
X15.0Y65.049
X15.0Y63.3
X15.0Y49.2
X15.0Y47.447
X15.0Y20.0
X15.011Y55.372
X15.25Y26.0
X19.0Y20.0
X19.431Y134.128
X19.5Y40.75
X19.5Y36.932
X19.5Y26.0
X22.0Y20.0
X22.479Y65.049
X22.5Y88.8
X22.5Y87.1
X22.5Y80.9
X22.5Y79.172
X22.5Y72.949
X22.5Y63.3
X22.5Y57.125
X22.5Y55.4
X22.5Y49.2
X22.504Y71.222
X22.504Y47.473
X28.0Y29.0
X29.972Y57.125
X29.997Y72.949
X29.997Y65.049
X30.0Y88.8
X30.0Y87.1
X30.0Y80.9
X30.0Y79.146
X30.0Y71.247
X30.0Y63.3
X30.0Y55.4
X30.0Y49.2
X30.0Y47.447
X30.226Y134.128
X31.0Y33.0
X33.0Y36.0
X35.0Y39.0
X35.306Y133.096
X37.0Y42.0
X37.338Y39.065
X37.49Y79.146
X37.49Y72.974
X37.49Y71.247
X37.49Y65.049
X37.49Y55.372
X37.5Y88.8
X37.5Y87.1
X37.5Y80.883
X37.5Y63.3
X37.5Y57.125
X37.5Y49.2
X37.5Y47.473
X41.885Y60.223
X44.704Y131.318
X44.983Y71.222
X44.983Y65.049
X45.0Y88.8
X45.0Y87.1
X45.0Y80.883
X45.0Y63.3
X45.009Y72.974
X45.07Y79.192
X46.99Y59.893
X49.936Y83.439
X50.546Y130.302
X50.724Y77.419
X51.537Y81.813
X52.07Y124.968
X52.075Y79.002
X52.27Y80.07
X52.273Y86.868
X52.5Y88.8
X52.832Y120.904
X52.883Y83.922
X53.442Y88.392
X53.899Y94.285
X53.95Y106.07
X54.051Y98.247
T2
X-9.0Y7.677
X-7.0Y12.677
X-7.0Y7.677
X-5.0Y12.677
X-5.0Y7.677
X-3.0Y12.677
X-3.0Y7.677
X-1.0Y12.677
X-1.0Y7.677
X1.0Y12.677
X1.0Y7.677
X3.0Y12.677
X3.0Y7.677
X5.0Y12.677
X5.0Y7.677
X7.0Y12.677
X7.0Y7.677
X9.0Y12.677
X9.0Y7.677
T3
X-53.035Y114.986
X-52.222Y121.818
X-50.444Y71.476
X-49.53Y108.458
X-46.406Y105.207
X-45.618Y103.683
X-44.247Y104.089
X-44.221Y102.946
X-43.967Y92.507
X-42.52Y104.8
X-39.929Y103.734
X-37.084Y110.846
X-36.896Y114.402
X-36.144Y41.402
X-36.068Y107.594
X-34.9Y107.391
X-34.9Y106.02
X-34.544Y97.231
X-34.534Y116.281
X-34.29Y104.546
X-33.071Y101.427
X-33.071Y100.228
X-32.929Y99.116
X-31.634Y103.53
X-29.616Y102.972
X-29.413Y116.434
X-29.362Y92.481
X-28.374Y116.421
X-27.178Y128.626
X-26.101Y110.312
X-25.832Y105.842
X-25.806Y24.257
X-25.095Y110.998
X-24.384Y118.821
X-23.368Y21.641
X-22.53Y100.559
X-19.761Y118.821
X-19.177Y122.555
X-18.437Y126.745
X-16.561Y92.481
X-16.358Y110.998
X-12.319Y102.108
X-12.141Y119.583
X-11.481Y100.279
X-10.719Y99.339
X-8.992Y106.756
X-7.061Y117.5
X-6.096Y121.666
X-5.893Y101.482
X-4.343Y109.169
X-4.216Y94.666
X-2.845Y109.474
X-2.845Y104.556
X-2.845Y101.457
X-2.845Y98.409
X-2.692Y107.645
X-1.727Y126.39
X-1.575Y111.557
X-0.864Y92.507
X-0.61Y106.299
X-0.559Y110.642
X-0.559Y108.661
X0.254Y101.457
X0.635Y105.08
X0.965Y131.42
X1.219Y110.668
X1.244Y35.914
X2.057Y105.486
X2.159Y107.975
X2.743Y123.393
X3.277Y21.641
X3.581Y104.267
X4.115Y116.027
X4.166Y111.531
X4.166Y108.102
X5.664Y37.236
X6.426Y110.922
X6.426Y108.052
X6.909Y95.174
X7.493Y92.507
X7.671Y96.037
X8.712Y95.199
X8.966Y34.315
X8.992Y36.576
X8.992Y35.408
X9.013Y39.456
X9.017Y38.481
X9.017Y40.406
X9.018Y37.526
X9.027Y41.359
X9.601Y96.063
X10.084Y102.616
X10.49Y95.199
X11.227Y102.616
X11.379Y96.063
X12.076Y95.174
X12.37Y38.202
X12.37Y37.135
X12.751Y97.307
X12.751Y96.063
X13.767Y95.174
X13.868Y129.362
X14.351Y33.858
X15.088Y92.507
X15.168Y121.182
X15.342Y129.337
X16.18Y94.031
X16.205Y42.367
X16.786Y107.25
X17.17Y112.776
X17.17Y108.814
X17.577Y123.8
X18.03Y118.61
X20.412Y34.483
X20.701Y126.644
X21.3Y116.2
X21.514Y125.959
X21.692Y29.642
X22.504Y105.175
X23.0Y110.8
X23.284Y123.5
X23.958Y119.396
X24.058Y125.096
X24.2Y110.8
X24.613Y126.634
X25.044Y92.507
X25.1Y110.8
X25.356Y123.81
X25.527Y125.959
X25.578Y24.079
X25.7Y105.1
X26.658Y123.066
X27.358Y118.921
X27.858Y116.146
X28.008Y112.746
X29.508Y106.971
X31.408Y125.821
X31.648Y112.084
X31.7Y113.488
X31.75Y101.194
X31.852Y98.552
X32.733Y119.171
X33.0Y95.3
X33.02Y94.031
X33.66Y124.7
X34.083Y122.871
X34.083Y109.121
X34.1Y117.821
X34.151Y113.696
X34.973Y115.418
X35.077Y110.033
X35.179Y111.328
X35.183Y112.371
X35.204Y113.413
X35.3Y124.0
X35.611Y95.402
X36.01Y107.29
X36.5Y123.658
X36.576Y92.507
X38.4Y115.2
X38.7Y94.7
X39.049Y122.567
X39.333Y120.946
X42.367Y122.479
X42.597Y99.497
X43.078Y118.262
X43.2Y95.2
X43.9Y95.2
X44.6Y95.2
X45.085Y123.215
X45.6Y95.2
X46.3Y95.2
X47.0Y95.2
X47.447Y106.02
X48.819Y119.228
X49.2Y94.539
X49.327Y67.158
X49.352Y92.507
X50.19Y97.587
X50.19Y96.571
X50.394Y94.945
X50.394Y94.132
X51.359Y97.587
X53.137Y114.529
T4
X-11.176Y37.592
X-11.176Y36.592
X-11.176Y35.592
X-10.176Y37.592
X-10.176Y36.592
X-10.176Y35.592
X-9.176Y37.592
X-9.176Y36.592
X-9.176Y35.592
T6
X10.495Y131.445
X10.495Y128.905
X12.065Y122.555
X10.495Y121.285
X12.065Y127.635
X10.495Y113.665
X-12.065Y132.715
X-10.495Y111.125
X-12.065Y114.935
X12.065Y120.015
X-10.495Y118.745
X-12.065Y125.095
X12.065Y114.935
X10.495Y126.365
X-10.495Y113.665
X-12.065Y117.475
X-12.065Y130.175
X-12.065Y127.635
X-10.495Y131.445
X-10.495Y128.905
X10.495Y111.125
X12.065Y117.475
X12.065Y125.095
X-10.495Y123.825
X12.065Y130.175
X-12.065Y112.395
X-12.065Y122.555
X12.065Y132.715
X10.495Y123.825
X10.495Y118.745
X12.065Y112.395
X-10.495Y116.205
T7
X-2.54Y39.5
X-2.54Y36.96
X0.0Y39.5
X0.0Y36.96
X2.54Y39.5
X2.54Y36.96
T8
X-16.345Y24.577
T9
X-18.885Y27.117
X-18.885Y22.037
X-13.805Y27.117
X-13.805Y22.037
T5
G00X28.943Y128.684
M15
G01X28.705Y127.61
M16
G05
G00X29.809Y132.589
M15
G01X29.636Y131.808
M16
G05
G00X37.378Y126.814
M15
G01X37.14Y125.74
M16
G05
G00X38.244Y130.719
M15
G01X38.071Y129.938
M16
G05
T0
M30
