G04 #@! TF.GenerationSoftware,KiCad,Pcbnew,5.99.0-unknown-r17145-8bd2765f*
G04 #@! TF.CreationDate,2019-12-03T04:13:14+08:00*
G04 #@! TF.ProjectId,tr20,74723230-2e6b-4696-9361-645f70636258,rev?*
G04 #@! TF.SameCoordinates,Original*
G04 #@! TF.FileFunction,Legend,Bot*
G04 #@! TF.FilePolarity,Positive*
%FSLAX46Y46*%
G04 Gerber Fmt 4.6, Leading zero omitted, Abs format (unit mm)*
G04 Created by KiCad (PCBNEW 5.99.0-unknown-r17145-8bd2765f) date 2019-12-03 04:13:14*
%MOMM*%
%LPD*%
G04 APERTURE LIST*
%ADD10C,0.200000*%
%ADD11C,0.300000*%
%ADD12C,0.400000*%
%ADD13C,0.120000*%
%ADD14C,0.100000*%
%ADD15C,0.127000*%
%ADD16C,0.240000*%
%ADD17C,0.150000*%
G04 APERTURE END LIST*
D10*
X12960590Y31723219D02*
X12960590Y31008933D01*
X13008209Y30866076D01*
X13103447Y30770838D01*
X13246304Y30723219D01*
X13341542Y30723219D01*
X12103447Y30770838D02*
X12198685Y30723219D01*
X12389161Y30723219D01*
X12484400Y30770838D01*
X12532019Y30866076D01*
X12532019Y31247028D01*
X12484400Y31342266D01*
X12389161Y31389885D01*
X12198685Y31389885D01*
X12103447Y31342266D01*
X12055828Y31247028D01*
X12055828Y31151790D01*
X12532019Y31056552D01*
X11770114Y31389885D02*
X11389161Y31389885D01*
X11627257Y30723219D02*
X11627257Y31580361D01*
X11579638Y31675600D01*
X11484400Y31723219D01*
X11389161Y31723219D01*
X11198685Y31389885D02*
X10817733Y31389885D01*
X11055828Y30723219D02*
X11055828Y31580361D01*
X11008209Y31675600D01*
X10912971Y31723219D01*
X10817733Y31723219D01*
X9198685Y31675600D02*
X9293923Y31723219D01*
X9436780Y31723219D01*
X9579638Y31675600D01*
X9674876Y31580361D01*
X9722495Y31485123D01*
X9770114Y31294647D01*
X9770114Y31151790D01*
X9722495Y30961314D01*
X9674876Y30866076D01*
X9579638Y30770838D01*
X9436780Y30723219D01*
X9341542Y30723219D01*
X9198685Y30770838D01*
X9151066Y30818457D01*
X9151066Y31151790D01*
X9341542Y31151790D01*
X8579638Y30723219D02*
X8674876Y30770838D01*
X8722495Y30818457D01*
X8770114Y30913695D01*
X8770114Y31199409D01*
X8722495Y31294647D01*
X8674876Y31342266D01*
X8579638Y31389885D01*
X8436780Y31389885D01*
X8341542Y31342266D01*
X8293923Y31294647D01*
X8246304Y31199409D01*
X8246304Y30913695D01*
X8293923Y30818457D01*
X8341542Y30770838D01*
X8436780Y30723219D01*
X8579638Y30723219D01*
X7389161Y31389885D02*
X7389161Y30723219D01*
X7817733Y31389885D02*
X7817733Y30866076D01*
X7770114Y30770838D01*
X7674876Y30723219D01*
X7532019Y30723219D01*
X7436780Y30770838D01*
X7389161Y30818457D01*
X6484400Y31389885D02*
X6484400Y30580361D01*
X6532019Y30485123D01*
X6579638Y30437504D01*
X6674876Y30389885D01*
X6817733Y30389885D01*
X6912971Y30437504D01*
X6484400Y30770838D02*
X6579638Y30723219D01*
X6770114Y30723219D01*
X6865352Y30770838D01*
X6912971Y30818457D01*
X6960590Y30913695D01*
X6960590Y31199409D01*
X6912971Y31294647D01*
X6865352Y31342266D01*
X6770114Y31389885D01*
X6579638Y31389885D01*
X6484400Y31342266D01*
X6008209Y30723219D02*
X6008209Y31723219D01*
X5579638Y30723219D02*
X5579638Y31247028D01*
X5627257Y31342266D01*
X5722495Y31389885D01*
X5865352Y31389885D01*
X5960590Y31342266D01*
X6008209Y31294647D01*
X12627257Y29589409D02*
X12674876Y29637028D01*
X12770114Y29684647D01*
X12865352Y29684647D01*
X12960590Y29637028D01*
X13008209Y29589409D01*
X13055828Y29494171D01*
X13055828Y29398933D01*
X13008209Y29303695D01*
X12960590Y29256076D01*
X12865352Y29208457D01*
X12770114Y29208457D01*
X12674876Y29256076D01*
X12627257Y29303695D01*
X12627257Y29684647D02*
X12627257Y29303695D01*
X12579638Y29256076D01*
X12532019Y29256076D01*
X12436780Y29303695D01*
X12389161Y29398933D01*
X12389161Y29637028D01*
X12484400Y29779885D01*
X12627257Y29875123D01*
X12817733Y29922742D01*
X13008209Y29875123D01*
X13151066Y29779885D01*
X13246304Y29637028D01*
X13293923Y29446552D01*
X13246304Y29256076D01*
X13151066Y29113219D01*
X13008209Y29017980D01*
X12817733Y28970361D01*
X12627257Y29017980D01*
X12484400Y29113219D01*
X11960590Y29779885D02*
X11960590Y28922742D01*
X12008209Y28827504D01*
X12103447Y28779885D01*
X12151066Y28779885D01*
X11960590Y30113219D02*
X12008209Y30065600D01*
X11960590Y30017980D01*
X11912971Y30065600D01*
X11960590Y30113219D01*
X11960590Y30017980D01*
X11103447Y29160838D02*
X11198685Y29113219D01*
X11389161Y29113219D01*
X11484400Y29160838D01*
X11532019Y29256076D01*
X11532019Y29637028D01*
X11484400Y29732266D01*
X11389161Y29779885D01*
X11198685Y29779885D01*
X11103447Y29732266D01*
X11055828Y29637028D01*
X11055828Y29541790D01*
X11532019Y29446552D01*
X10770114Y29779885D02*
X10389161Y29779885D01*
X10627257Y29113219D02*
X10627257Y29970361D01*
X10579638Y30065600D01*
X10484400Y30113219D01*
X10389161Y30113219D01*
X10198685Y29779885D02*
X9817733Y29779885D01*
X10055828Y29113219D02*
X10055828Y29970361D01*
X10008209Y30065600D01*
X9912971Y30113219D01*
X9817733Y30113219D01*
X9484400Y29113219D02*
X9484400Y29779885D01*
X9484400Y29684647D02*
X9436780Y29732266D01*
X9341542Y29779885D01*
X9198685Y29779885D01*
X9103447Y29732266D01*
X9055828Y29637028D01*
X9055828Y29113219D01*
X9055828Y29637028D02*
X9008209Y29732266D01*
X8912971Y29779885D01*
X8770114Y29779885D01*
X8674876Y29732266D01*
X8627257Y29637028D01*
X8627257Y29113219D01*
X7722495Y29113219D02*
X7722495Y29637028D01*
X7770114Y29732266D01*
X7865352Y29779885D01*
X8055828Y29779885D01*
X8151066Y29732266D01*
X7722495Y29160838D02*
X7817733Y29113219D01*
X8055828Y29113219D01*
X8151066Y29160838D01*
X8198685Y29256076D01*
X8198685Y29351314D01*
X8151066Y29446552D01*
X8055828Y29494171D01*
X7817733Y29494171D01*
X7722495Y29541790D01*
X7246304Y29113219D02*
X7246304Y30113219D01*
X7151066Y29494171D02*
X6865352Y29113219D01*
X6865352Y29779885D02*
X7246304Y29398933D01*
X6055828Y29160838D02*
X6151066Y29113219D01*
X6341542Y29113219D01*
X6436780Y29160838D01*
X6484400Y29256076D01*
X6484400Y29637028D01*
X6436780Y29732266D01*
X6341542Y29779885D01*
X6151066Y29779885D01*
X6055828Y29732266D01*
X6008209Y29637028D01*
X6008209Y29541790D01*
X6484400Y29446552D01*
X5627257Y29160838D02*
X5532019Y29113219D01*
X5341542Y29113219D01*
X5246304Y29160838D01*
X5198685Y29256076D01*
X5198685Y29303695D01*
X5246304Y29398933D01*
X5341542Y29446552D01*
X5484400Y29446552D01*
X5579638Y29494171D01*
X5627257Y29589409D01*
X5627257Y29637028D01*
X5579638Y29732266D01*
X5484400Y29779885D01*
X5341542Y29779885D01*
X5246304Y29732266D01*
X13246304Y27503219D02*
X13246304Y28503219D01*
X12817733Y27503219D02*
X12817733Y28027028D01*
X12865352Y28122266D01*
X12960590Y28169885D01*
X13103447Y28169885D01*
X13198685Y28122266D01*
X13246304Y28074647D01*
X12484400Y28169885D02*
X12103447Y28169885D01*
X12341542Y28503219D02*
X12341542Y27646076D01*
X12293923Y27550838D01*
X12198685Y27503219D01*
X12103447Y27503219D01*
X11912971Y28169885D02*
X11532019Y28169885D01*
X11770114Y28503219D02*
X11770114Y27646076D01*
X11722495Y27550838D01*
X11627257Y27503219D01*
X11532019Y27503219D01*
X11198685Y28169885D02*
X11198685Y27169885D01*
X11198685Y28122266D02*
X11103447Y28169885D01*
X10912971Y28169885D01*
X10817733Y28122266D01*
X10770114Y28074647D01*
X10722495Y27979409D01*
X10722495Y27693695D01*
X10770114Y27598457D01*
X10817733Y27550838D01*
X10912971Y27503219D01*
X11103447Y27503219D01*
X11198685Y27550838D01*
X10341542Y27550838D02*
X10246304Y27503219D01*
X10055828Y27503219D01*
X9960590Y27550838D01*
X9912971Y27646076D01*
X9912971Y27693695D01*
X9960590Y27788933D01*
X10055828Y27836552D01*
X10198685Y27836552D01*
X10293923Y27884171D01*
X10341542Y27979409D01*
X10341542Y28027028D01*
X10293923Y28122266D01*
X10198685Y28169885D01*
X10055828Y28169885D01*
X9960590Y28122266D01*
X9484400Y27598457D02*
X9436780Y27550838D01*
X9484400Y27503219D01*
X9532019Y27550838D01*
X9484400Y27598457D01*
X9484400Y27503219D01*
X9484400Y28122266D02*
X9436780Y28074647D01*
X9484400Y28027028D01*
X9532019Y28074647D01*
X9484400Y28122266D01*
X9484400Y28027028D01*
X8293923Y28550838D02*
X9151066Y27265123D01*
X7246304Y28550838D02*
X8103447Y27265123D01*
X6912971Y27503219D02*
X6912971Y28169885D01*
X6912971Y28074647D02*
X6865352Y28122266D01*
X6770114Y28169885D01*
X6627257Y28169885D01*
X6532019Y28122266D01*
X6484400Y28027028D01*
X6484400Y27503219D01*
X6484400Y28027028D02*
X6436780Y28122266D01*
X6341542Y28169885D01*
X6198685Y28169885D01*
X6103447Y28122266D01*
X6055828Y28027028D01*
X6055828Y27503219D01*
X5436780Y27503219D02*
X5532019Y27550838D01*
X5579638Y27598457D01*
X5627257Y27693695D01*
X5627257Y27979409D01*
X5579638Y28074647D01*
X5532019Y28122266D01*
X5436780Y28169885D01*
X5293923Y28169885D01*
X5198685Y28122266D01*
X5151066Y28074647D01*
X5103447Y27979409D01*
X5103447Y27693695D01*
X5151066Y27598457D01*
X5198685Y27550838D01*
X5293923Y27503219D01*
X5436780Y27503219D01*
X4674876Y28169885D02*
X4674876Y27503219D01*
X4674876Y28074647D02*
X4627257Y28122266D01*
X4532019Y28169885D01*
X4389161Y28169885D01*
X4293923Y28122266D01*
X4246304Y28027028D01*
X4246304Y27503219D01*
X3341542Y27503219D02*
X3341542Y28027028D01*
X3389161Y28122266D01*
X3484400Y28169885D01*
X3674876Y28169885D01*
X3770114Y28122266D01*
X3341542Y27550838D02*
X3436780Y27503219D01*
X3674876Y27503219D01*
X3770114Y27550838D01*
X3817733Y27646076D01*
X3817733Y27741314D01*
X3770114Y27836552D01*
X3674876Y27884171D01*
X3436780Y27884171D01*
X3341542Y27931790D01*
X2436780Y27503219D02*
X2436780Y28503219D01*
X2436780Y27550838D02*
X2532019Y27503219D01*
X2722495Y27503219D01*
X2817733Y27550838D01*
X2865352Y27598457D01*
X2912971Y27693695D01*
X2912971Y27979409D01*
X2865352Y28074647D01*
X2817733Y28122266D01*
X2722495Y28169885D01*
X2532019Y28169885D01*
X2436780Y28122266D01*
X1960590Y27598457D02*
X1912971Y27550838D01*
X1960590Y27503219D01*
X2008209Y27550838D01*
X1960590Y27598457D01*
X1960590Y27503219D01*
X1484400Y27503219D02*
X1484400Y28169885D01*
X1484400Y28503219D02*
X1532019Y28455600D01*
X1484400Y28407980D01*
X1436780Y28455600D01*
X1484400Y28503219D01*
X1484400Y28407980D01*
X1055828Y27550838D02*
X960590Y27503219D01*
X770114Y27503219D01*
X674876Y27550838D01*
X627257Y27646076D01*
X627257Y27693695D01*
X674876Y27788933D01*
X770114Y27836552D01*
X912971Y27836552D01*
X1008209Y27884171D01*
X1055828Y27979409D01*
X1055828Y28027028D01*
X1008209Y28122266D01*
X912971Y28169885D01*
X770114Y28169885D01*
X674876Y28122266D01*
D11*
X51321291Y125799548D02*
X51217001Y125141090D01*
X51737224Y125868666D02*
X50281458Y125626753D01*
X51591219Y124946824D01*
X50135452Y124704911D02*
X51254833Y124527619D01*
X51376095Y124440915D01*
X51431512Y124364640D01*
X51476500Y124222519D01*
X51434784Y123959136D01*
X51348081Y123837873D01*
X51271806Y123782456D01*
X51129685Y123737468D01*
X50010305Y123914760D01*
X51288779Y123037293D02*
X49906015Y123256301D01*
X49853870Y122927072D01*
X49888429Y122719105D01*
X49999263Y122566556D01*
X50120526Y122479852D01*
X50373481Y122372290D01*
X50571018Y122341003D01*
X50844831Y122365133D01*
X50986952Y122410121D01*
X51139501Y122520955D01*
X51236634Y122708064D01*
X51288779Y123037293D01*
X51069771Y121654529D02*
X49687007Y121873538D01*
X49541001Y120951695D02*
X49499286Y120688312D01*
X49544274Y120546191D01*
X49655107Y120393641D01*
X49908062Y120286080D01*
X50368983Y120213077D01*
X50642796Y120237207D01*
X50795345Y120348041D01*
X50882049Y120469303D01*
X50923765Y120732687D01*
X50878777Y120874808D01*
X50767943Y121027357D01*
X50514989Y121134919D01*
X50054068Y121207922D01*
X49780255Y121183792D01*
X49627705Y121072958D01*
X49541001Y120951695D01*
D10*
X13195504Y24576419D02*
X13195504Y25576419D01*
X12862171Y24862133D01*
X12528838Y25576419D01*
X12528838Y24576419D01*
X11624076Y24576419D02*
X11624076Y25100228D01*
X11671695Y25195466D01*
X11766933Y25243085D01*
X11957409Y25243085D01*
X12052647Y25195466D01*
X11624076Y24624038D02*
X11719314Y24576419D01*
X11957409Y24576419D01*
X12052647Y24624038D01*
X12100266Y24719276D01*
X12100266Y24814514D01*
X12052647Y24909752D01*
X11957409Y24957371D01*
X11719314Y24957371D01*
X11624076Y25004990D01*
X11005028Y24576419D02*
X11100266Y24624038D01*
X11147885Y24719276D01*
X11147885Y25576419D01*
X10766933Y25243085D02*
X10385980Y25243085D01*
X10624076Y25576419D02*
X10624076Y24719276D01*
X10576457Y24624038D01*
X10481219Y24576419D01*
X10385980Y24576419D01*
X9671695Y24624038D02*
X9766933Y24576419D01*
X9957409Y24576419D01*
X10052647Y24624038D01*
X10100266Y24719276D01*
X10100266Y25100228D01*
X10052647Y25195466D01*
X9957409Y25243085D01*
X9766933Y25243085D01*
X9671695Y25195466D01*
X9624076Y25100228D01*
X9624076Y25004990D01*
X10100266Y24909752D01*
X8433600Y24576419D02*
X8433600Y25576419D01*
X8433600Y25100228D02*
X7862171Y25100228D01*
X7862171Y24576419D02*
X7862171Y25576419D01*
X7005028Y24624038D02*
X7100266Y24576419D01*
X7290742Y24576419D01*
X7385980Y24624038D01*
X7433600Y24719276D01*
X7433600Y25100228D01*
X7385980Y25195466D01*
X7290742Y25243085D01*
X7100266Y25243085D01*
X7005028Y25195466D01*
X6957409Y25100228D01*
X6957409Y25004990D01*
X7433600Y24909752D01*
X6528838Y24576419D02*
X6528838Y25243085D01*
X6528838Y25576419D02*
X6576457Y25528800D01*
X6528838Y25481180D01*
X6481219Y25528800D01*
X6528838Y25576419D01*
X6528838Y25481180D01*
X6052647Y25243085D02*
X6052647Y24576419D01*
X6052647Y25147847D02*
X6005028Y25195466D01*
X5909790Y25243085D01*
X5766933Y25243085D01*
X5671695Y25195466D01*
X5624076Y25100228D01*
X5624076Y24576419D01*
X5243123Y25243085D02*
X4719314Y25243085D01*
X5243123Y24576419D01*
X4719314Y24576419D01*
X3957409Y24624038D02*
X4052647Y24576419D01*
X4243123Y24576419D01*
X4338361Y24624038D01*
X4385980Y24719276D01*
X4385980Y25100228D01*
X4338361Y25195466D01*
X4243123Y25243085D01*
X4052647Y25243085D01*
X3957409Y25195466D01*
X3909790Y25100228D01*
X3909790Y25004990D01*
X4385980Y24909752D01*
X3338361Y24576419D02*
X3433600Y24624038D01*
X3481219Y24719276D01*
X3481219Y25576419D01*
X2957409Y24576419D02*
X2957409Y25243085D01*
X2957409Y25147847D02*
X2909790Y25195466D01*
X2814552Y25243085D01*
X2671695Y25243085D01*
X2576457Y25195466D01*
X2528838Y25100228D01*
X2528838Y24576419D01*
X2528838Y25100228D02*
X2481219Y25195466D01*
X2385980Y25243085D01*
X2243123Y25243085D01*
X2147885Y25195466D01*
X2100266Y25100228D01*
X2100266Y24576419D01*
X1195504Y24576419D02*
X1195504Y25100228D01*
X1243123Y25195466D01*
X1338361Y25243085D01*
X1528838Y25243085D01*
X1624076Y25195466D01*
X1195504Y24624038D02*
X1290742Y24576419D01*
X1528838Y24576419D01*
X1624076Y24624038D01*
X1671695Y24719276D01*
X1671695Y24814514D01*
X1624076Y24909752D01*
X1528838Y24957371D01*
X1290742Y24957371D01*
X1195504Y25004990D01*
X719314Y25243085D02*
X719314Y24576419D01*
X719314Y25147847D02*
X671695Y25195466D01*
X576457Y25243085D01*
X433600Y25243085D01*
X338361Y25195466D01*
X290742Y25100228D01*
X290742Y24576419D01*
X-185447Y25243085D02*
X-185447Y24576419D01*
X-185447Y25147847D02*
X-233066Y25195466D01*
X-328304Y25243085D01*
X-471161Y25243085D01*
X-566399Y25195466D01*
X-614019Y25100228D01*
X-614019Y24576419D01*
X12576457Y23442609D02*
X12624076Y23490228D01*
X12719314Y23537847D01*
X12814552Y23537847D01*
X12909790Y23490228D01*
X12957409Y23442609D01*
X13005028Y23347371D01*
X13005028Y23252133D01*
X12957409Y23156895D01*
X12909790Y23109276D01*
X12814552Y23061657D01*
X12719314Y23061657D01*
X12624076Y23109276D01*
X12576457Y23156895D01*
X12576457Y23537847D02*
X12576457Y23156895D01*
X12528838Y23109276D01*
X12481219Y23109276D01*
X12385980Y23156895D01*
X12338361Y23252133D01*
X12338361Y23490228D01*
X12433600Y23633085D01*
X12576457Y23728323D01*
X12766933Y23775942D01*
X12957409Y23728323D01*
X13100266Y23633085D01*
X13195504Y23490228D01*
X13243123Y23299752D01*
X13195504Y23109276D01*
X13100266Y22966419D01*
X12957409Y22871180D01*
X12766933Y22823561D01*
X12576457Y22871180D01*
X12433600Y22966419D01*
X11909790Y22966419D02*
X11909790Y23966419D01*
X11481219Y22966419D02*
X11481219Y23490228D01*
X11528838Y23585466D01*
X11624076Y23633085D01*
X11766933Y23633085D01*
X11862171Y23585466D01*
X11909790Y23537847D01*
X11005028Y23633085D02*
X11005028Y22966419D01*
X11005028Y23537847D02*
X10957409Y23585466D01*
X10862171Y23633085D01*
X10719314Y23633085D01*
X10624076Y23585466D01*
X10576457Y23490228D01*
X10576457Y22966419D01*
X10195504Y23633085D02*
X9671695Y23633085D01*
X10195504Y22966419D01*
X9671695Y22966419D01*
X9147885Y22966419D02*
X9243123Y23014038D01*
X9290742Y23109276D01*
X9290742Y23966419D01*
X8766933Y22966419D02*
X8766933Y23633085D01*
X8766933Y23537847D02*
X8719314Y23585466D01*
X8624076Y23633085D01*
X8481219Y23633085D01*
X8385980Y23585466D01*
X8338361Y23490228D01*
X8338361Y22966419D01*
X8338361Y23490228D02*
X8290742Y23585466D01*
X8195504Y23633085D01*
X8052647Y23633085D01*
X7957409Y23585466D01*
X7909790Y23490228D01*
X7909790Y22966419D01*
X7433600Y23633085D02*
X7433600Y22966419D01*
X7433600Y23537847D02*
X7385980Y23585466D01*
X7290742Y23633085D01*
X7147885Y23633085D01*
X7052647Y23585466D01*
X7005028Y23490228D01*
X7005028Y22966419D01*
X6528838Y23633085D02*
X6528838Y22966419D01*
X6528838Y23537847D02*
X6481219Y23585466D01*
X6385980Y23633085D01*
X6243123Y23633085D01*
X6147885Y23585466D01*
X6100266Y23490228D01*
X6100266Y22966419D01*
X13195504Y21356419D02*
X13195504Y22356419D01*
X12766933Y21356419D02*
X12766933Y21880228D01*
X12814552Y21975466D01*
X12909790Y22023085D01*
X13052647Y22023085D01*
X13147885Y21975466D01*
X13195504Y21927847D01*
X12433600Y22023085D02*
X12052647Y22023085D01*
X12290742Y22356419D02*
X12290742Y21499276D01*
X12243123Y21404038D01*
X12147885Y21356419D01*
X12052647Y21356419D01*
X11862171Y22023085D02*
X11481219Y22023085D01*
X11719314Y22356419D02*
X11719314Y21499276D01*
X11671695Y21404038D01*
X11576457Y21356419D01*
X11481219Y21356419D01*
X11147885Y22023085D02*
X11147885Y21023085D01*
X11147885Y21975466D02*
X11052647Y22023085D01*
X10862171Y22023085D01*
X10766933Y21975466D01*
X10719314Y21927847D01*
X10671695Y21832609D01*
X10671695Y21546895D01*
X10719314Y21451657D01*
X10766933Y21404038D01*
X10862171Y21356419D01*
X11052647Y21356419D01*
X11147885Y21404038D01*
X10290742Y21404038D02*
X10195504Y21356419D01*
X10005028Y21356419D01*
X9909790Y21404038D01*
X9862171Y21499276D01*
X9862171Y21546895D01*
X9909790Y21642133D01*
X10005028Y21689752D01*
X10147885Y21689752D01*
X10243123Y21737371D01*
X10290742Y21832609D01*
X10290742Y21880228D01*
X10243123Y21975466D01*
X10147885Y22023085D01*
X10005028Y22023085D01*
X9909790Y21975466D01*
X9433600Y21451657D02*
X9385980Y21404038D01*
X9433600Y21356419D01*
X9481219Y21404038D01*
X9433600Y21451657D01*
X9433600Y21356419D01*
X9433600Y21975466D02*
X9385980Y21927847D01*
X9433600Y21880228D01*
X9481219Y21927847D01*
X9433600Y21975466D01*
X9433600Y21880228D01*
X8243123Y22404038D02*
X9100266Y21118323D01*
X7195504Y22404038D02*
X8052647Y21118323D01*
X6433600Y21404038D02*
X6528838Y21356419D01*
X6719314Y21356419D01*
X6814552Y21404038D01*
X6862171Y21451657D01*
X6909790Y21546895D01*
X6909790Y21832609D01*
X6862171Y21927847D01*
X6814552Y21975466D01*
X6719314Y22023085D01*
X6528838Y22023085D01*
X6433600Y21975466D01*
X6100266Y22023085D02*
X5862171Y21356419D01*
X5624076Y22023085D02*
X5862171Y21356419D01*
X5957409Y21118323D01*
X6005028Y21070704D01*
X6100266Y21023085D01*
X5243123Y21356419D02*
X5243123Y22356419D01*
X5243123Y21975466D02*
X5147885Y22023085D01*
X4957409Y22023085D01*
X4862171Y21975466D01*
X4814552Y21927847D01*
X4766933Y21832609D01*
X4766933Y21546895D01*
X4814552Y21451657D01*
X4862171Y21404038D01*
X4957409Y21356419D01*
X5147885Y21356419D01*
X5243123Y21404038D01*
X3909790Y21356419D02*
X3909790Y21880228D01*
X3957409Y21975466D01*
X4052647Y22023085D01*
X4243123Y22023085D01*
X4338361Y21975466D01*
X3909790Y21404038D02*
X4005028Y21356419D01*
X4243123Y21356419D01*
X4338361Y21404038D01*
X4385980Y21499276D01*
X4385980Y21594514D01*
X4338361Y21689752D01*
X4243123Y21737371D01*
X4005028Y21737371D01*
X3909790Y21784990D01*
X3052647Y21404038D02*
X3147885Y21356419D01*
X3338361Y21356419D01*
X3433600Y21404038D01*
X3481219Y21499276D01*
X3481219Y21880228D01*
X3433600Y21975466D01*
X3338361Y22023085D01*
X3147885Y22023085D01*
X3052647Y21975466D01*
X3005028Y21880228D01*
X3005028Y21784990D01*
X3481219Y21689752D01*
X2576457Y21356419D02*
X2576457Y22023085D01*
X2576457Y21832609D02*
X2528838Y21927847D01*
X2481219Y21975466D01*
X2385980Y22023085D01*
X2290742Y22023085D01*
X1957409Y21451657D02*
X1909790Y21404038D01*
X1957409Y21356419D01*
X2005028Y21404038D01*
X1957409Y21451657D01*
X1957409Y21356419D01*
X1481219Y22023085D02*
X1481219Y21356419D01*
X1481219Y21927847D02*
X1433600Y21975466D01*
X1338361Y22023085D01*
X1195504Y22023085D01*
X1100266Y21975466D01*
X1052647Y21880228D01*
X1052647Y21356419D01*
X576457Y21356419D02*
X576457Y22023085D01*
X576457Y22356419D02*
X624076Y22308800D01*
X576457Y22261180D01*
X528838Y22308800D01*
X576457Y22356419D01*
X576457Y22261180D01*
X100266Y22023085D02*
X100266Y21356419D01*
X100266Y21927847D02*
X52647Y21975466D01*
X-42590Y22023085D01*
X-185447Y22023085D01*
X-280685Y21975466D01*
X-328304Y21880228D01*
X-328304Y21356419D01*
X-804495Y22023085D02*
X-804495Y21165942D01*
X-756876Y21070704D01*
X-661638Y21023085D01*
X-614019Y21023085D01*
X-804495Y22356419D02*
X-756876Y22308800D01*
X-804495Y22261180D01*
X-852114Y22308800D01*
X-804495Y22356419D01*
X-804495Y22261180D01*
X-1709257Y21356419D02*
X-1709257Y21880228D01*
X-1661638Y21975466D01*
X-1566399Y22023085D01*
X-1375923Y22023085D01*
X-1280685Y21975466D01*
X-1709257Y21404038D02*
X-1614019Y21356419D01*
X-1375923Y21356419D01*
X-1280685Y21404038D01*
X-1233066Y21499276D01*
X-1233066Y21594514D01*
X-1280685Y21689752D01*
X-1375923Y21737371D01*
X-1614019Y21737371D01*
X-1709257Y21784990D01*
D11*
X39410283Y130871926D02*
X40516751Y130626628D01*
X40632495Y130532683D01*
X40683152Y130453167D01*
X40719380Y130308565D01*
X40661662Y130048219D01*
X40567717Y129932476D01*
X40488202Y129881819D01*
X40343600Y129845591D01*
X39237131Y130090889D01*
X40408995Y129216526D02*
X40430794Y129006837D01*
X40358647Y128681405D01*
X40264702Y128565662D01*
X40185186Y128515004D01*
X40040584Y128478777D01*
X39910411Y128507635D01*
X39794668Y128601580D01*
X39744011Y128681096D01*
X39707783Y128825698D01*
X39700414Y129100473D01*
X39664186Y129245075D01*
X39613529Y129324591D01*
X39497785Y129418536D01*
X39367613Y129447395D01*
X39223011Y129411167D01*
X39143495Y129360510D01*
X39049550Y129244766D01*
X38977403Y128919334D01*
X38999202Y128709646D01*
X39354110Y127538399D02*
X39375909Y127328711D01*
X39426566Y127249195D01*
X39542310Y127155250D01*
X39737569Y127111962D01*
X39882171Y127148190D01*
X39961687Y127198847D01*
X40055632Y127314591D01*
X40171066Y127835282D01*
X38804252Y128138297D01*
X38703246Y127682693D01*
X38739474Y127538090D01*
X38790131Y127458575D01*
X38905875Y127364630D01*
X39036048Y127335771D01*
X39180650Y127371999D01*
X39260165Y127422656D01*
X39354110Y127538399D01*
X39455116Y127994004D01*
X-17521428Y135107142D02*
X-17735714Y135035714D01*
X-17807142Y134964285D01*
X-17878571Y134821428D01*
X-17878571Y134607142D01*
X-17807142Y134464285D01*
X-17735714Y134392857D01*
X-17592857Y134321428D01*
X-17021428Y134321428D01*
X-17021428Y135821428D01*
X-17521428Y135821428D01*
X-17664285Y135750000D01*
X-17735714Y135678571D01*
X-17807142Y135535714D01*
X-17807142Y135392857D01*
X-17735714Y135250000D01*
X-17664285Y135178571D01*
X-17521428Y135107142D01*
X-17021428Y135107142D01*
X-18735714Y134321428D02*
X-18592857Y134392857D01*
X-18521428Y134464285D01*
X-18450000Y134607142D01*
X-18450000Y135035714D01*
X-18521428Y135178571D01*
X-18592857Y135250000D01*
X-18735714Y135321428D01*
X-18950000Y135321428D01*
X-19092857Y135250000D01*
X-19164285Y135178571D01*
X-19235714Y135035714D01*
X-19235714Y134607142D01*
X-19164285Y134464285D01*
X-19092857Y134392857D01*
X-18950000Y134321428D01*
X-18735714Y134321428D01*
X-20092857Y134321428D02*
X-19950000Y134392857D01*
X-19878571Y134464285D01*
X-19807142Y134607142D01*
X-19807142Y135035714D01*
X-19878571Y135178571D01*
X-19950000Y135250000D01*
X-20092857Y135321428D01*
X-20307142Y135321428D01*
X-20450000Y135250000D01*
X-20521428Y135178571D01*
X-20592857Y135035714D01*
X-20592857Y134607142D01*
X-20521428Y134464285D01*
X-20450000Y134392857D01*
X-20307142Y134321428D01*
X-20092857Y134321428D01*
X-21021428Y135321428D02*
X-21592857Y135321428D01*
X-21235714Y135821428D02*
X-21235714Y134535714D01*
X-21307142Y134392857D01*
X-21450000Y134321428D01*
X-21592857Y134321428D01*
X24857142Y134221428D02*
X25357142Y134935714D01*
X25714285Y134221428D02*
X25714285Y135721428D01*
X25142857Y135721428D01*
X25000000Y135650000D01*
X24928571Y135578571D01*
X24857142Y135435714D01*
X24857142Y135221428D01*
X24928571Y135078571D01*
X25000000Y135007142D01*
X25142857Y134935714D01*
X25714285Y134935714D01*
X23642857Y134292857D02*
X23785714Y134221428D01*
X24071428Y134221428D01*
X24214285Y134292857D01*
X24285714Y134435714D01*
X24285714Y135007142D01*
X24214285Y135150000D01*
X24071428Y135221428D01*
X23785714Y135221428D01*
X23642857Y135150000D01*
X23571428Y135007142D01*
X23571428Y134864285D01*
X24285714Y134721428D01*
X23000000Y134292857D02*
X22857142Y134221428D01*
X22571428Y134221428D01*
X22428571Y134292857D01*
X22357142Y134435714D01*
X22357142Y134507142D01*
X22428571Y134650000D01*
X22571428Y134721428D01*
X22785714Y134721428D01*
X22928571Y134792857D01*
X23000000Y134935714D01*
X23000000Y135007142D01*
X22928571Y135150000D01*
X22785714Y135221428D01*
X22571428Y135221428D01*
X22428571Y135150000D01*
X21142857Y134292857D02*
X21285714Y134221428D01*
X21571428Y134221428D01*
X21714285Y134292857D01*
X21785714Y134435714D01*
X21785714Y135007142D01*
X21714285Y135150000D01*
X21571428Y135221428D01*
X21285714Y135221428D01*
X21142857Y135150000D01*
X21071428Y135007142D01*
X21071428Y134864285D01*
X21785714Y134721428D01*
X20642857Y135221428D02*
X20071428Y135221428D01*
X20428571Y135721428D02*
X20428571Y134435714D01*
X20357142Y134292857D01*
X20214285Y134221428D01*
X20071428Y134221428D01*
X3107142Y69550742D02*
X2892857Y69479314D01*
X2821428Y69407885D01*
X2750000Y69265028D01*
X2750000Y69050742D01*
X2821428Y68907885D01*
X2892857Y68836457D01*
X3035714Y68765028D01*
X3607142Y68765028D01*
X3607142Y70265028D01*
X3107142Y70265028D01*
X2964285Y70193600D01*
X2892857Y70122171D01*
X2821428Y69979314D01*
X2821428Y69836457D01*
X2892857Y69693600D01*
X2964285Y69622171D01*
X3107142Y69550742D01*
X3607142Y69550742D01*
X1464285Y68765028D02*
X1464285Y69550742D01*
X1535714Y69693600D01*
X1678571Y69765028D01*
X1964285Y69765028D01*
X2107142Y69693600D01*
X1464285Y68836457D02*
X1607142Y68765028D01*
X1964285Y68765028D01*
X2107142Y68836457D01*
X2178571Y68979314D01*
X2178571Y69122171D01*
X2107142Y69265028D01*
X1964285Y69336457D01*
X1607142Y69336457D01*
X1464285Y69407885D01*
X964285Y69765028D02*
X392857Y69765028D01*
X749999Y70265028D02*
X749999Y68979314D01*
X678571Y68836457D01*
X535714Y68765028D01*
X392857Y68765028D01*
X107142Y69765028D02*
X-464285Y69765028D01*
X-107142Y70265028D02*
X-107142Y68979314D01*
X-178571Y68836457D01*
X-321428Y68765028D01*
X-464285Y68765028D01*
X-1535714Y68836457D02*
X-1392857Y68765028D01*
X-1107142Y68765028D01*
X-964285Y68836457D01*
X-892857Y68979314D01*
X-892857Y69550742D01*
X-964285Y69693600D01*
X-1107142Y69765028D01*
X-1392857Y69765028D01*
X-1535714Y69693600D01*
X-1607142Y69550742D01*
X-1607142Y69407885D01*
X-892857Y69265028D01*
X-2250000Y68765028D02*
X-2250000Y69765028D01*
X-2250000Y69479314D02*
X-2321428Y69622171D01*
X-2392857Y69693600D01*
X-2535714Y69765028D01*
X-2678571Y69765028D01*
X-3035714Y69765028D02*
X-3392857Y68765028D01*
X-3750000Y69765028D02*
X-3392857Y68765028D01*
X-3250000Y68407885D01*
X-3178571Y68336457D01*
X-3035714Y68265028D01*
X41000000Y44900000D02*
X41000000Y94900000D01*
X-41000000Y44900000D02*
X41000000Y44900000D01*
X-41000000Y94900000D02*
X-41000000Y44900000D01*
X41000000Y94900000D02*
X-41000000Y94900000D01*
D12*
X-23447714Y42072038D02*
X-23447714Y43405371D01*
X-23447714Y43024419D02*
X-23542952Y43214895D01*
X-23638190Y43310133D01*
X-23828666Y43405371D01*
X-24019142Y43405371D01*
X-25447714Y42167276D02*
X-25257238Y42072038D01*
X-24876285Y42072038D01*
X-24685809Y42167276D01*
X-24590571Y42357752D01*
X-24590571Y43119657D01*
X-24685809Y43310133D01*
X-24876285Y43405371D01*
X-25257238Y43405371D01*
X-25447714Y43310133D01*
X-25542952Y43119657D01*
X-25542952Y42929180D01*
X-24590571Y42738704D01*
X-26209619Y43405371D02*
X-26685809Y42072038D01*
X-27162000Y43405371D01*
X-28971523Y42072038D02*
X-27828666Y42072038D01*
X-28400095Y42072038D02*
X-28400095Y44072038D01*
X-28209619Y43786323D01*
X-28019142Y43595847D01*
X-27828666Y43500609D01*
D11*
X-40802300Y123795092D02*
X-39438181Y124110024D01*
X-40982260Y124574588D01*
X-39618142Y124889520D01*
X-41177218Y125419042D02*
X-41082267Y125304123D01*
X-41002312Y125254162D01*
X-40857399Y125219197D01*
X-40467651Y125309178D01*
X-40352732Y125404129D01*
X-40302770Y125484084D01*
X-40267806Y125628997D01*
X-40312796Y125823871D01*
X-40407748Y125938790D01*
X-40487702Y125988751D01*
X-40632615Y126023716D01*
X-41022363Y125933735D01*
X-41137282Y125838784D01*
X-41187244Y125758829D01*
X-41222208Y125613916D01*
X-41177218Y125419042D01*
X-40462764Y126473451D02*
X-40582737Y126993115D01*
X-40053048Y126773302D02*
X-41222292Y126503361D01*
X-41367205Y126538325D01*
X-41462156Y126653244D01*
X-41492149Y126783160D01*
X-40472956Y128592126D02*
X-41577242Y128337181D01*
X-41722155Y128372146D01*
X-41802110Y128422107D01*
X-41897061Y128537027D01*
X-41957048Y128796859D01*
X-41922084Y128941771D01*
X-41872123Y129021726D01*
X-41757203Y129116678D01*
X-40652917Y129371622D01*
X-42087048Y129656309D02*
X-42196996Y129836187D01*
X-42271980Y130160977D01*
X-42237015Y130305889D01*
X-42187054Y130385844D01*
X-42072135Y130480796D01*
X-41942219Y130510789D01*
X-41797306Y130475825D01*
X-41717351Y130425863D01*
X-41622400Y130310944D01*
X-41497455Y130066109D01*
X-41402503Y129951189D01*
X-41322549Y129901228D01*
X-41177636Y129866264D01*
X-41047720Y129896257D01*
X-40932801Y129991209D01*
X-40882839Y130071163D01*
X-40847875Y130216076D01*
X-40922858Y130540866D01*
X-41032807Y130720743D01*
X-41857377Y131625101D02*
X-41967325Y131804978D01*
X-42047279Y131854939D01*
X-42192192Y131889904D01*
X-42387066Y131844914D01*
X-42501985Y131749962D01*
X-42551947Y131670007D01*
X-42586911Y131525095D01*
X-42466937Y131005431D01*
X-41102819Y131320362D01*
X-41207796Y131775068D01*
X-41302748Y131889987D01*
X-41382703Y131939949D01*
X-41527615Y131974913D01*
X-41657531Y131944920D01*
X-41772451Y131849968D01*
X-41822412Y131770014D01*
X-41857377Y131625101D01*
X-41752399Y131170395D01*
D10*
X54825835Y102167805D02*
X54810559Y102357667D01*
X54755455Y102448780D01*
X54652886Y102536073D01*
X54459204Y102568263D01*
X54126944Y102541530D01*
X53940901Y102478788D01*
X53853607Y102376219D01*
X53813780Y102277468D01*
X53829056Y102087606D01*
X53884159Y101996493D01*
X53986729Y101909200D01*
X54180410Y101877010D01*
X54512670Y101903743D01*
X54698714Y101966485D01*
X54786007Y102069054D01*
X54825835Y102167805D01*
X54255703Y103316256D02*
X54282436Y102983997D01*
X53760314Y102941988D02*
X54757093Y103022187D01*
X54718903Y103496843D01*
X54186961Y104170638D02*
X54213694Y103838379D01*
X53691572Y103796370D02*
X54688351Y103876569D01*
X54650161Y104351225D01*
X54595902Y108392864D02*
X54580626Y108582727D01*
X54525522Y108673839D01*
X54422953Y108761133D01*
X54229271Y108793322D01*
X53897011Y108766589D01*
X53710968Y108703848D01*
X53623674Y108601278D01*
X53583847Y108502528D01*
X53599123Y108312665D01*
X53654226Y108221553D01*
X53756796Y108134260D01*
X53950477Y108102070D01*
X54282737Y108128803D01*
X54468781Y108191545D01*
X54556074Y108294114D01*
X54595902Y108392864D01*
X53530381Y109167047D02*
X54527160Y109247246D01*
X53484553Y109736635D01*
X54481332Y109816834D01*
D11*
X-37879840Y110938504D02*
X-37827491Y112437590D01*
X-38364579Y111384264D01*
X-38826882Y112472490D01*
X-38879231Y110973404D01*
X-39593082Y110998332D02*
X-39558182Y111997723D01*
X-39540733Y112497418D02*
X-39471840Y112423540D01*
X-39545718Y112354648D01*
X-39614610Y112428526D01*
X-39540733Y112497418D01*
X-39545718Y112354648D01*
X-40946905Y111117081D02*
X-40806628Y111040710D01*
X-40521088Y111030739D01*
X-40375825Y111097138D01*
X-40301947Y111166030D01*
X-40225576Y111306308D01*
X-40210619Y111734618D01*
X-40277019Y111879881D01*
X-40345911Y111953759D01*
X-40486188Y112030129D01*
X-40771728Y112040101D01*
X-40916991Y111973701D01*
X-41591863Y111068131D02*
X-41556964Y112067522D01*
X-41566935Y111781982D02*
X-41633335Y111927244D01*
X-41702227Y112001122D01*
X-41842504Y112077493D01*
X-41985274Y112082479D01*
X-42734024Y111108016D02*
X-42588761Y111174415D01*
X-42514884Y111243308D01*
X-42438513Y111383585D01*
X-42423556Y111811895D01*
X-42489955Y111957158D01*
X-42558848Y112031036D01*
X-42699125Y112107407D01*
X-42913280Y112114885D01*
X-43058543Y112048486D01*
X-43132421Y111979594D01*
X-43208792Y111839316D01*
X-43223749Y111411006D01*
X-43157349Y111265743D01*
X-43088457Y111191865D01*
X-42948180Y111115495D01*
X-42734024Y111108016D01*
X-43802307Y111216793D02*
X-44018955Y111152887D01*
X-44375881Y111165351D01*
X-44516158Y111241722D01*
X-44585050Y111315600D01*
X-44651450Y111460862D01*
X-44646464Y111603633D01*
X-44570093Y111743910D01*
X-44496216Y111812802D01*
X-44350953Y111879202D01*
X-44062920Y111940615D01*
X-43917657Y112007015D01*
X-43843779Y112075907D01*
X-43767408Y112216184D01*
X-43762422Y112358954D01*
X-43828822Y112504217D01*
X-43897714Y112578095D01*
X-44037991Y112654466D01*
X-44394917Y112666930D01*
X-44611565Y112603023D01*
X-45303887Y111197758D02*
X-45251537Y112696844D01*
X-45608463Y112709308D01*
X-45825111Y112645401D01*
X-45972866Y112507617D01*
X-46049237Y112367340D01*
X-46130593Y112084292D01*
X-46138072Y111870137D01*
X-46076658Y111582104D01*
X-46010259Y111436841D01*
X-45872474Y111289085D01*
X-45660812Y111210222D01*
X-45303887Y111197758D01*
X23064285Y100621428D02*
X23064285Y102121428D01*
X22492857Y102121428D01*
X22350000Y102050000D01*
X22278571Y101978571D01*
X22207142Y101835714D01*
X22207142Y101621428D01*
X22278571Y101478571D01*
X22350000Y101407142D01*
X22492857Y101335714D01*
X23064285Y101335714D01*
X21350000Y100621428D02*
X21492857Y100692857D01*
X21564285Y100764285D01*
X21635714Y100907142D01*
X21635714Y101335714D01*
X21564285Y101478571D01*
X21492857Y101550000D01*
X21350000Y101621428D01*
X21135714Y101621428D01*
X20992857Y101550000D01*
X20921428Y101478571D01*
X20850000Y101335714D01*
X20850000Y100907142D01*
X20921428Y100764285D01*
X20992857Y100692857D01*
X21135714Y100621428D01*
X21350000Y100621428D01*
X20350000Y101621428D02*
X20064285Y100621428D01*
X19778571Y101335714D01*
X19492857Y100621428D01*
X19207142Y101621428D01*
X18064285Y100692857D02*
X18207142Y100621428D01*
X18492857Y100621428D01*
X18635714Y100692857D01*
X18707142Y100835714D01*
X18707142Y101407142D01*
X18635714Y101550000D01*
X18492857Y101621428D01*
X18207142Y101621428D01*
X18064285Y101550000D01*
X17992857Y101407142D01*
X17992857Y101264285D01*
X18707142Y101121428D01*
X17350000Y100621428D02*
X17350000Y101621428D01*
X17350000Y101335714D02*
X17278571Y101478571D01*
X17207142Y101550000D01*
X17064285Y101621428D01*
X16921428Y101621428D01*
X22257142Y95964285D02*
X22328571Y95892857D01*
X22542857Y95821428D01*
X22685714Y95821428D01*
X22900000Y95892857D01*
X23042857Y96035714D01*
X23114285Y96178571D01*
X23185714Y96464285D01*
X23185714Y96678571D01*
X23114285Y96964285D01*
X23042857Y97107142D01*
X22900000Y97250000D01*
X22685714Y97321428D01*
X22542857Y97321428D01*
X22328571Y97250000D01*
X22257142Y97178571D01*
X21614285Y95821428D02*
X21614285Y97321428D01*
X20971428Y95821428D02*
X20971428Y96607142D01*
X21042857Y96750000D01*
X21185714Y96821428D01*
X21400000Y96821428D01*
X21542857Y96750000D01*
X21614285Y96678571D01*
X19614285Y95821428D02*
X19614285Y96607142D01*
X19685714Y96750000D01*
X19828571Y96821428D01*
X20114285Y96821428D01*
X20257142Y96750000D01*
X19614285Y95892857D02*
X19757142Y95821428D01*
X20114285Y95821428D01*
X20257142Y95892857D01*
X20328571Y96035714D01*
X20328571Y96178571D01*
X20257142Y96321428D01*
X20114285Y96392857D01*
X19757142Y96392857D01*
X19614285Y96464285D01*
X18900000Y95821428D02*
X18900000Y96821428D01*
X18900000Y96535714D02*
X18828571Y96678571D01*
X18757142Y96750000D01*
X18614285Y96821428D01*
X18471428Y96821428D01*
X17328571Y96821428D02*
X17328571Y95607142D01*
X17400000Y95464285D01*
X17471428Y95392857D01*
X17614285Y95321428D01*
X17828571Y95321428D01*
X17971428Y95392857D01*
X17328571Y95892857D02*
X17471428Y95821428D01*
X17757142Y95821428D01*
X17900000Y95892857D01*
X17971428Y95964285D01*
X18042857Y96107142D01*
X18042857Y96535714D01*
X17971428Y96678571D01*
X17900000Y96750000D01*
X17757142Y96821428D01*
X17471428Y96821428D01*
X17328571Y96750000D01*
X16042857Y95892857D02*
X16185714Y95821428D01*
X16471428Y95821428D01*
X16614285Y95892857D01*
X16685714Y96035714D01*
X16685714Y96607142D01*
X16614285Y96750000D01*
X16471428Y96821428D01*
X16185714Y96821428D01*
X16042857Y96750000D01*
X15971428Y96607142D01*
X15971428Y96464285D01*
X16685714Y96321428D01*
X14685714Y95821428D02*
X14685714Y97321428D01*
X14685714Y95892857D02*
X14828571Y95821428D01*
X15114285Y95821428D01*
X15257142Y95892857D01*
X15328571Y95964285D01*
X15400000Y96107142D01*
X15400000Y96535714D01*
X15328571Y96678571D01*
X15257142Y96750000D01*
X15114285Y96821428D01*
X14828571Y96821428D01*
X14685714Y96750000D01*
X22250000Y98464285D02*
X22321428Y98392857D01*
X22535714Y98321428D01*
X22678571Y98321428D01*
X22892857Y98392857D01*
X23035714Y98535714D01*
X23107142Y98678571D01*
X23178571Y98964285D01*
X23178571Y99178571D01*
X23107142Y99464285D01*
X23035714Y99607142D01*
X22892857Y99750000D01*
X22678571Y99821428D01*
X22535714Y99821428D01*
X22321428Y99750000D01*
X22250000Y99678571D01*
X21607142Y98321428D02*
X21607142Y99821428D01*
X20964285Y98321428D02*
X20964285Y99107142D01*
X21035714Y99250000D01*
X21178571Y99321428D01*
X21392857Y99321428D01*
X21535714Y99250000D01*
X21607142Y99178571D01*
X19607142Y98321428D02*
X19607142Y99107142D01*
X19678571Y99250000D01*
X19821428Y99321428D01*
X20107142Y99321428D01*
X20250000Y99250000D01*
X19607142Y98392857D02*
X19750000Y98321428D01*
X20107142Y98321428D01*
X20250000Y98392857D01*
X20321428Y98535714D01*
X20321428Y98678571D01*
X20250000Y98821428D01*
X20107142Y98892857D01*
X19750000Y98892857D01*
X19607142Y98964285D01*
X18892857Y98321428D02*
X18892857Y99321428D01*
X18892857Y99035714D02*
X18821428Y99178571D01*
X18750000Y99250000D01*
X18607142Y99321428D01*
X18464285Y99321428D01*
X17321428Y99321428D02*
X17321428Y98107142D01*
X17392857Y97964285D01*
X17464285Y97892857D01*
X17607142Y97821428D01*
X17821428Y97821428D01*
X17964285Y97892857D01*
X17321428Y98392857D02*
X17464285Y98321428D01*
X17750000Y98321428D01*
X17892857Y98392857D01*
X17964285Y98464285D01*
X18035714Y98607142D01*
X18035714Y99035714D01*
X17964285Y99178571D01*
X17892857Y99250000D01*
X17750000Y99321428D01*
X17464285Y99321428D01*
X17321428Y99250000D01*
X16607142Y98321428D02*
X16607142Y99321428D01*
X16607142Y99821428D02*
X16678571Y99750000D01*
X16607142Y99678571D01*
X16535714Y99750000D01*
X16607142Y99821428D01*
X16607142Y99678571D01*
X15892857Y99321428D02*
X15892857Y98321428D01*
X15892857Y99178571D02*
X15821428Y99250000D01*
X15678571Y99321428D01*
X15464285Y99321428D01*
X15321428Y99250000D01*
X15250000Y99107142D01*
X15250000Y98321428D01*
X13892857Y99321428D02*
X13892857Y98107142D01*
X13964285Y97964285D01*
X14035714Y97892857D01*
X14178571Y97821428D01*
X14392857Y97821428D01*
X14535714Y97892857D01*
X13892857Y98392857D02*
X14035714Y98321428D01*
X14321428Y98321428D01*
X14464285Y98392857D01*
X14535714Y98464285D01*
X14607142Y98607142D01*
X14607142Y99035714D01*
X14535714Y99178571D01*
X14464285Y99250000D01*
X14321428Y99321428D01*
X14035714Y99321428D01*
X13892857Y99250000D01*
D13*
X28351694Y123599332D02*
X28454503Y124063072D01*
X31661097Y119029728D02*
X31197356Y119132537D01*
X31763906Y119493468D02*
X31661097Y119029728D01*
X32574472Y123149697D02*
X32110732Y123252506D01*
X32471663Y122685956D02*
X32574472Y123149697D01*
X27541128Y119943103D02*
X28004868Y119840294D01*
X27643937Y120406844D02*
X27541128Y119943103D01*
X33657800Y118121400D02*
X33657800Y118521400D01*
X34057800Y118321400D02*
X33657800Y118121400D01*
X33657800Y118521400D02*
X34057800Y118321400D01*
X36247800Y103746400D02*
X36847800Y103746400D01*
X36247800Y103856400D02*
X36247800Y103746400D01*
X36247800Y121396400D02*
X36847800Y121396400D01*
X36247800Y121286400D02*
X36247800Y121396400D01*
X22082800Y112221400D02*
X18232800Y112221400D01*
X22082800Y110221400D02*
X18232800Y110221400D01*
X22082800Y112221400D02*
X22082800Y110221400D01*
D14*
X19066200Y127400000D02*
X18566200Y127400000D01*
X18566200Y127400000D02*
X18566200Y127500000D01*
X18566200Y127500000D02*
X18266200Y127500000D01*
X18266200Y127500000D02*
X17066200Y127500000D01*
X21666200Y127400000D02*
X21166200Y127400000D01*
X21666200Y127400000D02*
X22166200Y127400000D01*
X21666200Y133600000D02*
X22166200Y133600000D01*
X21666200Y133600000D02*
X21166200Y133600000D01*
X24766200Y130500000D02*
X24766200Y131000000D01*
X24766200Y130500000D02*
X24766200Y130000000D01*
X18566200Y130500000D02*
X18566200Y131000000D01*
X18566200Y130500000D02*
X18566200Y130000000D01*
X-21700800Y127400000D02*
X-22200800Y127400000D01*
X-22200800Y127400000D02*
X-22200800Y127500000D01*
X-22200800Y127500000D02*
X-22500800Y127500000D01*
X-22500800Y127500000D02*
X-23700800Y127500000D01*
X-19100800Y127400000D02*
X-19600800Y127400000D01*
X-19100800Y127400000D02*
X-18600800Y127400000D01*
X-19100800Y133600000D02*
X-18600800Y133600000D01*
X-19100800Y133600000D02*
X-19600800Y133600000D01*
X-16000800Y130500000D02*
X-16000800Y131000000D01*
X-16000800Y130500000D02*
X-16000800Y130000000D01*
X-22200800Y130500000D02*
X-22200800Y131000000D01*
X-22200800Y130500000D02*
X-22200800Y130000000D01*
D12*
X-52790079Y115267110D02*
G75*
G03X-52790079Y115267110I-200000J0D01*
G01*
X49139255Y67039577D02*
G75*
G03X49139255Y67039577I-200001J0D01*
G01*
X-49014891Y68000839D02*
G75*
G03X-49014891Y68000839I-200000J0D01*
G01*
X-25813933Y24559305D02*
G75*
G03X-25813933Y24559305I-200000J0D01*
G01*
X25557874Y23804595D02*
G75*
G03X25557874Y23804595I-200000J0D01*
G01*
X53294609Y114272588D02*
G75*
G03X53294609Y114272588I-200001J0D01*
G01*
D13*
X39608000Y96910800D02*
X37608000Y96910800D01*
X37608000Y96910800D02*
X37608000Y100760800D01*
X39608000Y96910800D02*
X39608000Y100760800D01*
D11*
X-34588580Y118089816D02*
G75*
G03X-34588580Y118089816I-150000J0D01*
G01*
D15*
X-34667492Y119337793D02*
X-36031610Y119022862D01*
X-33108500Y119697716D02*
X-32231567Y119900171D01*
X-30672575Y120260093D02*
X-30282827Y120350074D01*
X-28626398Y120732490D02*
X-27846902Y120912452D01*
X-26190472Y121294867D02*
X-24923791Y121587304D01*
X-38074560Y124093251D02*
X-40009139Y132472834D01*
X-40009139Y132472834D02*
X-27244892Y135419693D01*
X-27244892Y135419693D02*
X-25310312Y127040110D01*
D14*
X2385800Y35292600D02*
X2385800Y35092600D01*
X1525800Y35292600D02*
X1525800Y35092600D01*
X2380800Y35292600D02*
X1530800Y35292600D01*
X2255800Y35517601D02*
X2505800Y35517600D01*
X2505800Y35217600D02*
X2505800Y35517600D01*
X2505800Y33967600D02*
X2255800Y33967600D01*
X2505800Y33967600D02*
X2505800Y34292600D01*
X1405800Y35217600D02*
X1405800Y35517600D01*
X1405800Y35517600D02*
X1655800Y35517600D01*
X1405800Y34267600D02*
X1405800Y33967600D01*
X1405800Y33967600D02*
X1630800Y33967600D01*
X2380800Y35192600D02*
X1530800Y35192600D01*
X2380800Y35092600D02*
X1530800Y35092600D01*
X3859000Y35292600D02*
X3859000Y35092600D01*
X2999000Y35292600D02*
X2999000Y35092600D01*
X3854000Y35292600D02*
X3004000Y35292600D01*
X3729000Y35517601D02*
X3979000Y35517600D01*
X3979000Y35217600D02*
X3979000Y35517600D01*
X3979000Y33967600D02*
X3729000Y33967600D01*
X3979000Y33967600D02*
X3979000Y34292600D01*
X2879000Y35217600D02*
X2879000Y35517600D01*
X2879000Y35517600D02*
X3129000Y35517600D01*
X2879000Y34267600D02*
X2879000Y33967600D01*
X2879000Y33967600D02*
X3104000Y33967600D01*
X3854000Y35192600D02*
X3004000Y35192600D01*
X3854000Y35092600D02*
X3004000Y35092600D01*
D13*
X52300365Y102560398D02*
X51510846Y102532828D01*
X51270039Y109428624D02*
X52059558Y109456195D01*
X50285243Y107543107D02*
X50344572Y105844142D01*
X53089883Y108891809D02*
X53288810Y103195281D01*
X54475070Y106188505D02*
X53185856Y106143484D01*
X54646553Y107295163D02*
X54677963Y106395712D01*
X53140487Y107442692D02*
X54429701Y107487713D01*
X54475070Y106188505D02*
X54677963Y106395712D01*
X54429701Y107487713D02*
X54646553Y107295163D01*
X50389942Y104544934D02*
X50396921Y104345056D01*
X-14328200Y117842600D02*
X-16868200Y117842600D01*
X-14328200Y117842600D02*
X-14328200Y115302600D01*
X-14578200Y117592600D02*
X-23928200Y117592600D01*
X-14578200Y96732600D02*
X-14578200Y117592600D01*
X-23928200Y96732600D02*
X-14578200Y96732600D01*
X-23928200Y117592600D02*
X-23928200Y96732600D01*
X-31497400Y106807000D02*
G75*
G03X-31497400Y106807000I-700000J0D01*
G01*
X-30659200Y104978200D02*
G75*
G03X-30659200Y104978200I-700000J0D01*
G01*
X-29821000Y106807000D02*
G75*
G03X-29821000Y106807000I-700000J0D01*
G01*
X-29008200Y105003600D02*
G75*
G03X-29008200Y105003600I-700000J0D01*
G01*
X23027700Y42033500D02*
X23477700Y42033500D01*
X23027700Y37563500D02*
X23027700Y42033500D01*
X23477700Y37563500D02*
X23027700Y37563500D01*
X27447700Y42033500D02*
X27447700Y41083500D01*
X26997700Y42033500D02*
X27447700Y42033500D01*
X27447700Y38513500D02*
X28937700Y38513500D01*
X27447700Y37563500D02*
X27447700Y38513500D01*
X26997700Y37563500D02*
X27447700Y37563500D01*
X5390000Y103135000D02*
X5840000Y103135000D01*
X5390000Y98665000D02*
X5390000Y103135000D01*
X5840000Y98665000D02*
X5390000Y98665000D01*
X9810000Y103135000D02*
X9810000Y102185000D01*
X9360000Y103135000D02*
X9810000Y103135000D01*
X9810000Y99615000D02*
X11300000Y99615000D01*
X9810000Y98665000D02*
X9810000Y99615000D01*
X9360000Y98665000D02*
X9810000Y98665000D01*
X-3167976Y96712965D02*
X-2832100Y96377089D01*
X-2832100Y96377089D02*
X-2496224Y96712965D01*
X-2496224Y106251835D02*
X-2832100Y106587711D01*
X-2832100Y106587711D02*
X-3167976Y106251835D01*
X1937335Y101818276D02*
X2273211Y101482400D01*
X2273211Y101482400D02*
X1937335Y101146524D01*
X-7601535Y101146524D02*
X-7937411Y101482400D01*
D16*
X10220000Y134125000D02*
G75*
G03X10220000Y134125000I-120000J0D01*
G01*
D15*
X9000000Y110175000D02*
X9000000Y110025000D01*
X-9000000Y110025000D02*
X-9000000Y110225000D01*
X9000000Y110025000D02*
X-9000000Y110025000D01*
X-9000000Y141425000D02*
X-9000000Y134675000D01*
X9000000Y141425000D02*
X-9000000Y141425000D01*
X9000000Y134675000D02*
X9000000Y141425000D01*
D13*
X14972000Y124674000D02*
X14972000Y126024000D01*
X13222000Y124674000D02*
X13222000Y126024000D01*
D14*
X49250000Y100425000D02*
X49250000Y100150000D01*
X49250000Y100150000D02*
X48975000Y99775000D01*
X48975000Y99775000D02*
X48925000Y99775000D01*
X48925000Y99775000D02*
X48925000Y99000000D01*
X45950000Y100250000D02*
X45950000Y99775000D01*
X45950000Y99775000D02*
X46300000Y99775000D01*
X46175000Y101425000D02*
X46300000Y101425000D01*
X46250000Y101425000D02*
X45950000Y101425000D01*
X45950000Y101425000D02*
X45950000Y100975000D01*
X49250000Y101050000D02*
X49250000Y101425000D01*
X49250000Y101425000D02*
X48950000Y101425000D01*
D13*
X38786057Y124767064D02*
X38856521Y125084905D01*
X39781879Y124546295D02*
X39852343Y124864136D01*
X33510000Y100337221D02*
X33510000Y100662779D01*
X32490000Y100337221D02*
X32490000Y100662779D01*
X32490000Y97337221D02*
X32490000Y97662779D01*
X33510000Y97337221D02*
X33510000Y97662779D01*
X47957200Y103875621D02*
X47957200Y104201179D01*
X46937200Y103875621D02*
X46937200Y104201179D01*
X41708800Y96662021D02*
X41708800Y96987579D01*
X40688800Y96662021D02*
X40688800Y96987579D01*
X24255800Y114746022D02*
X24255800Y115263178D01*
X22835800Y114746022D02*
X22835800Y115263178D01*
X19341422Y108440000D02*
X19858578Y108440000D01*
X19341422Y109860000D02*
X19858578Y109860000D01*
D14*
X33540283Y125200680D02*
X33356310Y124370828D01*
X33442654Y125222324D02*
X33258680Y124392472D01*
X34427588Y124005296D02*
X34476287Y124224963D01*
X34134699Y124070228D02*
X34427588Y124005296D01*
X32914329Y124340778D02*
X32968439Y124584852D01*
X33207218Y124275846D02*
X32914329Y124340778D01*
X34665671Y125079222D02*
X34348375Y125149565D01*
X34665671Y125079222D02*
X34611561Y124835148D01*
X33445301Y125349772D02*
X33152412Y125414704D01*
X33098302Y125170630D02*
X33152412Y125414704D01*
X33345024Y125243968D02*
X33161050Y124414116D01*
X33159968Y124409235D02*
X33355227Y124365947D01*
X33346106Y125248849D02*
X33541365Y125205561D01*
X28969717Y125339320D02*
X29153690Y126169172D01*
X29067346Y125317676D02*
X29251320Y126147528D01*
X28082412Y126534704D02*
X28033713Y126315037D01*
X28375301Y126469772D02*
X28082412Y126534704D01*
X29595671Y126199222D02*
X29541561Y125955148D01*
X29302782Y126264154D02*
X29595671Y126199222D01*
X27844329Y125460778D02*
X28161625Y125390435D01*
X27844329Y125460778D02*
X27898439Y125704852D01*
X29064699Y125190228D02*
X29357588Y125125296D01*
X29411698Y125369370D02*
X29357588Y125125296D01*
X29164976Y125296032D02*
X29348950Y126125884D01*
X29350032Y126130765D02*
X29154773Y126174053D01*
X29163894Y125291151D02*
X28968635Y125334439D01*
X23800000Y96900000D02*
X23800000Y96300000D01*
X29000000Y96900000D02*
X29000000Y96300000D01*
X26400000Y95700000D02*
X26900000Y95700000D01*
X26400000Y95700000D02*
X25900000Y95700000D01*
X26400000Y97500000D02*
X26900000Y97500000D01*
X26400000Y97500000D02*
X25900000Y97500000D01*
X23800000Y101700000D02*
X23800000Y101100000D01*
X29000000Y101700000D02*
X29000000Y101100000D01*
X26400000Y100500000D02*
X26900000Y100500000D01*
X26400000Y100500000D02*
X25900000Y100500000D01*
X26400000Y102300000D02*
X26900000Y102300000D01*
X26400000Y102300000D02*
X25900000Y102300000D01*
D13*
X17700000Y112550000D02*
X17700000Y114550000D01*
X17700000Y114550000D02*
X21550000Y114550000D01*
X17700000Y112550000D02*
X21550000Y112550000D01*
X21600000Y105400000D02*
X21600000Y107400000D01*
X21600000Y107400000D02*
X25450000Y107400000D01*
X21600000Y105400000D02*
X25450000Y105400000D01*
X22400000Y113050000D02*
X22400000Y107950000D01*
X27600000Y113050000D02*
X27600000Y107950000D01*
D14*
X16740521Y118957068D02*
X16546066Y118762614D01*
X16546066Y118762614D02*
X16086447Y118691903D01*
X16086447Y118691903D02*
X16051091Y118727258D01*
X16051091Y118727258D02*
X15503084Y118179251D01*
X14283324Y121166777D02*
X13947449Y120830901D01*
X13947449Y120830901D02*
X14194936Y120583414D01*
X15273274Y121838528D02*
X15361662Y121750140D01*
X15326307Y121785495D02*
X15114175Y121997627D01*
X15114175Y121997627D02*
X14795977Y121679429D01*
X17182462Y119399010D02*
X17447627Y119664175D01*
X17447627Y119664175D02*
X17235495Y119876307D01*
X19542983Y116159530D02*
X19348528Y115965076D01*
X19348528Y115965076D02*
X18888909Y115894365D01*
X18888909Y115894365D02*
X18853553Y115929720D01*
X18853553Y115929720D02*
X18305546Y115381713D01*
X17085786Y118369239D02*
X16749911Y118033363D01*
X16749911Y118033363D02*
X16997398Y117785876D01*
X18075736Y119040990D02*
X18164124Y118952602D01*
X18128769Y118987957D02*
X17916637Y119200089D01*
X17916637Y119200089D02*
X17598439Y118881891D01*
X19984924Y116601472D02*
X20250089Y116866637D01*
X20250089Y116866637D02*
X20037957Y117078769D01*
X40050000Y99775000D02*
X40350000Y99775000D01*
X40050000Y100150000D02*
X40050000Y99775000D01*
X43350000Y99775000D02*
X43350000Y100225000D01*
X43050000Y99775000D02*
X43350000Y99775000D01*
X43125000Y99775000D02*
X43000000Y99775000D01*
X43350000Y101425000D02*
X43000000Y101425000D01*
X43350000Y100950000D02*
X43350000Y101425000D01*
X40375000Y101425000D02*
X40375000Y102200000D01*
X40325000Y101425000D02*
X40375000Y101425000D01*
X40050000Y101050000D02*
X40325000Y101425000D01*
X40050000Y100775000D02*
X40050000Y101050000D01*
D13*
X27920000Y108760000D02*
X28850000Y108760000D01*
X31080000Y108760000D02*
X30150000Y108760000D01*
X31080000Y108760000D02*
X31080000Y106600000D01*
X27920000Y108760000D02*
X27920000Y107300000D01*
D14*
X37250000Y97425000D02*
X37250000Y97800000D01*
X36925000Y97100000D02*
X36925000Y96575000D01*
X37025000Y97100000D02*
X36925000Y97100000D01*
X37250000Y97425000D02*
X37025000Y97100000D01*
X33950000Y99100000D02*
X33950000Y98775000D01*
X34250000Y99100000D02*
X33950000Y99100000D01*
X33950000Y97100000D02*
X33950000Y97400000D01*
X34275000Y97100000D02*
X33950000Y97100000D01*
X37250000Y99100000D02*
X37250000Y98800000D01*
X36925000Y99100000D02*
X37250000Y99100000D01*
X49475000Y92325000D02*
X49475000Y92625000D01*
X49100000Y92325000D02*
X49475000Y92325000D01*
X42925000Y92325000D02*
X42925000Y92725000D01*
X43425000Y92325000D02*
X42925000Y92325000D01*
X49475000Y95875000D02*
X49025000Y95875000D01*
X49475000Y95400000D02*
X49475000Y95875000D01*
X43225000Y95875000D02*
X43225000Y96070000D01*
X42925000Y95550000D02*
X43225000Y95875000D01*
X42925000Y95075000D02*
X42925000Y95550000D01*
X23800000Y99300000D02*
X23800000Y98700000D01*
X29000000Y99300000D02*
X29000000Y98700000D01*
X26400000Y98100000D02*
X26900000Y98100000D01*
X26400000Y98100000D02*
X25900000Y98100000D01*
X26400000Y99900000D02*
X26900000Y99900000D01*
X26400000Y99900000D02*
X25900000Y99900000D01*
X20696070Y123013783D02*
X20890524Y122819328D01*
X20890524Y122819328D02*
X20961235Y122359709D01*
X20961235Y122359709D02*
X20925880Y122324353D01*
X20925880Y122324353D02*
X21473887Y121776346D01*
X18486361Y120556586D02*
X18822237Y120220711D01*
X18822237Y120220711D02*
X19069724Y120468198D01*
X17814610Y121546536D02*
X17902998Y121634924D01*
X17867643Y121599569D02*
X17655511Y121387437D01*
X17655511Y121387437D02*
X17973709Y121069239D01*
X20254128Y123455724D02*
X19988963Y123720889D01*
X19988963Y123720889D02*
X19776831Y123508757D01*
X31499717Y124779320D02*
X31683690Y125609172D01*
X31597346Y124757676D02*
X31781320Y125587528D01*
X30612412Y125974704D02*
X30563713Y125755037D01*
X30905301Y125909772D02*
X30612412Y125974704D01*
X32125671Y125639222D02*
X32071561Y125395148D01*
X31832782Y125704154D02*
X32125671Y125639222D01*
X30374329Y124900778D02*
X30691625Y124830435D01*
X30374329Y124900778D02*
X30428439Y125144852D01*
X31594699Y124630228D02*
X31887588Y124565296D01*
X31941698Y124809370D02*
X31887588Y124565296D01*
X31694976Y124736032D02*
X31878950Y125565884D01*
X31880032Y125570765D02*
X31684773Y125614053D01*
X31693894Y124731151D02*
X31498635Y124774439D01*
D13*
X13358400Y131622779D02*
X13358400Y131297221D01*
X14378400Y131622779D02*
X14378400Y131297221D01*
X-35762281Y100349255D02*
X-35767963Y100023747D01*
X-34742437Y100331453D02*
X-34748119Y100005945D01*
X-6292327Y108297122D02*
X-6062122Y108527327D01*
X-5571078Y107575873D02*
X-5340873Y107806078D01*
X-8271922Y106292127D02*
X-8502127Y106061922D01*
X-7550673Y105570878D02*
X-7780878Y105340673D01*
X45819600Y75448379D02*
X45819600Y75122821D01*
X46839600Y75448379D02*
X46839600Y75122821D01*
X48727579Y75074011D02*
X48402021Y75074011D01*
X48727579Y76094011D02*
X48402021Y76094011D01*
X44257179Y75099311D02*
X43931621Y75099311D01*
X44257179Y76119311D02*
X43931621Y76119311D01*
X46226000Y86546432D02*
X46226000Y86871990D01*
X47246000Y86546432D02*
X47246000Y86871990D01*
X16575821Y29131800D02*
X16901379Y29131800D01*
X16575821Y30151800D02*
X16901379Y30151800D01*
X19898579Y29131800D02*
X19573021Y29131800D01*
X19898579Y30151800D02*
X19573021Y30151800D01*
D14*
X-2038800Y35092600D02*
X-2888800Y35092600D01*
X-2038800Y35192600D02*
X-2888800Y35192600D01*
X-3013800Y33967600D02*
X-2788800Y33967600D01*
X-3013800Y34267600D02*
X-3013800Y33967600D01*
X-3013800Y35517600D02*
X-2763800Y35517600D01*
X-3013800Y35217600D02*
X-3013800Y35517600D01*
X-1913800Y33967600D02*
X-1913800Y34292600D01*
X-1913800Y33967600D02*
X-2163800Y33967600D01*
X-1913800Y35217600D02*
X-1913800Y35517600D01*
X-2163800Y35517601D02*
X-1913800Y35517600D01*
X-2038800Y35292600D02*
X-2888800Y35292600D01*
X-2893800Y35292600D02*
X-2893800Y35092600D01*
X-2033800Y35292600D02*
X-2033800Y35092600D01*
X-560600Y35292600D02*
X-560600Y35092600D01*
X-1420600Y35292600D02*
X-1420600Y35092600D01*
X-565600Y35292600D02*
X-1415600Y35292600D01*
X-690600Y35517601D02*
X-440600Y35517600D01*
X-440600Y35217600D02*
X-440600Y35517600D01*
X-440600Y33967600D02*
X-690600Y33967600D01*
X-440600Y33967600D02*
X-440600Y34292600D01*
X-1540600Y35217600D02*
X-1540600Y35517600D01*
X-1540600Y35517600D02*
X-1290600Y35517600D01*
X-1540600Y34267600D02*
X-1540600Y33967600D01*
X-1540600Y33967600D02*
X-1315600Y33967600D01*
X-565600Y35192600D02*
X-1415600Y35192600D01*
X-565600Y35092600D02*
X-1415600Y35092600D01*
X907600Y35092600D02*
X57600Y35092600D01*
X907600Y35192600D02*
X57600Y35192600D01*
X-67400Y33967600D02*
X157600Y33967600D01*
X-67400Y34267600D02*
X-67400Y33967600D01*
X-67400Y35517600D02*
X182600Y35517600D01*
X-67400Y35217600D02*
X-67400Y35517600D01*
X1032600Y33967600D02*
X1032600Y34292600D01*
X1032600Y33967600D02*
X782600Y33967600D01*
X1032600Y35217600D02*
X1032600Y35517600D01*
X782600Y35517601D02*
X1032600Y35517600D01*
X907600Y35292600D02*
X57600Y35292600D01*
X52600Y35292600D02*
X52600Y35092600D01*
X912600Y35292600D02*
X912600Y35092600D01*
X47320394Y116603320D02*
X47187424Y115763785D01*
X47221625Y116618963D02*
X47088656Y115779428D01*
X48279020Y115464335D02*
X48314217Y115686565D01*
X47982713Y115511265D02*
X48279020Y115464335D01*
X46748103Y115706808D02*
X46787211Y115953730D01*
X47044409Y115659878D02*
X46748103Y115706808D01*
X48451097Y116550792D02*
X48130099Y116601633D01*
X48451097Y116550792D02*
X48411989Y116303870D01*
X47216487Y116746335D02*
X46920180Y116793265D01*
X46881071Y116546343D02*
X46920180Y116793265D01*
X47122856Y116634607D02*
X46989887Y115795071D01*
X46989105Y115790133D02*
X47186642Y115758846D01*
X47123638Y116639545D02*
X47321176Y116608258D01*
X46869638Y115115545D02*
X47067176Y115084258D01*
X46735105Y114266133D02*
X46932642Y114234846D01*
X46868856Y115110607D02*
X46735887Y114271071D01*
X46627071Y115022343D02*
X46666180Y115269265D01*
X46962487Y115222335D02*
X46666180Y115269265D01*
X48197097Y115026792D02*
X48157989Y114779870D01*
X48197097Y115026792D02*
X47876099Y115077633D01*
X46790409Y114135878D02*
X46494103Y114182808D01*
X46494103Y114182808D02*
X46533211Y114429730D01*
X47728713Y113987265D02*
X48025020Y113940335D01*
X48025020Y113940335D02*
X48060217Y114162565D01*
X46967625Y115094963D02*
X46834656Y114255428D01*
X47066394Y115079320D02*
X46933424Y114239785D01*
X-50786991Y117779803D02*
X-50755633Y118078159D01*
X-51159937Y117819001D02*
X-50786991Y117779803D01*
X-50442047Y121061725D02*
X-50889582Y121108763D01*
X-50473406Y120763369D02*
X-50442047Y121061725D01*
X-50465566Y120837958D02*
X-50478632Y120713642D01*
X-52083009Y121234197D02*
X-52119594Y120886114D01*
X-51610611Y121184546D02*
X-52083009Y121234197D01*
X-52393981Y118275494D02*
X-53164735Y118356504D01*
X-52399207Y118225768D02*
X-52393981Y118275494D01*
X-52055007Y117913077D02*
X-52399207Y118225768D01*
X-51781513Y117884331D02*
X-52055007Y117913077D01*
D13*
X-9739400Y43307000D02*
G75*
G03X-9739400Y43307000I-700000J0D01*
G01*
X-11873000Y43332400D02*
G75*
G03X-11873000Y43332400I-700000J0D01*
G01*
D17*
X-27004000Y113907200D02*
X-27004000Y109257200D01*
X-35104000Y114982200D02*
X-35104000Y109257200D01*
X-27004000Y113907200D02*
X-27029000Y113907200D01*
X-27004000Y109257200D02*
X-27029000Y109257200D01*
X-35054000Y109257200D02*
X-35029000Y109257200D01*
X49779600Y77022000D02*
X49779600Y82997000D01*
X42879600Y78547000D02*
X42879600Y82997000D01*
D13*
X-12795400Y34468800D02*
X-12795400Y33993800D01*
X-12795400Y33993800D02*
X-12320400Y33993800D01*
X-7575400Y38738800D02*
X-7575400Y39213800D01*
X-7575400Y39213800D02*
X-8050400Y39213800D01*
X-7575400Y34468800D02*
X-7575400Y33993800D01*
X-7575400Y33993800D02*
X-8050400Y33993800D01*
X-12795400Y38738800D02*
X-12795400Y39213800D01*
X18211800Y33791800D02*
X19711800Y33791800D01*
X18211800Y33791800D02*
X16711800Y33791800D01*
X18211800Y30571800D02*
X19711800Y30571800D01*
X18211800Y30571800D02*
X15286800Y30571800D01*
X-17677400Y39379000D02*
X-17677400Y43379000D01*
X-14377400Y39379000D02*
X-17677400Y39379000D01*
X49592891Y129247827D02*
X49905759Y131223204D01*
X44654449Y130029999D02*
X44967318Y132005376D01*
X44967318Y132005376D02*
X49905759Y131223204D01*
X49592891Y129247827D02*
X50185504Y129153966D01*
X44061836Y130123860D02*
X44654449Y130029999D01*
X48292647Y117202937D02*
X42168979Y118172831D01*
X44061836Y130123860D02*
X43690304Y127778100D01*
X43432187Y126148414D02*
X43221001Y124815035D01*
X42962884Y123185349D02*
X42587441Y120814897D01*
X42344968Y119283980D02*
X42168979Y118172831D01*
X48539031Y118758547D02*
X50185504Y129153966D01*
X42344968Y119283980D02*
X40962204Y119502989D01*
X42587441Y120814897D02*
X41204677Y121033906D01*
X19437221Y107760000D02*
X19762779Y107760000D01*
X19437221Y106740000D02*
X19762779Y106740000D01*
X29479021Y109998800D02*
X29804579Y109998800D01*
X29479021Y111018800D02*
X29804579Y111018800D01*
X29479021Y112568200D02*
X29804579Y112568200D01*
X29479021Y111548200D02*
X29804579Y111548200D01*
X29479021Y113554800D02*
X29804579Y113554800D01*
X29479021Y114574800D02*
X29804579Y114574800D01*
X26197779Y113554800D02*
X25872221Y113554800D01*
X26197779Y114574800D02*
X25872221Y114574800D01*
X26188779Y115636400D02*
X25863221Y115636400D01*
X26188779Y116656400D02*
X25863221Y116656400D01*
X29470021Y116656400D02*
X29795579Y116656400D01*
X29470021Y115636400D02*
X29795579Y115636400D01*
X26188779Y118156600D02*
X25863221Y118156600D01*
X26188779Y117136600D02*
X25863221Y117136600D01*
X23175179Y116958400D02*
X22849621Y116958400D01*
X23175179Y117978400D02*
X22849621Y117978400D01*
X29470021Y117136600D02*
X29795579Y117136600D01*
X29470021Y118156600D02*
X29795579Y118156600D01*
M02*
